{
	"asset":{
		"generator":"Khronos glTF Blender I/O v4.4.56",
		"version":"2.0"
	},
	"scene":0,
	"scenes":[
		{
			"name":"Scene",
			"nodes":[
				1,
				3
			]
		}
	],
	"nodes":[
		{
			"mesh":0,
			"name":"collision_scrappile-colonly"
		},
		{
			"children":[
				0
			],
			"name":"col_scrappile-colonly"
		},
		{
			"mesh":1,
			"name":"sm_collectibles_scrappile-mesh",
			"rotation":[
				-0.3731951117515564,
				0.28211915493011475,
				-0.6993319988250732,
				0.5404340624809265
			],
			"scale":[
				0.5965688228607178,
				0.8588624000549316,
				0.7280642986297607
			]
		},
		{
			"children":[
				2
			],
			"name":"mesh_scrappile-mesh"
		}
	],
	"materials":[
		{
			"doubleSided":true,
			"name":"M_Collision",
			"pbrMetallicRoughness":{
				"baseColorFactor":[
					0.8000937700271606,
					0.044693827629089355,
					0,
					1
				],
				"metallicFactor":0,
				"roughnessFactor":0.5
			}
		},
		{
			"doubleSided":true,
			"name":"Cube_001.001_Outer_mat",
			"normalTexture":{
				"index":0
			},
			"pbrMetallicRoughness":{
				"baseColorTexture":{
					"index":1
				},
				"metallicFactor":0,
				"roughnessFactor":0.5
			}
		},
		{
			"doubleSided":true,
			"name":"Cube_001.001_Inner_mat",
			"normalTexture":{
				"index":2
			},
			"pbrMetallicRoughness":{
				"baseColorTexture":{
					"index":3
				},
				"metallicFactor":0,
				"roughnessFactor":0.5
			}
		},
		{
			"doubleSided":true,
			"name":"t_scrap_small",
			"normalTexture":{
				"index":4
			},
			"pbrMetallicRoughness":{
				"baseColorTexture":{
					"index":5
				},
				"metallicFactor":0,
				"roughnessFactor":0.5
			}
		},
		{
			"doubleSided":true,
			"name":"t_scrap_sma_detail",
			"normalTexture":{
				"index":6
			},
			"pbrMetallicRoughness":{
				"baseColorTexture":{
					"index":7
				},
				"metallicFactor":0,
				"roughnessFactor":0.5
			}
		},
		{
			"doubleSided":true,
			"name":"t_woodplank",
			"normalTexture":{
				"index":8
			},
			"pbrMetallicRoughness":{
				"baseColorTexture":{
					"index":9
				},
				"metallicFactor":0,
				"roughnessFactor":0.5
			}
		},
		{
			"doubleSided":true,
			"name":"t_pippes",
			"normalTexture":{
				"index":10
			},
			"pbrMetallicRoughness":{
				"baseColorTexture":{
					"index":11
				},
				"metallicFactor":0,
				"roughnessFactor":0.5
			}
		},
		{
			"doubleSided":true,
			"name":"t_woodplanks",
			"normalTexture":{
				"index":12
			},
			"pbrMetallicRoughness":{
				"baseColorTexture":{
					"index":13
				},
				"metallicFactor":0,
				"roughnessFactor":0.5
			}
		},
		{
			"doubleSided":true,
			"name":"t_scarpmetal",
			"normalTexture":{
				"index":14
			},
			"pbrMetallicRoughness":{
				"baseColorTexture":{
					"index":15
				},
				"metallicFactor":0,
				"roughnessFactor":0.5
			}
		},
		{
			"doubleSided":true,
			"name":"t_fan",
			"normalTexture":{
				"index":16
			},
			"pbrMetallicRoughness":{
				"baseColorTexture":{
					"index":17
				},
				"metallicFactor":0,
				"roughnessFactor":0.5
			}
		},
		{
			"doubleSided":true,
			"name":"t_window",
			"normalTexture":{
				"index":18
			},
			"pbrMetallicRoughness":{
				"baseColorTexture":{
					"index":19
				},
				"metallicFactor":0,
				"roughnessFactor":0.5
			}
		},
		{
			"doubleSided":true,
			"name":"t_wires",
			"normalTexture":{
				"index":20
			},
			"pbrMetallicRoughness":{
				"baseColorTexture":{
					"index":21
				},
				"metallicFactor":0,
				"roughnessFactor":0.5
			}
		}
	],
	"meshes":[
		{
			"name":"Cube.009",
			"primitives":[
				{
					"attributes":{
						"POSITION":0,
						"NORMAL":1,
						"TEXCOORD_0":2
					},
					"indices":3,
					"material":0
				}
			]
		},
		{
			"name":"Cube_001.001_cell",
			"primitives":[
				{
					"attributes":{
						"POSITION":4,
						"NORMAL":5,
						"TEXCOORD_0":6
					},
					"indices":7,
					"material":1
				},
				{
					"attributes":{
						"POSITION":8,
						"NORMAL":9,
						"TEXCOORD_0":10
					},
					"indices":11,
					"material":2
				},
				{
					"attributes":{
						"POSITION":12,
						"NORMAL":13,
						"TEXCOORD_0":14
					},
					"indices":15,
					"material":3
				},
				{
					"attributes":{
						"POSITION":16,
						"NORMAL":17,
						"TEXCOORD_0":18
					},
					"indices":19,
					"material":4
				},
				{
					"attributes":{
						"POSITION":20,
						"NORMAL":21,
						"TEXCOORD_0":22
					},
					"indices":23,
					"material":5
				},
				{
					"attributes":{
						"POSITION":24,
						"NORMAL":25,
						"TEXCOORD_0":26
					},
					"indices":27,
					"material":6
				},
				{
					"attributes":{
						"POSITION":28,
						"NORMAL":29,
						"TEXCOORD_0":30
					},
					"indices":31,
					"material":7
				},
				{
					"attributes":{
						"POSITION":32,
						"NORMAL":33,
						"TEXCOORD_0":34
					},
					"indices":35,
					"material":8
				},
				{
					"attributes":{
						"POSITION":36,
						"NORMAL":37,
						"TEXCOORD_0":38
					},
					"indices":39,
					"material":9
				},
				{
					"attributes":{
						"POSITION":40,
						"NORMAL":41,
						"TEXCOORD_0":42
					},
					"indices":43,
					"material":10
				},
				{
					"attributes":{
						"POSITION":44,
						"NORMAL":45,
						"TEXCOORD_0":46
					},
					"indices":47,
					"material":11
				}
			]
		}
	],
	"textures":[
		{
			"sampler":0,
			"source":0
		},
		{
			"sampler":0,
			"source":1
		},
		{
			"sampler":0,
			"source":0
		},
		{
			"sampler":0,
			"source":1
		},
		{
			"sampler":0,
			"source":0
		},
		{
			"sampler":0,
			"source":1
		},
		{
			"sampler":0,
			"source":0
		},
		{
			"sampler":0,
			"source":1
		},
		{
			"sampler":0,
			"source":0
		},
		{
			"sampler":0,
			"source":1
		},
		{
			"sampler":0,
			"source":0
		},
		{
			"sampler":0,
			"source":1
		},
		{
			"sampler":0,
			"source":0
		},
		{
			"sampler":0,
			"source":1
		},
		{
			"sampler":0,
			"source":0
		},
		{
			"sampler":0,
			"source":1
		},
		{
			"sampler":0,
			"source":0
		},
		{
			"sampler":0,
			"source":1
		},
		{
			"sampler":0,
			"source":0
		},
		{
			"sampler":0,
			"source":1
		},
		{
			"sampler":0,
			"source":0
		},
		{
			"sampler":0,
			"source":1
		}
	],
	"images":[
		{
			"mimeType":"image/png",
			"name":"t_scrap_Normal_DirectX",
			"uri":"t_scrap_Normal_DirectX.png"
		},
		{
			"mimeType":"image/png",
			"name":"t_scrap_Base_Color",
			"uri":"t_scrap_Base_Color.png"
		}
	],
	"accessors":[
		{
			"bufferView":0,
			"componentType":5126,
			"count":24,
			"max":[
				0.5471677184104919,
				0.15547899901866913,
				0.49505364894866943
			],
			"min":[
				-0.5471677184104919,
				-0.05635511875152588,
				-0.49505364894866943
			],
			"type":"VEC3"
		},
		{
			"bufferView":1,
			"componentType":5126,
			"count":24,
			"type":"VEC3"
		},
		{
			"bufferView":2,
			"componentType":5126,
			"count":24,
			"type":"VEC2"
		},
		{
			"bufferView":3,
			"componentType":5123,
			"count":36,
			"type":"SCALAR"
		},
		{
			"bufferView":4,
			"componentType":5126,
			"count":1757,
			"max":[
				0.1556743085384369,
				0.7377212047576904,
				0.5763410329818726
			],
			"min":[
				-0.2299286425113678,
				-0.5958384275436401,
				-0.48226064443588257
			],
			"type":"VEC3"
		},
		{
			"bufferView":5,
			"componentType":5126,
			"count":1757,
			"type":"VEC3"
		},
		{
			"bufferView":6,
			"componentType":5126,
			"count":1757,
			"type":"VEC2"
		},
		{
			"bufferView":7,
			"componentType":5123,
			"count":4491,
			"type":"SCALAR"
		},
		{
			"bufferView":8,
			"componentType":5126,
			"count":5707,
			"max":[
				0.1556743085384369,
				0.7377212047576904,
				0.5763410329818726
			],
			"min":[
				-0.2451552152633667,
				-0.5958384275436401,
				-0.48226064443588257
			],
			"type":"VEC3"
		},
		{
			"bufferView":9,
			"componentType":5126,
			"count":5707,
			"type":"VEC3"
		},
		{
			"bufferView":10,
			"componentType":5126,
			"count":5707,
			"type":"VEC2"
		},
		{
			"bufferView":11,
			"componentType":5123,
			"count":7539,
			"type":"SCALAR"
		},
		{
			"bufferView":12,
			"componentType":5126,
			"count":3688,
			"max":[
				0.21648238599300385,
				0.5332604646682739,
				0.678523600101471
			],
			"min":[
				-0.1449062079191208,
				-0.5988445281982422,
				-0.7026891708374023
			],
			"type":"VEC3"
		},
		{
			"bufferView":13,
			"componentType":5126,
			"count":3688,
			"type":"VEC3"
		},
		{
			"bufferView":14,
			"componentType":5126,
			"count":3688,
			"type":"VEC2"
		},
		{
			"bufferView":15,
			"componentType":5123,
			"count":9522,
			"type":"SCALAR"
		},
		{
			"bufferView":16,
			"componentType":5126,
			"count":12620,
			"max":[
				0.21648238599300385,
				0.5525591373443604,
				0.678523600101471
			],
			"min":[
				-0.1449062079191208,
				-0.5988445281982422,
				-0.7026891708374023
			],
			"type":"VEC3"
		},
		{
			"bufferView":17,
			"componentType":5126,
			"count":12620,
			"type":"VEC3"
		},
		{
			"bufferView":18,
			"componentType":5126,
			"count":12620,
			"type":"VEC2"
		},
		{
			"bufferView":19,
			"componentType":5123,
			"count":16674,
			"type":"SCALAR"
		},
		{
			"bufferView":20,
			"componentType":5126,
			"count":370,
			"max":[
				0.14046235382556915,
				0.43346792459487915,
				0.5591296553611755
			],
			"min":[
				-0.2851327657699585,
				-0.5152730941772461,
				-0.49624043703079224
			],
			"type":"VEC3"
		},
		{
			"bufferView":21,
			"componentType":5126,
			"count":370,
			"type":"VEC3"
		},
		{
			"bufferView":22,
			"componentType":5126,
			"count":370,
			"type":"VEC2"
		},
		{
			"bufferView":23,
			"componentType":5123,
			"count":636,
			"type":"SCALAR"
		},
		{
			"bufferView":24,
			"componentType":5126,
			"count":450,
			"max":[
				0.1341530680656433,
				0.20585203170776367,
				-0.11405596137046814
			],
			"min":[
				-0.09629181772470474,
				-0.25155144929885864,
				-0.7009295225143433
			],
			"type":"VEC3"
		},
		{
			"bufferView":25,
			"componentType":5126,
			"count":450,
			"type":"VEC3"
		},
		{
			"bufferView":26,
			"componentType":5126,
			"count":450,
			"type":"VEC2"
		},
		{
			"bufferView":27,
			"componentType":5123,
			"count":1068,
			"type":"SCALAR"
		},
		{
			"bufferView":28,
			"componentType":5126,
			"count":324,
			"max":[
				0.11769579350948334,
				0.1873854100704193,
				0.8575806021690369
			],
			"min":[
				-0.09573408961296082,
				-0.1884934902191162,
				0.35901713371276855
			],
			"type":"VEC3"
		},
		{
			"bufferView":29,
			"componentType":5126,
			"count":324,
			"type":"VEC3"
		},
		{
			"bufferView":30,
			"componentType":5126,
			"count":324,
			"type":"VEC2"
		},
		{
			"bufferView":31,
			"componentType":5123,
			"count":564,
			"type":"SCALAR"
		},
		{
			"bufferView":32,
			"componentType":5126,
			"count":207,
			"max":[
				0.03228689730167389,
				0.19730669260025024,
				0.4597460627555847
			],
			"min":[
				-0.0680476576089859,
				0.04624325409531593,
				0.2823488116264343
			],
			"type":"VEC3"
		},
		{
			"bufferView":33,
			"componentType":5126,
			"count":207,
			"type":"VEC3"
		},
		{
			"bufferView":34,
			"componentType":5126,
			"count":207,
			"type":"VEC2"
		},
		{
			"bufferView":35,
			"componentType":5123,
			"count":648,
			"type":"SCALAR"
		},
		{
			"bufferView":36,
			"componentType":5126,
			"count":486,
			"max":[
				-0.10817095637321472,
				0.41951972246170044,
				0.17635078728199005
			],
			"min":[
				-0.2449689507484436,
				0.32344192266464233,
				0.04929909110069275
			],
			"type":"VEC3"
		},
		{
			"bufferView":37,
			"componentType":5126,
			"count":486,
			"type":"VEC3"
		},
		{
			"bufferView":38,
			"componentType":5126,
			"count":486,
			"type":"VEC2"
		},
		{
			"bufferView":39,
			"componentType":5123,
			"count":1440,
			"type":"SCALAR"
		},
		{
			"bufferView":40,
			"componentType":5126,
			"count":387,
			"max":[
				-0.11906549334526062,
				0.664786696434021,
				0.10758797824382782
			],
			"min":[
				-0.23086883127689362,
				0.44634780287742615,
				-0.20615315437316895
			],
			"type":"VEC3"
		},
		{
			"bufferView":41,
			"componentType":5126,
			"count":387,
			"type":"VEC3"
		},
		{
			"bufferView":42,
			"componentType":5126,
			"count":387,
			"type":"VEC2"
		},
		{
			"bufferView":43,
			"componentType":5123,
			"count":648,
			"type":"SCALAR"
		},
		{
			"bufferView":44,
			"componentType":5126,
			"count":442,
			"max":[
				0.17069607973098755,
				0.46103817224502563,
				0.5508578419685364
			],
			"min":[
				-0.19951151311397552,
				-0.3794691562652588,
				0.016977474093437195
			],
			"type":"VEC3"
		},
		{
			"bufferView":45,
			"componentType":5126,
			"count":442,
			"type":"VEC3"
		},
		{
			"bufferView":46,
			"componentType":5126,
			"count":442,
			"type":"VEC2"
		},
		{
			"bufferView":47,
			"componentType":5123,
			"count":2304,
			"type":"SCALAR"
		}
	],
	"bufferViews":[
		{
			"buffer":0,
			"byteLength":288,
			"byteOffset":0,
			"target":34962
		},
		{
			"buffer":0,
			"byteLength":288,
			"byteOffset":288,
			"target":34962
		},
		{
			"buffer":0,
			"byteLength":192,
			"byteOffset":576,
			"target":34962
		},
		{
			"buffer":0,
			"byteLength":72,
			"byteOffset":768,
			"target":34963
		},
		{
			"buffer":0,
			"byteLength":21084,
			"byteOffset":840,
			"target":34962
		},
		{
			"buffer":0,
			"byteLength":21084,
			"byteOffset":21924,
			"target":34962
		},
		{
			"buffer":0,
			"byteLength":14056,
			"byteOffset":43008,
			"target":34962
		},
		{
			"buffer":0,
			"byteLength":8982,
			"byteOffset":57064,
			"target":34963
		},
		{
			"buffer":0,
			"byteLength":68484,
			"byteOffset":66048,
			"target":34962
		},
		{
			"buffer":0,
			"byteLength":68484,
			"byteOffset":134532,
			"target":34962
		},
		{
			"buffer":0,
			"byteLength":45656,
			"byteOffset":203016,
			"target":34962
		},
		{
			"buffer":0,
			"byteLength":15078,
			"byteOffset":248672,
			"target":34963
		},
		{
			"buffer":0,
			"byteLength":44256,
			"byteOffset":263752,
			"target":34962
		},
		{
			"buffer":0,
			"byteLength":44256,
			"byteOffset":308008,
			"target":34962
		},
		{
			"buffer":0,
			"byteLength":29504,
			"byteOffset":352264,
			"target":34962
		},
		{
			"buffer":0,
			"byteLength":19044,
			"byteOffset":381768,
			"target":34963
		},
		{
			"buffer":0,
			"byteLength":151440,
			"byteOffset":400812,
			"target":34962
		},
		{
			"buffer":0,
			"byteLength":151440,
			"byteOffset":552252,
			"target":34962
		},
		{
			"buffer":0,
			"byteLength":100960,
			"byteOffset":703692,
			"target":34962
		},
		{
			"buffer":0,
			"byteLength":33348,
			"byteOffset":804652,
			"target":34963
		},
		{
			"buffer":0,
			"byteLength":4440,
			"byteOffset":838000,
			"target":34962
		},
		{
			"buffer":0,
			"byteLength":4440,
			"byteOffset":842440,
			"target":34962
		},
		{
			"buffer":0,
			"byteLength":2960,
			"byteOffset":846880,
			"target":34962
		},
		{
			"buffer":0,
			"byteLength":1272,
			"byteOffset":849840,
			"target":34963
		},
		{
			"buffer":0,
			"byteLength":5400,
			"byteOffset":851112,
			"target":34962
		},
		{
			"buffer":0,
			"byteLength":5400,
			"byteOffset":856512,
			"target":34962
		},
		{
			"buffer":0,
			"byteLength":3600,
			"byteOffset":861912,
			"target":34962
		},
		{
			"buffer":0,
			"byteLength":2136,
			"byteOffset":865512,
			"target":34963
		},
		{
			"buffer":0,
			"byteLength":3888,
			"byteOffset":867648,
			"target":34962
		},
		{
			"buffer":0,
			"byteLength":3888,
			"byteOffset":871536,
			"target":34962
		},
		{
			"buffer":0,
			"byteLength":2592,
			"byteOffset":875424,
			"target":34962
		},
		{
			"buffer":0,
			"byteLength":1128,
			"byteOffset":878016,
			"target":34963
		},
		{
			"buffer":0,
			"byteLength":2484,
			"byteOffset":879144,
			"target":34962
		},
		{
			"buffer":0,
			"byteLength":2484,
			"byteOffset":881628,
			"target":34962
		},
		{
			"buffer":0,
			"byteLength":1656,
			"byteOffset":884112,
			"target":34962
		},
		{
			"buffer":0,
			"byteLength":1296,
			"byteOffset":885768,
			"target":34963
		},
		{
			"buffer":0,
			"byteLength":5832,
			"byteOffset":887064,
			"target":34962
		},
		{
			"buffer":0,
			"byteLength":5832,
			"byteOffset":892896,
			"target":34962
		},
		{
			"buffer":0,
			"byteLength":3888,
			"byteOffset":898728,
			"target":34962
		},
		{
			"buffer":0,
			"byteLength":2880,
			"byteOffset":902616,
			"target":34963
		},
		{
			"buffer":0,
			"byteLength":4644,
			"byteOffset":905496,
			"target":34962
		},
		{
			"buffer":0,
			"byteLength":4644,
			"byteOffset":910140,
			"target":34962
		},
		{
			"buffer":0,
			"byteLength":3096,
			"byteOffset":914784,
			"target":34962
		},
		{
			"buffer":0,
			"byteLength":1296,
			"byteOffset":917880,
			"target":34963
		},
		{
			"buffer":0,
			"byteLength":5304,
			"byteOffset":919176,
			"target":34962
		},
		{
			"buffer":0,
			"byteLength":5304,
			"byteOffset":924480,
			"target":34962
		},
		{
			"buffer":0,
			"byteLength":3536,
			"byteOffset":929784,
			"target":34962
		},
		{
			"buffer":0,
			"byteLength":4608,
			"byteOffset":933320,
			"target":34963
		}
	],
	"samplers":[
		{
			"magFilter":9729,
			"minFilter":9987
		}
	],
	"buffers":[
		{
			"byteLength":937928,
			"uri":"sm_collectibles_scrappile.bin"
		}
	]
}
