{"asset":{"version":"2.0","generator":"babylon.js glTF exporter for Autodesk MAYA 2022.5.1 v20250428.5"},"scene":0,"scenes":[{"nodes":[0]}],"nodes":[{"children":[1,2,3,4,5,6,7,8,9,10,11,12],"name":"foodstand_grp"},{"mesh":0,"name":"sm_foodstand_bin1"},{"mesh":1,"name":"sm_foodstand_bin10"},{"mesh":2,"name":"sm_foodstand_bin2"},{"mesh":3,"name":"sm_foodstand_bin3"},{"mesh":4,"name":"sm_foodstand_bin11"},{"mesh":5,"name":"sm_foodstand_bin7"},{"mesh":6,"name":"sm_foodstand_bin5"},{"mesh":7,"name":"sm_foodstand_bin4"},{"mesh":8,"name":"sm_foodstand_bin6"},{"mesh":9,"name":"sm_foodstand_bin9"},{"mesh":10,"name":"sm_foodstand_bin8"},{"mesh":11,"name":"sm_foodstand_frame"}],"meshes":[{"primitives":[{"attributes":{"POSITION":1,"TANGENT":2,"NORMAL":3,"TEXCOORD_0":4},"indices":0,"material":0}],"name":"sm_foodstand_bin1"},{"primitives":[{"attributes":{"POSITION":6,"TANGENT":7,"NORMAL":8,"TEXCOORD_0":9},"indices":5,"material":0}],"name":"sm_foodstand_bin10"},{"primitives":[{"attributes":{"POSITION":11,"TANGENT":12,"NORMAL":13,"TEXCOORD_0":14},"indices":10,"material":0}],"name":"sm_foodstand_bin2"},{"primitives":[{"attributes":{"POSITION":16,"TANGENT":17,"NORMAL":18,"TEXCOORD_0":19},"indices":15,"material":0}],"name":"sm_foodstand_bin3"},{"primitives":[{"attributes":{"POSITION":21,"TANGENT":22,"NORMAL":23,"TEXCOORD_0":24},"indices":20,"material":0}],"name":"sm_foodstand_bin11"},{"primitives":[{"attributes":{"POSITION":26,"TANGENT":27,"NORMAL":28,"TEXCOORD_0":29},"indices":25,"material":0}],"name":"sm_foodstand_bin7"},{"primitives":[{"attributes":{"POSITION":31,"TANGENT":32,"NORMAL":33,"TEXCOORD_0":34},"indices":30,"material":0}],"name":"sm_foodstand_bin5"},{"primitives":[{"attributes":{"POSITION":36,"TANGENT":37,"NORMAL":38,"TEXCOORD_0":39},"indices":35,"material":0}],"name":"sm_foodstand_bin4"},{"primitives":[{"attributes":{"POSITION":41,"TANGENT":42,"NORMAL":43,"TEXCOORD_0":44},"indices":40,"material":0}],"name":"sm_foodstand_bin6"},{"primitives":[{"attributes":{"POSITION":46,"TANGENT":47,"NORMAL":48,"TEXCOORD_0":49},"indices":45,"material":0}],"name":"sm_foodstand_bin9"},{"primitives":[{"attributes":{"POSITION":51,"TANGENT":52,"NORMAL":53,"TEXCOORD_0":54},"indices":50,"material":0}],"name":"sm_foodstand_bin8"},{"primitives":[{"attributes":{"POSITION":56,"TANGENT":57,"NORMAL":58,"TEXCOORD_0":59},"indices":55,"material":0}],"name":"sm_foodstand_frame"}],"accessors":[{"bufferView":0,"componentType":5123,"count":360,"type":"SCALAR","name":"accessorIndices"},{"bufferView":1,"componentType":5126,"count":194,"max":[-0.2919611,0.235668331,0.814347148],"min":[-0.6174061,5.96046434E-10,0.488902032],"type":"VEC3","name":"accessorPositions"},{"bufferView":2,"componentType":5126,"count":194,"type":"VEC4","name":"accessorTangents"},{"bufferView":1,"byteOffset":2328,"componentType":5126,"count":194,"type":"VEC3","name":"accessorNormals"},{"bufferView":3,"componentType":5126,"count":194,"type":"VEC2","name":"accessorUVs"},{"bufferView":0,"byteOffset":720,"componentType":5123,"count":84,"type":"SCALAR","name":"accessorIndices"},{"bufferView":1,"byteOffset":4656,"componentType":5126,"count":48,"max":[0.611400962,0.09257546,0.8147485],"min":[0.04169294,-1.49011612E-08,0.429198027],"type":"VEC3","name":"accessorPositions"},{"bufferView":2,"byteOffset":3104,"componentType":5126,"count":48,"type":"VEC4","name":"accessorTangents"},{"bufferView":1,"byteOffset":5232,"componentType":5126,"count":48,"type":"VEC3","name":"accessorNormals"},{"bufferView":3,"byteOffset":1552,"componentType":5126,"count":48,"type":"VEC2","name":"accessorUVs"},{"bufferView":0,"byteOffset":888,"componentType":5123,"count":360,"type":"SCALAR","name":"accessorIndices"},{"bufferView":1,"byteOffset":5808,"componentType":5126,"count":194,"max":[0.9355375,0.235668331,0.568915367],"min":[0.6100926,5.96046434E-10,0.243470356],"type":"VEC3","name":"accessorPositions"},{"bufferView":2,"byteOffset":3872,"componentType":5126,"count":194,"type":"VEC4","name":"accessorTangents"},{"bufferView":1,"byteOffset":8136,"componentType":5126,"count":194,"type":"VEC3","name":"accessorNormals"},{"bufferView":3,"byteOffset":1936,"componentType":5126,"count":194,"type":"VEC2","name":"accessorUVs"},{"bufferView":0,"byteOffset":1608,"componentType":5123,"count":84,"type":"SCALAR","name":"accessorIndices"},{"bufferView":1,"byteOffset":10464,"componentType":5126,"count":48,"max":[-0.188032523,0.9935382,0.374625236],"min":[-0.576655865,0.720546067,-0.0336766466],"type":"VEC3","name":"accessorPositions"},{"bufferView":2,"byteOffset":6976,"componentType":5126,"count":48,"type":"VEC4","name":"accessorTangents"},{"bufferView":1,"byteOffset":11040,"componentType":5126,"count":48,"type":"VEC3","name":"accessorNormals"},{"bufferView":3,"byteOffset":3488,"componentType":5126,"count":48,"type":"VEC2","name":"accessorUVs"},{"bufferView":0,"byteOffset":1776,"componentType":5123,"count":84,"type":"SCALAR","name":"accessorIndices"},{"bufferView":1,"byteOffset":11616,"componentType":5126,"count":48,"max":[0.27856493,0.5358351,0.605416656],"min":[0.0106615908,0.290626436,0.116788849],"type":"VEC3","name":"accessorPositions"},{"bufferView":2,"byteOffset":7744,"componentType":5126,"count":48,"type":"VEC4","name":"accessorTangents"},{"bufferView":1,"byteOffset":12192,"componentType":5126,"count":48,"type":"VEC3","name":"accessorNormals"},{"bufferView":3,"byteOffset":3872,"componentType":5126,"count":48,"type":"VEC2","name":"accessorUVs"},{"bufferView":0,"byteOffset":1944,"componentType":5123,"count":84,"type":"SCALAR","name":"accessorIndices"},{"bufferView":1,"byteOffset":12768,"componentType":5126,"count":48,"max":[0.18242611,0.9834786,0.364314258],"min":[-0.184563175,0.720546,-0.06737068],"type":"VEC3","name":"accessorPositions"},{"bufferView":2,"byteOffset":8512,"componentType":5126,"count":48,"type":"VEC4","name":"accessorTangents"},{"bufferView":1,"byteOffset":13344,"componentType":5126,"count":48,"type":"VEC3","name":"accessorNormals"},{"bufferView":3,"byteOffset":4256,"componentType":5126,"count":48,"type":"VEC2","name":"accessorUVs"},{"bufferView":0,"byteOffset":2112,"componentType":5123,"count":84,"type":"SCALAR","name":"accessorIndices"},{"bufferView":1,"byteOffset":13920,"componentType":5126,"count":51,"max":[0.5861179,1.01676512,0.384142458],"min":[0.180082664,0.720545948,-0.0501319729],"type":"VEC3","name":"accessorPositions"},{"bufferView":2,"byteOffset":9280,"componentType":5126,"count":51,"type":"VEC4","name":"accessorTangents"},{"bufferView":1,"byteOffset":14532,"componentType":5126,"count":51,"type":"VEC3","name":"accessorNormals"},{"bufferView":3,"byteOffset":4640,"componentType":5126,"count":51,"type":"VEC2","name":"accessorUVs"},{"bufferView":0,"byteOffset":2280,"componentType":5123,"count":84,"type":"SCALAR","name":"accessorIndices"},{"bufferView":1,"byteOffset":15144,"componentType":5126,"count":48,"max":[0.5834819,0.536609054,0.601147056],"min":[0.28505078,0.290209949,0.0287359655],"type":"VEC3","name":"accessorPositions"},{"bufferView":2,"byteOffset":10096,"componentType":5126,"count":48,"type":"VEC4","name":"accessorTangents"},{"bufferView":1,"byteOffset":15720,"componentType":5126,"count":48,"type":"VEC3","name":"accessorNormals"},{"bufferView":3,"byteOffset":5048,"componentType":5126,"count":48,"type":"VEC2","name":"accessorUVs"},{"bufferView":0,"byteOffset":2448,"componentType":5123,"count":84,"type":"SCALAR","name":"accessorIndices"},{"bufferView":1,"byteOffset":16296,"componentType":5126,"count":48,"max":[-0.278098643,0.5138243,0.5984639],"min":[-0.576529741,0.2902099,0.07684855],"type":"VEC3","name":"accessorPositions"},{"bufferView":2,"byteOffset":10864,"componentType":5126,"count":48,"type":"VEC4","name":"accessorTangents"},{"bufferView":1,"byteOffset":16872,"componentType":5126,"count":48,"type":"VEC3","name":"accessorNormals"},{"bufferView":3,"byteOffset":5432,"componentType":5126,"count":48,"type":"VEC2","name":"accessorUVs"},{"bufferView":0,"byteOffset":2616,"componentType":5123,"count":84,"type":"SCALAR","name":"accessorIndices"},{"bufferView":1,"byteOffset":17448,"componentType":5126,"count":48,"max":[0.00679422123,0.5045181,0.605547845],"min":[-0.2755685,0.29142198,0.09721054],"type":"VEC3","name":"accessorPositions"},{"bufferView":2,"byteOffset":11632,"componentType":5126,"count":48,"type":"VEC4","name":"accessorTangents"},{"bufferView":1,"byteOffset":18024,"componentType":5126,"count":48,"type":"VEC3","name":"accessorNormals"},{"bufferView":3,"byteOffset":5816,"componentType":5126,"count":48,"type":"VEC2","name":"accessorUVs"},{"bufferView":0,"byteOffset":2784,"componentType":5123,"count":84,"type":"SCALAR","name":"accessorIndices"},{"bufferView":1,"byteOffset":18600,"componentType":5126,"count":48,"max":[-0.5793815,0.199042156,0.517147243],"min":[-1.03429568,4.172325E-08,0.06323616],"type":"VEC3","name":"accessorPositions"},{"bufferView":2,"byteOffset":12400,"componentType":5126,"count":48,"type":"VEC4","name":"accessorTangents"},{"bufferView":1,"byteOffset":19176,"componentType":5126,"count":48,"type":"VEC3","name":"accessorNormals"},{"bufferView":3,"byteOffset":6200,"componentType":5126,"count":48,"type":"VEC2","name":"accessorUVs"},{"bufferView":0,"byteOffset":2952,"componentType":5123,"count":996,"type":"SCALAR","name":"accessorIndices"},{"bufferView":1,"byteOffset":19752,"componentType":5126,"count":624,"max":[0.6686648,1.66467333,0.6157091],"min":[-0.6686648,0.0,-0.26917097],"type":"VEC3","name":"accessorPositions"},{"bufferView":2,"byteOffset":13168,"componentType":5126,"count":624,"type":"VEC4","name":"accessorTangents"},{"bufferView":1,"byteOffset":27240,"componentType":5126,"count":624,"type":"VEC3","name":"accessorNormals"},{"bufferView":3,"byteOffset":6584,"componentType":5126,"count":624,"type":"VEC2","name":"accessorUVs"}],"bufferViews":[{"buffer":0,"byteLength":4944,"name":"bufferViewScalar"},{"buffer":0,"byteOffset":4944,"byteLength":34728,"byteStride":12,"name":"bufferViewFloatVec3"},{"buffer":0,"byteOffset":39672,"byteLength":23152,"byteStride":16,"name":"bufferViewFloatVec4"},{"buffer":0,"byteOffset":62824,"byteLength":11576,"byteStride":8,"name":"bufferViewFloatVec2"}],"buffers":[{"uri":"sm_foodstand_grp.bin","byteLength":74400}],"materials":[{"pbrMetallicRoughness":{"baseColorFactor":[0.5,0.5,0.5,1.0],"metallicFactor":0.0,"roughnessFactor":0.450053632},"name":"lambert1"}]}