{
	"asset":{
		"generator":"Khronos glTF Blender I/O v4.4.56",
		"version":"2.0"
	},
	"scene":0,
	"scenes":[
		{
			"name":"Scene",
			"nodes":[
				1,
				3
			]
		}
	],
	"nodes":[
		{
			"mesh":0,
			"name":"sm_building_nonentry_03"
		},
		{
			"children":[
				0
			],
			"name":"mesh_nonentry_03-mesh"
		},
		{
			"mesh":1,
			"name":"collision_nonentry_03-colonly"
		},
		{
			"children":[
				2
			],
			"name":"col_nonentry_03-colonly"
		}
	],
	"materials":[
		{
			"doubleSided":true,
			"name":"t_nonentry_03_main",
			"normalTexture":{
				"index":0
			},
			"pbrMetallicRoughness":{
				"baseColorTexture":{
					"index":1
				},
				"metallicFactor":0,
				"roughnessFactor":0.5
			}
		},
		{
			"doubleSided":true,
			"name":"t_nonentry_03_roof",
			"normalTexture":{
				"index":2
			},
			"pbrMetallicRoughness":{
				"baseColorTexture":{
					"index":3
				},
				"metallicFactor":0,
				"roughnessFactor":0.5
			}
		},
		{
			"doubleSided":true,
			"name":"t_nonentry_03_roofdetails",
			"normalTexture":{
				"index":4
			},
			"pbrMetallicRoughness":{
				"baseColorTexture":{
					"index":5
				},
				"metallicFactor":0,
				"roughnessFactor":0.5
			}
		},
		{
			"doubleSided":true,
			"name":"t_nonentry_03_backdoor",
			"normalTexture":{
				"index":6
			},
			"pbrMetallicRoughness":{
				"baseColorTexture":{
					"index":7
				},
				"metallicFactor":0,
				"roughnessFactor":0.5
			}
		},
		{
			"doubleSided":true,
			"name":"t_nonentry_03_fence",
			"normalTexture":{
				"index":8
			},
			"pbrMetallicRoughness":{
				"baseColorTexture":{
					"index":9
				},
				"metallicFactor":0,
				"roughnessFactor":0.5
			}
		},
		{
			"doubleSided":true,
			"name":"t_windowframe",
			"normalTexture":{
				"index":10
			},
			"pbrMetallicRoughness":{
				"baseColorTexture":{
					"index":11
				},
				"metallicFactor":0,
				"roughnessFactor":0.5
			}
		},
		{
			"doubleSided":true,
			"name":"t_windows",
			"normalTexture":{
				"index":12
			},
			"pbrMetallicRoughness":{
				"baseColorTexture":{
					"index":13
				},
				"metallicFactor":0,
				"roughnessFactor":0.5
			}
		},
		{
			"doubleSided":true,
			"name":"t_vent",
			"normalTexture":{
				"index":14
			},
			"pbrMetallicRoughness":{
				"baseColorTexture":{
					"index":15
				},
				"metallicFactor":0,
				"roughnessFactor":0.5
			}
		},
		{
			"doubleSided":true,
			"name":"t_generator",
			"normalTexture":{
				"index":16
			},
			"pbrMetallicRoughness":{
				"baseColorTexture":{
					"index":17
				},
				"metallicFactor":0,
				"roughnessFactor":0.5
			}
		},
		{
			"doubleSided":true,
			"name":"t_generatordetails",
			"normalTexture":{
				"index":18
			},
			"pbrMetallicRoughness":{
				"baseColorTexture":{
					"index":19
				},
				"metallicFactor":0,
				"roughnessFactor":0.5
			}
		},
		{
			"doubleSided":true,
			"name":"t_pipes",
			"normalTexture":{
				"index":20
			},
			"pbrMetallicRoughness":{
				"baseColorTexture":{
					"index":21
				},
				"metallicFactor":0,
				"roughnessFactor":0.5
			}
		},
		{
			"doubleSided":true,
			"name":"t_doorframe",
			"normalTexture":{
				"index":22
			},
			"pbrMetallicRoughness":{
				"baseColorTexture":{
					"index":23
				},
				"metallicFactor":0,
				"roughnessFactor":0.5
			}
		},
		{
			"doubleSided":true,
			"name":"t_garagedoor",
			"normalTexture":{
				"index":24
			},
			"pbrMetallicRoughness":{
				"baseColorTexture":{
					"index":25
				},
				"metallicFactor":0,
				"roughnessFactor":0.5
			}
		},
		{
			"doubleSided":true,
			"name":"M_Collision",
			"pbrMetallicRoughness":{
				"baseColorFactor":[
					0.8000937700271606,
					0.003670805599540472,
					0,
					1
				],
				"metallicFactor":0,
				"roughnessFactor":0.5
			}
		}
	],
	"meshes":[
		{
			"name":"Cube.001",
			"primitives":[
				{
					"attributes":{
						"POSITION":0,
						"NORMAL":1,
						"TEXCOORD_0":2
					},
					"indices":3,
					"material":0
				},
				{
					"attributes":{
						"POSITION":4,
						"NORMAL":5,
						"TEXCOORD_0":6
					},
					"indices":7,
					"material":1
				},
				{
					"attributes":{
						"POSITION":8,
						"NORMAL":9,
						"TEXCOORD_0":10
					},
					"indices":11,
					"material":2
				},
				{
					"attributes":{
						"POSITION":12,
						"NORMAL":13,
						"TEXCOORD_0":14
					},
					"indices":15,
					"material":3
				},
				{
					"attributes":{
						"POSITION":16,
						"NORMAL":17,
						"TEXCOORD_0":18
					},
					"indices":19,
					"material":4
				},
				{
					"attributes":{
						"POSITION":20,
						"NORMAL":21,
						"TEXCOORD_0":22
					},
					"indices":23,
					"material":5
				},
				{
					"attributes":{
						"POSITION":24,
						"NORMAL":25,
						"TEXCOORD_0":26
					},
					"indices":27,
					"material":6
				},
				{
					"attributes":{
						"POSITION":28,
						"NORMAL":29,
						"TEXCOORD_0":30
					},
					"indices":31,
					"material":7
				},
				{
					"attributes":{
						"POSITION":32,
						"NORMAL":33,
						"TEXCOORD_0":34
					},
					"indices":35,
					"material":8
				},
				{
					"attributes":{
						"POSITION":36,
						"NORMAL":37,
						"TEXCOORD_0":38
					},
					"indices":39,
					"material":9
				},
				{
					"attributes":{
						"POSITION":40,
						"NORMAL":41,
						"TEXCOORD_0":42
					},
					"indices":43,
					"material":10
				},
				{
					"attributes":{
						"POSITION":44,
						"NORMAL":45,
						"TEXCOORD_0":46
					},
					"indices":47,
					"material":11
				},
				{
					"attributes":{
						"POSITION":48,
						"NORMAL":49,
						"TEXCOORD_0":50
					},
					"indices":51,
					"material":12
				}
			]
		},
		{
			"name":"Cube.004",
			"primitives":[
				{
					"attributes":{
						"POSITION":52,
						"NORMAL":53,
						"TEXCOORD_0":54
					},
					"indices":55,
					"material":13
				}
			]
		}
	],
	"textures":[
		{
			"sampler":0,
			"source":0
		},
		{
			"sampler":0,
			"source":1
		},
		{
			"sampler":0,
			"source":0
		},
		{
			"sampler":0,
			"source":1
		},
		{
			"sampler":0,
			"source":0
		},
		{
			"sampler":0,
			"source":1
		},
		{
			"sampler":0,
			"source":0
		},
		{
			"sampler":0,
			"source":1
		},
		{
			"sampler":0,
			"source":0
		},
		{
			"sampler":0,
			"source":1
		},
		{
			"sampler":0,
			"source":0
		},
		{
			"sampler":0,
			"source":1
		},
		{
			"sampler":0,
			"source":0
		},
		{
			"sampler":0,
			"source":1
		},
		{
			"sampler":0,
			"source":0
		},
		{
			"sampler":0,
			"source":1
		},
		{
			"sampler":0,
			"source":0
		},
		{
			"sampler":0,
			"source":1
		},
		{
			"sampler":0,
			"source":0
		},
		{
			"sampler":0,
			"source":1
		},
		{
			"sampler":0,
			"source":0
		},
		{
			"sampler":0,
			"source":1
		},
		{
			"sampler":0,
			"source":0
		},
		{
			"sampler":0,
			"source":1
		},
		{
			"sampler":0,
			"source":0
		},
		{
			"sampler":0,
			"source":1
		}
	],
	"images":[
		{
			"mimeType":"image/png",
			"name":"t_nonentry_03_Normal_DirectX",
			"uri":"t_nonentry_03_Normal_DirectX.png"
		},
		{
			"mimeType":"image/png",
			"name":"t_nonentry_03_Base_Color",
			"uri":"t_nonentry_03_Base_Color.png"
		}
	],
	"accessors":[
		{
			"bufferView":0,
			"componentType":5126,
			"count":210,
			"max":[
				3.5500710010528564,
				4.28412389755249,
				1.8606106042861938
			],
			"min":[
				-3.5500710010528564,
				-0.028132731094956398,
				-4.638293266296387
			],
			"type":"VEC3"
		},
		{
			"bufferView":1,
			"componentType":5126,
			"count":210,
			"type":"VEC3"
		},
		{
			"bufferView":2,
			"componentType":5126,
			"count":210,
			"type":"VEC2"
		},
		{
			"bufferView":3,
			"componentType":5123,
			"count":534,
			"type":"SCALAR"
		},
		{
			"bufferView":4,
			"componentType":5126,
			"count":250,
			"max":[
				4.728890419006348,
				6.2590131759643555,
				2.2909467220306396
			],
			"min":[
				-4.6936821937561035,
				4.124224662780762,
				-3.7538278102874756
			],
			"type":"VEC3"
		},
		{
			"bufferView":5,
			"componentType":5126,
			"count":250,
			"type":"VEC3"
		},
		{
			"bufferView":6,
			"componentType":5126,
			"count":250,
			"type":"VEC2"
		},
		{
			"bufferView":7,
			"componentType":5123,
			"count":528,
			"type":"SCALAR"
		},
		{
			"bufferView":8,
			"componentType":5126,
			"count":288,
			"max":[
				3.6241514682769775,
				6.2590131759643555,
				-1.8122740983963013
			],
			"min":[
				-3.63740873336792,
				4.710499286651611,
				-3.1781222820281982
			],
			"type":"VEC3"
		},
		{
			"bufferView":9,
			"componentType":5126,
			"count":288,
			"type":"VEC3"
		},
		{
			"bufferView":10,
			"componentType":5126,
			"count":288,
			"type":"VEC2"
		},
		{
			"bufferView":11,
			"componentType":5123,
			"count":480,
			"type":"SCALAR"
		},
		{
			"bufferView":12,
			"componentType":5126,
			"count":52,
			"max":[
				3.4075984954833984,
				3.145402193069458,
				-4.396397590637207
			],
			"min":[
				-1.0408846139907837,
				0.063148632645607,
				-4.638293266296387
			],
			"type":"VEC3"
		},
		{
			"bufferView":13,
			"componentType":5126,
			"count":52,
			"type":"VEC3"
		},
		{
			"bufferView":14,
			"componentType":5126,
			"count":52,
			"type":"VEC2"
		},
		{
			"bufferView":15,
			"componentType":5123,
			"count":126,
			"type":"SCALAR"
		},
		{
			"bufferView":16,
			"componentType":5126,
			"count":2304,
			"max":[
				3.388380289077759,
				3.114614725112915,
				-4.4952592849731445
			],
			"min":[
				-1.0601027011871338,
				0.03236105665564537,
				-4.533938407897949
			],
			"type":"VEC3"
		},
		{
			"bufferView":17,
			"componentType":5126,
			"count":2304,
			"type":"VEC3"
		},
		{
			"bufferView":18,
			"componentType":5126,
			"count":2304,
			"type":"VEC2"
		},
		{
			"bufferView":19,
			"componentType":5123,
			"count":3456,
			"type":"SCALAR"
		},
		{
			"bufferView":20,
			"componentType":5126,
			"count":384,
			"max":[
				3.613891124725342,
				3.776271343231201,
				-0.23622921109199524
			],
			"min":[
				-3.6138906478881836,
				1.3556300401687622,
				-1.7320444583892822
			],
			"type":"VEC3"
		},
		{
			"bufferView":21,
			"componentType":5126,
			"count":384,
			"type":"VEC3"
		},
		{
			"bufferView":22,
			"componentType":5126,
			"count":384,
			"type":"VEC2"
		},
		{
			"bufferView":23,
			"componentType":5123,
			"count":1032,
			"type":"SCALAR"
		},
		{
			"bufferView":24,
			"componentType":5126,
			"count":32,
			"max":[
				3.582753896713257,
				3.686732053756714,
				-0.30319640040397644
			],
			"min":[
				-3.5827548503875732,
				1.8658101558685303,
				-1.6650770902633667
			],
			"type":"VEC3"
		},
		{
			"bufferView":25,
			"componentType":5126,
			"count":32,
			"type":"VEC3"
		},
		{
			"bufferView":26,
			"componentType":5126,
			"count":32,
			"type":"VEC2"
		},
		{
			"bufferView":27,
			"componentType":5123,
			"count":48,
			"type":"SCALAR"
		},
		{
			"bufferView":28,
			"componentType":5126,
			"count":320,
			"max":[
				-1.055640459060669,
				6.748569965362549,
				1.1908973455429077
			],
			"min":[
				-2.8184690475463867,
				6.056925296783447,
				-0.5719314217567444
			],
			"type":"VEC3"
		},
		{
			"bufferView":29,
			"componentType":5126,
			"count":320,
			"type":"VEC3"
		},
		{
			"bufferView":30,
			"componentType":5126,
			"count":320,
			"type":"VEC2"
		},
		{
			"bufferView":31,
			"componentType":5123,
			"count":516,
			"type":"SCALAR"
		},
		{
			"bufferView":32,
			"componentType":5126,
			"count":934,
			"max":[
				-0.8784194588661194,
				7.347218990325928,
				-0.7174775004386902
			],
			"min":[
				-2.8437931537628174,
				6.330629825592041,
				-1.7340662479400635
			],
			"type":"VEC3"
		},
		{
			"bufferView":33,
			"componentType":5126,
			"count":934,
			"type":"VEC3"
		},
		{
			"bufferView":34,
			"componentType":5126,
			"count":934,
			"type":"VEC2"
		},
		{
			"bufferView":35,
			"componentType":5123,
			"count":2346,
			"type":"SCALAR"
		},
		{
			"bufferView":36,
			"componentType":5126,
			"count":372,
			"max":[
				-0.861690104007721,
				7.168072700500488,
				-0.7316998839378357
			],
			"min":[
				-2.8455395698547363,
				6.258477210998535,
				-1.719843864440918
			],
			"type":"VEC3"
		},
		{
			"bufferView":37,
			"componentType":5126,
			"count":372,
			"type":"VEC3"
		},
		{
			"bufferView":38,
			"componentType":5126,
			"count":372,
			"type":"VEC2"
		},
		{
			"bufferView":39,
			"componentType":5123,
			"count":642,
			"type":"SCALAR"
		},
		{
			"bufferView":40,
			"componentType":5126,
			"count":1795,
			"max":[
				0.5728005766868591,
				7.055178165435791,
				-1.7089271545410156
			],
			"min":[
				-1.7034392356872559,
				4.099020004272461,
				-4.345217704772949
			],
			"type":"VEC3"
		},
		{
			"bufferView":41,
			"componentType":5126,
			"count":1795,
			"type":"VEC3"
		},
		{
			"bufferView":42,
			"componentType":5126,
			"count":1795,
			"type":"VEC2"
		},
		{
			"bufferView":43,
			"componentType":5123,
			"count":4620,
			"type":"SCALAR"
		},
		{
			"bufferView":44,
			"componentType":5126,
			"count":120,
			"max":[
				1.0979394912719727,
				3.422607898712158,
				2.0352327823638916
			],
			"min":[
				-1.0624682903289795,
				8.473223900296034e-09,
				1.728010892868042
			],
			"type":"VEC3"
		},
		{
			"bufferView":45,
			"componentType":5126,
			"count":120,
			"type":"VEC3"
		},
		{
			"bufferView":46,
			"componentType":5126,
			"count":120,
			"type":"VEC2"
		},
		{
			"bufferView":47,
			"componentType":5123,
			"count":324,
			"type":"SCALAR"
		},
		{
			"bufferView":48,
			"componentType":5126,
			"count":360,
			"max":[
				0.750947892665863,
				3.0576488971710205,
				1.988711953163147
			],
			"min":[
				-0.7761691808700562,
				0.27523282170295715,
				1.9140063524246216
			],
			"type":"VEC3"
		},
		{
			"bufferView":49,
			"componentType":5126,
			"count":360,
			"type":"VEC3"
		},
		{
			"bufferView":50,
			"componentType":5126,
			"count":360,
			"type":"VEC2"
		},
		{
			"bufferView":51,
			"componentType":5123,
			"count":756,
			"type":"SCALAR"
		},
		{
			"bufferView":52,
			"componentType":5126,
			"count":24,
			"max":[
				4.250047206878662,
				7.442959308624268,
				2.3499913215637207
			],
			"min":[
				-4.250047206878662,
				-0.07599233090877533,
				-4.701330184936523
			],
			"type":"VEC3"
		},
		{
			"bufferView":53,
			"componentType":5126,
			"count":24,
			"type":"VEC3"
		},
		{
			"bufferView":54,
			"componentType":5126,
			"count":24,
			"type":"VEC2"
		},
		{
			"bufferView":55,
			"componentType":5123,
			"count":36,
			"type":"SCALAR"
		}
	],
	"bufferViews":[
		{
			"buffer":0,
			"byteLength":2520,
			"byteOffset":0,
			"target":34962
		},
		{
			"buffer":0,
			"byteLength":2520,
			"byteOffset":2520,
			"target":34962
		},
		{
			"buffer":0,
			"byteLength":1680,
			"byteOffset":5040,
			"target":34962
		},
		{
			"buffer":0,
			"byteLength":1068,
			"byteOffset":6720,
			"target":34963
		},
		{
			"buffer":0,
			"byteLength":3000,
			"byteOffset":7788,
			"target":34962
		},
		{
			"buffer":0,
			"byteLength":3000,
			"byteOffset":10788,
			"target":34962
		},
		{
			"buffer":0,
			"byteLength":2000,
			"byteOffset":13788,
			"target":34962
		},
		{
			"buffer":0,
			"byteLength":1056,
			"byteOffset":15788,
			"target":34963
		},
		{
			"buffer":0,
			"byteLength":3456,
			"byteOffset":16844,
			"target":34962
		},
		{
			"buffer":0,
			"byteLength":3456,
			"byteOffset":20300,
			"target":34962
		},
		{
			"buffer":0,
			"byteLength":2304,
			"byteOffset":23756,
			"target":34962
		},
		{
			"buffer":0,
			"byteLength":960,
			"byteOffset":26060,
			"target":34963
		},
		{
			"buffer":0,
			"byteLength":624,
			"byteOffset":27020,
			"target":34962
		},
		{
			"buffer":0,
			"byteLength":624,
			"byteOffset":27644,
			"target":34962
		},
		{
			"buffer":0,
			"byteLength":416,
			"byteOffset":28268,
			"target":34962
		},
		{
			"buffer":0,
			"byteLength":252,
			"byteOffset":28684,
			"target":34963
		},
		{
			"buffer":0,
			"byteLength":27648,
			"byteOffset":28936,
			"target":34962
		},
		{
			"buffer":0,
			"byteLength":27648,
			"byteOffset":56584,
			"target":34962
		},
		{
			"buffer":0,
			"byteLength":18432,
			"byteOffset":84232,
			"target":34962
		},
		{
			"buffer":0,
			"byteLength":6912,
			"byteOffset":102664,
			"target":34963
		},
		{
			"buffer":0,
			"byteLength":4608,
			"byteOffset":109576,
			"target":34962
		},
		{
			"buffer":0,
			"byteLength":4608,
			"byteOffset":114184,
			"target":34962
		},
		{
			"buffer":0,
			"byteLength":3072,
			"byteOffset":118792,
			"target":34962
		},
		{
			"buffer":0,
			"byteLength":2064,
			"byteOffset":121864,
			"target":34963
		},
		{
			"buffer":0,
			"byteLength":384,
			"byteOffset":123928,
			"target":34962
		},
		{
			"buffer":0,
			"byteLength":384,
			"byteOffset":124312,
			"target":34962
		},
		{
			"buffer":0,
			"byteLength":256,
			"byteOffset":124696,
			"target":34962
		},
		{
			"buffer":0,
			"byteLength":96,
			"byteOffset":124952,
			"target":34963
		},
		{
			"buffer":0,
			"byteLength":3840,
			"byteOffset":125048,
			"target":34962
		},
		{
			"buffer":0,
			"byteLength":3840,
			"byteOffset":128888,
			"target":34962
		},
		{
			"buffer":0,
			"byteLength":2560,
			"byteOffset":132728,
			"target":34962
		},
		{
			"buffer":0,
			"byteLength":1032,
			"byteOffset":135288,
			"target":34963
		},
		{
			"buffer":0,
			"byteLength":11208,
			"byteOffset":136320,
			"target":34962
		},
		{
			"buffer":0,
			"byteLength":11208,
			"byteOffset":147528,
			"target":34962
		},
		{
			"buffer":0,
			"byteLength":7472,
			"byteOffset":158736,
			"target":34962
		},
		{
			"buffer":0,
			"byteLength":4692,
			"byteOffset":166208,
			"target":34963
		},
		{
			"buffer":0,
			"byteLength":4464,
			"byteOffset":170900,
			"target":34962
		},
		{
			"buffer":0,
			"byteLength":4464,
			"byteOffset":175364,
			"target":34962
		},
		{
			"buffer":0,
			"byteLength":2976,
			"byteOffset":179828,
			"target":34962
		},
		{
			"buffer":0,
			"byteLength":1284,
			"byteOffset":182804,
			"target":34963
		},
		{
			"buffer":0,
			"byteLength":21540,
			"byteOffset":184088,
			"target":34962
		},
		{
			"buffer":0,
			"byteLength":21540,
			"byteOffset":205628,
			"target":34962
		},
		{
			"buffer":0,
			"byteLength":14360,
			"byteOffset":227168,
			"target":34962
		},
		{
			"buffer":0,
			"byteLength":9240,
			"byteOffset":241528,
			"target":34963
		},
		{
			"buffer":0,
			"byteLength":1440,
			"byteOffset":250768,
			"target":34962
		},
		{
			"buffer":0,
			"byteLength":1440,
			"byteOffset":252208,
			"target":34962
		},
		{
			"buffer":0,
			"byteLength":960,
			"byteOffset":253648,
			"target":34962
		},
		{
			"buffer":0,
			"byteLength":648,
			"byteOffset":254608,
			"target":34963
		},
		{
			"buffer":0,
			"byteLength":4320,
			"byteOffset":255256,
			"target":34962
		},
		{
			"buffer":0,
			"byteLength":4320,
			"byteOffset":259576,
			"target":34962
		},
		{
			"buffer":0,
			"byteLength":2880,
			"byteOffset":263896,
			"target":34962
		},
		{
			"buffer":0,
			"byteLength":1512,
			"byteOffset":266776,
			"target":34963
		},
		{
			"buffer":0,
			"byteLength":288,
			"byteOffset":268288,
			"target":34962
		},
		{
			"buffer":0,
			"byteLength":288,
			"byteOffset":268576,
			"target":34962
		},
		{
			"buffer":0,
			"byteLength":192,
			"byteOffset":268864,
			"target":34962
		},
		{
			"buffer":0,
			"byteLength":72,
			"byteOffset":269056,
			"target":34963
		}
	],
	"samplers":[
		{
			"magFilter":9729,
			"minFilter":9987
		}
	],
	"buffers":[
		{
			"byteLength":269128,
			"uri":"sm_building_nonentry_03.bin"
		}
	]
}
