{
	"asset":{
		"generator":"Khronos glTF Blender I/O v4.4.56",
		"version":"2.0"
	},
	"scene":0,
	"scenes":[
		{
			"name":"Scene",
			"nodes":[
				5
			]
		}
	],
	"nodes":[
		{
			"mesh":0,
			"name":"collision_building_04-colonly"
		},
		{
			"children":[
				0
			],
			"name":"farmingshort-colonly"
		},
		{
			"mesh":1,
			"name":"navmesh_building_04_rooftop-navmesh",
			"translation":[
				-0.0002205371856689453,
				7.354714393615723,
				-1.3587123155593872
			]
		},
		{
			"children":[
				2
			],
			"name":"farmingshort-navmesh"
		},
		{
			"mesh":2,
			"name":"sm_building_04_farmingshort-mesh"
		},
		{
			"children":[
				1,
				3,
				4
			],
			"name":"mesh_building_04_farmingshort"
		}
	],
	"materials":[
		{
			"doubleSided":true,
			"name":"M_Collision",
			"pbrMetallicRoughness":{
				"baseColorFactor":[
					0.8002356290817261,
					0,
					0.004787445068359375,
					1
				],
				"metallicFactor":0,
				"roughnessFactor":0.5
			}
		},
		{
			"doubleSided":true,
			"name":"M_NavMesh",
			"pbrMetallicRoughness":{
				"baseColorFactor":[
					0,
					0.561145007610321,
					0.8001565933227539,
					1
				],
				"metallicFactor":0,
				"roughnessFactor":0.5
			}
		},
		{
			"doubleSided":true,
			"name":"T_Building_01_Base",
			"normalTexture":{
				"index":0,
				"scale":0.5
			},
			"pbrMetallicRoughness":{
				"baseColorTexture":{
					"index":1
				},
				"metallicFactor":0,
				"metallicRoughnessTexture":{
					"index":2
				}
			}
		},
		{
			"doubleSided":true,
			"name":"T_Building_01_Details",
			"pbrMetallicRoughness":{
				"baseColorTexture":{
					"index":3
				},
				"metallicFactor":0,
				"metallicRoughnessTexture":{
					"index":4
				}
			}
		},
		{
			"doubleSided":true,
			"name":"T_Building_01_Trim",
			"pbrMetallicRoughness":{
				"baseColorTexture":{
					"index":5
				},
				"metallicFactor":0.20909090340137482,
				"metallicRoughnessTexture":{
					"index":6
				}
			}
		},
		{
			"doubleSided":true,
			"name":"T_Building_01_Door",
			"pbrMetallicRoughness":{
				"baseColorFactor":[
					0,
					0,
					0,
					1
				],
				"metallicFactor":0,
				"roughnessFactor":0.5
			}
		},
		{
			"doubleSided":true,
			"name":"T_Interior",
			"pbrMetallicRoughness":{
				"baseColorTexture":{
					"index":7
				},
				"metallicFactor":0,
				"metallicRoughnessTexture":{
					"index":8
				}
			}
		},
		{
			"doubleSided":true,
			"name":"T_Overhang",
			"pbrMetallicRoughness":{
				"baseColorTexture":{
					"index":9
				},
				"metallicFactor":0,
				"metallicRoughnessTexture":{
					"index":10
				}
			}
		},
		{
			"doubleSided":true,
			"name":"T_Building_01_WindowTrim",
			"pbrMetallicRoughness":{
				"baseColorTexture":{
					"index":11
				},
				"metallicFactor":0,
				"metallicRoughnessTexture":{
					"index":12
				}
			}
		},
		{
			"doubleSided":true,
			"name":"T_Building_01_WindowGlass",
			"pbrMetallicRoughness":{
				"baseColorTexture":{
					"index":13
				},
				"metallicFactor":0,
				"metallicRoughnessTexture":{
					"index":14
				}
			}
		},
		{
			"doubleSided":true,
			"name":"t_exteriordoor",
			"pbrMetallicRoughness":{
				"baseColorTexture":{
					"index":15
				},
				"metallicFactor":0,
				"roughnessFactor":0.5
			}
		},
		{
			"doubleSided":true,
			"name":"t_exteriordoorwindow",
			"pbrMetallicRoughness":{
				"baseColorTexture":{
					"index":16
				},
				"metallicFactor":0,
				"roughnessFactor":0.5
			}
		}
	],
	"meshes":[
		{
			"name":"Cube.006",
			"primitives":[
				{
					"attributes":{
						"POSITION":0,
						"NORMAL":1,
						"TEXCOORD_0":2
					},
					"indices":3,
					"material":0
				}
			]
		},
		{
			"name":"Plane",
			"primitives":[
				{
					"attributes":{
						"POSITION":4,
						"NORMAL":5,
						"TEXCOORD_0":6
					},
					"indices":7,
					"material":1
				}
			]
		},
		{
			"name":"Cube.002",
			"primitives":[
				{
					"attributes":{
						"POSITION":8,
						"NORMAL":9,
						"TEXCOORD_0":10
					},
					"indices":11,
					"material":2
				},
				{
					"attributes":{
						"POSITION":12,
						"NORMAL":13,
						"TEXCOORD_0":14
					},
					"indices":15,
					"material":3
				},
				{
					"attributes":{
						"POSITION":16,
						"NORMAL":17,
						"TEXCOORD_0":18
					},
					"indices":19,
					"material":4
				},
				{
					"attributes":{
						"POSITION":20,
						"NORMAL":21,
						"TEXCOORD_0":22
					},
					"indices":23,
					"material":5
				},
				{
					"attributes":{
						"POSITION":24,
						"NORMAL":25,
						"TEXCOORD_0":26
					},
					"indices":27,
					"material":6
				},
				{
					"attributes":{
						"POSITION":28,
						"NORMAL":29,
						"TEXCOORD_0":30
					},
					"indices":31,
					"material":7
				},
				{
					"attributes":{
						"POSITION":32,
						"NORMAL":33,
						"TEXCOORD_0":34
					},
					"indices":35,
					"material":8
				},
				{
					"attributes":{
						"POSITION":36,
						"NORMAL":37,
						"TEXCOORD_0":38
					},
					"indices":39,
					"material":9
				},
				{
					"attributes":{
						"POSITION":40,
						"NORMAL":41,
						"TEXCOORD_0":42
					},
					"indices":43,
					"material":10
				},
				{
					"attributes":{
						"POSITION":44,
						"NORMAL":45,
						"TEXCOORD_0":46
					},
					"indices":47,
					"material":11
				}
			]
		}
	],
	"textures":[
		{
			"sampler":0,
			"source":0
		},
		{
			"sampler":0,
			"source":1
		},
		{
			"sampler":0,
			"source":2
		},
		{
			"sampler":0,
			"source":1
		},
		{
			"sampler":0,
			"source":2
		},
		{
			"sampler":0,
			"source":1
		},
		{
			"sampler":0,
			"source":2
		},
		{
			"sampler":0,
			"source":1
		},
		{
			"sampler":0,
			"source":2
		},
		{
			"sampler":0,
			"source":1
		},
		{
			"sampler":0,
			"source":2
		},
		{
			"sampler":0,
			"source":1
		},
		{
			"sampler":0,
			"source":2
		},
		{
			"sampler":0,
			"source":1
		},
		{
			"sampler":0,
			"source":2
		},
		{
			"sampler":0,
			"source":1
		},
		{
			"sampler":0,
			"source":1
		}
	],
	"images":[
		{
			"mimeType":"image/png",
			"name":"sm_building_04_Normal",
			"uri":"sm_building_04_Normal.png"
		},
		{
			"mimeType":"image/png",
			"name":"sm_building_04_Base_Color",
			"uri":"sm_building_04_Base_Color.png"
		},
		{
			"mimeType":"image/png",
			"name":"sm_building_04_Roughness",
			"uri":"sm_building_04_Roughness.png"
		}
	],
	"accessors":[
		{
			"bufferView":0,
			"componentType":5126,
			"count":24,
			"max":[
				7.485403537750244,
				7.354766368865967,
				4.060118675231934
			],
			"min":[
				-6.367233753204346,
				-0.0924285501241684,
				-6.834259033203125
			],
			"type":"VEC3"
		},
		{
			"bufferView":1,
			"componentType":5126,
			"count":24,
			"type":"VEC3"
		},
		{
			"bufferView":2,
			"componentType":5126,
			"count":24,
			"type":"VEC2"
		},
		{
			"bufferView":3,
			"componentType":5123,
			"count":36,
			"type":"SCALAR"
		},
		{
			"bufferView":4,
			"componentType":5126,
			"count":40,
			"max":[
				5.5131916999816895,
				0.7191346883773804,
				4.486883640289307
			],
			"min":[
				-5.202024459838867,
				0.0052958824671804905,
				-4.433671951293945
			],
			"type":"VEC3"
		},
		{
			"bufferView":5,
			"componentType":5126,
			"count":40,
			"type":"VEC3"
		},
		{
			"bufferView":6,
			"componentType":5126,
			"count":40,
			"type":"VEC2"
		},
		{
			"bufferView":7,
			"componentType":5123,
			"count":72,
			"type":"SCALAR"
		},
		{
			"bufferView":8,
			"componentType":5126,
			"count":829,
			"max":[
				7.466805458068848,
				11.33177375793457,
				3.9366908073425293
			],
			"min":[
				-5.866524696350098,
				-0.04235948994755745,
				-6.348739147186279
			],
			"type":"VEC3"
		},
		{
			"bufferView":9,
			"componentType":5126,
			"count":829,
			"type":"VEC3"
		},
		{
			"bufferView":10,
			"componentType":5126,
			"count":829,
			"type":"VEC2"
		},
		{
			"bufferView":11,
			"componentType":5123,
			"count":2232,
			"type":"SCALAR"
		},
		{
			"bufferView":12,
			"componentType":5126,
			"count":573,
			"max":[
				6.31349515914917,
				8.995258331298828,
				3.8925082683563232
			],
			"min":[
				-6.108858108520508,
				0.012758171185851097,
				-6.554261207580566
			],
			"type":"VEC3"
		},
		{
			"bufferView":13,
			"componentType":5126,
			"count":573,
			"type":"VEC3"
		},
		{
			"bufferView":14,
			"componentType":5126,
			"count":573,
			"type":"VEC2"
		},
		{
			"bufferView":15,
			"componentType":5123,
			"count":1464,
			"type":"SCALAR"
		},
		{
			"bufferView":16,
			"componentType":5126,
			"count":162,
			"max":[
				7.466501712799072,
				6.449207782745361,
				3.676518440246582
			],
			"min":[
				-5.866524696350098,
				0.012833871878683567,
				-3.689276695251465
			],
			"type":"VEC3"
		},
		{
			"bufferView":17,
			"componentType":5126,
			"count":162,
			"type":"VEC3"
		},
		{
			"bufferView":18,
			"componentType":5126,
			"count":162,
			"type":"VEC2"
		},
		{
			"bufferView":19,
			"componentType":5123,
			"count":318,
			"type":"SCALAR"
		},
		{
			"bufferView":20,
			"componentType":5126,
			"count":28,
			"max":[
				5.817428112030029,
				10.965986251831055,
				3.8154635429382324
			],
			"min":[
				3.4719483852386475,
				0.23521612584590912,
				-2.945446252822876
			],
			"type":"VEC3"
		},
		{
			"bufferView":21,
			"componentType":5126,
			"count":28,
			"type":"VEC3"
		},
		{
			"bufferView":22,
			"componentType":5126,
			"count":28,
			"type":"VEC2"
		},
		{
			"bufferView":23,
			"componentType":5123,
			"count":60,
			"type":"SCALAR"
		},
		{
			"bufferView":24,
			"componentType":5126,
			"count":1036,
			"max":[
				6.782820701599121,
				6.741065979003906,
				2.8959579467773438
			],
			"min":[
				-6.287744522094727,
				0.0297306589782238,
				-6.803700923919678
			],
			"type":"VEC3"
		},
		{
			"bufferView":25,
			"componentType":5126,
			"count":1036,
			"type":"VEC3"
		},
		{
			"bufferView":26,
			"componentType":5126,
			"count":1036,
			"type":"VEC2"
		},
		{
			"bufferView":27,
			"componentType":5123,
			"count":5598,
			"type":"SCALAR"
		},
		{
			"bufferView":28,
			"componentType":5126,
			"count":28,
			"max":[
				-5.866524696350098,
				4.172785758972168,
				2.7762978076934814
			],
			"min":[
				-7.996636867523193,
				3.514732599258423,
				-3.326305627822876
			],
			"type":"VEC3"
		},
		{
			"bufferView":29,
			"componentType":5126,
			"count":28,
			"type":"VEC3"
		},
		{
			"bufferView":30,
			"componentType":5126,
			"count":28,
			"type":"VEC2"
		},
		{
			"bufferView":31,
			"componentType":5123,
			"count":54,
			"type":"SCALAR"
		},
		{
			"bufferView":32,
			"componentType":5126,
			"count":296,
			"max":[
				6.375007152557373,
				7.1620917320251465,
				3.8863120079040527
			],
			"min":[
				-6.080650329589844,
				1.0522946119308472,
				-6.604517936706543
			],
			"type":"VEC3"
		},
		{
			"bufferView":33,
			"componentType":5126,
			"count":296,
			"type":"VEC3"
		},
		{
			"bufferView":34,
			"componentType":5126,
			"count":296,
			"type":"VEC2"
		},
		{
			"bufferView":35,
			"componentType":5123,
			"count":648,
			"type":"SCALAR"
		},
		{
			"bufferView":36,
			"componentType":5126,
			"count":16,
			"max":[
				6.249527454376221,
				7.055320739746094,
				3.774472951889038
			],
			"min":[
				-5.955170631408691,
				1.1590662002563477,
				-6.492679119110107
			],
			"type":"VEC3"
		},
		{
			"bufferView":37,
			"componentType":5126,
			"count":16,
			"type":"VEC3"
		},
		{
			"bufferView":38,
			"componentType":5126,
			"count":16,
			"type":"VEC2"
		},
		{
			"bufferView":39,
			"componentType":5123,
			"count":24,
			"type":"SCALAR"
		},
		{
			"bufferView":40,
			"componentType":5126,
			"count":178,
			"max":[
				4.3243937492370605,
				3.0099053382873535,
				4.444781303405762
			],
			"min":[
				2.936603546142578,
				0.20543764531612396,
				3.831979513168335
			],
			"type":"VEC3"
		},
		{
			"bufferView":41,
			"componentType":5126,
			"count":178,
			"type":"VEC3"
		},
		{
			"bufferView":42,
			"componentType":5126,
			"count":178,
			"type":"VEC2"
		},
		{
			"bufferView":43,
			"componentType":5123,
			"count":522,
			"type":"SCALAR"
		},
		{
			"bufferView":44,
			"componentType":5126,
			"count":4,
			"max":[
				3.8015549182891846,
				2.633322238922119,
				4.156182765960693
			],
			"min":[
				3.428506374359131,
				2.1284236907958984,
				4.0294880867004395
			],
			"type":"VEC3"
		},
		{
			"bufferView":45,
			"componentType":5126,
			"count":4,
			"type":"VEC3"
		},
		{
			"bufferView":46,
			"componentType":5126,
			"count":4,
			"type":"VEC2"
		},
		{
			"bufferView":47,
			"componentType":5123,
			"count":6,
			"type":"SCALAR"
		}
	],
	"bufferViews":[
		{
			"buffer":0,
			"byteLength":288,
			"byteOffset":0,
			"target":34962
		},
		{
			"buffer":0,
			"byteLength":288,
			"byteOffset":288,
			"target":34962
		},
		{
			"buffer":0,
			"byteLength":192,
			"byteOffset":576,
			"target":34962
		},
		{
			"buffer":0,
			"byteLength":72,
			"byteOffset":768,
			"target":34963
		},
		{
			"buffer":0,
			"byteLength":480,
			"byteOffset":840,
			"target":34962
		},
		{
			"buffer":0,
			"byteLength":480,
			"byteOffset":1320,
			"target":34962
		},
		{
			"buffer":0,
			"byteLength":320,
			"byteOffset":1800,
			"target":34962
		},
		{
			"buffer":0,
			"byteLength":144,
			"byteOffset":2120,
			"target":34963
		},
		{
			"buffer":0,
			"byteLength":9948,
			"byteOffset":2264,
			"target":34962
		},
		{
			"buffer":0,
			"byteLength":9948,
			"byteOffset":12212,
			"target":34962
		},
		{
			"buffer":0,
			"byteLength":6632,
			"byteOffset":22160,
			"target":34962
		},
		{
			"buffer":0,
			"byteLength":4464,
			"byteOffset":28792,
			"target":34963
		},
		{
			"buffer":0,
			"byteLength":6876,
			"byteOffset":33256,
			"target":34962
		},
		{
			"buffer":0,
			"byteLength":6876,
			"byteOffset":40132,
			"target":34962
		},
		{
			"buffer":0,
			"byteLength":4584,
			"byteOffset":47008,
			"target":34962
		},
		{
			"buffer":0,
			"byteLength":2928,
			"byteOffset":51592,
			"target":34963
		},
		{
			"buffer":0,
			"byteLength":1944,
			"byteOffset":54520,
			"target":34962
		},
		{
			"buffer":0,
			"byteLength":1944,
			"byteOffset":56464,
			"target":34962
		},
		{
			"buffer":0,
			"byteLength":1296,
			"byteOffset":58408,
			"target":34962
		},
		{
			"buffer":0,
			"byteLength":636,
			"byteOffset":59704,
			"target":34963
		},
		{
			"buffer":0,
			"byteLength":336,
			"byteOffset":60340,
			"target":34962
		},
		{
			"buffer":0,
			"byteLength":336,
			"byteOffset":60676,
			"target":34962
		},
		{
			"buffer":0,
			"byteLength":224,
			"byteOffset":61012,
			"target":34962
		},
		{
			"buffer":0,
			"byteLength":120,
			"byteOffset":61236,
			"target":34963
		},
		{
			"buffer":0,
			"byteLength":12432,
			"byteOffset":61356,
			"target":34962
		},
		{
			"buffer":0,
			"byteLength":12432,
			"byteOffset":73788,
			"target":34962
		},
		{
			"buffer":0,
			"byteLength":8288,
			"byteOffset":86220,
			"target":34962
		},
		{
			"buffer":0,
			"byteLength":11196,
			"byteOffset":94508,
			"target":34963
		},
		{
			"buffer":0,
			"byteLength":336,
			"byteOffset":105704,
			"target":34962
		},
		{
			"buffer":0,
			"byteLength":336,
			"byteOffset":106040,
			"target":34962
		},
		{
			"buffer":0,
			"byteLength":224,
			"byteOffset":106376,
			"target":34962
		},
		{
			"buffer":0,
			"byteLength":108,
			"byteOffset":106600,
			"target":34963
		},
		{
			"buffer":0,
			"byteLength":3552,
			"byteOffset":106708,
			"target":34962
		},
		{
			"buffer":0,
			"byteLength":3552,
			"byteOffset":110260,
			"target":34962
		},
		{
			"buffer":0,
			"byteLength":2368,
			"byteOffset":113812,
			"target":34962
		},
		{
			"buffer":0,
			"byteLength":1296,
			"byteOffset":116180,
			"target":34963
		},
		{
			"buffer":0,
			"byteLength":192,
			"byteOffset":117476,
			"target":34962
		},
		{
			"buffer":0,
			"byteLength":192,
			"byteOffset":117668,
			"target":34962
		},
		{
			"buffer":0,
			"byteLength":128,
			"byteOffset":117860,
			"target":34962
		},
		{
			"buffer":0,
			"byteLength":48,
			"byteOffset":117988,
			"target":34963
		},
		{
			"buffer":0,
			"byteLength":2136,
			"byteOffset":118036,
			"target":34962
		},
		{
			"buffer":0,
			"byteLength":2136,
			"byteOffset":120172,
			"target":34962
		},
		{
			"buffer":0,
			"byteLength":1424,
			"byteOffset":122308,
			"target":34962
		},
		{
			"buffer":0,
			"byteLength":1044,
			"byteOffset":123732,
			"target":34963
		},
		{
			"buffer":0,
			"byteLength":48,
			"byteOffset":124776,
			"target":34962
		},
		{
			"buffer":0,
			"byteLength":48,
			"byteOffset":124824,
			"target":34962
		},
		{
			"buffer":0,
			"byteLength":32,
			"byteOffset":124872,
			"target":34962
		},
		{
			"buffer":0,
			"byteLength":12,
			"byteOffset":124904,
			"target":34963
		}
	],
	"samplers":[
		{
			"magFilter":9729,
			"minFilter":9987
		}
	],
	"buffers":[
		{
			"byteLength":124916,
			"uri":"sm_building_farming_short.bin"
		}
	]
}
