{
	"asset":{
		"generator":"Khronos glTF Blender I/O v4.4.56",
		"version":"2.0"
	},
	"scene":0,
	"scenes":[
		{
			"name":"Scene",
			"nodes":[
				5
			]
		}
	],
	"nodes":[
		{
			"mesh":0,
			"name":"collision_building_04-colonly"
		},
		{
			"children":[
				0
			],
			"name":"farmingshort-colonly"
		},
		{
			"mesh":1,
			"name":"navmesh_building_04_rooftop-navmesh",
			"scale":[
				5.077046871185303,
				4.505918502807617,
				4.662118434906006
			],
			"translation":[
				-0.0002205371856689453,
				7.354714393615723,
				-1.3587123155593872
			]
		},
		{
			"children":[
				2
			],
			"name":"farmingshort-navmesh"
		},
		{
			"mesh":2,
			"name":"sm_building_04_farmingshort-mesh",
			"scale":[
				4.1249308586120605,
				3.5084285736083984,
				3.676518440246582
			]
		},
		{
			"children":[
				1,
				3,
				4
			],
			"name":"mesh_building_04_farmingshort"
		}
	],
	"materials":[
		{
			"doubleSided":true,
			"name":"M_Collision",
			"pbrMetallicRoughness":{
				"baseColorFactor":[
					0.8002356290817261,
					0,
					0.004787445068359375,
					1
				],
				"metallicFactor":0,
				"roughnessFactor":0.5
			}
		},
		{
			"doubleSided":true,
			"name":"M_NavMesh",
			"pbrMetallicRoughness":{
				"baseColorFactor":[
					0,
					0.561145007610321,
					0.8001565933227539,
					1
				],
				"metallicFactor":0,
				"roughnessFactor":0.5
			}
		},
		{
			"doubleSided":true,
			"name":"T_Building_01_Base",
			"normalTexture":{
				"index":0
			},
			"pbrMetallicRoughness":{
				"baseColorTexture":{
					"index":1
				},
				"metallicFactor":0,
				"metallicRoughnessTexture":{
					"index":2
				}
			}
		},
		{
			"doubleSided":true,
			"name":"T_Building_01_Details",
			"pbrMetallicRoughness":{
				"baseColorTexture":{
					"index":3
				},
				"metallicFactor":0,
				"metallicRoughnessTexture":{
					"index":4
				}
			}
		},
		{
			"doubleSided":true,
			"name":"T_Building_01_Trim",
			"pbrMetallicRoughness":{
				"baseColorTexture":{
					"index":5
				},
				"metallicFactor":0.20909090340137482,
				"metallicRoughnessTexture":{
					"index":6
				}
			}
		},
		{
			"doubleSided":true,
			"name":"T_Building_01_Door",
			"pbrMetallicRoughness":{
				"baseColorFactor":[
					0,
					0,
					0,
					1
				],
				"metallicFactor":0,
				"roughnessFactor":0.5
			}
		},
		{
			"doubleSided":true,
			"name":"T_Interior",
			"pbrMetallicRoughness":{
				"baseColorTexture":{
					"index":7
				},
				"metallicFactor":0,
				"metallicRoughnessTexture":{
					"index":8
				}
			}
		},
		{
			"doubleSided":true,
			"name":"T_Overhang",
			"pbrMetallicRoughness":{
				"baseColorTexture":{
					"index":9
				},
				"metallicFactor":0,
				"metallicRoughnessTexture":{
					"index":10
				}
			}
		},
		{
			"doubleSided":true,
			"name":"T_Building_01_WindowTrim",
			"pbrMetallicRoughness":{
				"baseColorTexture":{
					"index":11
				},
				"metallicFactor":0,
				"metallicRoughnessTexture":{
					"index":12
				}
			}
		},
		{
			"doubleSided":true,
			"name":"T_Building_01_WindowGlass",
			"pbrMetallicRoughness":{
				"baseColorTexture":{
					"index":13
				},
				"metallicFactor":0,
				"metallicRoughnessTexture":{
					"index":14
				}
			}
		}
	],
	"meshes":[
		{
			"name":"Cube.006",
			"primitives":[
				{
					"attributes":{
						"POSITION":0,
						"NORMAL":1,
						"TEXCOORD_0":2
					},
					"indices":3,
					"material":0
				}
			]
		},
		{
			"name":"Plane",
			"primitives":[
				{
					"attributes":{
						"POSITION":4,
						"NORMAL":5,
						"TEXCOORD_0":6
					},
					"indices":7,
					"material":1
				}
			]
		},
		{
			"name":"Cube.002",
			"primitives":[
				{
					"attributes":{
						"POSITION":8,
						"NORMAL":9,
						"TEXCOORD_0":10
					},
					"indices":11,
					"material":2
				},
				{
					"attributes":{
						"POSITION":12,
						"NORMAL":13,
						"TEXCOORD_0":14
					},
					"indices":15,
					"material":3
				},
				{
					"attributes":{
						"POSITION":16,
						"NORMAL":17,
						"TEXCOORD_0":18
					},
					"indices":19,
					"material":4
				},
				{
					"attributes":{
						"POSITION":20,
						"NORMAL":21,
						"TEXCOORD_0":22
					},
					"indices":23,
					"material":5
				},
				{
					"attributes":{
						"POSITION":24,
						"NORMAL":25,
						"TEXCOORD_0":26
					},
					"indices":27,
					"material":6
				},
				{
					"attributes":{
						"POSITION":28,
						"NORMAL":29,
						"TEXCOORD_0":30
					},
					"indices":31,
					"material":7
				},
				{
					"attributes":{
						"POSITION":32,
						"NORMAL":33,
						"TEXCOORD_0":34
					},
					"indices":35,
					"material":8
				},
				{
					"attributes":{
						"POSITION":36,
						"NORMAL":37,
						"TEXCOORD_0":38
					},
					"indices":39,
					"material":9
				}
			]
		}
	],
	"textures":[
		{
			"sampler":0,
			"source":0
		},
		{
			"sampler":0,
			"source":1
		},
		{
			"sampler":0,
			"source":2
		},
		{
			"sampler":0,
			"source":1
		},
		{
			"sampler":0,
			"source":2
		},
		{
			"sampler":0,
			"source":1
		},
		{
			"sampler":0,
			"source":2
		},
		{
			"sampler":0,
			"source":1
		},
		{
			"sampler":0,
			"source":2
		},
		{
			"sampler":0,
			"source":1
		},
		{
			"sampler":0,
			"source":2
		},
		{
			"sampler":0,
			"source":1
		},
		{
			"sampler":0,
			"source":2
		},
		{
			"sampler":0,
			"source":1
		},
		{
			"sampler":0,
			"source":2
		}
	],
	"images":[
		{
			"mimeType":"image/png",
			"name":"sm_building_04_Normal",
			"uri":"sm_building_04_Normal.png"
		},
		{
			"mimeType":"image/png",
			"name":"sm_building_04_Base_Color",
			"uri":"sm_building_04_Base_Color.png"
		},
		{
			"mimeType":"image/png",
			"name":"sm_building_04_Roughness",
			"uri":"sm_building_04_Roughness.png"
		}
	],
	"accessors":[
		{
			"bufferView":0,
			"componentType":5126,
			"count":24,
			"max":[
				7.485403537750244,
				7.354766368865967,
				3.913731098175049
			],
			"min":[
				-6.367233753204346,
				-0.0924285501241684,
				-6.834259033203125
			],
			"type":"VEC3"
		},
		{
			"bufferView":1,
			"componentType":5126,
			"count":24,
			"type":"VEC3"
		},
		{
			"bufferView":2,
			"componentType":5126,
			"count":24,
			"type":"VEC2"
		},
		{
			"bufferView":3,
			"componentType":5123,
			"count":36,
			"type":"SCALAR"
		},
		{
			"bufferView":4,
			"componentType":5126,
			"count":40,
			"max":[
				1.0859051942825317,
				0.2329684942960739,
				0.9624130725860596
			],
			"min":[
				-1.0246162414550781,
				0.0011753169819712639,
				-0.95099937915802
			],
			"type":"VEC3"
		},
		{
			"bufferView":5,
			"componentType":5126,
			"count":40,
			"type":"VEC3"
		},
		{
			"bufferView":6,
			"componentType":5126,
			"count":40,
			"type":"VEC2"
		},
		{
			"bufferView":7,
			"componentType":5123,
			"count":72,
			"type":"SCALAR"
		},
		{
			"bufferView":8,
			"componentType":5126,
			"count":643,
			"max":[
				1.8101650476455688,
				3.1780178546905518,
				1
			],
			"min":[
				-1.4222116470336914,
				0.003658011555671692,
				-1.7268345355987549
			],
			"type":"VEC3"
		},
		{
			"bufferView":9,
			"componentType":5126,
			"count":643,
			"type":"VEC3"
		},
		{
			"bufferView":10,
			"componentType":5126,
			"count":643,
			"type":"VEC2"
		},
		{
			"bufferView":11,
			"componentType":5123,
			"count":1608,
			"type":"SCALAR"
		},
		{
			"bufferView":12,
			"componentType":5126,
			"count":573,
			"max":[
				1.5305699110031128,
				2.563899517059326,
				1.058748483657837
			],
			"min":[
				-1.4809601306915283,
				0.0036364346742630005,
				-1.782735824584961
			],
			"type":"VEC3"
		},
		{
			"bufferView":13,
			"componentType":5126,
			"count":573,
			"type":"VEC3"
		},
		{
			"bufferView":14,
			"componentType":5126,
			"count":573,
			"type":"VEC2"
		},
		{
			"bufferView":15,
			"componentType":5123,
			"count":1464,
			"type":"SCALAR"
		},
		{
			"bufferView":16,
			"componentType":5126,
			"count":162,
			"max":[
				1.8100913763046265,
				1.8382041454315186,
				1
			],
			"min":[
				-1.4222116470336914,
				0.003658011555671692,
				-1.0034701824188232
			],
			"type":"VEC3"
		},
		{
			"bufferView":17,
			"componentType":5126,
			"count":162,
			"type":"VEC3"
		},
		{
			"bufferView":18,
			"componentType":5126,
			"count":162,
			"type":"VEC2"
		},
		{
			"bufferView":19,
			"componentType":5123,
			"count":318,
			"type":"SCALAR"
		},
		{
			"bufferView":20,
			"componentType":5126,
			"count":16,
			"max":[
				1.4103091955184937,
				3.1256120204925537,
				0.9516360759735107
			],
			"min":[
				0.8970469236373901,
				0.07062192261219025,
				-0.8011509776115417
			],
			"type":"VEC3"
		},
		{
			"bufferView":21,
			"componentType":5126,
			"count":16,
			"type":"VEC3"
		},
		{
			"bufferView":22,
			"componentType":5126,
			"count":16,
			"type":"VEC2"
		},
		{
			"bufferView":23,
			"componentType":5123,
			"count":36,
			"type":"SCALAR"
		},
		{
			"bufferView":24,
			"componentType":5126,
			"count":1036,
			"max":[
				1.6443477869033813,
				1.9213918447494507,
				0.787690281867981
			],
			"min":[
				-1.524327278137207,
				0.008474066853523254,
				-1.8505825996398926
			],
			"type":"VEC3"
		},
		{
			"bufferView":25,
			"componentType":5126,
			"count":1036,
			"type":"VEC3"
		},
		{
			"bufferView":26,
			"componentType":5126,
			"count":1036,
			"type":"VEC2"
		},
		{
			"bufferView":27,
			"componentType":5123,
			"count":5598,
			"type":"SCALAR"
		},
		{
			"bufferView":28,
			"componentType":5126,
			"count":28,
			"max":[
				-1.4222116470336914,
				1.1893603801727295,
				0.7551431655883789
			],
			"min":[
				-1.9386111497879028,
				1.001796841621399,
				-0.9047433733940125
			],
			"type":"VEC3"
		},
		{
			"bufferView":29,
			"componentType":5126,
			"count":28,
			"type":"VEC3"
		},
		{
			"bufferView":30,
			"componentType":5126,
			"count":28,
			"type":"VEC2"
		},
		{
			"bufferView":31,
			"componentType":5123,
			"count":54,
			"type":"SCALAR"
		},
		{
			"bufferView":32,
			"componentType":5126,
			"count":344,
			"max":[
				1.5454821586608887,
				2.041395902633667,
				1.057063102722168
			],
			"min":[
				-1.4741218090057373,
				0.2999333143234253,
				-1.796405553817749
			],
			"type":"VEC3"
		},
		{
			"bufferView":33,
			"componentType":5126,
			"count":344,
			"type":"VEC3"
		},
		{
			"bufferView":34,
			"componentType":5126,
			"count":344,
			"type":"VEC2"
		},
		{
			"bufferView":35,
			"componentType":5123,
			"count":648,
			"type":"SCALAR"
		},
		{
			"bufferView":36,
			"componentType":5126,
			"count":16,
			"max":[
				1.5150623321533203,
				2.010963201522827,
				1.0266432762145996
			],
			"min":[
				-1.443701982498169,
				0.33036619424819946,
				-1.7659857273101807
			],
			"type":"VEC3"
		},
		{
			"bufferView":37,
			"componentType":5126,
			"count":16,
			"type":"VEC3"
		},
		{
			"bufferView":38,
			"componentType":5126,
			"count":16,
			"type":"VEC2"
		},
		{
			"bufferView":39,
			"componentType":5123,
			"count":24,
			"type":"SCALAR"
		}
	],
	"bufferViews":[
		{
			"buffer":0,
			"byteLength":288,
			"byteOffset":0,
			"target":34962
		},
		{
			"buffer":0,
			"byteLength":288,
			"byteOffset":288,
			"target":34962
		},
		{
			"buffer":0,
			"byteLength":192,
			"byteOffset":576,
			"target":34962
		},
		{
			"buffer":0,
			"byteLength":72,
			"byteOffset":768,
			"target":34963
		},
		{
			"buffer":0,
			"byteLength":480,
			"byteOffset":840,
			"target":34962
		},
		{
			"buffer":0,
			"byteLength":480,
			"byteOffset":1320,
			"target":34962
		},
		{
			"buffer":0,
			"byteLength":320,
			"byteOffset":1800,
			"target":34962
		},
		{
			"buffer":0,
			"byteLength":144,
			"byteOffset":2120,
			"target":34963
		},
		{
			"buffer":0,
			"byteLength":7716,
			"byteOffset":2264,
			"target":34962
		},
		{
			"buffer":0,
			"byteLength":7716,
			"byteOffset":9980,
			"target":34962
		},
		{
			"buffer":0,
			"byteLength":5144,
			"byteOffset":17696,
			"target":34962
		},
		{
			"buffer":0,
			"byteLength":3216,
			"byteOffset":22840,
			"target":34963
		},
		{
			"buffer":0,
			"byteLength":6876,
			"byteOffset":26056,
			"target":34962
		},
		{
			"buffer":0,
			"byteLength":6876,
			"byteOffset":32932,
			"target":34962
		},
		{
			"buffer":0,
			"byteLength":4584,
			"byteOffset":39808,
			"target":34962
		},
		{
			"buffer":0,
			"byteLength":2928,
			"byteOffset":44392,
			"target":34963
		},
		{
			"buffer":0,
			"byteLength":1944,
			"byteOffset":47320,
			"target":34962
		},
		{
			"buffer":0,
			"byteLength":1944,
			"byteOffset":49264,
			"target":34962
		},
		{
			"buffer":0,
			"byteLength":1296,
			"byteOffset":51208,
			"target":34962
		},
		{
			"buffer":0,
			"byteLength":636,
			"byteOffset":52504,
			"target":34963
		},
		{
			"buffer":0,
			"byteLength":192,
			"byteOffset":53140,
			"target":34962
		},
		{
			"buffer":0,
			"byteLength":192,
			"byteOffset":53332,
			"target":34962
		},
		{
			"buffer":0,
			"byteLength":128,
			"byteOffset":53524,
			"target":34962
		},
		{
			"buffer":0,
			"byteLength":72,
			"byteOffset":53652,
			"target":34963
		},
		{
			"buffer":0,
			"byteLength":12432,
			"byteOffset":53724,
			"target":34962
		},
		{
			"buffer":0,
			"byteLength":12432,
			"byteOffset":66156,
			"target":34962
		},
		{
			"buffer":0,
			"byteLength":8288,
			"byteOffset":78588,
			"target":34962
		},
		{
			"buffer":0,
			"byteLength":11196,
			"byteOffset":86876,
			"target":34963
		},
		{
			"buffer":0,
			"byteLength":336,
			"byteOffset":98072,
			"target":34962
		},
		{
			"buffer":0,
			"byteLength":336,
			"byteOffset":98408,
			"target":34962
		},
		{
			"buffer":0,
			"byteLength":224,
			"byteOffset":98744,
			"target":34962
		},
		{
			"buffer":0,
			"byteLength":108,
			"byteOffset":98968,
			"target":34963
		},
		{
			"buffer":0,
			"byteLength":4128,
			"byteOffset":99076,
			"target":34962
		},
		{
			"buffer":0,
			"byteLength":4128,
			"byteOffset":103204,
			"target":34962
		},
		{
			"buffer":0,
			"byteLength":2752,
			"byteOffset":107332,
			"target":34962
		},
		{
			"buffer":0,
			"byteLength":1296,
			"byteOffset":110084,
			"target":34963
		},
		{
			"buffer":0,
			"byteLength":192,
			"byteOffset":111380,
			"target":34962
		},
		{
			"buffer":0,
			"byteLength":192,
			"byteOffset":111572,
			"target":34962
		},
		{
			"buffer":0,
			"byteLength":128,
			"byteOffset":111764,
			"target":34962
		},
		{
			"buffer":0,
			"byteLength":48,
			"byteOffset":111892,
			"target":34963
		}
	],
	"samplers":[
		{
			"magFilter":9729,
			"minFilter":9987
		}
	],
	"buffers":[
		{
			"byteLength":111940,
			"uri":"sm_building_farming_short.bin"
		}
	]
}
