{
	"asset":{
		"generator":"Khronos glTF Blender I/O v4.4.56",
		"version":"2.0"
	},
	"scene":0,
	"scenes":[
		{
			"name":"Scene",
			"nodes":[
				0
			]
		}
	],
	"nodes":[
		{
			"mesh":0,
			"name":"SM_RainBarrel_Type_02.001"
		}
	],
	"materials":[
		{
			"doubleSided":true,
			"name":"M_RainBarrel_Vertical",
			"pbrMetallicRoughness":{
				"baseColorTexture":{
					"index":0
				},
				"metallicFactor":0,
				"roughnessFactor":0.5
			}
		},
		{
			"doubleSided":true,
			"name":"M_WaterSpoutHandle",
			"pbrMetallicRoughness":{
				"baseColorTexture":{
					"index":1
				},
				"metallicFactor":0,
				"roughnessFactor":0.5
			}
		},
		{
			"doubleSided":true,
			"name":"M_WaterSpoutPipe",
			"pbrMetallicRoughness":{
				"baseColorTexture":{
					"index":2
				},
				"metallicFactor":0,
				"roughnessFactor":0.5
			}
		},
		{
			"doubleSided":true,
			"name":"M_RainBarrel_Cap",
			"pbrMetallicRoughness":{
				"baseColorTexture":{
					"index":3
				},
				"metallicFactor":0,
				"roughnessFactor":0.5
			}
		},
		{
			"doubleSided":true,
			"name":"M_RainBarrel_CapMesh",
			"pbrMetallicRoughness":{
				"baseColorTexture":{
					"index":4
				},
				"metallicFactor":0,
				"roughnessFactor":0.5
			}
		},
		{
			"doubleSided":true,
			"name":"M_RainBarrelCaps",
			"pbrMetallicRoughness":{
				"baseColorTexture":{
					"index":5
				},
				"metallicFactor":0,
				"roughnessFactor":0.5
			}
		},
		{
			"doubleSided":true,
			"name":"M_RainBarrelHolder",
			"pbrMetallicRoughness":{
				"baseColorTexture":{
					"index":6
				},
				"metallicFactor":0,
				"roughnessFactor":0.5
			}
		}
	],
	"meshes":[
		{
			"name":"Cylinder.006",
			"primitives":[
				{
					"attributes":{
						"POSITION":0,
						"NORMAL":1,
						"TEXCOORD_0":2
					},
					"indices":3,
					"material":0
				},
				{
					"attributes":{
						"POSITION":4,
						"NORMAL":5,
						"TEXCOORD_0":6
					},
					"indices":7,
					"material":1
				},
				{
					"attributes":{
						"POSITION":8,
						"NORMAL":9,
						"TEXCOORD_0":10
					},
					"indices":11,
					"material":2
				},
				{
					"attributes":{
						"POSITION":12,
						"NORMAL":13,
						"TEXCOORD_0":14
					},
					"indices":15,
					"material":3
				},
				{
					"attributes":{
						"POSITION":16,
						"NORMAL":17,
						"TEXCOORD_0":18
					},
					"indices":19,
					"material":4
				},
				{
					"attributes":{
						"POSITION":20,
						"NORMAL":21,
						"TEXCOORD_0":22
					},
					"indices":23,
					"material":5
				},
				{
					"attributes":{
						"POSITION":24,
						"NORMAL":25,
						"TEXCOORD_0":26
					},
					"indices":27,
					"material":6
				}
			]
		}
	],
	"textures":[
		{
			"sampler":0,
			"source":0
		},
		{
			"sampler":0,
			"source":0
		},
		{
			"sampler":0,
			"source":0
		},
		{
			"sampler":0,
			"source":0
		},
		{
			"sampler":0,
			"source":0
		},
		{
			"sampler":0,
			"source":0
		},
		{
			"sampler":0,
			"source":0
		}
	],
	"images":[
		{
			"mimeType":"image/png",
			"name":"RainBarrel_Base_Color",
			"uri":"RainBarrel_Base_Color.png"
		}
	],
	"accessors":[
		{
			"bufferView":0,
			"componentType":5126,
			"count":1478,
			"max":[
				0.3049089014530182,
				1.6718195676803589,
				0.3101128935813904
			],
			"min":[
				-0.32150864601135254,
				0.15384425222873688,
				-0.3101128935813904
			],
			"type":"VEC3"
		},
		{
			"bufferView":1,
			"componentType":5126,
			"count":1478,
			"type":"VEC3"
		},
		{
			"bufferView":2,
			"componentType":5126,
			"count":1478,
			"type":"VEC2"
		},
		{
			"bufferView":3,
			"componentType":5123,
			"count":4980,
			"type":"SCALAR"
		},
		{
			"bufferView":4,
			"componentType":5126,
			"count":364,
			"max":[
				0.11371201276779175,
				0.39092084765434265,
				0.5298832654953003
			],
			"min":[
				-0.032394059002399445,
				0.26948216557502747,
				0.38469547033309937
			],
			"type":"VEC3"
		},
		{
			"bufferView":5,
			"componentType":5126,
			"count":364,
			"type":"VEC3"
		},
		{
			"bufferView":6,
			"componentType":5126,
			"count":364,
			"type":"VEC2"
		},
		{
			"bufferView":7,
			"componentType":5123,
			"count":1248,
			"type":"SCALAR"
		},
		{
			"bufferView":8,
			"componentType":5126,
			"count":392,
			"max":[
				0.07149728387594223,
				0.32853683829307556,
				0.46469688415527344
			],
			"min":[
				0.0020347898826003075,
				0.1850665658712387,
				0.28731876611709595
			],
			"type":"VEC3"
		},
		{
			"bufferView":9,
			"componentType":5126,
			"count":392,
			"type":"VEC3"
		},
		{
			"bufferView":10,
			"componentType":5126,
			"count":392,
			"type":"VEC2"
		},
		{
			"bufferView":11,
			"componentType":5123,
			"count":1152,
			"type":"SCALAR"
		},
		{
			"bufferView":12,
			"componentType":5126,
			"count":151,
			"max":[
				0.27156826853752136,
				1.6824629306793213,
				0.28381893038749695
			],
			"min":[
				-0.28736788034439087,
				1.669800877571106,
				-0.26836201548576355
			],
			"type":"VEC3"
		},
		{
			"bufferView":13,
			"componentType":5126,
			"count":151,
			"type":"VEC3"
		},
		{
			"bufferView":14,
			"componentType":5126,
			"count":151,
			"type":"VEC2"
		},
		{
			"bufferView":15,
			"componentType":5123,
			"count":558,
			"type":"SCALAR"
		},
		{
			"bufferView":16,
			"componentType":5126,
			"count":21,
			"max":[
				0.1300027221441269,
				1.669800877571106,
				0.1439642310142517
			],
			"min":[
				-0.14580222964286804,
				1.669800877571106,
				-0.12850740551948547
			],
			"type":"VEC3"
		},
		{
			"bufferView":17,
			"componentType":5126,
			"count":21,
			"type":"VEC3"
		},
		{
			"bufferView":18,
			"componentType":5126,
			"count":21,
			"type":"VEC2"
		},
		{
			"bufferView":19,
			"componentType":5123,
			"count":72,
			"type":"SCALAR"
		},
		{
			"bufferView":20,
			"componentType":5126,
			"count":117,
			"max":[
				0.029412580654025078,
				1.6866614818572998,
				-0.17382241785526276
			],
			"min":[
				-0.05100542679429054,
				1.6714544296264648,
				-0.25326859951019287
			],
			"type":"VEC3"
		},
		{
			"bufferView":21,
			"componentType":5126,
			"count":117,
			"type":"VEC3"
		},
		{
			"bufferView":22,
			"componentType":5126,
			"count":117,
			"type":"VEC2"
		},
		{
			"bufferView":23,
			"componentType":5123,
			"count":360,
			"type":"SCALAR"
		},
		{
			"bufferView":24,
			"componentType":5126,
			"count":552,
			"max":[
				0.351688027381897,
				0.33329132199287415,
				0.34957870841026306
			],
			"min":[
				-0.3734360337257385,
				-0.0012313624611124396,
				-0.351688027381897
			],
			"type":"VEC3"
		},
		{
			"bufferView":25,
			"componentType":5126,
			"count":552,
			"type":"VEC3"
		},
		{
			"bufferView":26,
			"componentType":5126,
			"count":552,
			"type":"VEC2"
		},
		{
			"bufferView":27,
			"componentType":5123,
			"count":1536,
			"type":"SCALAR"
		}
	],
	"bufferViews":[
		{
			"buffer":0,
			"byteLength":17736,
			"byteOffset":0,
			"target":34962
		},
		{
			"buffer":0,
			"byteLength":17736,
			"byteOffset":17736,
			"target":34962
		},
		{
			"buffer":0,
			"byteLength":11824,
			"byteOffset":35472,
			"target":34962
		},
		{
			"buffer":0,
			"byteLength":9960,
			"byteOffset":47296,
			"target":34963
		},
		{
			"buffer":0,
			"byteLength":4368,
			"byteOffset":57256,
			"target":34962
		},
		{
			"buffer":0,
			"byteLength":4368,
			"byteOffset":61624,
			"target":34962
		},
		{
			"buffer":0,
			"byteLength":2912,
			"byteOffset":65992,
			"target":34962
		},
		{
			"buffer":0,
			"byteLength":2496,
			"byteOffset":68904,
			"target":34963
		},
		{
			"buffer":0,
			"byteLength":4704,
			"byteOffset":71400,
			"target":34962
		},
		{
			"buffer":0,
			"byteLength":4704,
			"byteOffset":76104,
			"target":34962
		},
		{
			"buffer":0,
			"byteLength":3136,
			"byteOffset":80808,
			"target":34962
		},
		{
			"buffer":0,
			"byteLength":2304,
			"byteOffset":83944,
			"target":34963
		},
		{
			"buffer":0,
			"byteLength":1812,
			"byteOffset":86248,
			"target":34962
		},
		{
			"buffer":0,
			"byteLength":1812,
			"byteOffset":88060,
			"target":34962
		},
		{
			"buffer":0,
			"byteLength":1208,
			"byteOffset":89872,
			"target":34962
		},
		{
			"buffer":0,
			"byteLength":1116,
			"byteOffset":91080,
			"target":34963
		},
		{
			"buffer":0,
			"byteLength":252,
			"byteOffset":92196,
			"target":34962
		},
		{
			"buffer":0,
			"byteLength":252,
			"byteOffset":92448,
			"target":34962
		},
		{
			"buffer":0,
			"byteLength":168,
			"byteOffset":92700,
			"target":34962
		},
		{
			"buffer":0,
			"byteLength":144,
			"byteOffset":92868,
			"target":34963
		},
		{
			"buffer":0,
			"byteLength":1404,
			"byteOffset":93012,
			"target":34962
		},
		{
			"buffer":0,
			"byteLength":1404,
			"byteOffset":94416,
			"target":34962
		},
		{
			"buffer":0,
			"byteLength":936,
			"byteOffset":95820,
			"target":34962
		},
		{
			"buffer":0,
			"byteLength":720,
			"byteOffset":96756,
			"target":34963
		},
		{
			"buffer":0,
			"byteLength":6624,
			"byteOffset":97476,
			"target":34962
		},
		{
			"buffer":0,
			"byteLength":6624,
			"byteOffset":104100,
			"target":34962
		},
		{
			"buffer":0,
			"byteLength":4416,
			"byteOffset":110724,
			"target":34962
		},
		{
			"buffer":0,
			"byteLength":3072,
			"byteOffset":115140,
			"target":34963
		}
	],
	"samplers":[
		{
			"magFilter":9729,
			"minFilter":9987
		}
	],
	"buffers":[
		{
			"byteLength":118212,
			"uri":"sm_rain_barrel.bin"
		}
	]
}
