{
	"asset":{
		"generator":"Khronos glTF Blender I/O v4.3.47",
		"version":"2.0"
	},
	"scene":0,
	"scenes":[
		{
			"name":"Scene",
			"nodes":[
				0
			]
		}
	],
	"nodes":[
		{
			"mesh":0,
			"name":"SM_RainBarrel_Type_02.001"
		}
	],
	"materials":[
		{
			"doubleSided":true,
			"name":"M_RainBarrel_Vertical",
			"pbrMetallicRoughness":{
				"baseColorTexture":{
					"index":0
				},
				"metallicFactor":0,
				"roughnessFactor":0.5
			}
		},
		{
			"doubleSided":true,
			"name":"M_WaterSpoutHandle",
			"pbrMetallicRoughness":{
				"baseColorTexture":{
					"index":1
				},
				"metallicFactor":0,
				"roughnessFactor":0.5
			}
		},
		{
			"doubleSided":true,
			"name":"M_WaterSpoutPipe",
			"pbrMetallicRoughness":{
				"baseColorTexture":{
					"index":2
				},
				"metallicFactor":0,
				"roughnessFactor":0.5
			}
		},
		{
			"doubleSided":true,
			"name":"M_RainBarrel_Cap",
			"pbrMetallicRoughness":{
				"baseColorTexture":{
					"index":3
				},
				"metallicFactor":0,
				"roughnessFactor":0.5
			}
		},
		{
			"doubleSided":true,
			"name":"M_RainBarrel_CapMesh",
			"pbrMetallicRoughness":{
				"baseColorTexture":{
					"index":4
				},
				"metallicFactor":0,
				"roughnessFactor":0.5
			}
		},
		{
			"doubleSided":true,
			"name":"M_RainBarrelCaps",
			"pbrMetallicRoughness":{
				"baseColorTexture":{
					"index":5
				},
				"metallicFactor":0,
				"roughnessFactor":0.5
			}
		},
		{
			"doubleSided":true,
			"name":"M_RainBarrelHolder",
			"pbrMetallicRoughness":{
				"baseColorTexture":{
					"index":6
				},
				"metallicFactor":0,
				"roughnessFactor":0.5
			}
		}
	],
	"meshes":[
		{
			"name":"Cylinder.006",
			"primitives":[
				{
					"attributes":{
						"POSITION":0,
						"NORMAL":1,
						"TEXCOORD_0":2
					},
					"indices":3,
					"material":0
				},
				{
					"attributes":{
						"POSITION":4,
						"NORMAL":5,
						"TEXCOORD_0":6
					},
					"indices":7,
					"material":1
				},
				{
					"attributes":{
						"POSITION":8,
						"NORMAL":9,
						"TEXCOORD_0":10
					},
					"indices":11,
					"material":2
				},
				{
					"attributes":{
						"POSITION":12,
						"NORMAL":13,
						"TEXCOORD_0":14
					},
					"indices":15,
					"material":3
				},
				{
					"attributes":{
						"POSITION":16,
						"NORMAL":17,
						"TEXCOORD_0":18
					},
					"indices":19,
					"material":4
				},
				{
					"attributes":{
						"POSITION":20,
						"NORMAL":21,
						"TEXCOORD_0":22
					},
					"indices":23,
					"material":5
				},
				{
					"attributes":{
						"POSITION":24,
						"NORMAL":25,
						"TEXCOORD_0":26
					},
					"indices":27,
					"material":6
				}
			]
		}
	],
	"textures":[
		{
			"sampler":0,
			"source":0
		},
		{
			"sampler":0,
			"source":0
		},
		{
			"sampler":0,
			"source":0
		},
		{
			"sampler":0,
			"source":0
		},
		{
			"sampler":0,
			"source":0
		},
		{
			"sampler":0,
			"source":0
		},
		{
			"sampler":0,
			"source":0
		}
	],
	"images":[
		{
			"mimeType":"image/png",
			"name":"RainBarrel_Base_Color",
			"uri":"RainBarrel_Base_Color.png"
		}
	],
	"accessors":[
		{
			"bufferView":0,
			"componentType":5126,
			"count":1478,
			"max":[
				0.23843200504779816,
				1.307325839996338,
				0.2425014078617096
			],
			"min":[
				-0.25141263008117676,
				0.12030280381441116,
				-0.2425014078617096
			],
			"type":"VEC3"
		},
		{
			"bufferView":1,
			"componentType":5126,
			"count":1478,
			"type":"VEC3"
		},
		{
			"bufferView":2,
			"componentType":5126,
			"count":1478,
			"type":"VEC2"
		},
		{
			"bufferView":3,
			"componentType":5123,
			"count":4980,
			"type":"SCALAR"
		},
		{
			"bufferView":4,
			"componentType":5126,
			"count":364,
			"max":[
				0.08892027288675308,
				0.3056914508342743,
				0.4143569767475128
			],
			"min":[
				-0.025331437587738037,
				0.21072909235954285,
				0.3008233308792114
			],
			"type":"VEC3"
		},
		{
			"bufferView":5,
			"componentType":5126,
			"count":364,
			"type":"VEC3"
		},
		{
			"bufferView":6,
			"componentType":5126,
			"count":364,
			"type":"VEC2"
		},
		{
			"bufferView":7,
			"componentType":5123,
			"count":1248,
			"type":"SCALAR"
		},
		{
			"bufferView":8,
			"componentType":5126,
			"count":392,
			"max":[
				0.05590929090976715,
				0.2569085359573364,
				0.3633826673030853
			],
			"min":[
				0.001591160660609603,
				0.1447179615497589,
				0.2246769219636917
			],
			"type":"VEC3"
		},
		{
			"bufferView":9,
			"componentType":5126,
			"count":392,
			"type":"VEC3"
		},
		{
			"bufferView":10,
			"componentType":5126,
			"count":392,
			"type":"VEC2"
		},
		{
			"bufferView":11,
			"componentType":5123,
			"count":1152,
			"type":"SCALAR"
		},
		{
			"bufferView":12,
			"componentType":5126,
			"count":154,
			"max":[
				0.21236038208007812,
				1.3156487941741943,
				0.22194011509418488
			],
			"min":[
				-0.22471530735492706,
				1.3057472705841064,
				-0.2098531574010849
			],
			"type":"VEC3"
		},
		{
			"bufferView":13,
			"componentType":5126,
			"count":154,
			"type":"VEC3"
		},
		{
			"bufferView":14,
			"componentType":5126,
			"count":154,
			"type":"VEC2"
		},
		{
			"bufferView":15,
			"componentType":5123,
			"count":558,
			"type":"SCALAR"
		},
		{
			"bufferView":16,
			"componentType":5126,
			"count":21,
			"max":[
				0.10165924578905106,
				1.3057472705841064,
				0.11257684230804443
			],
			"min":[
				-0.11401411145925522,
				1.3057472705841064,
				-0.10048994421958923
			],
			"type":"VEC3"
		},
		{
			"bufferView":17,
			"componentType":5126,
			"count":21,
			"type":"VEC3"
		},
		{
			"bufferView":18,
			"componentType":5126,
			"count":21,
			"type":"VEC2"
		},
		{
			"bufferView":19,
			"componentType":5123,
			"count":72,
			"type":"SCALAR"
		},
		{
			"bufferView":20,
			"componentType":5126,
			"count":117,
			"max":[
				0.02299998700618744,
				1.3189319372177124,
				-0.1359252780675888
			],
			"min":[
				-0.03988511487841606,
				1.3070403337478638,
				-0.19805043935775757
			],
			"type":"VEC3"
		},
		{
			"bufferView":21,
			"componentType":5126,
			"count":117,
			"type":"VEC3"
		},
		{
			"bufferView":22,
			"componentType":5126,
			"count":117,
			"type":"VEC2"
		},
		{
			"bufferView":23,
			"componentType":5123,
			"count":360,
			"type":"SCALAR"
		},
		{
			"bufferView":24,
			"componentType":5126,
			"count":552,
			"max":[
				0.2750122547149658,
				0.2606264352798462,
				0.27336281538009644
			],
			"min":[
				-0.29201871156692505,
				-0.0009628981351852417,
				-0.2750122547149658
			],
			"type":"VEC3"
		},
		{
			"bufferView":25,
			"componentType":5126,
			"count":552,
			"type":"VEC3"
		},
		{
			"bufferView":26,
			"componentType":5126,
			"count":552,
			"type":"VEC2"
		},
		{
			"bufferView":27,
			"componentType":5123,
			"count":1536,
			"type":"SCALAR"
		}
	],
	"bufferViews":[
		{
			"buffer":0,
			"byteLength":17736,
			"byteOffset":0,
			"target":34962
		},
		{
			"buffer":0,
			"byteLength":17736,
			"byteOffset":17736,
			"target":34962
		},
		{
			"buffer":0,
			"byteLength":11824,
			"byteOffset":35472,
			"target":34962
		},
		{
			"buffer":0,
			"byteLength":9960,
			"byteOffset":47296,
			"target":34963
		},
		{
			"buffer":0,
			"byteLength":4368,
			"byteOffset":57256,
			"target":34962
		},
		{
			"buffer":0,
			"byteLength":4368,
			"byteOffset":61624,
			"target":34962
		},
		{
			"buffer":0,
			"byteLength":2912,
			"byteOffset":65992,
			"target":34962
		},
		{
			"buffer":0,
			"byteLength":2496,
			"byteOffset":68904,
			"target":34963
		},
		{
			"buffer":0,
			"byteLength":4704,
			"byteOffset":71400,
			"target":34962
		},
		{
			"buffer":0,
			"byteLength":4704,
			"byteOffset":76104,
			"target":34962
		},
		{
			"buffer":0,
			"byteLength":3136,
			"byteOffset":80808,
			"target":34962
		},
		{
			"buffer":0,
			"byteLength":2304,
			"byteOffset":83944,
			"target":34963
		},
		{
			"buffer":0,
			"byteLength":1848,
			"byteOffset":86248,
			"target":34962
		},
		{
			"buffer":0,
			"byteLength":1848,
			"byteOffset":88096,
			"target":34962
		},
		{
			"buffer":0,
			"byteLength":1232,
			"byteOffset":89944,
			"target":34962
		},
		{
			"buffer":0,
			"byteLength":1116,
			"byteOffset":91176,
			"target":34963
		},
		{
			"buffer":0,
			"byteLength":252,
			"byteOffset":92292,
			"target":34962
		},
		{
			"buffer":0,
			"byteLength":252,
			"byteOffset":92544,
			"target":34962
		},
		{
			"buffer":0,
			"byteLength":168,
			"byteOffset":92796,
			"target":34962
		},
		{
			"buffer":0,
			"byteLength":144,
			"byteOffset":92964,
			"target":34963
		},
		{
			"buffer":0,
			"byteLength":1404,
			"byteOffset":93108,
			"target":34962
		},
		{
			"buffer":0,
			"byteLength":1404,
			"byteOffset":94512,
			"target":34962
		},
		{
			"buffer":0,
			"byteLength":936,
			"byteOffset":95916,
			"target":34962
		},
		{
			"buffer":0,
			"byteLength":720,
			"byteOffset":96852,
			"target":34963
		},
		{
			"buffer":0,
			"byteLength":6624,
			"byteOffset":97572,
			"target":34962
		},
		{
			"buffer":0,
			"byteLength":6624,
			"byteOffset":104196,
			"target":34962
		},
		{
			"buffer":0,
			"byteLength":4416,
			"byteOffset":110820,
			"target":34962
		},
		{
			"buffer":0,
			"byteLength":3072,
			"byteOffset":115236,
			"target":34963
		}
	],
	"samplers":[
		{
			"magFilter":9729,
			"minFilter":9987
		}
	],
	"buffers":[
		{
			"byteLength":118308,
			"uri":"sm_rain_barrel.bin"
		}
	]
}
