{
	"asset":{
		"generator":"Khronos glTF Blender I/O v4.4.56",
		"version":"2.0"
	},
	"scene":0,
	"scenes":[
		{
			"name":"Scene",
			"nodes":[
				0
			]
		}
	],
	"nodes":[
		{
			"mesh":0,
			"name":"SM_RainBarrel_Type_02.001"
		}
	],
	"materials":[
		{
			"doubleSided":true,
			"name":"M_RainBarrel_Vertical",
			"pbrMetallicRoughness":{
				"baseColorTexture":{
					"index":0
				},
				"metallicFactor":0,
				"roughnessFactor":0.5
			}
		},
		{
			"doubleSided":true,
			"name":"M_WaterSpoutHandle",
			"pbrMetallicRoughness":{
				"baseColorTexture":{
					"index":1
				},
				"metallicFactor":0,
				"roughnessFactor":0.5
			}
		},
		{
			"doubleSided":true,
			"name":"M_WaterSpoutPipe",
			"pbrMetallicRoughness":{
				"baseColorTexture":{
					"index":2
				},
				"metallicFactor":0,
				"roughnessFactor":0.5
			}
		},
		{
			"doubleSided":true,
			"name":"M_RainBarrel_Cap",
			"pbrMetallicRoughness":{
				"baseColorTexture":{
					"index":3
				},
				"metallicFactor":0,
				"roughnessFactor":0.5
			}
		},
		{
			"doubleSided":true,
			"name":"M_RainBarrel_CapMesh",
			"pbrMetallicRoughness":{
				"baseColorTexture":{
					"index":4
				},
				"metallicFactor":0,
				"roughnessFactor":0.5
			}
		},
		{
			"doubleSided":true,
			"name":"M_RainBarrelCaps",
			"pbrMetallicRoughness":{
				"baseColorTexture":{
					"index":5
				},
				"metallicFactor":0,
				"roughnessFactor":0.5
			}
		},
		{
			"doubleSided":true,
			"name":"M_RainBarrelHolder",
			"pbrMetallicRoughness":{
				"baseColorTexture":{
					"index":6
				},
				"metallicFactor":0,
				"roughnessFactor":0.5
			}
		}
	],
	"meshes":[
		{
			"name":"Cylinder.006",
			"primitives":[
				{
					"attributes":{
						"POSITION":0,
						"NORMAL":1,
						"TEXCOORD_0":2
					},
					"indices":3,
					"material":0
				},
				{
					"attributes":{
						"POSITION":4,
						"NORMAL":5,
						"TEXCOORD_0":6
					},
					"indices":7,
					"material":1
				},
				{
					"attributes":{
						"POSITION":8,
						"NORMAL":9,
						"TEXCOORD_0":10
					},
					"indices":11,
					"material":2
				},
				{
					"attributes":{
						"POSITION":12,
						"NORMAL":13,
						"TEXCOORD_0":14
					},
					"indices":15,
					"material":3
				},
				{
					"attributes":{
						"POSITION":16,
						"NORMAL":17,
						"TEXCOORD_0":18
					},
					"indices":19,
					"material":4
				},
				{
					"attributes":{
						"POSITION":20,
						"NORMAL":21,
						"TEXCOORD_0":22
					},
					"indices":23,
					"material":5
				},
				{
					"attributes":{
						"POSITION":24,
						"NORMAL":25,
						"TEXCOORD_0":26
					},
					"indices":27,
					"material":6
				}
			]
		}
	],
	"textures":[
		{
			"sampler":0,
			"source":0
		},
		{
			"sampler":0,
			"source":0
		},
		{
			"sampler":0,
			"source":0
		},
		{
			"sampler":0,
			"source":0
		},
		{
			"sampler":0,
			"source":0
		},
		{
			"sampler":0,
			"source":0
		},
		{
			"sampler":0,
			"source":0
		}
	],
	"images":[
		{
			"mimeType":"image/png",
			"name":"RainBarrel_Base_Color",
			"uri":"RainBarrel_Base_Color.png"
		}
	],
	"accessors":[
		{
			"bufferView":0,
			"componentType":5126,
			"count":1478,
			"max":[
				0.3859429955482483,
				2.0092642307281494,
				0.40251755714416504
			],
			"min":[
				-0.4069543778896332,
				0.18489660322666168,
				-0.40251755714416504
			],
			"type":"VEC3"
		},
		{
			"bufferView":1,
			"componentType":5126,
			"count":1478,
			"type":"VEC3"
		},
		{
			"bufferView":2,
			"componentType":5126,
			"count":1478,
			"type":"VEC2"
		},
		{
			"bufferView":3,
			"componentType":5123,
			"count":4980,
			"type":"SCALAR"
		},
		{
			"bufferView":4,
			"componentType":5126,
			"count":364,
			"max":[
				0.14393268525600433,
				0.4698253870010376,
				0.6877731084823608
			],
			"min":[
				-0.0410032644867897,
				0.32387518882751465,
				0.4993235766887665
			],
			"type":"VEC3"
		},
		{
			"bufferView":5,
			"componentType":5126,
			"count":364,
			"type":"VEC3"
		},
		{
			"bufferView":6,
			"componentType":5126,
			"count":364,
			"type":"VEC2"
		},
		{
			"bufferView":7,
			"componentType":5123,
			"count":1248,
			"type":"SCALAR"
		},
		{
			"bufferView":8,
			"componentType":5126,
			"count":392,
			"max":[
				0.09049875289201736,
				0.39484962821006775,
				0.6031630635261536
			],
			"min":[
				0.00257556582801044,
				0.22242091596126556,
				0.37293142080307007
			],
			"type":"VEC3"
		},
		{
			"bufferView":9,
			"componentType":5126,
			"count":392,
			"type":"VEC3"
		},
		{
			"bufferView":10,
			"componentType":5126,
			"count":392,
			"type":"VEC2"
		},
		{
			"bufferView":11,
			"componentType":5123,
			"count":1152,
			"type":"SCALAR"
		},
		{
			"bufferView":12,
			"componentType":5126,
			"count":151,
			"max":[
				0.34374159574508667,
				2.0220558643341064,
				0.36838874220848083
			],
			"min":[
				-0.3637402057647705,
				2.006838083267212,
				-0.3483261168003082
			],
			"type":"VEC3"
		},
		{
			"bufferView":13,
			"componentType":5126,
			"count":151,
			"type":"VEC3"
		},
		{
			"bufferView":14,
			"componentType":5126,
			"count":151,
			"type":"VEC2"
		},
		{
			"bufferView":15,
			"componentType":5123,
			"count":558,
			"type":"SCALAR"
		},
		{
			"bufferView":16,
			"componentType":5126,
			"count":21,
			"max":[
				0.16455288231372833,
				2.006838083267212,
				0.18686139583587646
			],
			"min":[
				-0.18455135822296143,
				2.006838083267212,
				-0.1667988896369934
			],
			"type":"VEC3"
		},
		{
			"bufferView":17,
			"componentType":5126,
			"count":21,
			"type":"VEC3"
		},
		{
			"bufferView":18,
			"componentType":5126,
			"count":21,
			"type":"VEC2"
		},
		{
			"bufferView":19,
			"componentType":5123,
			"count":72,
			"type":"SCALAR"
		},
		{
			"bufferView":20,
			"componentType":5126,
			"count":117,
			"max":[
				0.03722941502928734,
				2.027101993560791,
				-0.225616455078125
			],
			"min":[
				-0.06456088274717331,
				2.0088255405426025,
				-0.3287352919578552
			],
			"type":"VEC3"
		},
		{
			"bufferView":21,
			"componentType":5126,
			"count":117,
			"type":"VEC3"
		},
		{
			"bufferView":22,
			"componentType":5126,
			"count":117,
			"type":"VEC2"
		},
		{
			"bufferView":23,
			"componentType":5123,
			"count":360,
			"type":"SCALAR"
		},
		{
			"bufferView":24,
			"componentType":5126,
			"count":552,
			"max":[
				0.4451543688774109,
				0.4005637764930725,
				0.453743040561676
			],
			"min":[
				-0.47268223762512207,
				-0.001479904050938785,
				-0.45648086071014404
			],
			"type":"VEC3"
		},
		{
			"bufferView":25,
			"componentType":5126,
			"count":552,
			"type":"VEC3"
		},
		{
			"bufferView":26,
			"componentType":5126,
			"count":552,
			"type":"VEC2"
		},
		{
			"bufferView":27,
			"componentType":5123,
			"count":1536,
			"type":"SCALAR"
		}
	],
	"bufferViews":[
		{
			"buffer":0,
			"byteLength":17736,
			"byteOffset":0,
			"target":34962
		},
		{
			"buffer":0,
			"byteLength":17736,
			"byteOffset":17736,
			"target":34962
		},
		{
			"buffer":0,
			"byteLength":11824,
			"byteOffset":35472,
			"target":34962
		},
		{
			"buffer":0,
			"byteLength":9960,
			"byteOffset":47296,
			"target":34963
		},
		{
			"buffer":0,
			"byteLength":4368,
			"byteOffset":57256,
			"target":34962
		},
		{
			"buffer":0,
			"byteLength":4368,
			"byteOffset":61624,
			"target":34962
		},
		{
			"buffer":0,
			"byteLength":2912,
			"byteOffset":65992,
			"target":34962
		},
		{
			"buffer":0,
			"byteLength":2496,
			"byteOffset":68904,
			"target":34963
		},
		{
			"buffer":0,
			"byteLength":4704,
			"byteOffset":71400,
			"target":34962
		},
		{
			"buffer":0,
			"byteLength":4704,
			"byteOffset":76104,
			"target":34962
		},
		{
			"buffer":0,
			"byteLength":3136,
			"byteOffset":80808,
			"target":34962
		},
		{
			"buffer":0,
			"byteLength":2304,
			"byteOffset":83944,
			"target":34963
		},
		{
			"buffer":0,
			"byteLength":1812,
			"byteOffset":86248,
			"target":34962
		},
		{
			"buffer":0,
			"byteLength":1812,
			"byteOffset":88060,
			"target":34962
		},
		{
			"buffer":0,
			"byteLength":1208,
			"byteOffset":89872,
			"target":34962
		},
		{
			"buffer":0,
			"byteLength":1116,
			"byteOffset":91080,
			"target":34963
		},
		{
			"buffer":0,
			"byteLength":252,
			"byteOffset":92196,
			"target":34962
		},
		{
			"buffer":0,
			"byteLength":252,
			"byteOffset":92448,
			"target":34962
		},
		{
			"buffer":0,
			"byteLength":168,
			"byteOffset":92700,
			"target":34962
		},
		{
			"buffer":0,
			"byteLength":144,
			"byteOffset":92868,
			"target":34963
		},
		{
			"buffer":0,
			"byteLength":1404,
			"byteOffset":93012,
			"target":34962
		},
		{
			"buffer":0,
			"byteLength":1404,
			"byteOffset":94416,
			"target":34962
		},
		{
			"buffer":0,
			"byteLength":936,
			"byteOffset":95820,
			"target":34962
		},
		{
			"buffer":0,
			"byteLength":720,
			"byteOffset":96756,
			"target":34963
		},
		{
			"buffer":0,
			"byteLength":6624,
			"byteOffset":97476,
			"target":34962
		},
		{
			"buffer":0,
			"byteLength":6624,
			"byteOffset":104100,
			"target":34962
		},
		{
			"buffer":0,
			"byteLength":4416,
			"byteOffset":110724,
			"target":34962
		},
		{
			"buffer":0,
			"byteLength":3072,
			"byteOffset":115140,
			"target":34963
		}
	],
	"samplers":[
		{
			"magFilter":9729,
			"minFilter":9987
		}
	],
	"buffers":[
		{
			"byteLength":118212,
			"uri":"sm_rain_barrel.bin"
		}
	]
}
