{
	"asset":{
		"generator":"Khronos glTF Blender I/O v4.3.47",
		"version":"2.0"
	},
	"extensionsUsed":[
		"KHR_materials_specular",
		"KHR_materials_ior"
	],
	"scene":0,
	"scenes":[
		{
			"name":"Scene",
			"nodes":[
				0,
				1
			]
		}
	],
	"nodes":[
		{
			"mesh":0,
			"name":"man-pablo"
		},
		{
			"mesh":1,
			"name":"Face"
		}
	],
	"materials":[
		{
			"doubleSided":true,
			"emissiveFactor":[
				1,
				1,
				1
			],
			"emissiveTexture":{
				"index":0
			},
			"extensions":{
				"KHR_materials_specular":{
					"specularTexture":{
						"index":1
					}
				},
				"KHR_materials_ior":{
					"ior":1.4500000476837158
				}
			},
			"name":"LOWPOLY-COLORS",
			"pbrMetallicRoughness":{
				"baseColorTexture":{
					"index":2
				},
				"metallicFactor":0,
				"roughnessFactor":0.25797104835510254
			}
		},
		{
			"alphaMode":"BLEND",
			"doubleSided":true,
			"name":"Face.001",
			"pbrMetallicRoughness":{
				"baseColorTexture":{
					"index":3
				},
				"metallicFactor":0,
				"roughnessFactor":0.5
			}
		}
	],
	"meshes":[
		{
			"name":"man-pablo.001",
			"primitives":[
				{
					"attributes":{
						"POSITION":0,
						"NORMAL":1,
						"TEXCOORD_0":2
					},
					"indices":3,
					"material":0
				}
			]
		},
		{
			"name":"man-pablo.002",
			"primitives":[
				{
					"attributes":{
						"POSITION":4,
						"NORMAL":5,
						"TEXCOORD_0":6
					},
					"indices":7,
					"material":1
				}
			]
		}
	],
	"textures":[
		{
			"sampler":0,
			"source":0
		},
		{
			"sampler":0,
			"source":1
		},
		{
			"sampler":0,
			"source":2
		},
		{
			"sampler":0,
			"source":3
		}
	],
	"images":[
		{
			"mimeType":"image/png",
			"name":"color-atlas-emission-night",
			"uri":"color-atlas-emission-night.png"
		},
		{
			"mimeType":"image/png",
			"name":"color-atlas-specular",
			"uri":"color-atlas-specular.png"
		},
		{
			"mimeType":"image/png",
			"name":"color-atlas-new2",
			"uri":"color-atlas-new2.png"
		},
		{
			"mimeType":"image/png",
			"name":"Face",
			"uri":"Face.png"
		}
	],
	"accessors":[
		{
			"bufferView":0,
			"componentType":5126,
			"count":1164,
			"max":[
				0.2674140930175781,
				1.845277190208435,
				0.19171786308288574
			],
			"min":[
				-0.2674140930175781,
				0.0006916522979736328,
				-0.11266069114208221
			],
			"type":"VEC3"
		},
		{
			"bufferView":1,
			"componentType":5126,
			"count":1164,
			"type":"VEC3"
		},
		{
			"bufferView":2,
			"componentType":5126,
			"count":1164,
			"type":"VEC2"
		},
		{
			"bufferView":3,
			"componentType":5123,
			"count":1746,
			"type":"SCALAR"
		},
		{
			"bufferView":4,
			"componentType":5126,
			"count":64,
			"max":[
				0.06891147792339325,
				1.769850730895996,
				0.14083993434906006
			],
			"min":[
				-0.06891147792339325,
				1.5532504320144653,
				0.07260794937610626
			],
			"type":"VEC3"
		},
		{
			"bufferView":5,
			"componentType":5126,
			"count":64,
			"type":"VEC3"
		},
		{
			"bufferView":6,
			"componentType":5126,
			"count":64,
			"type":"VEC2"
		},
		{
			"bufferView":7,
			"componentType":5123,
			"count":96,
			"type":"SCALAR"
		}
	],
	"bufferViews":[
		{
			"buffer":0,
			"byteLength":13968,
			"byteOffset":0,
			"target":34962
		},
		{
			"buffer":0,
			"byteLength":13968,
			"byteOffset":13968,
			"target":34962
		},
		{
			"buffer":0,
			"byteLength":9312,
			"byteOffset":27936,
			"target":34962
		},
		{
			"buffer":0,
			"byteLength":3492,
			"byteOffset":37248,
			"target":34963
		},
		{
			"buffer":0,
			"byteLength":768,
			"byteOffset":40740,
			"target":34962
		},
		{
			"buffer":0,
			"byteLength":768,
			"byteOffset":41508,
			"target":34962
		},
		{
			"buffer":0,
			"byteLength":512,
			"byteOffset":42276,
			"target":34962
		},
		{
			"buffer":0,
			"byteLength":192,
			"byteOffset":42788,
			"target":34963
		}
	],
	"samplers":[
		{
			"magFilter":9729,
			"minFilter":9987
		}
	],
	"buffers":[
		{
			"byteLength":42980,
			"uri":"example_person.bin"
		}
	]
}
