{
	"asset":{
		"generator":"Khronos glTF Blender I/O v4.4.56",
		"version":"2.0"
	},
	"scene":0,
	"scenes":[
		{
			"name":"Scene",
			"nodes":[
				1,
				3
			]
		}
	],
	"nodes":[
		{
			"mesh":0,
			"name":"col_nonentry_04-colonly",
			"scale":[
				5.474050998687744,
				5.474050998687744,
				5.474050998687744
			],
			"translation":[
				0.6446356773376465,
				0,
				0
			]
		},
		{
			"children":[
				0
			],
			"name":"collision_nonentry_04-colonly"
		},
		{
			"mesh":1,
			"name":"sm_building_nonentry_04-mesh",
			"scale":[
				0.921100378036499,
				1.1171832084655762,
				0.9021241068840027
			]
		},
		{
			"children":[
				2
			],
			"name":"mesh_Building_nonentry_04"
		}
	],
	"materials":[
		{
			"doubleSided":true,
			"name":"M_Collision",
			"pbrMetallicRoughness":{
				"baseColorFactor":[
					0.8000937700271606,
					0.003670805599540472,
					0,
					1
				],
				"metallicFactor":0,
				"roughnessFactor":0.5
			}
		},
		{
			"doubleSided":true,
			"name":"t_nonentry_04_main",
			"normalTexture":{
				"index":0
			},
			"pbrMetallicRoughness":{
				"baseColorTexture":{
					"index":1
				},
				"metallicFactor":0,
				"roughnessFactor":0.5
			}
		},
		{
			"doubleSided":true,
			"name":"t_nonentry_04_windows",
			"normalTexture":{
				"index":2
			},
			"pbrMetallicRoughness":{
				"baseColorTexture":{
					"index":3
				},
				"metallicFactor":0,
				"roughnessFactor":0.5
			}
		},
		{
			"doubleSided":true,
			"name":"t_door",
			"normalTexture":{
				"index":4
			},
			"pbrMetallicRoughness":{
				"baseColorTexture":{
					"index":5
				},
				"metallicFactor":0,
				"roughnessFactor":0.5
			}
		},
		{
			"doubleSided":true,
			"name":"t_nonentry_04_trim",
			"normalTexture":{
				"index":6
			},
			"pbrMetallicRoughness":{
				"baseColorTexture":{
					"index":7
				},
				"metallicFactor":0,
				"roughnessFactor":0.5
			}
		},
		{
			"doubleSided":true,
			"name":"t_overhang",
			"normalTexture":{
				"index":8
			},
			"pbrMetallicRoughness":{
				"baseColorTexture":{
					"index":9
				},
				"metallicFactor":0,
				"roughnessFactor":0.5
			}
		},
		{
			"doubleSided":true,
			"name":"t_roof",
			"normalTexture":{
				"index":10
			},
			"pbrMetallicRoughness":{
				"baseColorTexture":{
					"index":11
				},
				"metallicFactor":0,
				"roughnessFactor":0.5
			}
		},
		{
			"doubleSided":true,
			"name":"t_powerbox",
			"normalTexture":{
				"index":12
			},
			"pbrMetallicRoughness":{
				"baseColorTexture":{
					"index":13
				},
				"metallicFactor":0,
				"roughnessFactor":0.5
			}
		},
		{
			"doubleSided":true,
			"name":"t_pipes.001",
			"normalTexture":{
				"index":14
			},
			"pbrMetallicRoughness":{
				"baseColorTexture":{
					"index":15
				},
				"metallicFactor":0,
				"roughnessFactor":0.5
			}
		},
		{
			"doubleSided":true,
			"name":"t_doortrim",
			"normalTexture":{
				"index":16
			},
			"pbrMetallicRoughness":{
				"baseColorTexture":{
					"index":17
				},
				"metallicFactor":0,
				"roughnessFactor":0.5
			}
		},
		{
			"doubleSided":true,
			"name":"t_doorwindows",
			"normalTexture":{
				"index":18
			},
			"pbrMetallicRoughness":{
				"baseColorTexture":{
					"index":19
				},
				"metallicFactor":0,
				"roughnessFactor":0.5
			}
		}
	],
	"meshes":[
		{
			"name":"Cube.006",
			"primitives":[
				{
					"attributes":{
						"POSITION":0,
						"NORMAL":1,
						"TEXCOORD_0":2
					},
					"indices":3,
					"material":0
				}
			]
		},
		{
			"name":"Cube.005",
			"primitives":[
				{
					"attributes":{
						"POSITION":4,
						"NORMAL":5,
						"TEXCOORD_0":6
					},
					"indices":7,
					"material":1
				},
				{
					"attributes":{
						"POSITION":8,
						"NORMAL":9,
						"TEXCOORD_0":10
					},
					"indices":11,
					"material":2
				},
				{
					"attributes":{
						"POSITION":12,
						"NORMAL":13,
						"TEXCOORD_0":14
					},
					"indices":15,
					"material":3
				},
				{
					"attributes":{
						"POSITION":16,
						"NORMAL":17,
						"TEXCOORD_0":18
					},
					"indices":19,
					"material":4
				},
				{
					"attributes":{
						"POSITION":20,
						"NORMAL":21,
						"TEXCOORD_0":22
					},
					"indices":23,
					"material":5
				},
				{
					"attributes":{
						"POSITION":24,
						"NORMAL":25,
						"TEXCOORD_0":26
					},
					"indices":27,
					"material":6
				},
				{
					"attributes":{
						"POSITION":28,
						"NORMAL":29,
						"TEXCOORD_0":30
					},
					"indices":31,
					"material":7
				},
				{
					"attributes":{
						"POSITION":32,
						"NORMAL":33,
						"TEXCOORD_0":34
					},
					"indices":35,
					"material":8
				},
				{
					"attributes":{
						"POSITION":36,
						"NORMAL":37,
						"TEXCOORD_0":38
					},
					"indices":39,
					"material":9
				},
				{
					"attributes":{
						"POSITION":40,
						"NORMAL":41,
						"TEXCOORD_0":42
					},
					"indices":43,
					"material":10
				}
			]
		}
	],
	"textures":[
		{
			"sampler":0,
			"source":0
		},
		{
			"sampler":0,
			"source":1
		},
		{
			"sampler":0,
			"source":0
		},
		{
			"sampler":0,
			"source":1
		},
		{
			"sampler":0,
			"source":0
		},
		{
			"sampler":0,
			"source":1
		},
		{
			"sampler":0,
			"source":0
		},
		{
			"sampler":0,
			"source":1
		},
		{
			"sampler":0,
			"source":0
		},
		{
			"sampler":0,
			"source":1
		},
		{
			"sampler":0,
			"source":0
		},
		{
			"sampler":0,
			"source":1
		},
		{
			"sampler":0,
			"source":0
		},
		{
			"sampler":0,
			"source":1
		},
		{
			"sampler":0,
			"source":0
		},
		{
			"sampler":0,
			"source":1
		},
		{
			"sampler":0,
			"source":0
		},
		{
			"sampler":0,
			"source":1
		},
		{
			"sampler":0,
			"source":0
		},
		{
			"sampler":0,
			"source":1
		}
	],
	"images":[
		{
			"mimeType":"image/png",
			"name":"t_nonentry_04_Normal_DirectX",
			"uri":"t_nonentry_04_Normal_DirectX.png"
		},
		{
			"mimeType":"image/png",
			"name":"t_nonentry_04_Base_Color",
			"uri":"t_nonentry_04_Base_Color.png"
		}
	],
	"accessors":[
		{
			"bufferView":0,
			"componentType":5126,
			"count":24,
			"max":[
				1,
				2.031416893005371,
				1
			],
			"min":[
				-0.393582820892334,
				-0.005771171301603317,
				-0.3175002932548523
			],
			"type":"VEC3"
		},
		{
			"bufferView":1,
			"componentType":5126,
			"count":24,
			"type":"VEC3"
		},
		{
			"bufferView":2,
			"componentType":5126,
			"count":24,
			"type":"VEC2"
		},
		{
			"bufferView":3,
			"componentType":5123,
			"count":36,
			"type":"SCALAR"
		},
		{
			"bufferView":4,
			"componentType":5126,
			"count":453,
			"max":[
				5.94297456741333,
				9.721242904663086,
				5.942564487457275
			],
			"min":[
				-1.1237592697143555,
				0.046908438205718994,
				-1.1237592697143555
			],
			"type":"VEC3"
		},
		{
			"bufferView":5,
			"componentType":5126,
			"count":453,
			"type":"VEC3"
		},
		{
			"bufferView":6,
			"componentType":5126,
			"count":453,
			"type":"VEC2"
		},
		{
			"bufferView":7,
			"componentType":5123,
			"count":1308,
			"type":"SCALAR"
		},
		{
			"bufferView":8,
			"componentType":5126,
			"count":10,
			"max":[
				3.212932586669922,
				8.927678108215332,
				5.661863327026367
			],
			"min":[
				-0.4915587902069092,
				1.2310634851455688,
				4.423922538757324
			],
			"type":"VEC3"
		},
		{
			"bufferView":9,
			"componentType":5126,
			"count":10,
			"type":"VEC3"
		},
		{
			"bufferView":10,
			"componentType":5126,
			"count":10,
			"type":"VEC2"
		},
		{
			"bufferView":11,
			"componentType":5123,
			"count":18,
			"type":"SCALAR"
		},
		{
			"bufferView":12,
			"componentType":5126,
			"count":36,
			"max":[
				4.268981456756592,
				8.873259544372559,
				4.264035224914551
			],
			"min":[
				2.6969833374023438,
				6.0144805908203125,
				2.6920371055603027
			],
			"type":"VEC3"
		},
		{
			"bufferView":13,
			"componentType":5126,
			"count":36,
			"type":"VEC3"
		},
		{
			"bufferView":14,
			"componentType":5126,
			"count":36,
			"type":"VEC2"
		},
		{
			"bufferView":15,
			"componentType":5123,
			"count":66,
			"type":"SCALAR"
		},
		{
			"bufferView":16,
			"componentType":5126,
			"count":126,
			"max":[
				5.926148891448975,
				9.721242904663086,
				5.926148414611816
			],
			"min":[
				-1.1237592697143555,
				0.046908438205718994,
				-1.1237592697143555
			],
			"type":"VEC3"
		},
		{
			"bufferView":17,
			"componentType":5126,
			"count":126,
			"type":"VEC3"
		},
		{
			"bufferView":18,
			"componentType":5126,
			"count":126,
			"type":"VEC2"
		},
		{
			"bufferView":19,
			"componentType":5123,
			"count":363,
			"type":"SCALAR"
		},
		{
			"bufferView":20,
			"componentType":5126,
			"count":58,
			"max":[
				6.580738067626953,
				5.328456878662109,
				6.60973596572876
			],
			"min":[
				-1.1237590312957764,
				4.330639362335205,
				-1.1237590312957764
			],
			"type":"VEC3"
		},
		{
			"bufferView":21,
			"componentType":5126,
			"count":58,
			"type":"VEC3"
		},
		{
			"bufferView":22,
			"componentType":5126,
			"count":58,
			"type":"VEC2"
		},
		{
			"bufferView":23,
			"componentType":5123,
			"count":144,
			"type":"SCALAR"
		},
		{
			"bufferView":24,
			"componentType":5126,
			"count":44,
			"max":[
				5.50522518157959,
				9.79207706451416,
				5.505224704742432
			],
			"min":[
				-0.8649040460586548,
				9.721242904663086,
				-0.8649038076400757
			],
			"type":"VEC3"
		},
		{
			"bufferView":25,
			"componentType":5126,
			"count":44,
			"type":"VEC3"
		},
		{
			"bufferView":26,
			"componentType":5126,
			"count":44,
			"type":"VEC2"
		},
		{
			"bufferView":27,
			"componentType":5123,
			"count":111,
			"type":"SCALAR"
		},
		{
			"bufferView":28,
			"componentType":5126,
			"count":764,
			"max":[
				6.627068519592285,
				3.8593571186065674,
				3.068361282348633
			],
			"min":[
				5.514614105224609,
				2.458635091781616,
				1.9308953285217285
			],
			"type":"VEC3"
		},
		{
			"bufferView":29,
			"componentType":5126,
			"count":764,
			"type":"VEC3"
		},
		{
			"bufferView":30,
			"componentType":5126,
			"count":764,
			"type":"VEC2"
		},
		{
			"bufferView":31,
			"componentType":5123,
			"count":1644,
			"type":"SCALAR"
		},
		{
			"bufferView":32,
			"componentType":5126,
			"count":1568,
			"max":[
				6.6333112716674805,
				8.207681655883789,
				1.9670307636260986
			],
			"min":[
				4.215025424957275,
				2.972337007522583,
				-1.8276461362838745
			],
			"type":"VEC3"
		},
		{
			"bufferView":33,
			"componentType":5126,
			"count":1568,
			"type":"VEC3"
		},
		{
			"bufferView":34,
			"componentType":5126,
			"count":1568,
			"type":"VEC2"
		},
		{
			"bufferView":35,
			"componentType":5123,
			"count":3912,
			"type":"SCALAR"
		},
		{
			"bufferView":36,
			"componentType":5126,
			"count":263,
			"max":[
				6.036864280700684,
				3.2458229064941406,
				6.036056995391846
			],
			"min":[
				4.164398670196533,
				0.18221792578697205,
				4.072202205657959
			],
			"type":"VEC3"
		},
		{
			"bufferView":37,
			"componentType":5126,
			"count":263,
			"type":"VEC3"
		},
		{
			"bufferView":38,
			"componentType":5126,
			"count":263,
			"type":"VEC2"
		},
		{
			"bufferView":39,
			"componentType":5123,
			"count":726,
			"type":"SCALAR"
		},
		{
			"bufferView":40,
			"componentType":5126,
			"count":8,
			"max":[
				5.807470321655273,
				2.872103214263916,
				5.7910051345825195
			],
			"min":[
				4.8493428230285645,
				0.47155678272247314,
				4.77133846282959
			],
			"type":"VEC3"
		},
		{
			"bufferView":41,
			"componentType":5126,
			"count":8,
			"type":"VEC3"
		},
		{
			"bufferView":42,
			"componentType":5126,
			"count":8,
			"type":"VEC2"
		},
		{
			"bufferView":43,
			"componentType":5123,
			"count":12,
			"type":"SCALAR"
		}
	],
	"bufferViews":[
		{
			"buffer":0,
			"byteLength":288,
			"byteOffset":0,
			"target":34962
		},
		{
			"buffer":0,
			"byteLength":288,
			"byteOffset":288,
			"target":34962
		},
		{
			"buffer":0,
			"byteLength":192,
			"byteOffset":576,
			"target":34962
		},
		{
			"buffer":0,
			"byteLength":72,
			"byteOffset":768,
			"target":34963
		},
		{
			"buffer":0,
			"byteLength":5436,
			"byteOffset":840,
			"target":34962
		},
		{
			"buffer":0,
			"byteLength":5436,
			"byteOffset":6276,
			"target":34962
		},
		{
			"buffer":0,
			"byteLength":3624,
			"byteOffset":11712,
			"target":34962
		},
		{
			"buffer":0,
			"byteLength":2616,
			"byteOffset":15336,
			"target":34963
		},
		{
			"buffer":0,
			"byteLength":120,
			"byteOffset":17952,
			"target":34962
		},
		{
			"buffer":0,
			"byteLength":120,
			"byteOffset":18072,
			"target":34962
		},
		{
			"buffer":0,
			"byteLength":80,
			"byteOffset":18192,
			"target":34962
		},
		{
			"buffer":0,
			"byteLength":36,
			"byteOffset":18272,
			"target":34963
		},
		{
			"buffer":0,
			"byteLength":432,
			"byteOffset":18308,
			"target":34962
		},
		{
			"buffer":0,
			"byteLength":432,
			"byteOffset":18740,
			"target":34962
		},
		{
			"buffer":0,
			"byteLength":288,
			"byteOffset":19172,
			"target":34962
		},
		{
			"buffer":0,
			"byteLength":132,
			"byteOffset":19460,
			"target":34963
		},
		{
			"buffer":0,
			"byteLength":1512,
			"byteOffset":19592,
			"target":34962
		},
		{
			"buffer":0,
			"byteLength":1512,
			"byteOffset":21104,
			"target":34962
		},
		{
			"buffer":0,
			"byteLength":1008,
			"byteOffset":22616,
			"target":34962
		},
		{
			"buffer":0,
			"byteLength":726,
			"byteOffset":23624,
			"target":34963
		},
		{
			"buffer":0,
			"byteLength":696,
			"byteOffset":24352,
			"target":34962
		},
		{
			"buffer":0,
			"byteLength":696,
			"byteOffset":25048,
			"target":34962
		},
		{
			"buffer":0,
			"byteLength":464,
			"byteOffset":25744,
			"target":34962
		},
		{
			"buffer":0,
			"byteLength":288,
			"byteOffset":26208,
			"target":34963
		},
		{
			"buffer":0,
			"byteLength":528,
			"byteOffset":26496,
			"target":34962
		},
		{
			"buffer":0,
			"byteLength":528,
			"byteOffset":27024,
			"target":34962
		},
		{
			"buffer":0,
			"byteLength":352,
			"byteOffset":27552,
			"target":34962
		},
		{
			"buffer":0,
			"byteLength":222,
			"byteOffset":27904,
			"target":34963
		},
		{
			"buffer":0,
			"byteLength":9168,
			"byteOffset":28128,
			"target":34962
		},
		{
			"buffer":0,
			"byteLength":9168,
			"byteOffset":37296,
			"target":34962
		},
		{
			"buffer":0,
			"byteLength":6112,
			"byteOffset":46464,
			"target":34962
		},
		{
			"buffer":0,
			"byteLength":3288,
			"byteOffset":52576,
			"target":34963
		},
		{
			"buffer":0,
			"byteLength":18816,
			"byteOffset":55864,
			"target":34962
		},
		{
			"buffer":0,
			"byteLength":18816,
			"byteOffset":74680,
			"target":34962
		},
		{
			"buffer":0,
			"byteLength":12544,
			"byteOffset":93496,
			"target":34962
		},
		{
			"buffer":0,
			"byteLength":7824,
			"byteOffset":106040,
			"target":34963
		},
		{
			"buffer":0,
			"byteLength":3156,
			"byteOffset":113864,
			"target":34962
		},
		{
			"buffer":0,
			"byteLength":3156,
			"byteOffset":117020,
			"target":34962
		},
		{
			"buffer":0,
			"byteLength":2104,
			"byteOffset":120176,
			"target":34962
		},
		{
			"buffer":0,
			"byteLength":1452,
			"byteOffset":122280,
			"target":34963
		},
		{
			"buffer":0,
			"byteLength":96,
			"byteOffset":123732,
			"target":34962
		},
		{
			"buffer":0,
			"byteLength":96,
			"byteOffset":123828,
			"target":34962
		},
		{
			"buffer":0,
			"byteLength":64,
			"byteOffset":123924,
			"target":34962
		},
		{
			"buffer":0,
			"byteLength":24,
			"byteOffset":123988,
			"target":34963
		}
	],
	"samplers":[
		{
			"magFilter":9729,
			"minFilter":9987
		}
	],
	"buffers":[
		{
			"byteLength":124012,
			"uri":"sm_building_nonentry_04.bin"
		}
	]
}
