{
	"asset":{
		"generator":"Khronos glTF Blender I/O v4.3.47",
		"version":"2.0"
	},
	"extensionsUsed":[
		"KHR_materials_specular",
		"KHR_materials_ior"
	],
	"scene":0,
	"scenes":[
		{
			"name":"Scene",
			"nodes":[
				0
			]
		}
	],
	"nodes":[
		{
			"mesh":0,
			"name":"building-office-tall-apocalypse-a",
			"translation":[
				0.07956504821777344,
				-0.0012359619140625,
				-0.033966064453125
			]
		}
	],
	"materials":[
		{
			"doubleSided":true,
			"emissiveFactor":[
				1,
				1,
				1
			],
			"emissiveTexture":{
				"index":0
			},
			"extensions":{
				"KHR_materials_specular":{
					"specularTexture":{
						"index":1
					}
				},
				"KHR_materials_ior":{
					"ior":1.4500000476837158
				}
			},
			"name":"LOWPOLY-COLORS",
			"pbrMetallicRoughness":{
				"baseColorTexture":{
					"index":2
				},
				"metallicFactor":0,
				"roughnessFactor":0.25797104835510254
			}
		}
	],
	"meshes":[
		{
			"name":"building-office-tall-apocalypse-a",
			"primitives":[
				{
					"attributes":{
						"POSITION":0,
						"NORMAL":1,
						"TEXCOORD_0":2,
						"COLOR_0":3,
						"COLOR_1":4
					},
					"indices":5,
					"material":0
				}
			]
		}
	],
	"textures":[
		{
			"sampler":0,
			"source":0
		},
		{
			"sampler":0,
			"source":1
		},
		{
			"sampler":0,
			"source":2
		}
	],
	"images":[
		{
			"mimeType":"image/png",
			"name":"color-atlas-emission-night",
			"uri":"color-atlas-emission-night.png"
		},
		{
			"mimeType":"image/png",
			"name":"color-atlas-specular",
			"uri":"color-atlas-specular.png"
		},
		{
			"mimeType":"image/png",
			"name":"color-atlas-new2",
			"uri":"color-atlas-new2.png"
		}
	],
	"accessors":[
		{
			"bufferView":0,
			"componentType":5126,
			"count":11976,
			"max":[
				9.918730735778809,
				44.004981994628906,
				8.168807983398438
			],
			"min":[
				-10.634305953979492,
				0.0012359619140625,
				-8.673745155334473
			],
			"type":"VEC3"
		},
		{
			"bufferView":1,
			"componentType":5126,
			"count":11976,
			"type":"VEC3"
		},
		{
			"bufferView":2,
			"componentType":5126,
			"count":11976,
			"type":"VEC2"
		},
		{
			"bufferView":3,
			"componentType":5121,
			"count":11976,
			"normalized":true,
			"type":"VEC4"
		},
		{
			"bufferView":4,
			"componentType":5123,
			"count":11976,
			"normalized":true,
			"type":"VEC4"
		},
		{
			"bufferView":5,
			"componentType":5123,
			"count":22659,
			"type":"SCALAR"
		}
	],
	"bufferViews":[
		{
			"buffer":0,
			"byteLength":143712,
			"byteOffset":0,
			"target":34962
		},
		{
			"buffer":0,
			"byteLength":143712,
			"byteOffset":143712,
			"target":34962
		},
		{
			"buffer":0,
			"byteLength":95808,
			"byteOffset":287424,
			"target":34962
		},
		{
			"buffer":0,
			"byteLength":47904,
			"byteOffset":383232,
			"target":34962
		},
		{
			"buffer":0,
			"byteLength":95808,
			"byteOffset":431136,
			"target":34962
		},
		{
			"buffer":0,
			"byteLength":45318,
			"byteOffset":526944,
			"target":34963
		}
	],
	"samplers":[
		{
			"magFilter":9729,
			"minFilter":9987
		}
	],
	"buffers":[
		{
			"byteLength":572264,
			"uri":"sm_destroyed_building_01.bin"
		}
	]
}
