{
	"asset":{
		"generator":"Khronos glTF Blender I/O v4.4.56",
		"version":"2.0"
	},
	"scene":0,
	"scenes":[
		{
			"name":"Scene",
			"nodes":[
				0
			]
		}
	],
	"nodes":[
		{
			"mesh":0,
			"name":"sm_companionplanter",
			"rotation":[
				0.7071068286895752,
				0,
				0,
				0.7071068286895752
			]
		}
	],
	"materials":[
		{
			"doubleSided":true,
			"name":"M_CompanionPlanter_Barrel",
			"pbrMetallicRoughness":{
				"baseColorTexture":{
					"index":0
				},
				"metallicFactor":0,
				"roughnessFactor":0.5
			}
		},
		{
			"doubleSided":true,
			"name":"M_CampanionPlanter_BaseBed",
			"pbrMetallicRoughness":{
				"baseColorTexture":{
					"index":1
				},
				"metallicFactor":0,
				"roughnessFactor":0.5
			}
		},
		{
			"doubleSided":true,
			"name":"M_BottomSoil",
			"pbrMetallicRoughness":{
				"baseColorTexture":{
					"index":2
				},
				"metallicFactor":0,
				"roughnessFactor":0.5
			}
		},
		{
			"doubleSided":true,
			"name":"M_CompanionPlanter_Sticks",
			"pbrMetallicRoughness":{
				"baseColorTexture":{
					"index":3
				},
				"metallicFactor":0,
				"roughnessFactor":0.5
			}
		},
		{
			"doubleSided":true,
			"name":"M_TopSoil",
			"pbrMetallicRoughness":{
				"baseColorTexture":{
					"index":4
				},
				"metallicFactor":0,
				"roughnessFactor":0.5
			}
		}
	],
	"meshes":[
		{
			"name":"Cylinder",
			"primitives":[
				{
					"attributes":{
						"POSITION":0,
						"NORMAL":1,
						"TEXCOORD_0":2
					},
					"indices":3,
					"material":0
				},
				{
					"attributes":{
						"POSITION":4,
						"NORMAL":5,
						"TEXCOORD_0":6
					},
					"indices":7,
					"material":1
				},
				{
					"attributes":{
						"POSITION":8,
						"NORMAL":9,
						"TEXCOORD_0":10
					},
					"indices":11,
					"material":2
				},
				{
					"attributes":{
						"POSITION":12,
						"NORMAL":13,
						"TEXCOORD_0":14
					},
					"indices":15,
					"material":3
				},
				{
					"attributes":{
						"POSITION":16,
						"NORMAL":17,
						"TEXCOORD_0":18
					},
					"indices":11,
					"material":4
				}
			]
		}
	],
	"textures":[
		{
			"sampler":0,
			"source":0
		},
		{
			"sampler":0,
			"source":0
		},
		{
			"sampler":0,
			"source":0
		},
		{
			"sampler":0,
			"source":0
		},
		{
			"sampler":0,
			"source":0
		}
	],
	"images":[
		{
			"mimeType":"image/png",
			"name":"sm_compantionplanter_Base_Color",
			"uri":"sm_compantionplanter_Base_Color.png"
		}
	],
	"accessors":[
		{
			"bufferView":0,
			"componentType":5126,
			"count":348,
			"max":[
				0.2368982881307602,
				0.3668365478515625,
				-0.235453262925148
			],
			"min":[
				-0.2368982881307602,
				-0.3668366074562073,
				-0.47642698884010315
			],
			"type":"VEC3"
		},
		{
			"bufferView":1,
			"componentType":5126,
			"count":348,
			"type":"VEC3"
		},
		{
			"bufferView":2,
			"componentType":5126,
			"count":348,
			"type":"VEC2"
		},
		{
			"bufferView":3,
			"componentType":5123,
			"count":1128,
			"type":"SCALAR"
		},
		{
			"bufferView":4,
			"componentType":5126,
			"count":180,
			"max":[
				0.2579582929611206,
				0.4355648159980774,
				-0.00908234715461731
			],
			"min":[
				-0.2579582929611206,
				-0.4355648159980774,
				-0.12049689143896103
			],
			"type":"VEC3"
		},
		{
			"bufferView":5,
			"componentType":5126,
			"count":180,
			"type":"VEC3"
		},
		{
			"bufferView":6,
			"componentType":5126,
			"count":180,
			"type":"VEC2"
		},
		{
			"bufferView":7,
			"componentType":5123,
			"count":750,
			"type":"SCALAR"
		},
		{
			"bufferView":8,
			"componentType":5126,
			"count":24,
			"max":[
				0.22852282226085663,
				0.4097651541233063,
				-0.060065723955631256
			],
			"min":[
				-0.22852282226085663,
				-0.4097651541233063,
				-0.06006576120853424
			],
			"type":"VEC3"
		},
		{
			"bufferView":9,
			"componentType":5126,
			"count":24,
			"type":"VEC3"
		},
		{
			"bufferView":10,
			"componentType":5126,
			"count":24,
			"type":"VEC2"
		},
		{
			"bufferView":11,
			"componentType":5123,
			"count":66,
			"type":"SCALAR"
		},
		{
			"bufferView":12,
			"componentType":5126,
			"count":672,
			"max":[
				0.21659764647483826,
				0.31337928771972656,
				-0.05327969416975975
			],
			"min":[
				-0.21680480241775513,
				-0.31337934732437134,
				-0.354110449552536
			],
			"type":"VEC3"
		},
		{
			"bufferView":13,
			"componentType":5126,
			"count":672,
			"type":"VEC3"
		},
		{
			"bufferView":14,
			"componentType":5126,
			"count":672,
			"type":"VEC2"
		},
		{
			"bufferView":15,
			"componentType":5123,
			"count":2688,
			"type":"SCALAR"
		},
		{
			"bufferView":16,
			"componentType":5126,
			"count":24,
			"max":[
				0.1964128315448761,
				0.3648739755153656,
				-0.40430545806884766
			],
			"min":[
				-0.20442304015159607,
				-0.35386642813682556,
				-0.40430545806884766
			],
			"type":"VEC3"
		},
		{
			"bufferView":17,
			"componentType":5126,
			"count":24,
			"type":"VEC3"
		},
		{
			"bufferView":18,
			"componentType":5126,
			"count":24,
			"type":"VEC2"
		}
	],
	"bufferViews":[
		{
			"buffer":0,
			"byteLength":4176,
			"byteOffset":0,
			"target":34962
		},
		{
			"buffer":0,
			"byteLength":4176,
			"byteOffset":4176,
			"target":34962
		},
		{
			"buffer":0,
			"byteLength":2784,
			"byteOffset":8352,
			"target":34962
		},
		{
			"buffer":0,
			"byteLength":2256,
			"byteOffset":11136,
			"target":34963
		},
		{
			"buffer":0,
			"byteLength":2160,
			"byteOffset":13392,
			"target":34962
		},
		{
			"buffer":0,
			"byteLength":2160,
			"byteOffset":15552,
			"target":34962
		},
		{
			"buffer":0,
			"byteLength":1440,
			"byteOffset":17712,
			"target":34962
		},
		{
			"buffer":0,
			"byteLength":1500,
			"byteOffset":19152,
			"target":34963
		},
		{
			"buffer":0,
			"byteLength":288,
			"byteOffset":20652,
			"target":34962
		},
		{
			"buffer":0,
			"byteLength":288,
			"byteOffset":20940,
			"target":34962
		},
		{
			"buffer":0,
			"byteLength":192,
			"byteOffset":21228,
			"target":34962
		},
		{
			"buffer":0,
			"byteLength":132,
			"byteOffset":21420,
			"target":34963
		},
		{
			"buffer":0,
			"byteLength":8064,
			"byteOffset":21552,
			"target":34962
		},
		{
			"buffer":0,
			"byteLength":8064,
			"byteOffset":29616,
			"target":34962
		},
		{
			"buffer":0,
			"byteLength":5376,
			"byteOffset":37680,
			"target":34962
		},
		{
			"buffer":0,
			"byteLength":5376,
			"byteOffset":43056,
			"target":34963
		},
		{
			"buffer":0,
			"byteLength":288,
			"byteOffset":48432,
			"target":34962
		},
		{
			"buffer":0,
			"byteLength":288,
			"byteOffset":48720,
			"target":34962
		},
		{
			"buffer":0,
			"byteLength":192,
			"byteOffset":49008,
			"target":34962
		}
	],
	"samplers":[
		{
			"magFilter":9729,
			"minFilter":9987
		}
	],
	"buffers":[
		{
			"byteLength":49200,
			"uri":"sm_companionplanter.bin"
		}
	]
}
