{
	"asset":{
		"generator":"Khronos glTF Blender I/O v4.4.56",
		"version":"2.0"
	},
	"scene":0,
	"scenes":[
		{
			"name":"Scene",
			"nodes":[
				0
			]
		}
	],
	"nodes":[
		{
			"mesh":0,
			"name":"sm_companionplanter",
			"rotation":[
				0.7071068286895752,
				0,
				0,
				0.7071068286895752
			],
			"translation":[
				0,
				-0.012678577564656734,
				0
			]
		}
	],
	"materials":[
		{
			"doubleSided":true,
			"name":"M_CompanionPlanter_Barrel",
			"pbrMetallicRoughness":{
				"baseColorTexture":{
					"index":0
				},
				"metallicFactor":0,
				"roughnessFactor":0.5
			}
		},
		{
			"doubleSided":true,
			"name":"M_CampanionPlanter_BaseBed",
			"pbrMetallicRoughness":{
				"baseColorTexture":{
					"index":1
				},
				"metallicFactor":0,
				"roughnessFactor":0.5
			}
		},
		{
			"doubleSided":true,
			"name":"M_BottomSoil",
			"pbrMetallicRoughness":{
				"baseColorTexture":{
					"index":2
				},
				"metallicFactor":0,
				"roughnessFactor":0.5
			}
		},
		{
			"doubleSided":true,
			"name":"M_CompanionPlanter_Sticks",
			"pbrMetallicRoughness":{
				"baseColorTexture":{
					"index":3
				},
				"metallicFactor":0,
				"roughnessFactor":0.5
			}
		},
		{
			"doubleSided":true,
			"name":"M_TopSoil",
			"pbrMetallicRoughness":{
				"baseColorTexture":{
					"index":4
				},
				"metallicFactor":0,
				"roughnessFactor":0.5
			}
		}
	],
	"meshes":[
		{
			"name":"Cylinder",
			"primitives":[
				{
					"attributes":{
						"POSITION":0,
						"NORMAL":1,
						"TEXCOORD_0":2
					},
					"indices":3,
					"material":0
				},
				{
					"attributes":{
						"POSITION":4,
						"NORMAL":5,
						"TEXCOORD_0":6
					},
					"indices":7,
					"material":1
				},
				{
					"attributes":{
						"POSITION":8,
						"NORMAL":9,
						"TEXCOORD_0":10
					},
					"indices":11,
					"material":2
				},
				{
					"attributes":{
						"POSITION":12,
						"NORMAL":13,
						"TEXCOORD_0":14
					},
					"indices":15,
					"material":3
				},
				{
					"attributes":{
						"POSITION":16,
						"NORMAL":17,
						"TEXCOORD_0":18
					},
					"indices":11,
					"material":4
				}
			]
		}
	],
	"textures":[
		{
			"sampler":0,
			"source":0
		},
		{
			"sampler":0,
			"source":0
		},
		{
			"sampler":0,
			"source":0
		},
		{
			"sampler":0,
			"source":0
		},
		{
			"sampler":0,
			"source":0
		}
	],
	"images":[
		{
			"mimeType":"image/png",
			"name":"sm_compantionplanter_Base_Color",
			"uri":"sm_compantionplanter_Base_Color.png"
		}
	],
	"accessors":[
		{
			"bufferView":0,
			"componentType":5126,
			"count":348,
			"max":[
				0.4554767906665802,
				0.840497612953186,
				-0.23763404786586761
			],
			"min":[
				-0.45546191930770874,
				-0.840522050857544,
				-0.5203272700309753
			],
			"type":"VEC3"
		},
		{
			"bufferView":1,
			"componentType":5126,
			"count":348,
			"type":"VEC3"
		},
		{
			"bufferView":2,
			"componentType":5126,
			"count":348,
			"type":"VEC2"
		},
		{
			"bufferView":3,
			"componentType":5123,
			"count":1128,
			"type":"SCALAR"
		},
		{
			"bufferView":4,
			"componentType":5126,
			"count":180,
			"max":[
				0.4916985332965851,
				0.9894073605537415,
				-0.00969832856208086
			],
			"min":[
				-0.4916985332965851,
				-0.9894073605537415,
				-0.12866921722888947
			],
			"type":"VEC3"
		},
		{
			"bufferView":5,
			"componentType":5126,
			"count":180,
			"type":"VEC3"
		},
		{
			"bufferView":6,
			"componentType":5126,
			"count":180,
			"type":"VEC2"
		},
		{
			"bufferView":7,
			"componentType":5123,
			"count":750,
			"type":"SCALAR"
		},
		{
			"bufferView":8,
			"componentType":5126,
			"count":24,
			"max":[
				0.43559110164642334,
				0.9308021068572998,
				-0.06413949280977249
			],
			"min":[
				-0.43559110164642334,
				-0.9308021068572998,
				-0.06413953006267548
			],
			"type":"VEC3"
		},
		{
			"bufferView":9,
			"componentType":5126,
			"count":24,
			"type":"VEC3"
		},
		{
			"bufferView":10,
			"componentType":5126,
			"count":24,
			"type":"VEC2"
		},
		{
			"bufferView":11,
			"componentType":5123,
			"count":66,
			"type":"SCALAR"
		},
		{
			"bufferView":12,
			"componentType":5126,
			"count":672,
			"max":[
				0.4070759415626526,
				0.7073195576667786,
				-0.05689322575926781
			],
			"min":[
				-0.40749281644821167,
				-0.7073196172714233,
				-0.3781268894672394
			],
			"type":"VEC3"
		},
		{
			"bufferView":13,
			"componentType":5126,
			"count":672,
			"type":"VEC3"
		},
		{
			"bufferView":14,
			"componentType":5126,
			"count":672,
			"type":"VEC2"
		},
		{
			"bufferView":15,
			"componentType":5123,
			"count":2688,
			"type":"SCALAR"
		},
		{
			"bufferView":16,
			"componentType":5126,
			"count":24,
			"max":[
				0.37763795256614685,
				0.8360008597373962,
				-0.43571943044662476
			],
			"min":[
				-0.393023818731308,
				-0.8108043074607849,
				-0.43571946024894714
			],
			"type":"VEC3"
		},
		{
			"bufferView":17,
			"componentType":5126,
			"count":24,
			"type":"VEC3"
		},
		{
			"bufferView":18,
			"componentType":5126,
			"count":24,
			"type":"VEC2"
		}
	],
	"bufferViews":[
		{
			"buffer":0,
			"byteLength":4176,
			"byteOffset":0,
			"target":34962
		},
		{
			"buffer":0,
			"byteLength":4176,
			"byteOffset":4176,
			"target":34962
		},
		{
			"buffer":0,
			"byteLength":2784,
			"byteOffset":8352,
			"target":34962
		},
		{
			"buffer":0,
			"byteLength":2256,
			"byteOffset":11136,
			"target":34963
		},
		{
			"buffer":0,
			"byteLength":2160,
			"byteOffset":13392,
			"target":34962
		},
		{
			"buffer":0,
			"byteLength":2160,
			"byteOffset":15552,
			"target":34962
		},
		{
			"buffer":0,
			"byteLength":1440,
			"byteOffset":17712,
			"target":34962
		},
		{
			"buffer":0,
			"byteLength":1500,
			"byteOffset":19152,
			"target":34963
		},
		{
			"buffer":0,
			"byteLength":288,
			"byteOffset":20652,
			"target":34962
		},
		{
			"buffer":0,
			"byteLength":288,
			"byteOffset":20940,
			"target":34962
		},
		{
			"buffer":0,
			"byteLength":192,
			"byteOffset":21228,
			"target":34962
		},
		{
			"buffer":0,
			"byteLength":132,
			"byteOffset":21420,
			"target":34963
		},
		{
			"buffer":0,
			"byteLength":8064,
			"byteOffset":21552,
			"target":34962
		},
		{
			"buffer":0,
			"byteLength":8064,
			"byteOffset":29616,
			"target":34962
		},
		{
			"buffer":0,
			"byteLength":5376,
			"byteOffset":37680,
			"target":34962
		},
		{
			"buffer":0,
			"byteLength":5376,
			"byteOffset":43056,
			"target":34963
		},
		{
			"buffer":0,
			"byteLength":288,
			"byteOffset":48432,
			"target":34962
		},
		{
			"buffer":0,
			"byteLength":288,
			"byteOffset":48720,
			"target":34962
		},
		{
			"buffer":0,
			"byteLength":192,
			"byteOffset":49008,
			"target":34962
		}
	],
	"samplers":[
		{
			"magFilter":9729,
			"minFilter":9987
		}
	],
	"buffers":[
		{
			"byteLength":49200,
			"uri":"sm_companionplanter.bin"
		}
	]
}
