{
	"asset":{
		"generator":"Khronos glTF Blender I/O v4.4.56",
		"version":"2.0"
	},
	"scene":0,
	"scenes":[
		{
			"name":"Scene",
			"nodes":[
				0,
				1,
				2,
				4,
				6,
				9,
				10,
				11
			]
		}
	],
	"nodes":[
		{
			"mesh":0,
			"name":"Cube"
		},
		{
			"mesh":1,
			"name":"Plane",
			"rotation":[
				0.5,
				-0.5,
				-0.5,
				0.5000000596046448
			],
			"scale":[
				0.05376427620649338,
				0.05376427620649338,
				0.05376427620649338
			],
			"translation":[
				-1,
				0,
				0
			]
		},
		{
			"mesh":2,
			"name":"legs"
		},
		{
			"mesh":3,
			"name":"lid",
			"translation":[
				0,
				0.017496347427368164,
				0
			]
		},
		{
			"children":[
				3
			],
			"name":"Empty",
			"translation":[
				0,
				0.9247981309890747,
				-0.47114723920822144
			]
		},
		{
			"mesh":4,
			"name":"front latch",
			"scale":[
				9.640393257141113,
				9.640393257141113,
				9.640393257141113
			]
		},
		{
			"children":[
				5
			],
			"name":"Empty.001",
			"scale":[
				0.1037302017211914,
				0.1037302017211914,
				0.1037302017211914
			],
			"translation":[
				-0.44999998807907104,
				0.8066378831863403,
				0.49000000953674316
			]
		},
		{
			"mesh":5,
			"name":"Cube.002",
			"translation":[
				0,
				0.6162440776824951,
				0.03769180178642273
			]
		},
		{
			"children":[
				7
			],
			"mesh":6,
			"name":"front door",
			"scale":[
				2.927971124649048,
				2.927971124649048,
				2.927971124649048
			]
		},
		{
			"children":[
				8
			],
			"name":"Empty.002",
			"scale":[
				0.3415334224700928,
				0.3415334224700928,
				0.3415334224700928
			],
			"translation":[
				0,
				0.1884588897228241,
				0.39576369524002075
			]
		},
		{
			"mesh":7,
			"name":"Cube.001",
			"scale":[
				1,
				1,
				0.6192601919174194
			],
			"translation":[
				0,
				0.294380247592926,
				-0.43964967131614685
			]
		},
		{
			"mesh":8,
			"name":"sm_compost"
		}
	],
	"materials":[
		{
			"doubleSided":true,
			"name":"Material",
			"pbrMetallicRoughness":{
				"baseColorFactor":[
					0.800000011920929,
					0.800000011920929,
					0.800000011920929,
					1
				],
				"metallicFactor":0,
				"roughnessFactor":0.5
			}
		}
	],
	"meshes":[
		{
			"name":"Cube",
			"primitives":[
				{
					"attributes":{
						"POSITION":0,
						"NORMAL":1,
						"TEXCOORD_0":2
					},
					"indices":3,
					"material":0
				}
			]
		},
		{
			"name":"Plane.005",
			"primitives":[
				{
					"attributes":{
						"POSITION":4,
						"NORMAL":5
					},
					"indices":6
				}
			]
		},
		{
			"name":"Cube.001",
			"primitives":[
				{
					"attributes":{
						"POSITION":7,
						"NORMAL":8,
						"TEXCOORD_0":9
					},
					"indices":10
				}
			]
		},
		{
			"name":"Cube.002",
			"primitives":[
				{
					"attributes":{
						"POSITION":11,
						"NORMAL":12,
						"TEXCOORD_0":13
					},
					"indices":14,
					"material":0
				}
			]
		},
		{
			"name":"Cube.006",
			"primitives":[
				{
					"attributes":{
						"POSITION":15,
						"NORMAL":16,
						"TEXCOORD_0":17
					},
					"indices":10
				}
			]
		},
		{
			"name":"Cube.004",
			"primitives":[
				{
					"attributes":{
						"POSITION":18,
						"NORMAL":19,
						"TEXCOORD_0":20
					},
					"indices":21
				}
			]
		},
		{
			"name":"Cube.003",
			"primitives":[
				{
					"attributes":{
						"POSITION":22,
						"NORMAL":23,
						"TEXCOORD_0":24
					},
					"indices":10
				}
			]
		},
		{
			"name":"Cube.007",
			"primitives":[
				{
					"attributes":{
						"POSITION":25,
						"NORMAL":26,
						"TEXCOORD_0":27
					},
					"indices":28
				}
			]
		},
		{
			"name":"Cube.008",
			"primitives":[
				{
					"attributes":{
						"POSITION":29,
						"NORMAL":30,
						"TEXCOORD_0":31
					},
					"indices":32
				},
				{
					"attributes":{
						"POSITION":33,
						"NORMAL":34,
						"TEXCOORD_0":35
					},
					"indices":36,
					"material":0
				}
			]
		}
	],
	"accessors":[
		{
			"bufferView":0,
			"componentType":5126,
			"count":44,
			"max":[
				0.47114717960357666,
				0.9261071681976318,
				0.3976482152938843
			],
			"min":[
				-0.47114717960357666,
				0.1884588748216629,
				-0.47114717960357666
			],
			"type":"VEC3"
		},
		{
			"bufferView":1,
			"componentType":5126,
			"count":44,
			"type":"VEC3"
		},
		{
			"bufferView":2,
			"componentType":5126,
			"count":44,
			"type":"VEC2"
		},
		{
			"bufferView":3,
			"componentType":5123,
			"count":72,
			"type":"SCALAR"
		},
		{
			"bufferView":4,
			"componentType":5126,
			"count":1802,
			"max":[
				-0.06589633226394653,
				3.412574291229248,
				16.24725341796875
			],
			"min":[
				-37.32754898071289,
				-2.482013702392578,
				-16.24725341796875
			],
			"type":"VEC3"
		},
		{
			"bufferView":5,
			"componentType":5126,
			"count":1802,
			"type":"VEC3"
		},
		{
			"bufferView":6,
			"componentType":5123,
			"count":10800,
			"type":"SCALAR"
		},
		{
			"bufferView":7,
			"componentType":5126,
			"count":24,
			"max":[
				-0.3976481854915619,
				0.9422942996025085,
				0.48810848593711853
			],
			"min":[
				-0.48810842633247375,
				0,
				0.3976482152938843
			],
			"type":"VEC3"
		},
		{
			"bufferView":8,
			"componentType":5126,
			"count":24,
			"type":"VEC3"
		},
		{
			"bufferView":9,
			"componentType":5126,
			"count":24,
			"type":"VEC2"
		},
		{
			"bufferView":10,
			"componentType":5123,
			"count":36,
			"type":"SCALAR"
		},
		{
			"bufferView":11,
			"componentType":5126,
			"count":24,
			"max":[
				0.48999303579330444,
				0.05409188196063042,
				0.9611402153968811
			],
			"min":[
				-0.48999303579330444,
				0,
				-0.01884588599205017
			],
			"type":"VEC3"
		},
		{
			"bufferView":12,
			"componentType":5126,
			"count":24,
			"type":"VEC3"
		},
		{
			"bufferView":13,
			"componentType":5126,
			"count":24,
			"type":"VEC2"
		},
		{
			"bufferView":14,
			"componentType":5123,
			"count":36,
			"type":"SCALAR"
		},
		{
			"bufferView":15,
			"componentType":5126,
			"count":24,
			"max":[
				0.11902698874473572,
				0.02547355741262436,
				0.023010728880763054
			],
			"min":[
				-0.02734273672103882,
				-0.025473542511463165,
				-0.000489549245685339
			],
			"type":"VEC3"
		},
		{
			"bufferView":16,
			"componentType":5126,
			"count":24,
			"type":"VEC3"
		},
		{
			"bufferView":17,
			"componentType":5126,
			"count":24,
			"type":"VEC2"
		},
		{
			"bufferView":18,
			"componentType":5126,
			"count":20,
			"max":[
				0.3892248570919037,
				0.04711472988128662,
				0.05092322826385498
			],
			"min":[
				-0.3892248570919037,
				-0.047114670276641846,
				-2.9802322387695312e-08
			],
			"type":"VEC3"
		},
		{
			"bufferView":19,
			"componentType":5126,
			"count":20,
			"type":"VEC3"
		},
		{
			"bufferView":20,
			"componentType":5126,
			"count":20,
			"type":"VEC2"
		},
		{
			"bufferView":21,
			"componentType":5123,
			"count":30,
			"type":"SCALAR"
		},
		{
			"bufferView":22,
			"componentType":5126,
			"count":24,
			"max":[
				0.3957637548446655,
				0.7376483678817749,
				0.037691790610551834
			],
			"min":[
				-0.3957637548446655,
				2.8082560277198354e-08,
				-2.1061920207898766e-08
			],
			"type":"VEC3"
		},
		{
			"bufferView":23,
			"componentType":5126,
			"count":24,
			"type":"VEC3"
		},
		{
			"bufferView":24,
			"componentType":5126,
			"count":24,
			"type":"VEC2"
		},
		{
			"bufferView":25,
			"componentType":5126,
			"count":50,
			"max":[
				0.39166319370269775,
				0.6769195795059204,
				1.4490025043487549
			],
			"min":[
				-0.39166319370269775,
				-0.11127477884292603,
				-0.014323435723781586
			],
			"type":"VEC3"
		},
		{
			"bufferView":26,
			"componentType":5126,
			"count":50,
			"type":"VEC3"
		},
		{
			"bufferView":27,
			"componentType":5126,
			"count":50,
			"type":"VEC2"
		},
		{
			"bufferView":28,
			"componentType":5123,
			"count":84,
			"type":"SCALAR"
		},
		{
			"bufferView":29,
			"componentType":5126,
			"count":164,
			"max":[
				0.48810842633247375,
				0.9422942996025085,
				0.5130106806755066
			],
			"min":[
				-0.48810842633247375,
				0,
				-0.48810848593711853
			],
			"type":"VEC3"
		},
		{
			"bufferView":30,
			"componentType":5126,
			"count":164,
			"type":"VEC3"
		},
		{
			"bufferView":31,
			"componentType":5126,
			"count":164,
			"type":"VEC2"
		},
		{
			"bufferView":32,
			"componentType":5123,
			"count":246,
			"type":"SCALAR"
		},
		{
			"bufferView":33,
			"componentType":5126,
			"count":68,
			"max":[
				0.48999303579330444,
				0.9963863492012024,
				0.48999297618865967
			],
			"min":[
				-0.48999303579330444,
				0.1884588748216629,
				-0.4899931252002716
			],
			"type":"VEC3"
		},
		{
			"bufferView":34,
			"componentType":5126,
			"count":68,
			"type":"VEC3"
		},
		{
			"bufferView":35,
			"componentType":5126,
			"count":68,
			"type":"VEC2"
		},
		{
			"bufferView":36,
			"componentType":5123,
			"count":108,
			"type":"SCALAR"
		}
	],
	"bufferViews":[
		{
			"buffer":0,
			"byteLength":528,
			"byteOffset":0,
			"target":34962
		},
		{
			"buffer":0,
			"byteLength":528,
			"byteOffset":528,
			"target":34962
		},
		{
			"buffer":0,
			"byteLength":352,
			"byteOffset":1056,
			"target":34962
		},
		{
			"buffer":0,
			"byteLength":144,
			"byteOffset":1408,
			"target":34963
		},
		{
			"buffer":0,
			"byteLength":21624,
			"byteOffset":1552,
			"target":34962
		},
		{
			"buffer":0,
			"byteLength":21624,
			"byteOffset":23176,
			"target":34962
		},
		{
			"buffer":0,
			"byteLength":21600,
			"byteOffset":44800,
			"target":34963
		},
		{
			"buffer":0,
			"byteLength":288,
			"byteOffset":66400,
			"target":34962
		},
		{
			"buffer":0,
			"byteLength":288,
			"byteOffset":66688,
			"target":34962
		},
		{
			"buffer":0,
			"byteLength":192,
			"byteOffset":66976,
			"target":34962
		},
		{
			"buffer":0,
			"byteLength":72,
			"byteOffset":67168,
			"target":34963
		},
		{
			"buffer":0,
			"byteLength":288,
			"byteOffset":67240,
			"target":34962
		},
		{
			"buffer":0,
			"byteLength":288,
			"byteOffset":67528,
			"target":34962
		},
		{
			"buffer":0,
			"byteLength":192,
			"byteOffset":67816,
			"target":34962
		},
		{
			"buffer":0,
			"byteLength":72,
			"byteOffset":68008,
			"target":34963
		},
		{
			"buffer":0,
			"byteLength":288,
			"byteOffset":68080,
			"target":34962
		},
		{
			"buffer":0,
			"byteLength":288,
			"byteOffset":68368,
			"target":34962
		},
		{
			"buffer":0,
			"byteLength":192,
			"byteOffset":68656,
			"target":34962
		},
		{
			"buffer":0,
			"byteLength":240,
			"byteOffset":68848,
			"target":34962
		},
		{
			"buffer":0,
			"byteLength":240,
			"byteOffset":69088,
			"target":34962
		},
		{
			"buffer":0,
			"byteLength":160,
			"byteOffset":69328,
			"target":34962
		},
		{
			"buffer":0,
			"byteLength":60,
			"byteOffset":69488,
			"target":34963
		},
		{
			"buffer":0,
			"byteLength":288,
			"byteOffset":69548,
			"target":34962
		},
		{
			"buffer":0,
			"byteLength":288,
			"byteOffset":69836,
			"target":34962
		},
		{
			"buffer":0,
			"byteLength":192,
			"byteOffset":70124,
			"target":34962
		},
		{
			"buffer":0,
			"byteLength":600,
			"byteOffset":70316,
			"target":34962
		},
		{
			"buffer":0,
			"byteLength":600,
			"byteOffset":70916,
			"target":34962
		},
		{
			"buffer":0,
			"byteLength":400,
			"byteOffset":71516,
			"target":34962
		},
		{
			"buffer":0,
			"byteLength":168,
			"byteOffset":71916,
			"target":34963
		},
		{
			"buffer":0,
			"byteLength":1968,
			"byteOffset":72084,
			"target":34962
		},
		{
			"buffer":0,
			"byteLength":1968,
			"byteOffset":74052,
			"target":34962
		},
		{
			"buffer":0,
			"byteLength":1312,
			"byteOffset":76020,
			"target":34962
		},
		{
			"buffer":0,
			"byteLength":492,
			"byteOffset":77332,
			"target":34963
		},
		{
			"buffer":0,
			"byteLength":816,
			"byteOffset":77824,
			"target":34962
		},
		{
			"buffer":0,
			"byteLength":816,
			"byteOffset":78640,
			"target":34962
		},
		{
			"buffer":0,
			"byteLength":544,
			"byteOffset":79456,
			"target":34962
		},
		{
			"buffer":0,
			"byteLength":216,
			"byteOffset":80000,
			"target":34963
		}
	],
	"buffers":[
		{
			"byteLength":80216,
			"uri":"compost.bin"
		}
	]
}
