{
	"asset":{
		"generator":"Khronos glTF Blender I/O v4.4.56",
		"version":"2.0"
	},
	"scene":0,
	"scenes":[
		{
			"name":"Scene",
			"nodes":[
				2
			]
		}
	],
	"nodes":[
		{
			"mesh":0,
			"name":"sm_door",
			"translation":[
				0,
				0.27904707193374634,
				0
			]
		},
		{
			"mesh":1,
			"name":"sm_legs",
			"translation":[
				0,
				-0.6079529523849487,
				0
			]
		},
		{
			"children":[
				0,
				1
			],
			"mesh":2,
			"name":"sm_compost_bin",
			"translation":[
				0,
				0.6079529523849487,
				0
			]
		}
	],
	"materials":[
		{
			"doubleSided":true,
			"name":"m_compost_bin",
			"normalTexture":{
				"index":0
			},
			"pbrMetallicRoughness":{
				"baseColorTexture":{
					"index":1
				},
				"metallicRoughnessTexture":{
					"index":2
				}
			}
		}
	],
	"meshes":[
		{
			"name":"door_low.002",
			"primitives":[
				{
					"attributes":{
						"POSITION":0,
						"NORMAL":1,
						"TEXCOORD_0":2
					},
					"indices":3,
					"material":0
				}
			]
		},
		{
			"name":"legs_low.002",
			"primitives":[
				{
					"attributes":{
						"POSITION":4,
						"NORMAL":5,
						"TEXCOORD_0":6
					},
					"indices":7,
					"material":0
				}
			]
		},
		{
			"name":"sm_body",
			"primitives":[
				{
					"attributes":{
						"POSITION":8,
						"NORMAL":9,
						"TEXCOORD_0":10
					},
					"indices":11,
					"material":0
				}
			]
		}
	],
	"textures":[
		{
			"sampler":0,
			"source":0
		},
		{
			"sampler":0,
			"source":1
		},
		{
			"sampler":0,
			"source":2
		}
	],
	"images":[
		{
			"mimeType":"image/png",
			"name":"compostbin_normal",
			"uri":"compostbin_normal.png"
		},
		{
			"mimeType":"image/png",
			"name":"compostbin_basecolor",
			"uri":"compostbin_basecolor.png"
		},
		{
			"mimeType":"image/png",
			"name":"compostbin_metallic-compostbin_roughness",
			"uri":"compostbin_roughness.png"
		}
	],
	"accessors":[
		{
			"bufferView":0,
			"componentType":5126,
			"count":68,
			"max":[
				0.16847890615463257,
				0.001024007797241211,
				0.3124740719795227
			],
			"min":[
				-0.16847890615463257,
				-0.357524037361145,
				0.0016630040481686592
			],
			"type":"VEC3"
		},
		{
			"bufferView":1,
			"componentType":5126,
			"count":68,
			"type":"VEC3"
		},
		{
			"bufferView":2,
			"componentType":5126,
			"count":68,
			"type":"VEC2"
		},
		{
			"bufferView":3,
			"componentType":5123,
			"count":180,
			"type":"SCALAR"
		},
		{
			"bufferView":4,
			"componentType":5126,
			"count":332,
			"max":[
				0.4761027693748474,
				0.5757390856742859,
				0.4123035967350006
			],
			"min":[
				-0.4761027693748474,
				-0.005787154659628868,
				-0.4123035967350006
			],
			"type":"VEC3"
		},
		{
			"bufferView":5,
			"componentType":5126,
			"count":332,
			"type":"VEC3"
		},
		{
			"bufferView":6,
			"componentType":5126,
			"count":332,
			"type":"VEC2"
		},
		{
			"bufferView":7,
			"componentType":5123,
			"count":960,
			"type":"SCALAR"
		},
		{
			"bufferView":8,
			"componentType":5126,
			"count":689,
			"max":[
				0.4803266227245331,
				0.295105516910553,
				0.3262735605239868
			],
			"min":[
				-0.7682514190673828,
				-0.295105516910553,
				-0.32627353072166443
			],
			"type":"VEC3"
		},
		{
			"bufferView":9,
			"componentType":5126,
			"count":689,
			"type":"VEC3"
		},
		{
			"bufferView":10,
			"componentType":5126,
			"count":689,
			"type":"VEC2"
		},
		{
			"bufferView":11,
			"componentType":5123,
			"count":1902,
			"type":"SCALAR"
		}
	],
	"bufferViews":[
		{
			"buffer":0,
			"byteLength":816,
			"byteOffset":0,
			"target":34962
		},
		{
			"buffer":0,
			"byteLength":816,
			"byteOffset":816,
			"target":34962
		},
		{
			"buffer":0,
			"byteLength":544,
			"byteOffset":1632,
			"target":34962
		},
		{
			"buffer":0,
			"byteLength":360,
			"byteOffset":2176,
			"target":34963
		},
		{
			"buffer":0,
			"byteLength":3984,
			"byteOffset":2536,
			"target":34962
		},
		{
			"buffer":0,
			"byteLength":3984,
			"byteOffset":6520,
			"target":34962
		},
		{
			"buffer":0,
			"byteLength":2656,
			"byteOffset":10504,
			"target":34962
		},
		{
			"buffer":0,
			"byteLength":1920,
			"byteOffset":13160,
			"target":34963
		},
		{
			"buffer":0,
			"byteLength":8268,
			"byteOffset":15080,
			"target":34962
		},
		{
			"buffer":0,
			"byteLength":8268,
			"byteOffset":23348,
			"target":34962
		},
		{
			"buffer":0,
			"byteLength":5512,
			"byteOffset":31616,
			"target":34962
		},
		{
			"buffer":0,
			"byteLength":3804,
			"byteOffset":37128,
			"target":34963
		}
	],
	"samplers":[
		{
			"magFilter":9729,
			"minFilter":9987
		}
	],
	"buffers":[
		{
			"byteLength":40932,
			"uri":"sm_compost_bin.bin"
		}
	]
}
