{
	"asset":{
		"generator":"Khronos glTF Blender I/O v4.4.56",
		"version":"2.0"
	},
	"scene":0,
	"scenes":[
		{
			"name":"Scene",
			"nodes":[
				0
			]
		}
	],
	"nodes":[
		{
			"mesh":0,
			"name":"sm_compost_bin"
		}
	],
	"meshes":[
		{
			"name":"sm_compost_bin",
			"primitives":[
				{
					"attributes":{
						"POSITION":0,
						"NORMAL":1,
						"TEXCOORD_0":2
					},
					"indices":3
				}
			]
		}
	],
	"accessors":[
		{
			"bufferView":0,
			"componentType":5126,
			"count":406,
			"max":[
				0.46151018142700195,
				0.9283567667007446,
				0.4340498149394989
			],
			"min":[
				-0.7682515382766724,
				-0.00042703282088041306,
				-0.43241599202156067
			],
			"type":"VEC3"
		},
		{
			"bufferView":1,
			"componentType":5126,
			"count":406,
			"type":"VEC3"
		},
		{
			"bufferView":2,
			"componentType":5126,
			"count":406,
			"type":"VEC2"
		},
		{
			"bufferView":3,
			"componentType":5123,
			"count":1560,
			"type":"SCALAR"
		}
	],
	"bufferViews":[
		{
			"buffer":0,
			"byteLength":4872,
			"byteOffset":0,
			"target":34962
		},
		{
			"buffer":0,
			"byteLength":4872,
			"byteOffset":4872,
			"target":34962
		},
		{
			"buffer":0,
			"byteLength":3248,
			"byteOffset":9744,
			"target":34962
		},
		{
			"buffer":0,
			"byteLength":3120,
			"byteOffset":12992,
			"target":34963
		}
	],
	"buffers":[
		{
			"byteLength":16112,
			"uri":"sm_compost_bin.bin"
		}
	]
}
