{"accessors":[{"bufferView":0,"byteOffset":0,"componentType":5126,"count":264,"max":[24.0054225921631,0.5,61.9099426269531],"min":[-22.6033782958984,-0.5,-95.2669067382813],"normalized":false,"type":"VEC3"},{"bufferView":1,"byteOffset":0,"componentType":5126,"count":264,"max":[0.0,0.0,0.0000763009302318096,-1.0],"min":[-1.0,-1.0,-1.0,-1.0],"normalized":false,"type":"VEC4"},{"bufferView":2,"byteOffset":0,"componentType":5126,"count":264,"max":[1.0,1.0,1.0],"min":[-1.0,-1.0,-1.0],"normalized":false,"type":"VEC3"},{"bufferView":3,"byteOffset":0,"componentType":5126,"count":264,"max":[1.0,1.0],"min":[0.0,0.0],"normalized":false,"type":"VEC2"},{"bufferView":4,"byteOffset":0,"componentType":5123,"count":264,"max":[263.0],"min":[0.0],"normalized":false,"type":"SCALAR"}],"asset":{"generator":"Godot Engine v4.4.1.stable.official@49a5bc7b616bd04689a2c89e89bda41f50241464","version":"2.0"},"bufferViews":[{"buffer":0,"byteLength":3168,"byteOffset":0,"byteStride":12,"target":34962},{"buffer":0,"byteLength":4224,"byteOffset":3168,"byteStride":16,"target":34962},{"buffer":0,"byteLength":3168,"byteOffset":7392,"byteStride":12,"target":34962},{"buffer":0,"byteLength":2112,"byteOffset":10560,"byteStride":8,"target":34962},{"buffer":0,"byteLength":528,"byteOffset":12672,"target":34963}],"buffers":[{"byteLength":13200,"uri":"river_run0.bin"}],"extensionsUsed":["GODOT_single_root"],"materials":[{}],"meshes":[{"extras":{"targetNames":[]},"primitives":[{"attributes":{"NORMAL":2,"POSITION":0,"TANGENT":1,"TEXCOORD_0":3},"indices":4,"material":0,"mode":4}]}],"nodes":[{"children":[1,2,3,4,5],"mesh":0,"name":"CSGCombiner3D2"},{"name":"CSGBox3D","translation":[-7.63797760009766,0.0,16.0843391418457]},{"name":"CSGBox3D3","translation":[4.80052185058594,0.0,11.4291400909424]},{"name":"CSGBox3D4","translation":[6.01811981201172,0.0,-8.92704010009766]},{"name":"CSGBox3D5","translation":[16.6334228515625,0.0,-55.5599594116211]},{"name":"CSGBox3D2","translation":[-16.5510787963867,0.0,37.9633407592773]}],"scene":0,"scenes":[{"nodes":[0]}]}