{"accessors":[{"bufferView":0,"byteOffset":0,"componentType":5126,"count":339,"max":[26.2379951477051,0.550000011920929,65.7786560058594],"min":[-25.0395793914795,-0.550000011920929,-162.322692871094],"normalized":false,"type":"VEC3"},{"bufferView":1,"byteOffset":0,"componentType":5126,"count":339,"max":[0.0,0.0,0.0000763009302318096,-1.0],"min":[-1.0,-1.0,-1.0,-1.0],"normalized":false,"type":"VEC4"},{"bufferView":2,"byteOffset":0,"componentType":5126,"count":339,"max":[1.0,1.0,1.0],"min":[-1.0,-1.0,-1.0],"normalized":false,"type":"VEC3"},{"bufferView":3,"byteOffset":0,"componentType":5126,"count":339,"max":[1.0,1.0],"min":[0.0,0.0],"normalized":false,"type":"VEC2"},{"bufferView":4,"byteOffset":0,"componentType":5123,"count":339,"max":[338.0],"min":[0.0],"normalized":false,"type":"SCALAR"},{"bufferView":5,"byteOffset":0,"componentType":5126,"count":201,"max":[24.0053997039795,0.725342035293579,61.9100036621094],"min":[-22.6033496856689,0.550000011920929,-160.407897949219],"normalized":false,"type":"VEC3"},{"bufferView":6,"byteOffset":0,"componentType":5126,"count":201,"max":[0.0,0.0,0.0000763009302318096,-1.0],"min":[-1.0,-1.0,-1.0,-1.0],"normalized":false,"type":"VEC4"},{"bufferView":7,"byteOffset":0,"componentType":5126,"count":201,"max":[1.0,1.0,1.0],"min":[-1.0,-0.0000152592547237873,-1.0],"normalized":false,"type":"VEC3"},{"bufferView":8,"byteOffset":0,"componentType":5126,"count":201,"max":[1.0,1.0],"min":[0.0,0.0],"normalized":false,"type":"VEC2"},{"bufferView":9,"byteOffset":0,"componentType":5123,"count":201,"max":[200.0],"min":[0.0],"normalized":false,"type":"SCALAR"}],"asset":{"generator":"Godot Engine v4.4.1.stable.official@49a5bc7b616bd04689a2c89e89bda41f50241464","version":"2.0"},"bufferViews":[{"buffer":0,"byteLength":4068,"byteOffset":0,"byteStride":12,"target":34962},{"buffer":0,"byteLength":5424,"byteOffset":4068,"byteStride":16,"target":34962},{"buffer":0,"byteLength":4068,"byteOffset":9492,"byteStride":12,"target":34962},{"buffer":0,"byteLength":2712,"byteOffset":13560,"byteStride":8,"target":34962},{"buffer":0,"byteLength":678,"byteOffset":16272,"target":34963},{"buffer":0,"byteLength":2412,"byteOffset":16952,"byteStride":12,"target":34962},{"buffer":0,"byteLength":3216,"byteOffset":19364,"byteStride":16,"target":34962},{"buffer":0,"byteLength":2412,"byteOffset":22580,"byteStride":12,"target":34962},{"buffer":0,"byteLength":1608,"byteOffset":24992,"byteStride":8,"target":34962},{"buffer":0,"byteLength":402,"byteOffset":26600,"target":34963}],"buffers":[{"byteLength":27004,"uri":"river_run_adv0.bin"}],"extensionsUsed":["GODOT_single_root"],"materials":[{"extensions":{},"pbrMetallicRoughness":{"baseColorFactor":[0.0887326672673225,0.0404550693929195,0.014823499135673,1.0],"metallicFactor":0.0,"roughnessFactor":1.0}},{"extensions":{},"pbrMetallicRoughness":{"baseColorFactor":[0.0,0.262251049280167,1.0,1.0],"metallicFactor":0.0,"roughnessFactor":1.0}}],"meshes":[{"extras":{"targetNames":[]},"primitives":[{"attributes":{"NORMAL":2,"POSITION":0,"TANGENT":1,"TEXCOORD_0":3},"indices":4,"material":0,"mode":4},{"attributes":{"NORMAL":7,"POSITION":5,"TANGENT":6,"TEXCOORD_0":8},"indices":9,"material":1,"mode":4}]}],"nodes":[{"children":[1],"name":"Node3D"},{"children":[2,8],"mesh":0,"name":"Total2"},{"children":[3,4,5,6,7],"name":"Shore"},{"name":"CSGBox3D6","scale":[1.10000002384186,1.10000002384186,1.10000002384186],"translation":[-7.28118991851807,0.0,15.5223999023438]},{"name":"CSGBox3D7","scale":[1.10000002384186,1.10000002384186,1.10000002384186],"translation":[5.73378992080688,0.0,12.2316999435425]},{"name":"CSGBox3D8","scale":[1.10000002384186,1.10000002384186,1.10000002384186],"translation":[5.78754997253418,0.0,-9.8399600982666]},{"name":"CSGBox3D9","scale":[1.10000002384186,1.10000002384186,1.10000002384186],"translation":[16.5883007049561,0.0,-86.5579986572266]},{"name":"CSGBox3D10","scale":[1.10000002384186,1.10000002384186,1.10000002384186],"translation":[-16.2243995666504,0.0,38.2335014343262]},{"children":[9,10,11,12,13],"name":"WaterCut","translation":[0.0,0.225342005491257,0.0]},{"name":"CSGBox3D","translation":[-7.21534013748169,0.0,16.4822006225586]},{"name":"CSGBox3D3","translation":[4.8005199432373,0.0,11.4291000366211]},{"name":"CSGBox3D4","translation":[6.01811981201172,0.0,-9.25331020355225]},{"name":"CSGBox3D5","translation":[16.6333999633789,0.0,-86.9504013061523]},{"name":"CSGBox3D2","translation":[-16.817699432373,0.0,37.6818008422852]}],"scene":0,"scenes":[{"nodes":[0]}]}