{"accessors":[{"bufferView":0,"byteOffset":0,"componentType":5126,"count":210,"max":[101.027542114258,0.550000011920929,146.752349853516],"min":[-128.513153076172,-0.550000011920929,-162.322692871094],"normalized":false,"type":"VEC3"},{"bufferView":1,"byteOffset":0,"componentType":5126,"count":210,"max":[0.0,0.0,0.0000763009302318096,-1.0],"min":[-1.0,-1.0,-1.0,-1.0],"normalized":false,"type":"VEC4"},{"bufferView":2,"byteOffset":0,"componentType":5126,"count":210,"max":[1.0,1.0,1.0],"min":[-1.0,-1.0,-1.0],"normalized":false,"type":"VEC3"},{"bufferView":3,"byteOffset":0,"componentType":5126,"count":210,"max":[1.0,1.0],"min":[0.0,0.0],"normalized":false,"type":"VEC2"},{"bufferView":4,"byteOffset":0,"componentType":5123,"count":210,"max":[209.0],"min":[0.0],"normalized":false,"type":"SCALAR"}],"asset":{"generator":"Godot Engine v4.4.1.stable.official@49a5bc7b616bd04689a2c89e89bda41f50241464","version":"2.0"},"bufferViews":[{"buffer":0,"byteLength":2520,"byteOffset":0,"byteStride":12,"target":34962},{"buffer":0,"byteLength":3360,"byteOffset":2520,"byteStride":16,"target":34962},{"buffer":0,"byteLength":2520,"byteOffset":5880,"byteStride":12,"target":34962},{"buffer":0,"byteLength":1680,"byteOffset":8400,"byteStride":8,"target":34962},{"buffer":0,"byteLength":420,"byteOffset":10080,"target":34963}],"buffers":[{"byteLength":10500,"uri":"shore0.bin"}],"extensionsUsed":["GODOT_single_root"],"materials":[{"extensions":{},"pbrMetallicRoughness":{"baseColorFactor":[0.0887326672673225,0.0404550693929195,0.014823499135673,1.0],"metallicFactor":0.0,"roughnessFactor":1.0}}],"meshes":[{"extras":{"targetNames":[]},"primitives":[{"attributes":{"NORMAL":2,"POSITION":0,"TANGENT":1,"TEXCOORD_0":3},"indices":4,"material":0,"mode":4}]}],"nodes":[{"children":[1,2,3,4,5],"mesh":0,"name":"Shore2"},{"name":"CSGBox3D6","scale":[1.10000002384186,1.10000002384186,1.10000002384186],"translation":[-7.28118991851807,0.0,18.8957920074463]},{"name":"CSGBox3D7","scale":[1.10000002384186,1.10000002384186,1.10000002384186],"translation":[8.54035377502441,0.0,21.0615272521973]},{"name":"CSGBox3D8","scale":[1.10000002384186,1.10000002384186,1.10000002384186],"translation":[10.2532739639282,0.0,-9.8399600982666]},{"name":"CSGBox3D9","scale":[1.10000002384186,1.10000002384186,1.10000002384186],"translation":[53.9830780029297,0.0,-69.184684753418]},{"name":"CSGBox3D10","scale":[1.10000002384186,1.10000002384186,1.10000002384186],"translation":[-14.0656051635742,0.0,78.720344543457]}],"scene":0,"scenes":[{"nodes":[0]}]}