{"accessors":[{"bufferView":0,"byteOffset":0,"componentType":5126,"count":276,"max":[24.0053997039795,0.5,61.9100036621094],"min":[-22.6033496856689,-0.5,-160.407897949219],"normalized":false,"type":"VEC3"},{"bufferView":1,"byteOffset":0,"componentType":5126,"count":276,"max":[0.0,0.0,0.0000763009302318096,-1.0],"min":[-1.0,-1.0,-1.0,-1.0],"normalized":false,"type":"VEC4"},{"bufferView":2,"byteOffset":0,"componentType":5126,"count":276,"max":[1.0,1.0,1.0],"min":[-1.0,-1.0,-1.0],"normalized":false,"type":"VEC3"},{"bufferView":3,"byteOffset":0,"componentType":5126,"count":276,"max":[1.0,1.0],"min":[0.0,0.0],"normalized":false,"type":"VEC2"},{"bufferView":4,"byteOffset":0,"componentType":5123,"count":276,"max":[275.0],"min":[0.0],"normalized":false,"type":"SCALAR"}],"asset":{"generator":"Godot Engine v4.4.1.stable.official@49a5bc7b616bd04689a2c89e89bda41f50241464","version":"2.0"},"bufferViews":[{"buffer":0,"byteLength":3312,"byteOffset":0,"byteStride":12,"target":34962},{"buffer":0,"byteLength":4416,"byteOffset":3312,"byteStride":16,"target":34962},{"buffer":0,"byteLength":3312,"byteOffset":7728,"byteStride":12,"target":34962},{"buffer":0,"byteLength":2208,"byteOffset":11040,"byteStride":8,"target":34962},{"buffer":0,"byteLength":552,"byteOffset":13248,"target":34963}],"buffers":[{"byteLength":13800,"uri":"water_cut0.bin"}],"extensionsUsed":["GODOT_single_root"],"materials":[{"extensions":{},"pbrMetallicRoughness":{"baseColorFactor":[0.0,0.262251049280167,1.0,1.0],"metallicFactor":0.0,"roughnessFactor":1.0}}],"meshes":[{"extras":{"targetNames":[]},"primitives":[{"attributes":{"NORMAL":2,"POSITION":0,"TANGENT":1,"TEXCOORD_0":3},"indices":4,"material":0,"mode":4}]}],"nodes":[{"children":[1,2,3,4,5],"mesh":0,"name":"WaterCut2"},{"name":"CSGBox3D","translation":[-7.21534013748169,0.0,16.4822006225586]},{"name":"CSGBox3D3","translation":[4.8005199432373,0.0,11.4291000366211]},{"name":"CSGBox3D4","translation":[6.01811981201172,0.0,-9.25331020355225]},{"name":"CSGBox3D5","translation":[16.6333999633789,0.0,-86.9504013061523]},{"name":"CSGBox3D2","translation":[-16.817699432373,0.0,37.6818008422852]}],"scene":0,"scenes":[{"nodes":[0]}]}