{
	"asset":{
		"generator":"Khronos glTF Blender I/O v4.4.56",
		"version":"2.0"
	},
	"scene":0,
	"scenes":[
		{
			"name":"Scene",
			"nodes":[
				1,
				3,
				5
			]
		}
	],
	"nodes":[
		{
			"mesh":0,
			"name":"nv_playerhourse-navmesh",
			"rotation":[
				0,
				-0.7088443040847778,
				0,
				0.705365002155304
			]
		},
		{
			"children":[
				0
			],
			"name":"playerhouse-navmesh"
		},
		{
			"mesh":1,
			"name":"sm_building_player.002",
			"rotation":[
				0,
				-0.7088443040847778,
				0,
				0.705365002155304
			]
		},
		{
			"children":[
				2
			],
			"name":"mesh_building_playerhouse"
		},
		{
			"mesh":2,
			"name":"colliision_playerhouse-colonly",
			"translation":[
				0.15051209926605225,
				0,
				0
			]
		},
		{
			"children":[
				4
			],
			"name":"col_playerhouse-colonly"
		}
	],
	"materials":[
		{
			"doubleSided":true,
			"name":"M_NavMesh",
			"pbrMetallicRoughness":{
				"baseColorFactor":[
					0,
					0.561145007610321,
					0.8001565933227539,
					1
				],
				"metallicFactor":0,
				"roughnessFactor":0.5
			}
		},
		{
			"name":"Material_0",
			"pbrMetallicRoughness":{
				"baseColorFactor":[
					0.03827747702598572,
					0.03827747702598572,
					0.03827747702598572,
					1
				],
				"metallicFactor":0
			}
		},
		{
			"doubleSided":true,
			"name":"M_Collision",
			"pbrMetallicRoughness":{
				"baseColorFactor":[
					0.8002356290817261,
					0,
					0.004787445068359375,
					1
				],
				"metallicFactor":0,
				"roughnessFactor":0.5
			}
		}
	],
	"meshes":[
		{
			"name":"Cube.028",
			"primitives":[
				{
					"attributes":{
						"POSITION":0,
						"NORMAL":1,
						"TEXCOORD_0":2
					},
					"indices":3,
					"material":0
				}
			]
		},
		{
			"name":"Cube.010",
			"primitives":[
				{
					"attributes":{
						"POSITION":4,
						"NORMAL":5,
						"TEXCOORD_0":6
					},
					"indices":7,
					"material":1
				}
			]
		},
		{
			"name":"Cube.029",
			"primitives":[
				{
					"attributes":{
						"POSITION":8,
						"NORMAL":9,
						"TEXCOORD_0":10
					},
					"indices":11,
					"material":2
				}
			]
		}
	],
	"accessors":[
		{
			"bufferView":0,
			"componentType":5126,
			"count":75,
			"max":[
				4.986295700073242,
				6.3371405601501465,
				11.111392974853516
			],
			"min":[
				-5.946014404296875,
				4.033936023712158,
				-6.796450138092041
			],
			"type":"VEC3"
		},
		{
			"bufferView":1,
			"componentType":5126,
			"count":75,
			"type":"VEC3"
		},
		{
			"bufferView":2,
			"componentType":5126,
			"count":75,
			"type":"VEC2"
		},
		{
			"bufferView":3,
			"componentType":5123,
			"count":282,
			"type":"SCALAR"
		},
		{
			"bufferView":4,
			"componentType":5126,
			"count":10192,
			"max":[
				7.785305023193359,
				10.683784484863281,
				13.882468223571777
			],
			"min":[
				-7.089250564575195,
				-0.17017340660095215,
				-9.442392349243164
			],
			"type":"VEC3"
		},
		{
			"bufferView":5,
			"componentType":5126,
			"count":10192,
			"type":"VEC3"
		},
		{
			"bufferView":6,
			"componentType":5126,
			"count":10192,
			"type":"VEC2"
		},
		{
			"bufferView":7,
			"componentType":5123,
			"count":27915,
			"type":"SCALAR"
		},
		{
			"bufferView":8,
			"componentType":5126,
			"count":48,
			"max":[
				9.61870002746582,
				6.302423000335693,
				6.922088623046875
			],
			"min":[
				-12.966469764709473,
				-0.9817296862602234,
				-7.093008995056152
			],
			"type":"VEC3"
		},
		{
			"bufferView":9,
			"componentType":5126,
			"count":48,
			"type":"VEC3"
		},
		{
			"bufferView":10,
			"componentType":5126,
			"count":48,
			"type":"VEC2"
		},
		{
			"bufferView":11,
			"componentType":5123,
			"count":72,
			"type":"SCALAR"
		}
	],
	"bufferViews":[
		{
			"buffer":0,
			"byteLength":900,
			"byteOffset":0,
			"target":34962
		},
		{
			"buffer":0,
			"byteLength":900,
			"byteOffset":900,
			"target":34962
		},
		{
			"buffer":0,
			"byteLength":600,
			"byteOffset":1800,
			"target":34962
		},
		{
			"buffer":0,
			"byteLength":564,
			"byteOffset":2400,
			"target":34963
		},
		{
			"buffer":0,
			"byteLength":122304,
			"byteOffset":2964,
			"target":34962
		},
		{
			"buffer":0,
			"byteLength":122304,
			"byteOffset":125268,
			"target":34962
		},
		{
			"buffer":0,
			"byteLength":81536,
			"byteOffset":247572,
			"target":34962
		},
		{
			"buffer":0,
			"byteLength":55830,
			"byteOffset":329108,
			"target":34963
		},
		{
			"buffer":0,
			"byteLength":576,
			"byteOffset":384940,
			"target":34962
		},
		{
			"buffer":0,
			"byteLength":576,
			"byteOffset":385516,
			"target":34962
		},
		{
			"buffer":0,
			"byteLength":384,
			"byteOffset":386092,
			"target":34962
		},
		{
			"buffer":0,
			"byteLength":144,
			"byteOffset":386476,
			"target":34963
		}
	],
	"buffers":[
		{
			"byteLength":386620,
			"uri":"sm_building_playerhouse.bin"
		}
	]
}
