{
	"asset":{
		"generator":"Khronos glTF Blender I/O v4.4.56",
		"version":"2.0"
	},
	"scene":0,
	"scenes":[
		{
			"name":"Scene",
			"nodes":[
				1,
				3,
				5
			]
		}
	],
	"nodes":[
		{
			"mesh":0,
			"name":"navmesh_playerhouse-navmesh",
			"rotation":[
				0,
				-0.7088443040847778,
				0,
				0.705365002155304
			]
		},
		{
			"children":[
				0
			],
			"name":"playerhouse-navmesh"
		},
		{
			"mesh":1,
			"name":"sm_building_player",
			"rotation":[
				0,
				-0.7088443040847778,
				0,
				0.705365002155304
			]
		},
		{
			"children":[
				2
			],
			"name":"mesh_building_playerhouse"
		},
		{
			"mesh":2,
			"name":"colliision_playerhouse-colonly"
		},
		{
			"children":[
				4
			],
			"name":"col_playerhouse-colonly"
		}
	],
	"materials":[
		{
			"doubleSided":true,
			"name":"M_NavMesh",
			"pbrMetallicRoughness":{
				"baseColorFactor":[
					0,
					0.561145007610321,
					0.8001565933227539,
					1
				],
				"metallicFactor":0,
				"roughnessFactor":0.5
			}
		},
		{
			"doubleSided":true,
			"name":"t_playerbuilding",
			"normalTexture":{
				"index":0
			},
			"pbrMetallicRoughness":{
				"baseColorTexture":{
					"index":1
				},
				"metallicFactor":0,
				"roughnessFactor":0.5
			}
		},
		{
			"doubleSided":true,
			"name":"t_playerwindows",
			"normalTexture":{
				"index":2,
				"scale":0
			},
			"pbrMetallicRoughness":{
				"baseColorTexture":{
					"index":3
				},
				"metallicFactor":0,
				"roughnessFactor":0.5
			}
		},
		{
			"doubleSided":true,
			"name":"t_rooffloor",
			"normalTexture":{
				"index":4
			},
			"pbrMetallicRoughness":{
				"baseColorTexture":{
					"index":5
				},
				"metallicFactor":0,
				"roughnessFactor":0.5
			}
		},
		{
			"doubleSided":true,
			"name":"t_pillars",
			"normalTexture":{
				"index":6
			},
			"pbrMetallicRoughness":{
				"baseColorTexture":{
					"index":7
				},
				"metallicFactor":0,
				"roughnessFactor":0.5
			}
		},
		{
			"doubleSided":true,
			"name":"t_windowframe",
			"normalTexture":{
				"index":8
			},
			"pbrMetallicRoughness":{
				"baseColorTexture":{
					"index":9
				},
				"metallicFactor":0,
				"roughnessFactor":0.5
			}
		},
		{
			"doubleSided":true,
			"name":"t_terrace.001",
			"normalTexture":{
				"index":10
			},
			"pbrMetallicRoughness":{
				"baseColorTexture":{
					"index":11
				},
				"metallicFactor":0,
				"roughnessFactor":0.5
			}
		},
		{
			"doubleSided":true,
			"name":"t_roofexit",
			"normalTexture":{
				"index":12
			},
			"pbrMetallicRoughness":{
				"baseColorTexture":{
					"index":13
				},
				"metallicFactor":0,
				"roughnessFactor":0.5
			}
		},
		{
			"doubleSided":true,
			"name":"t_door",
			"pbrMetallicRoughness":{
				"baseColorFactor":[
					0.025933146476745605,
					0.025933146476745605,
					0.025933146476745605,
					1
				],
				"metallicFactor":0,
				"roughnessFactor":0.5
			}
		},
		{
			"doubleSided":true,
			"name":"t_roofecitroof",
			"normalTexture":{
				"index":14
			},
			"pbrMetallicRoughness":{
				"baseColorTexture":{
					"index":15
				},
				"metallicFactor":0,
				"roughnessFactor":0.5
			}
		},
		{
			"doubleSided":true,
			"name":"t_mainbuildingtrim",
			"normalTexture":{
				"index":16
			},
			"pbrMetallicRoughness":{
				"baseColorTexture":{
					"index":17
				},
				"metallicFactor":0,
				"roughnessFactor":0.5
			}
		},
		{
			"doubleSided":true,
			"name":"t_garagedoor.001",
			"normalTexture":{
				"index":18
			},
			"pbrMetallicRoughness":{
				"baseColorTexture":{
					"index":19
				},
				"metallicFactor":0,
				"roughnessFactor":0.5
			}
		},
		{
			"doubleSided":true,
			"name":"M_Collision",
			"pbrMetallicRoughness":{
				"baseColorFactor":[
					0.8002356290817261,
					0,
					0.004787445068359375,
					1
				],
				"metallicFactor":0,
				"roughnessFactor":0.5
			}
		}
	],
	"meshes":[
		{
			"name":"Cube.007",
			"primitives":[
				{
					"attributes":{
						"POSITION":0,
						"NORMAL":1,
						"TEXCOORD_0":2
					},
					"indices":3,
					"material":0
				}
			]
		},
		{
			"name":"Cube",
			"primitives":[
				{
					"attributes":{
						"POSITION":4,
						"NORMAL":5,
						"TEXCOORD_0":6
					},
					"indices":7,
					"material":1
				},
				{
					"attributes":{
						"POSITION":8,
						"NORMAL":9,
						"TEXCOORD_0":10
					},
					"indices":11,
					"material":2
				},
				{
					"attributes":{
						"POSITION":12,
						"NORMAL":13,
						"TEXCOORD_0":14
					},
					"indices":15,
					"material":3
				},
				{
					"attributes":{
						"POSITION":16,
						"NORMAL":17,
						"TEXCOORD_0":18
					},
					"indices":19,
					"material":4
				},
				{
					"attributes":{
						"POSITION":20,
						"NORMAL":21,
						"TEXCOORD_0":22
					},
					"indices":23,
					"material":5
				},
				{
					"attributes":{
						"POSITION":24,
						"NORMAL":25,
						"TEXCOORD_0":26
					},
					"indices":27,
					"material":6
				},
				{
					"attributes":{
						"POSITION":28,
						"NORMAL":29,
						"TEXCOORD_0":30
					},
					"indices":31,
					"material":7
				},
				{
					"attributes":{
						"POSITION":32,
						"NORMAL":33,
						"TEXCOORD_0":34
					},
					"indices":35,
					"material":8
				},
				{
					"attributes":{
						"POSITION":36,
						"NORMAL":37,
						"TEXCOORD_0":38
					},
					"indices":39,
					"material":9
				},
				{
					"attributes":{
						"POSITION":40,
						"NORMAL":41,
						"TEXCOORD_0":42
					},
					"indices":43,
					"material":10
				},
				{
					"attributes":{
						"POSITION":44,
						"NORMAL":45,
						"TEXCOORD_0":46
					},
					"indices":47,
					"material":11
				}
			]
		},
		{
			"name":"Cube.008",
			"primitives":[
				{
					"attributes":{
						"POSITION":48,
						"NORMAL":49,
						"TEXCOORD_0":50
					},
					"indices":51,
					"material":12
				}
			]
		}
	],
	"textures":[
		{
			"sampler":0,
			"source":0
		},
		{
			"sampler":0,
			"source":1
		},
		{
			"sampler":0,
			"source":0
		},
		{
			"sampler":0,
			"source":1
		},
		{
			"sampler":0,
			"source":0
		},
		{
			"sampler":0,
			"source":1
		},
		{
			"sampler":0,
			"source":0
		},
		{
			"sampler":0,
			"source":1
		},
		{
			"sampler":0,
			"source":0
		},
		{
			"sampler":0,
			"source":1
		},
		{
			"sampler":0,
			"source":0
		},
		{
			"sampler":0,
			"source":1
		},
		{
			"sampler":0,
			"source":0
		},
		{
			"sampler":0,
			"source":1
		},
		{
			"sampler":0,
			"source":0
		},
		{
			"sampler":0,
			"source":1
		},
		{
			"sampler":0,
			"source":0
		},
		{
			"sampler":0,
			"source":1
		},
		{
			"sampler":0,
			"source":0
		},
		{
			"sampler":0,
			"source":1
		}
	],
	"images":[
		{
			"mimeType":"image/png",
			"name":"sm_playerhouse_Normal_DirectX",
			"uri":"sm_playerhouse_Normal_DirectX.png"
		},
		{
			"mimeType":"image/png",
			"name":"sm_playerhouse_Base_Color",
			"uri":"sm_playerhouse_Base_Color.png"
		}
	],
	"accessors":[
		{
			"bufferView":0,
			"componentType":5126,
			"count":92,
			"max":[
				4.968376636505127,
				6.338277816772461,
				7.89338493347168
			],
			"min":[
				-5.059076309204102,
				4.015188217163086,
				-8.820988655090332
			],
			"type":"VEC3"
		},
		{
			"bufferView":1,
			"componentType":5126,
			"count":92,
			"type":"VEC3"
		},
		{
			"bufferView":2,
			"componentType":5126,
			"count":92,
			"type":"VEC2"
		},
		{
			"bufferView":3,
			"componentType":5123,
			"count":276,
			"type":"SCALAR"
		},
		{
			"bufferView":4,
			"componentType":5126,
			"count":799,
			"max":[
				6.532924652099609,
				9.264062881469727,
				9.399352073669434
			],
			"min":[
				-6.282079219818115,
				-0.20908738672733307,
				-9.213052749633789
			],
			"type":"VEC3"
		},
		{
			"bufferView":5,
			"componentType":5126,
			"count":799,
			"type":"VEC3"
		},
		{
			"bufferView":6,
			"componentType":5126,
			"count":799,
			"type":"VEC2"
		},
		{
			"bufferView":7,
			"componentType":5123,
			"count":2661,
			"type":"SCALAR"
		},
		{
			"bufferView":8,
			"componentType":5126,
			"count":136,
			"max":[
				5.215859413146973,
				9.047039985656738,
				9.580280303955078
			],
			"min":[
				-5.744898319244385,
				1.1741912364959717,
				-9.547511100769043
			],
			"type":"VEC3"
		},
		{
			"bufferView":9,
			"componentType":5126,
			"count":136,
			"type":"VEC3"
		},
		{
			"bufferView":10,
			"componentType":5126,
			"count":136,
			"type":"VEC2"
		},
		{
			"bufferView":11,
			"componentType":5123,
			"count":276,
			"type":"SCALAR"
		},
		{
			"bufferView":12,
			"componentType":5126,
			"count":8,
			"max":[
				3.486732006072998,
				6.334646701812744,
				3.784346580505371
			],
			"min":[
				-2.9945998191833496,
				4.01481819152832,
				-2.2850465774536133
			],
			"type":"VEC3"
		},
		{
			"bufferView":13,
			"componentType":5126,
			"count":8,
			"type":"VEC3"
		},
		{
			"bufferView":14,
			"componentType":5126,
			"count":8,
			"type":"VEC2"
		},
		{
			"bufferView":15,
			"componentType":5123,
			"count":12,
			"type":"SCALAR"
		},
		{
			"bufferView":16,
			"componentType":5126,
			"count":238,
			"max":[
				4.756010055541992,
				4.461196422576904,
				3.0509448051452637
			],
			"min":[
				-5.282908916473389,
				-0.07547473907470703,
				-7.916229248046875
			],
			"type":"VEC3"
		},
		{
			"bufferView":17,
			"componentType":5126,
			"count":238,
			"type":"VEC3"
		},
		{
			"bufferView":18,
			"componentType":5126,
			"count":238,
			"type":"VEC2"
		},
		{
			"bufferView":19,
			"componentType":5123,
			"count":762,
			"type":"SCALAR"
		},
		{
			"bufferView":20,
			"componentType":5126,
			"count":102,
			"max":[
				-5.233529090881348,
				6.2982378005981445,
				7.1922831535339355
			],
			"min":[
				-5.434265613555908,
				4.256956100463867,
				5.744060039520264
			],
			"type":"VEC3"
		},
		{
			"bufferView":21,
			"componentType":5126,
			"count":102,
			"type":"VEC3"
		},
		{
			"bufferView":22,
			"componentType":5126,
			"count":102,
			"type":"VEC2"
		},
		{
			"bufferView":23,
			"componentType":5123,
			"count":312,
			"type":"SCALAR"
		},
		{
			"bufferView":24,
			"componentType":5126,
			"count":4368,
			"max":[
				5.508270263671875,
				3.781646728515625,
				8.654342651367188
			],
			"min":[
				-5.474094867706299,
				-0.24016189575195312,
				4.490586757659912
			],
			"type":"VEC3"
		},
		{
			"bufferView":25,
			"componentType":5126,
			"count":4368,
			"type":"VEC3"
		},
		{
			"bufferView":26,
			"componentType":5126,
			"count":4368,
			"type":"VEC2"
		},
		{
			"bufferView":27,
			"componentType":5123,
			"count":8448,
			"type":"SCALAR"
		},
		{
			"bufferView":28,
			"componentType":5126,
			"count":131,
			"max":[
				1.7673766613006592,
				9.255414962768555,
				-7.522538661956787
			],
			"min":[
				-2.2894961833953857,
				2.154036521911621,
				-10.49758529663086
			],
			"type":"VEC3"
		},
		{
			"bufferView":29,
			"componentType":5126,
			"count":131,
			"type":"VEC3"
		},
		{
			"bufferView":30,
			"componentType":5126,
			"count":131,
			"type":"VEC2"
		},
		{
			"bufferView":31,
			"componentType":5123,
			"count":354,
			"type":"SCALAR"
		},
		{
			"bufferView":32,
			"componentType":5126,
			"count":22,
			"max":[
				5.044857025146484,
				8.210760116577148,
				1.636581540107727
			],
			"min":[
				-4.358773708343506,
				0.07980845868587494,
				-7.446347713470459
			],
			"type":"VEC3"
		},
		{
			"bufferView":33,
			"componentType":5126,
			"count":22,
			"type":"VEC3"
		},
		{
			"bufferView":34,
			"componentType":5126,
			"count":22,
			"type":"VEC2"
		},
		{
			"bufferView":35,
			"componentType":5123,
			"count":48,
			"type":"SCALAR"
		},
		{
			"bufferView":36,
			"componentType":5126,
			"count":708,
			"max":[
				5.107285022735596,
				9.472208023071289,
				9.671897888183594
			],
			"min":[
				-2.4500479698181152,
				-0.11619256436824799,
				-10.591056823730469
			],
			"type":"VEC3"
		},
		{
			"bufferView":37,
			"componentType":5126,
			"count":708,
			"type":"VEC3"
		},
		{
			"bufferView":38,
			"componentType":5126,
			"count":708,
			"type":"VEC2"
		},
		{
			"bufferView":39,
			"componentType":5123,
			"count":1884,
			"type":"SCALAR"
		},
		{
			"bufferView":40,
			"componentType":5126,
			"count":746,
			"max":[
				6.532924652099609,
				7.138501167297363,
				9.399352073669434
			],
			"min":[
				-6.282079219818115,
				2.8362512588500977,
				-9.213052749633789
			],
			"type":"VEC3"
		},
		{
			"bufferView":41,
			"componentType":5126,
			"count":746,
			"type":"VEC3"
		},
		{
			"bufferView":42,
			"componentType":5126,
			"count":746,
			"type":"VEC2"
		},
		{
			"bufferView":43,
			"componentType":5123,
			"count":1893,
			"type":"SCALAR"
		},
		{
			"bufferView":44,
			"componentType":5126,
			"count":106,
			"max":[
				-5.358530521392822,
				6.100078105926514,
				6.998614311218262
			],
			"min":[
				-5.418705940246582,
				5.421274185180664,
				5.880682945251465
			],
			"type":"VEC3"
		},
		{
			"bufferView":45,
			"componentType":5126,
			"count":106,
			"type":"VEC3"
		},
		{
			"bufferView":46,
			"componentType":5126,
			"count":106,
			"type":"VEC2"
		},
		{
			"bufferView":47,
			"componentType":5123,
			"count":252,
			"type":"SCALAR"
		},
		{
			"bufferView":48,
			"componentType":5126,
			"count":96,
			"max":[
				8.771745681762695,
				6.232378959655762,
				5.911834716796875
			],
			"min":[
				-10.090497970581055,
				-0.190142422914505,
				-6.481597423553467
			],
			"type":"VEC3"
		},
		{
			"bufferView":49,
			"componentType":5126,
			"count":96,
			"type":"VEC3"
		},
		{
			"bufferView":50,
			"componentType":5126,
			"count":96,
			"type":"VEC2"
		},
		{
			"bufferView":51,
			"componentType":5123,
			"count":180,
			"type":"SCALAR"
		}
	],
	"bufferViews":[
		{
			"buffer":0,
			"byteLength":1104,
			"byteOffset":0,
			"target":34962
		},
		{
			"buffer":0,
			"byteLength":1104,
			"byteOffset":1104,
			"target":34962
		},
		{
			"buffer":0,
			"byteLength":736,
			"byteOffset":2208,
			"target":34962
		},
		{
			"buffer":0,
			"byteLength":552,
			"byteOffset":2944,
			"target":34963
		},
		{
			"buffer":0,
			"byteLength":9588,
			"byteOffset":3496,
			"target":34962
		},
		{
			"buffer":0,
			"byteLength":9588,
			"byteOffset":13084,
			"target":34962
		},
		{
			"buffer":0,
			"byteLength":6392,
			"byteOffset":22672,
			"target":34962
		},
		{
			"buffer":0,
			"byteLength":5322,
			"byteOffset":29064,
			"target":34963
		},
		{
			"buffer":0,
			"byteLength":1632,
			"byteOffset":34388,
			"target":34962
		},
		{
			"buffer":0,
			"byteLength":1632,
			"byteOffset":36020,
			"target":34962
		},
		{
			"buffer":0,
			"byteLength":1088,
			"byteOffset":37652,
			"target":34962
		},
		{
			"buffer":0,
			"byteLength":552,
			"byteOffset":38740,
			"target":34963
		},
		{
			"buffer":0,
			"byteLength":96,
			"byteOffset":39292,
			"target":34962
		},
		{
			"buffer":0,
			"byteLength":96,
			"byteOffset":39388,
			"target":34962
		},
		{
			"buffer":0,
			"byteLength":64,
			"byteOffset":39484,
			"target":34962
		},
		{
			"buffer":0,
			"byteLength":24,
			"byteOffset":39548,
			"target":34963
		},
		{
			"buffer":0,
			"byteLength":2856,
			"byteOffset":39572,
			"target":34962
		},
		{
			"buffer":0,
			"byteLength":2856,
			"byteOffset":42428,
			"target":34962
		},
		{
			"buffer":0,
			"byteLength":1904,
			"byteOffset":45284,
			"target":34962
		},
		{
			"buffer":0,
			"byteLength":1524,
			"byteOffset":47188,
			"target":34963
		},
		{
			"buffer":0,
			"byteLength":1224,
			"byteOffset":48712,
			"target":34962
		},
		{
			"buffer":0,
			"byteLength":1224,
			"byteOffset":49936,
			"target":34962
		},
		{
			"buffer":0,
			"byteLength":816,
			"byteOffset":51160,
			"target":34962
		},
		{
			"buffer":0,
			"byteLength":624,
			"byteOffset":51976,
			"target":34963
		},
		{
			"buffer":0,
			"byteLength":52416,
			"byteOffset":52600,
			"target":34962
		},
		{
			"buffer":0,
			"byteLength":52416,
			"byteOffset":105016,
			"target":34962
		},
		{
			"buffer":0,
			"byteLength":34944,
			"byteOffset":157432,
			"target":34962
		},
		{
			"buffer":0,
			"byteLength":16896,
			"byteOffset":192376,
			"target":34963
		},
		{
			"buffer":0,
			"byteLength":1572,
			"byteOffset":209272,
			"target":34962
		},
		{
			"buffer":0,
			"byteLength":1572,
			"byteOffset":210844,
			"target":34962
		},
		{
			"buffer":0,
			"byteLength":1048,
			"byteOffset":212416,
			"target":34962
		},
		{
			"buffer":0,
			"byteLength":708,
			"byteOffset":213464,
			"target":34963
		},
		{
			"buffer":0,
			"byteLength":264,
			"byteOffset":214172,
			"target":34962
		},
		{
			"buffer":0,
			"byteLength":264,
			"byteOffset":214436,
			"target":34962
		},
		{
			"buffer":0,
			"byteLength":176,
			"byteOffset":214700,
			"target":34962
		},
		{
			"buffer":0,
			"byteLength":96,
			"byteOffset":214876,
			"target":34963
		},
		{
			"buffer":0,
			"byteLength":8496,
			"byteOffset":214972,
			"target":34962
		},
		{
			"buffer":0,
			"byteLength":8496,
			"byteOffset":223468,
			"target":34962
		},
		{
			"buffer":0,
			"byteLength":5664,
			"byteOffset":231964,
			"target":34962
		},
		{
			"buffer":0,
			"byteLength":3768,
			"byteOffset":237628,
			"target":34963
		},
		{
			"buffer":0,
			"byteLength":8952,
			"byteOffset":241396,
			"target":34962
		},
		{
			"buffer":0,
			"byteLength":8952,
			"byteOffset":250348,
			"target":34962
		},
		{
			"buffer":0,
			"byteLength":5968,
			"byteOffset":259300,
			"target":34962
		},
		{
			"buffer":0,
			"byteLength":3786,
			"byteOffset":265268,
			"target":34963
		},
		{
			"buffer":0,
			"byteLength":1272,
			"byteOffset":269056,
			"target":34962
		},
		{
			"buffer":0,
			"byteLength":1272,
			"byteOffset":270328,
			"target":34962
		},
		{
			"buffer":0,
			"byteLength":848,
			"byteOffset":271600,
			"target":34962
		},
		{
			"buffer":0,
			"byteLength":504,
			"byteOffset":272448,
			"target":34963
		},
		{
			"buffer":0,
			"byteLength":1152,
			"byteOffset":272952,
			"target":34962
		},
		{
			"buffer":0,
			"byteLength":1152,
			"byteOffset":274104,
			"target":34962
		},
		{
			"buffer":0,
			"byteLength":768,
			"byteOffset":275256,
			"target":34962
		},
		{
			"buffer":0,
			"byteLength":360,
			"byteOffset":276024,
			"target":34963
		}
	],
	"samplers":[
		{
			"magFilter":9729,
			"minFilter":9987
		}
	],
	"buffers":[
		{
			"byteLength":276384,
			"uri":"sm_building_playerhouse.bin"
		}
	]
}
