{
	"asset":{
		"generator":"Khronos glTF Blender I/O v4.4.56",
		"version":"2.0"
	},
	"scene":0,
	"scenes":[
		{
			"name":"Scene",
			"nodes":[
				1,
				3,
				5
			]
		}
	],
	"nodes":[
		{
			"mesh":0,
			"name":"sm_playerhouse-navmesh",
			"translation":[
				0,
				4.249344348907471,
				0
			]
		},
		{
			"children":[
				0
			],
			"name":"playerhouse-navmesh"
		},
		{
			"mesh":1,
			"name":"sm_building_player",
			"rotation":[
				0,
				-0.7088443040847778,
				0,
				0.705365002155304
			]
		},
		{
			"children":[
				2
			],
			"name":"mesh_building_playerhouse"
		},
		{
			"mesh":2,
			"name":"collision_playerhouse-colonly",
			"scale":[
				9.003790855407715,
				2.1058123111724854,
				5.224125385284424
			]
		},
		{
			"children":[
				4
			],
			"name":"col_playerhouse-colonly"
		}
	],
	"materials":[
		{
			"doubleSided":true,
			"name":"t_playerbuilding",
			"normalTexture":{
				"index":0
			},
			"pbrMetallicRoughness":{
				"baseColorTexture":{
					"index":1
				},
				"metallicFactor":0,
				"roughnessFactor":0.5
			}
		},
		{
			"doubleSided":true,
			"name":"t_playerwindows",
			"normalTexture":{
				"index":2
			},
			"pbrMetallicRoughness":{
				"baseColorTexture":{
					"index":3
				},
				"metallicFactor":0,
				"roughnessFactor":0.5
			}
		},
		{
			"doubleSided":true,
			"name":"t_steps",
			"normalTexture":{
				"index":4
			},
			"pbrMetallicRoughness":{
				"baseColorTexture":{
					"index":5
				},
				"metallicFactor":0,
				"roughnessFactor":0.5
			}
		},
		{
			"doubleSided":true,
			"name":"t_stairrail",
			"normalTexture":{
				"index":6
			},
			"pbrMetallicRoughness":{
				"baseColorTexture":{
					"index":7
				},
				"metallicFactor":0,
				"roughnessFactor":0.5
			}
		},
		{
			"doubleSided":true,
			"name":"t_pillars",
			"normalTexture":{
				"index":8
			},
			"pbrMetallicRoughness":{
				"baseColorTexture":{
					"index":9
				},
				"metallicFactor":0,
				"roughnessFactor":0.5
			}
		},
		{
			"doubleSided":true,
			"name":"t_windowsingle",
			"normalTexture":{
				"index":10
			},
			"pbrMetallicRoughness":{
				"baseColorTexture":{
					"index":11
				},
				"metallicFactor":0,
				"roughnessFactor":0.5
			}
		},
		{
			"doubleSided":true,
			"name":"t_windowframe",
			"normalTexture":{
				"index":12
			},
			"pbrMetallicRoughness":{
				"baseColorTexture":{
					"index":13
				},
				"metallicFactor":0,
				"roughnessFactor":0.5
			}
		},
		{
			"doubleSided":true,
			"name":"t_windowshutters",
			"normalTexture":{
				"index":14
			},
			"pbrMetallicRoughness":{
				"baseColorTexture":{
					"index":15
				},
				"metallicFactor":0,
				"roughnessFactor":0.5
			}
		},
		{
			"doubleSided":true,
			"name":"t_terrace.001",
			"normalTexture":{
				"index":16
			},
			"pbrMetallicRoughness":{
				"baseColorTexture":{
					"index":17
				},
				"metallicFactor":0,
				"roughnessFactor":0.5
			}
		},
		{
			"doubleSided":true,
			"name":"t_roofexit",
			"normalTexture":{
				"index":18
			},
			"pbrMetallicRoughness":{
				"baseColorTexture":{
					"index":19
				},
				"metallicFactor":0,
				"roughnessFactor":0.5
			}
		},
		{
			"doubleSided":true,
			"name":"t_roofecitroof",
			"normalTexture":{
				"index":20
			},
			"pbrMetallicRoughness":{
				"baseColorTexture":{
					"index":21
				},
				"metallicFactor":0,
				"roughnessFactor":0.5
			}
		},
		{
			"doubleSided":true,
			"name":"t_windowframe.001",
			"normalTexture":{
				"index":22
			},
			"pbrMetallicRoughness":{
				"baseColorTexture":{
					"index":23
				},
				"metallicFactor":0,
				"roughnessFactor":0.5
			}
		},
		{
			"doubleSided":true,
			"name":"t_door_wide",
			"normalTexture":{
				"index":24
			},
			"pbrMetallicRoughness":{
				"baseColorTexture":{
					"index":25
				},
				"metallicFactor":0,
				"roughnessFactor":0.5
			}
		},
		{
			"doubleSided":true,
			"name":"t_stairs",
			"normalTexture":{
				"index":26
			},
			"pbrMetallicRoughness":{
				"baseColorTexture":{
					"index":27
				},
				"metallicFactor":0,
				"roughnessFactor":0.5
			}
		},
		{
			"doubleSided":true,
			"name":"t_mainbuildingtrim",
			"normalTexture":{
				"index":28,
				"scale":0.20000000298023224
			},
			"pbrMetallicRoughness":{
				"baseColorTexture":{
					"index":29
				},
				"metallicFactor":0,
				"roughnessFactor":0.5
			}
		},
		{
			"doubleSided":true,
			"name":"M_Collision",
			"pbrMetallicRoughness":{
				"baseColorFactor":[
					0.8002356290817261,
					0,
					0.004787445068359375,
					1
				],
				"metallicFactor":0,
				"roughnessFactor":0.5
			}
		}
	],
	"meshes":[
		{
			"name":"Plane.004",
			"primitives":[
				{
					"attributes":{
						"POSITION":0,
						"NORMAL":1,
						"TEXCOORD_0":2
					},
					"indices":3
				}
			]
		},
		{
			"name":"Cube",
			"primitives":[
				{
					"attributes":{
						"POSITION":4,
						"NORMAL":5,
						"TEXCOORD_0":6
					},
					"indices":7,
					"material":0
				},
				{
					"attributes":{
						"POSITION":8,
						"NORMAL":9,
						"TEXCOORD_0":10
					},
					"indices":11,
					"material":1
				},
				{
					"attributes":{
						"POSITION":12,
						"NORMAL":13,
						"TEXCOORD_0":14
					},
					"indices":15,
					"material":2
				},
				{
					"attributes":{
						"POSITION":16,
						"NORMAL":17,
						"TEXCOORD_0":18
					},
					"indices":19,
					"material":3
				},
				{
					"attributes":{
						"POSITION":20,
						"NORMAL":21,
						"TEXCOORD_0":22
					},
					"indices":23,
					"material":4
				},
				{
					"attributes":{
						"POSITION":24,
						"NORMAL":25,
						"TEXCOORD_0":26
					},
					"indices":27,
					"material":5
				},
				{
					"attributes":{
						"POSITION":28,
						"NORMAL":29,
						"TEXCOORD_0":30
					},
					"indices":31,
					"material":6
				},
				{
					"attributes":{
						"POSITION":32,
						"NORMAL":33,
						"TEXCOORD_0":34
					},
					"indices":35,
					"material":7
				},
				{
					"attributes":{
						"POSITION":36,
						"NORMAL":37,
						"TEXCOORD_0":38
					},
					"indices":39,
					"material":8
				},
				{
					"attributes":{
						"POSITION":40,
						"NORMAL":41,
						"TEXCOORD_0":42
					},
					"indices":43,
					"material":9
				},
				{
					"attributes":{
						"POSITION":44,
						"NORMAL":45,
						"TEXCOORD_0":46
					},
					"indices":47,
					"material":10
				},
				{
					"attributes":{
						"POSITION":48,
						"NORMAL":49,
						"TEXCOORD_0":50
					},
					"indices":51,
					"material":11
				},
				{
					"attributes":{
						"POSITION":52,
						"NORMAL":53,
						"TEXCOORD_0":54
					},
					"indices":55,
					"material":12
				},
				{
					"attributes":{
						"POSITION":56,
						"NORMAL":57,
						"TEXCOORD_0":58
					},
					"indices":59,
					"material":13
				},
				{
					"attributes":{
						"POSITION":60,
						"NORMAL":61,
						"TEXCOORD_0":62
					},
					"indices":63,
					"material":14
				}
			]
		},
		{
			"name":"Cube.033",
			"primitives":[
				{
					"attributes":{
						"POSITION":64,
						"NORMAL":65,
						"TEXCOORD_0":66
					},
					"indices":67,
					"material":15
				}
			]
		}
	],
	"textures":[
		{
			"sampler":0,
			"source":0
		},
		{
			"sampler":0,
			"source":1
		},
		{
			"sampler":0,
			"source":0
		},
		{
			"sampler":0,
			"source":1
		},
		{
			"sampler":0,
			"source":0
		},
		{
			"sampler":0,
			"source":1
		},
		{
			"sampler":0,
			"source":0
		},
		{
			"sampler":0,
			"source":1
		},
		{
			"sampler":0,
			"source":0
		},
		{
			"sampler":0,
			"source":1
		},
		{
			"sampler":0,
			"source":0
		},
		{
			"sampler":0,
			"source":1
		},
		{
			"sampler":0,
			"source":0
		},
		{
			"sampler":0,
			"source":1
		},
		{
			"sampler":0,
			"source":0
		},
		{
			"sampler":0,
			"source":1
		},
		{
			"sampler":0,
			"source":0
		},
		{
			"sampler":0,
			"source":1
		},
		{
			"sampler":0,
			"source":0
		},
		{
			"sampler":0,
			"source":1
		},
		{
			"sampler":0,
			"source":0
		},
		{
			"sampler":0,
			"source":1
		},
		{
			"sampler":0,
			"source":0
		},
		{
			"sampler":0,
			"source":1
		},
		{
			"sampler":0,
			"source":0
		},
		{
			"sampler":0,
			"source":1
		},
		{
			"sampler":0,
			"source":0
		},
		{
			"sampler":0,
			"source":1
		},
		{
			"sampler":0,
			"source":0
		},
		{
			"sampler":0,
			"source":1
		}
	],
	"images":[
		{
			"mimeType":"image/png",
			"name":"smplayerhouse_Normal",
			"uri":"smplayerhouse_Normal.png"
		},
		{
			"mimeType":"image/png",
			"name":"smplayerhouse_Base_Color",
			"uri":"smplayerhouse_Base_Color.png"
		}
	],
	"accessors":[
		{
			"bufferView":0,
			"componentType":5126,
			"count":93,
			"max":[
				8.538086891174316,
				2.4129576683044434,
				5.554935455322266
			],
			"min":[
				-7.358302116394043,
				0,
				-5.0511369705200195
			],
			"type":"VEC3"
		},
		{
			"bufferView":1,
			"componentType":5126,
			"count":93,
			"type":"VEC3"
		},
		{
			"bufferView":2,
			"componentType":5126,
			"count":93,
			"type":"VEC2"
		},
		{
			"bufferView":3,
			"componentType":5123,
			"count":282,
			"type":"SCALAR"
		},
		{
			"bufferView":4,
			"componentType":5126,
			"count":732,
			"max":[
				5.487290859222412,
				7.1385016441345215,
				9.166187286376953
			],
			"min":[
				-6.28207540512085,
				-0.20313002169132233,
				-8.994061470031738
			],
			"type":"VEC3"
		},
		{
			"bufferView":5,
			"componentType":5126,
			"count":732,
			"type":"VEC3"
		},
		{
			"bufferView":6,
			"componentType":5126,
			"count":732,
			"type":"VEC2"
		},
		{
			"bufferView":7,
			"componentType":5123,
			"count":2277,
			"type":"SCALAR"
		},
		{
			"bufferView":8,
			"componentType":5126,
			"count":60,
			"max":[
				5.217996597290039,
				9.743688583374023,
				8.917231559753418
			],
			"min":[
				-5.7448906898498535,
				2.933328151702881,
				-9.32056999206543
			],
			"type":"VEC3"
		},
		{
			"bufferView":9,
			"componentType":5126,
			"count":60,
			"type":"VEC3"
		},
		{
			"bufferView":10,
			"componentType":5126,
			"count":60,
			"type":"VEC2"
		},
		{
			"bufferView":11,
			"componentType":5123,
			"count":132,
			"type":"SCALAR"
		},
		{
			"bufferView":12,
			"componentType":5126,
			"count":540,
			"max":[
				5.678894519805908,
				6.61555814743042,
				7.179449558258057
			],
			"min":[
				2.5160627365112305,
				4.187558174133301,
				1.2810198068618774
			],
			"type":"VEC3"
		},
		{
			"bufferView":13,
			"componentType":5126,
			"count":540,
			"type":"VEC3"
		},
		{
			"bufferView":14,
			"componentType":5126,
			"count":540,
			"type":"VEC2"
		},
		{
			"bufferView":15,
			"componentType":5123,
			"count":972,
			"type":"SCALAR"
		},
		{
			"bufferView":16,
			"componentType":5126,
			"count":1196,
			"max":[
				5.63799524307251,
				8.007822036743164,
				7.146432399749756
			],
			"min":[
				1.629502534866333,
				3.5049736499786377,
				1.3509498834609985
			],
			"type":"VEC3"
		},
		{
			"bufferView":17,
			"componentType":5126,
			"count":1196,
			"type":"VEC3"
		},
		{
			"bufferView":18,
			"componentType":5126,
			"count":1196,
			"type":"VEC2"
		},
		{
			"bufferView":19,
			"componentType":5123,
			"count":2346,
			"type":"SCALAR"
		},
		{
			"bufferView":20,
			"componentType":5126,
			"count":240,
			"max":[
				4.756007194519043,
				4.461196422576904,
				2.9784247875213623
			],
			"min":[
				-5.282905578613281,
				-0.07547490298748016,
				-7.728063106536865
			],
			"type":"VEC3"
		},
		{
			"bufferView":21,
			"componentType":5126,
			"count":240,
			"type":"VEC3"
		},
		{
			"bufferView":22,
			"componentType":5126,
			"count":240,
			"type":"VEC2"
		},
		{
			"bufferView":23,
			"componentType":5123,
			"count":762,
			"type":"SCALAR"
		},
		{
			"bufferView":24,
			"componentType":5126,
			"count":128,
			"max":[
				5.0049357414245605,
				3.134401321411133,
				9.358473777770996
			],
			"min":[
				-3.5051803588867188,
				0.6387760043144226,
				-5.105088233947754
			],
			"type":"VEC3"
		},
		{
			"bufferView":25,
			"componentType":5126,
			"count":128,
			"type":"VEC3"
		},
		{
			"bufferView":26,
			"componentType":5126,
			"count":128,
			"type":"VEC2"
		},
		{
			"bufferView":27,
			"componentType":5123,
			"count":216,
			"type":"SCALAR"
		},
		{
			"bufferView":28,
			"componentType":5126,
			"count":128,
			"max":[
				-5.23352575302124,
				6.2982378005981445,
				7.021325588226318
			],
			"min":[
				-5.434262275695801,
				4.256956100463867,
				5.607525825500488
			],
			"type":"VEC3"
		},
		{
			"bufferView":29,
			"componentType":5126,
			"count":128,
			"type":"VEC3"
		},
		{
			"bufferView":30,
			"componentType":5126,
			"count":128,
			"type":"VEC2"
		},
		{
			"bufferView":31,
			"componentType":5123,
			"count":312,
			"type":"SCALAR"
		},
		{
			"bufferView":32,
			"componentType":5126,
			"count":1694,
			"max":[
				-5.400646686553955,
				6.276363849639893,
				7.018657684326172
			],
			"min":[
				-5.983636379241943,
				4.2853803634643555,
				5.610166072845459
			],
			"type":"VEC3"
		},
		{
			"bufferView":33,
			"componentType":5126,
			"count":1694,
			"type":"VEC3"
		},
		{
			"bufferView":34,
			"componentType":5126,
			"count":1694,
			"type":"VEC2"
		},
		{
			"bufferView":35,
			"componentType":5123,
			"count":3984,
			"type":"SCALAR"
		},
		{
			"bufferView":36,
			"componentType":5126,
			"count":2558,
			"max":[
				-5.330440998077393,
				3.781646728515625,
				8.44863224029541
			],
			"min":[
				-5.474091529846191,
				-0.24016183614730835,
				4.435912132263184
			],
			"type":"VEC3"
		},
		{
			"bufferView":37,
			"componentType":5126,
			"count":2558,
			"type":"VEC3"
		},
		{
			"bufferView":38,
			"componentType":5126,
			"count":2558,
			"type":"VEC2"
		},
		{
			"bufferView":39,
			"componentType":5123,
			"count":4224,
			"type":"SCALAR"
		},
		{
			"bufferView":40,
			"componentType":5126,
			"count":133,
			"max":[
				1.760392665863037,
				9.963321685791016,
				-7.349416255950928
			],
			"min":[
				-2.2917110919952393,
				2.1540367603302,
				-10.239910125732422
			],
			"type":"VEC3"
		},
		{
			"bufferView":41,
			"componentType":5126,
			"count":133,
			"type":"VEC3"
		},
		{
			"bufferView":42,
			"componentType":5126,
			"count":133,
			"type":"VEC2"
		},
		{
			"bufferView":43,
			"componentType":5123,
			"count":342,
			"type":"SCALAR"
		},
		{
			"bufferView":44,
			"componentType":5126,
			"count":1090,
			"max":[
				5.066072463989258,
				10.19715690612793,
				9.447912216186523
			],
			"min":[
				-3.6517772674560547,
				0.5404439568519592,
				-10.321244239807129
			],
			"type":"VEC3"
		},
		{
			"bufferView":45,
			"componentType":5126,
			"count":1090,
			"type":"VEC3"
		},
		{
			"bufferView":46,
			"componentType":5126,
			"count":1090,
			"type":"VEC2"
		},
		{
			"bufferView":47,
			"componentType":5123,
			"count":2634,
			"type":"SCALAR"
		},
		{
			"bufferView":48,
			"componentType":5126,
			"count":468,
			"max":[
				5.0623064041137695,
				2.0822489261627197,
				-1.4201267957687378
			],
			"min":[
				4.884559154510498,
				0.6498497724533081,
				-5.213035583496094
			],
			"type":"VEC3"
		},
		{
			"bufferView":49,
			"componentType":5126,
			"count":468,
			"type":"VEC3"
		},
		{
			"bufferView":50,
			"componentType":5126,
			"count":468,
			"type":"VEC2"
		},
		{
			"bufferView":51,
			"componentType":5123,
			"count":1092,
			"type":"SCALAR"
		},
		{
			"bufferView":52,
			"componentType":5126,
			"count":108,
			"max":[
				-3.955989360809326,
				2.8083229064941406,
				2.935167074203491
			],
			"min":[
				-4.243232727050781,
				0.013905435800552368,
				-1.618861198425293
			],
			"type":"VEC3"
		},
		{
			"bufferView":53,
			"componentType":5126,
			"count":108,
			"type":"VEC3"
		},
		{
			"bufferView":54,
			"componentType":5126,
			"count":108,
			"type":"VEC2"
		},
		{
			"bufferView":55,
			"componentType":5123,
			"count":300,
			"type":"SCALAR"
		},
		{
			"bufferView":56,
			"componentType":5126,
			"count":88,
			"max":[
				1.3991554975509644,
				5.2547197341918945,
				-1.1810106039047241
			],
			"min":[
				-1.9076212644577026,
				4.229360580444336,
				-2.328126907348633
			],
			"type":"VEC3"
		},
		{
			"bufferView":57,
			"componentType":5126,
			"count":88,
			"type":"VEC3"
		},
		{
			"bufferView":58,
			"componentType":5126,
			"count":88,
			"type":"VEC2"
		},
		{
			"bufferView":59,
			"componentType":5123,
			"count":132,
			"type":"SCALAR"
		},
		{
			"bufferView":60,
			"componentType":5126,
			"count":539,
			"max":[
				5.487311840057373,
				7.1385016441345215,
				9.166187286376953
			],
			"min":[
				-6.28207540512085,
				2.8362512588500977,
				-8.994061470031738
			],
			"type":"VEC3"
		},
		{
			"bufferView":61,
			"componentType":5126,
			"count":539,
			"type":"VEC3"
		},
		{
			"bufferView":62,
			"componentType":5126,
			"count":539,
			"type":"VEC2"
		},
		{
			"bufferView":63,
			"componentType":5123,
			"count":1230,
			"type":"SCALAR"
		},
		{
			"bufferView":64,
			"componentType":5126,
			"count":144,
			"max":[
				1.110385775566101,
				2.8156940937042236,
				1.0615301132202148
			],
			"min":[
				-1.0586471557617188,
				-0.37951481342315674,
				-1.1033486127853394
			],
			"type":"VEC3"
		},
		{
			"bufferView":65,
			"componentType":5126,
			"count":144,
			"type":"VEC3"
		},
		{
			"bufferView":66,
			"componentType":5126,
			"count":144,
			"type":"VEC2"
		},
		{
			"bufferView":67,
			"componentType":5123,
			"count":216,
			"type":"SCALAR"
		}
	],
	"bufferViews":[
		{
			"buffer":0,
			"byteLength":1116,
			"byteOffset":0,
			"target":34962
		},
		{
			"buffer":0,
			"byteLength":1116,
			"byteOffset":1116,
			"target":34962
		},
		{
			"buffer":0,
			"byteLength":744,
			"byteOffset":2232,
			"target":34962
		},
		{
			"buffer":0,
			"byteLength":564,
			"byteOffset":2976,
			"target":34963
		},
		{
			"buffer":0,
			"byteLength":8784,
			"byteOffset":3540,
			"target":34962
		},
		{
			"buffer":0,
			"byteLength":8784,
			"byteOffset":12324,
			"target":34962
		},
		{
			"buffer":0,
			"byteLength":5856,
			"byteOffset":21108,
			"target":34962
		},
		{
			"buffer":0,
			"byteLength":4554,
			"byteOffset":26964,
			"target":34963
		},
		{
			"buffer":0,
			"byteLength":720,
			"byteOffset":31520,
			"target":34962
		},
		{
			"buffer":0,
			"byteLength":720,
			"byteOffset":32240,
			"target":34962
		},
		{
			"buffer":0,
			"byteLength":480,
			"byteOffset":32960,
			"target":34962
		},
		{
			"buffer":0,
			"byteLength":264,
			"byteOffset":33440,
			"target":34963
		},
		{
			"buffer":0,
			"byteLength":6480,
			"byteOffset":33704,
			"target":34962
		},
		{
			"buffer":0,
			"byteLength":6480,
			"byteOffset":40184,
			"target":34962
		},
		{
			"buffer":0,
			"byteLength":4320,
			"byteOffset":46664,
			"target":34962
		},
		{
			"buffer":0,
			"byteLength":1944,
			"byteOffset":50984,
			"target":34963
		},
		{
			"buffer":0,
			"byteLength":14352,
			"byteOffset":52928,
			"target":34962
		},
		{
			"buffer":0,
			"byteLength":14352,
			"byteOffset":67280,
			"target":34962
		},
		{
			"buffer":0,
			"byteLength":9568,
			"byteOffset":81632,
			"target":34962
		},
		{
			"buffer":0,
			"byteLength":4692,
			"byteOffset":91200,
			"target":34963
		},
		{
			"buffer":0,
			"byteLength":2880,
			"byteOffset":95892,
			"target":34962
		},
		{
			"buffer":0,
			"byteLength":2880,
			"byteOffset":98772,
			"target":34962
		},
		{
			"buffer":0,
			"byteLength":1920,
			"byteOffset":101652,
			"target":34962
		},
		{
			"buffer":0,
			"byteLength":1524,
			"byteOffset":103572,
			"target":34963
		},
		{
			"buffer":0,
			"byteLength":1536,
			"byteOffset":105096,
			"target":34962
		},
		{
			"buffer":0,
			"byteLength":1536,
			"byteOffset":106632,
			"target":34962
		},
		{
			"buffer":0,
			"byteLength":1024,
			"byteOffset":108168,
			"target":34962
		},
		{
			"buffer":0,
			"byteLength":432,
			"byteOffset":109192,
			"target":34963
		},
		{
			"buffer":0,
			"byteLength":1536,
			"byteOffset":109624,
			"target":34962
		},
		{
			"buffer":0,
			"byteLength":1536,
			"byteOffset":111160,
			"target":34962
		},
		{
			"buffer":0,
			"byteLength":1024,
			"byteOffset":112696,
			"target":34962
		},
		{
			"buffer":0,
			"byteLength":624,
			"byteOffset":113720,
			"target":34963
		},
		{
			"buffer":0,
			"byteLength":20328,
			"byteOffset":114344,
			"target":34962
		},
		{
			"buffer":0,
			"byteLength":20328,
			"byteOffset":134672,
			"target":34962
		},
		{
			"buffer":0,
			"byteLength":13552,
			"byteOffset":155000,
			"target":34962
		},
		{
			"buffer":0,
			"byteLength":7968,
			"byteOffset":168552,
			"target":34963
		},
		{
			"buffer":0,
			"byteLength":30696,
			"byteOffset":176520,
			"target":34962
		},
		{
			"buffer":0,
			"byteLength":30696,
			"byteOffset":207216,
			"target":34962
		},
		{
			"buffer":0,
			"byteLength":20464,
			"byteOffset":237912,
			"target":34962
		},
		{
			"buffer":0,
			"byteLength":8448,
			"byteOffset":258376,
			"target":34963
		},
		{
			"buffer":0,
			"byteLength":1596,
			"byteOffset":266824,
			"target":34962
		},
		{
			"buffer":0,
			"byteLength":1596,
			"byteOffset":268420,
			"target":34962
		},
		{
			"buffer":0,
			"byteLength":1064,
			"byteOffset":270016,
			"target":34962
		},
		{
			"buffer":0,
			"byteLength":684,
			"byteOffset":271080,
			"target":34963
		},
		{
			"buffer":0,
			"byteLength":13080,
			"byteOffset":271764,
			"target":34962
		},
		{
			"buffer":0,
			"byteLength":13080,
			"byteOffset":284844,
			"target":34962
		},
		{
			"buffer":0,
			"byteLength":8720,
			"byteOffset":297924,
			"target":34962
		},
		{
			"buffer":0,
			"byteLength":5268,
			"byteOffset":306644,
			"target":34963
		},
		{
			"buffer":0,
			"byteLength":5616,
			"byteOffset":311912,
			"target":34962
		},
		{
			"buffer":0,
			"byteLength":5616,
			"byteOffset":317528,
			"target":34962
		},
		{
			"buffer":0,
			"byteLength":3744,
			"byteOffset":323144,
			"target":34962
		},
		{
			"buffer":0,
			"byteLength":2184,
			"byteOffset":326888,
			"target":34963
		},
		{
			"buffer":0,
			"byteLength":1296,
			"byteOffset":329072,
			"target":34962
		},
		{
			"buffer":0,
			"byteLength":1296,
			"byteOffset":330368,
			"target":34962
		},
		{
			"buffer":0,
			"byteLength":864,
			"byteOffset":331664,
			"target":34962
		},
		{
			"buffer":0,
			"byteLength":600,
			"byteOffset":332528,
			"target":34963
		},
		{
			"buffer":0,
			"byteLength":1056,
			"byteOffset":333128,
			"target":34962
		},
		{
			"buffer":0,
			"byteLength":1056,
			"byteOffset":334184,
			"target":34962
		},
		{
			"buffer":0,
			"byteLength":704,
			"byteOffset":335240,
			"target":34962
		},
		{
			"buffer":0,
			"byteLength":264,
			"byteOffset":335944,
			"target":34963
		},
		{
			"buffer":0,
			"byteLength":6468,
			"byteOffset":336208,
			"target":34962
		},
		{
			"buffer":0,
			"byteLength":6468,
			"byteOffset":342676,
			"target":34962
		},
		{
			"buffer":0,
			"byteLength":4312,
			"byteOffset":349144,
			"target":34962
		},
		{
			"buffer":0,
			"byteLength":2460,
			"byteOffset":353456,
			"target":34963
		},
		{
			"buffer":0,
			"byteLength":1728,
			"byteOffset":355916,
			"target":34962
		},
		{
			"buffer":0,
			"byteLength":1728,
			"byteOffset":357644,
			"target":34962
		},
		{
			"buffer":0,
			"byteLength":1152,
			"byteOffset":359372,
			"target":34962
		},
		{
			"buffer":0,
			"byteLength":432,
			"byteOffset":360524,
			"target":34963
		}
	],
	"samplers":[
		{
			"magFilter":9729,
			"minFilter":9987
		}
	],
	"buffers":[
		{
			"byteLength":360956,
			"uri":"sm_building_playerhouse.bin"
		}
	]
}
