{"asset":{"version":"2.0","generator":"babylon.js glTF exporter for Autodesk MAYA 2022.5.1 v20250428.5"},"scene":0,"scenes":[{"nodes":[0]}],"nodes":[{"mesh":0,"name":"wastebin_empty"}],"meshes":[{"primitives":[{"attributes":{"POSITION":1,"NORMAL":2,"TEXCOORD_0":3},"indices":0,"material":0}],"name":"wastebin_empty"}],"accessors":[{"bufferView":0,"componentType":5123,"count":1302,"type":"SCALAR","name":"accessorIndices"},{"bufferView":1,"componentType":5126,"count":732,"max":[0.5309724,1.03723013,0.3872233],"min":[-0.5309723,1.19209287E-09,-0.375],"type":"VEC3","name":"accessorPositions"},{"bufferView":1,"byteOffset":8784,"componentType":5126,"count":732,"type":"VEC3","name":"accessorNormals"},{"bufferView":2,"componentType":5126,"count":732,"type":"VEC2","name":"accessorUVs"}],"bufferViews":[{"buffer":0,"byteLength":2604,"name":"bufferViewScalar"},{"buffer":0,"byteOffset":2604,"byteLength":17568,"byteStride":12,"name":"bufferViewFloatVec3"},{"buffer":0,"byteOffset":20172,"byteLength":5856,"byteStride":8,"name":"bufferViewFloatVec2"}],"buffers":[{"uri":"sm_wastebin_empty.bin","byteLength":26028}],"materials":[{"pbrMetallicRoughness":{"baseColorFactor":[0.5,0.5,0.5,1.0],"metallicFactor":0.0,"roughnessFactor":0.450053632},"name":"lambert1"}]}