{"asset":{"version":"2.0","generator":"babylon.js glTF exporter for Autodesk MAYA 2022.5.1 v20250428.5"},"scene":0,"scenes":[{"nodes":[0]}],"nodes":[{"children":[1,2],"name":"wastebin_full_grp"},{"mesh":0,"name":"sm_wastebin_full"},{"mesh":1,"name":"sm_wastebin_full_lid"}],"meshes":[{"primitives":[{"attributes":{"POSITION":1,"NORMAL":2,"TEXCOORD_0":3},"indices":0,"material":0}],"name":"sm_wastebin_full"},{"primitives":[{"attributes":{"POSITION":5,"TANGENT":6,"NORMAL":7,"TEXCOORD_0":8},"indices":4,"material":0}],"name":"sm_wastebin_full_lid"}],"accessors":[{"bufferView":0,"componentType":5123,"count":3054,"type":"SCALAR","name":"accessorIndices"},{"bufferView":1,"componentType":5126,"count":1365,"max":[0.531024158,1.03723013,0.473761976],"min":[-0.5721139,1.19209287E-09,-0.375],"type":"VEC3","name":"accessorPositions"},{"bufferView":1,"byteOffset":16380,"componentType":5126,"count":1365,"type":"VEC3","name":"accessorNormals"},{"bufferView":2,"componentType":5126,"count":1365,"type":"VEC2","name":"accessorUVs"},{"bufferView":0,"byteOffset":6108,"componentType":5123,"count":192,"type":"SCALAR","name":"accessorIndices"},{"bufferView":1,"byteOffset":32760,"componentType":5126,"count":108,"max":[0.270332456,1.0285753,0.425494879],"min":[-0.5309204,0.8685009,-0.161686137],"type":"VEC3","name":"accessorPositions"},{"bufferView":3,"componentType":5126,"count":108,"type":"VEC4","name":"accessorTangents"},{"bufferView":1,"byteOffset":34056,"componentType":5126,"count":108,"type":"VEC3","name":"accessorNormals"},{"bufferView":2,"byteOffset":10920,"componentType":5126,"count":108,"type":"VEC2","name":"accessorUVs"}],"bufferViews":[{"buffer":0,"byteLength":6492,"name":"bufferViewScalar"},{"buffer":0,"byteOffset":6492,"byteLength":35352,"byteStride":12,"name":"bufferViewFloatVec3"},{"buffer":0,"byteOffset":41844,"byteLength":11784,"byteStride":8,"name":"bufferViewFloatVec2"},{"buffer":0,"byteOffset":53628,"byteLength":1728,"byteStride":16,"name":"bufferViewFloatVec4"}],"buffers":[{"uri":"sm_wastebin_full_grp.bin","byteLength":55356}],"materials":[{"pbrMetallicRoughness":{"baseColorFactor":[0.5,0.5,0.5,1.0],"metallicFactor":0.0,"roughnessFactor":0.450053632},"name":"lambert1"}]}