{"asset":{"version":"2.0","generator":"babylon.js glTF exporter for Autodesk MAYA 2022.5.1 v20250428.5"},"scene":0,"scenes":[{"nodes":[0]}],"nodes":[{"children":[1,2],"name":"wastebin_full_grp"},{"mesh":0,"name":"sm_wastebin_full"},{"mesh":1,"name":"sm_wastebin_full_lid"}],"meshes":[{"primitives":[{"attributes":{"POSITION":1,"TANGENT":2,"NORMAL":3,"TEXCOORD_0":4},"indices":0,"material":0}],"name":"sm_wastebin_full"},{"primitives":[{"attributes":{"POSITION":6,"TANGENT":7,"NORMAL":8,"TEXCOORD_0":9},"indices":5,"material":0}],"name":"sm_wastebin_full_lid"}],"accessors":[{"bufferView":0,"componentType":5123,"count":4755,"type":"SCALAR","name":"accessorIndices"},{"bufferView":1,"componentType":5126,"count":1231,"max":[0.7139501,1.03723013,0.420299441],"min":[-0.712300956,1.19209287E-09,-0.424381],"type":"VEC3","name":"accessorPositions"},{"bufferView":2,"componentType":5126,"count":1231,"type":"VEC4","name":"accessorTangents"},{"bufferView":1,"byteOffset":14772,"componentType":5126,"count":1231,"type":"VEC3","name":"accessorNormals"},{"bufferView":3,"componentType":5126,"count":1231,"type":"VEC2","name":"accessorUVs"},{"bufferView":0,"byteOffset":9512,"componentType":5123,"count":300,"type":"SCALAR","name":"accessorIndices"},{"bufferView":1,"byteOffset":29544,"componentType":5126,"count":92,"max":[0.4541545,1.02773666,0.375409663],"min":[-0.6698544,0.8693554,-0.210349485],"type":"VEC3","name":"accessorPositions"},{"bufferView":2,"byteOffset":19696,"componentType":5126,"count":92,"type":"VEC4","name":"accessorTangents"},{"bufferView":1,"byteOffset":30648,"componentType":5126,"count":92,"type":"VEC3","name":"accessorNormals"},{"bufferView":3,"byteOffset":9848,"componentType":5126,"count":92,"type":"VEC2","name":"accessorUVs"}],"bufferViews":[{"buffer":0,"byteLength":10112,"name":"bufferViewScalar"},{"buffer":0,"byteOffset":10112,"byteLength":31752,"byteStride":12,"name":"bufferViewFloatVec3"},{"buffer":0,"byteOffset":41864,"byteLength":21168,"byteStride":16,"name":"bufferViewFloatVec4"},{"buffer":0,"byteOffset":63032,"byteLength":10584,"byteStride":8,"name":"bufferViewFloatVec2"}],"buffers":[{"uri":"sm_wastebin_full_grp.bin","byteLength":73616}],"materials":[{"pbrMetallicRoughness":{"baseColorFactor":[0.5,0.5,0.5,1.0],"metallicFactor":0.0,"roughnessFactor":0.450053632},"name":"lambert1"}]}