{"asset":{"version":"2.0","generator":"babylon.js glTF exporter for Autodesk MAYA 2022.5.1 v20250428.5"},"scene":0,"scenes":[{"nodes":[0]}],"nodes":[{"children":[1,2],"name":"wastebin_full_grp"},{"mesh":0,"name":"sm_wastebin_full"},{"mesh":1,"name":"sm_wastebin_full_lid"}],"meshes":[{"primitives":[{"attributes":{"POSITION":1,"NORMAL":2},"indices":0,"material":0}],"name":"sm_wastebin_full"},{"primitives":[{"attributes":{"POSITION":4,"TANGENT":5,"NORMAL":6,"TEXCOORD_0":7},"indices":3,"material":0}],"name":"sm_wastebin_full_lid"}],"accessors":[{"bufferView":0,"componentType":5123,"count":4833,"type":"SCALAR","name":"accessorIndices"},{"bufferView":1,"componentType":5126,"count":1187,"max":[0.7139501,1.03723013,0.420299441],"min":[-0.712300956,1.19209287E-09,-0.424381],"type":"VEC3","name":"accessorPositions"},{"bufferView":1,"byteOffset":14244,"componentType":5126,"count":1187,"type":"VEC3","name":"accessorNormals"},{"bufferView":0,"byteOffset":9668,"componentType":5123,"count":300,"type":"SCALAR","name":"accessorIndices"},{"bufferView":1,"byteOffset":28488,"componentType":5126,"count":90,"max":[0.4541545,1.02773666,0.375409663],"min":[-0.6698544,0.8693554,-0.210349485],"type":"VEC3","name":"accessorPositions"},{"bufferView":2,"componentType":5126,"count":90,"type":"VEC4","name":"accessorTangents"},{"bufferView":1,"byteOffset":29568,"componentType":5126,"count":90,"type":"VEC3","name":"accessorNormals"},{"bufferView":3,"componentType":5126,"count":90,"type":"VEC2","name":"accessorUVs"}],"bufferViews":[{"buffer":0,"byteLength":10268,"name":"bufferViewScalar"},{"buffer":0,"byteOffset":10268,"byteLength":30648,"byteStride":12,"name":"bufferViewFloatVec3"},{"buffer":0,"byteOffset":40916,"byteLength":1440,"byteStride":16,"name":"bufferViewFloatVec4"},{"buffer":0,"byteOffset":42356,"byteLength":720,"byteStride":8,"name":"bufferViewFloatVec2"}],"buffers":[{"uri":"sm_wastebin_full_grp.bin","byteLength":43076}],"materials":[{"pbrMetallicRoughness":{"baseColorFactor":[0.5,0.5,0.5,1.0],"metallicFactor":0.0,"roughnessFactor":0.450053632},"name":"lambert1"}]}