{"asset":{"version":"2.0","generator":"babylon.js glTF exporter for Autodesk MAYA 2022.5.1 v20250428.5"},"scene":0,"scenes":[{"nodes":[0]}],"nodes":[{"mesh":0,"name":"wastebin_empty"}],"meshes":[{"primitives":[{"attributes":{"POSITION":1,"NORMAL":2},"indices":0,"material":0}],"name":"wastebin_empty"}],"accessors":[{"bufferView":0,"componentType":5123,"count":2616,"type":"SCALAR","name":"accessorIndices"},{"bufferView":1,"componentType":5126,"count":693,"max":[0.7125431,1.03723013,0.338698566],"min":[-0.6709471,1.19209287E-09,-0.4235128],"type":"VEC3","name":"accessorPositions"},{"bufferView":1,"byteOffset":8316,"componentType":5126,"count":693,"type":"VEC3","name":"accessorNormals"}],"bufferViews":[{"buffer":0,"byteLength":5232,"name":"bufferViewScalar"},{"buffer":0,"byteOffset":5232,"byteLength":16632,"byteStride":12,"name":"bufferViewFloatVec3"}],"buffers":[{"uri":"sm_wastebin_empty.bin","byteLength":21864}],"materials":[{"pbrMetallicRoughness":{"baseColorFactor":[0.5,0.5,0.5,1.0],"metallicFactor":0.0,"roughnessFactor":0.450053632},"name":"lambert1"}]}