{
	"asset":{
		"generator":"Khronos glTF Blender I/O v4.3.47",
		"version":"2.0"
	},
	"extensionsUsed":[
		"KHR_materials_specular",
		"KHR_materials_ior"
	],
	"scene":0,
	"scenes":[
		{
			"name":"Scene",
			"nodes":[
				0
			]
		}
	],
	"nodes":[
		{
			"mesh":0,
			"name":"tree-round-apple"
		}
	],
	"materials":[
		{
			"doubleSided":true,
			"extensions":{
				"KHR_materials_specular":{
					"specularFactor":0.20000000298023224
				},
				"KHR_materials_ior":{
					"ior":1.4500000476837158
				}
			},
			"name":"35 GREEN-MEDIUM",
			"pbrMetallicRoughness":{
				"baseColorFactor":[
					0.029556861147284508,
					0.16513222455978394,
					0.03560134023427963,
					1
				],
				"metallicFactor":0,
				"roughnessFactor":0.5
			}
		},
		{
			"doubleSided":true,
			"extensions":{
				"KHR_materials_specular":{
					"specularFactor":0.20000000298023224
				},
				"KHR_materials_ior":{
					"ior":1.4500000476837158
				}
			},
			"name":"10 BROWN-DARK",
			"pbrMetallicRoughness":{
				"baseColorFactor":[
					0.1356334239244461,
					0.06662596017122269,
					0.026241229847073555,
					1
				],
				"metallicFactor":0,
				"roughnessFactor":0.5
			}
		},
		{
			"doubleSided":true,
			"extensions":{
				"KHR_materials_specular":{
					"specularFactor":0.20000000298023224
				},
				"KHR_materials_ior":{
					"ior":1.4500000476837158
				}
			},
			"name":"26 RED-DARK",
			"pbrMetallicRoughness":{
				"baseColorFactor":[
					0.5906191468238831,
					0.029556702822446823,
					0.03954625129699707,
					1
				],
				"metallicFactor":0,
				"roughnessFactor":0.5
			}
		}
	],
	"meshes":[
		{
			"name":"tree-round-apple",
			"primitives":[
				{
					"attributes":{
						"POSITION":0,
						"NORMAL":1,
						"TEXCOORD_0":2
					},
					"indices":3,
					"material":0
				},
				{
					"attributes":{
						"POSITION":4,
						"NORMAL":5,
						"TEXCOORD_0":6
					},
					"indices":7,
					"material":1
				},
				{
					"attributes":{
						"POSITION":8,
						"NORMAL":9,
						"TEXCOORD_0":10
					},
					"indices":11,
					"material":2
				}
			]
		}
	],
	"accessors":[
		{
			"bufferView":0,
			"componentType":5126,
			"count":274,
			"max":[
				1.2809104919433594,
				5.055819988250732,
				1.3990439176559448
			],
			"min":[
				-1.2578468322753906,
				1.6553175449371338,
				-1.2991153001785278
			],
			"type":"VEC3"
		},
		{
			"bufferView":1,
			"componentType":5126,
			"count":274,
			"type":"VEC3"
		},
		{
			"bufferView":2,
			"componentType":5126,
			"count":274,
			"type":"VEC2"
		},
		{
			"bufferView":3,
			"componentType":5123,
			"count":276,
			"type":"SCALAR"
		},
		{
			"bufferView":4,
			"componentType":5126,
			"count":25,
			"max":[
				0.12429972738027573,
				3.0937023162841797,
				0.11821692436933517
			],
			"min":[
				-0.12429972738027573,
				-3.040332074988328e-08,
				-0.11821603029966354
			],
			"type":"VEC3"
		},
		{
			"bufferView":5,
			"componentType":5126,
			"count":25,
			"type":"VEC3"
		},
		{
			"bufferView":6,
			"componentType":5126,
			"count":25,
			"type":"VEC2"
		},
		{
			"bufferView":7,
			"componentType":5123,
			"count":39,
			"type":"SCALAR"
		},
		{
			"bufferView":8,
			"componentType":5126,
			"count":560,
			"max":[
				1.2297008037567139,
				4.603877544403076,
				1.3596869707107544
			],
			"min":[
				-1.2956371307373047,
				2.443485975265503,
				-1.2770147323608398
			],
			"type":"VEC3"
		},
		{
			"bufferView":9,
			"componentType":5126,
			"count":560,
			"type":"VEC3"
		},
		{
			"bufferView":10,
			"componentType":5126,
			"count":560,
			"type":"VEC2"
		},
		{
			"bufferView":11,
			"componentType":5123,
			"count":840,
			"type":"SCALAR"
		}
	],
	"bufferViews":[
		{
			"buffer":0,
			"byteLength":3288,
			"byteOffset":0,
			"target":34962
		},
		{
			"buffer":0,
			"byteLength":3288,
			"byteOffset":3288,
			"target":34962
		},
		{
			"buffer":0,
			"byteLength":2192,
			"byteOffset":6576,
			"target":34962
		},
		{
			"buffer":0,
			"byteLength":552,
			"byteOffset":8768,
			"target":34963
		},
		{
			"buffer":0,
			"byteLength":300,
			"byteOffset":9320,
			"target":34962
		},
		{
			"buffer":0,
			"byteLength":300,
			"byteOffset":9620,
			"target":34962
		},
		{
			"buffer":0,
			"byteLength":200,
			"byteOffset":9920,
			"target":34962
		},
		{
			"buffer":0,
			"byteLength":78,
			"byteOffset":10120,
			"target":34963
		},
		{
			"buffer":0,
			"byteLength":6720,
			"byteOffset":10200,
			"target":34962
		},
		{
			"buffer":0,
			"byteLength":6720,
			"byteOffset":16920,
			"target":34962
		},
		{
			"buffer":0,
			"byteLength":4480,
			"byteOffset":23640,
			"target":34962
		},
		{
			"buffer":0,
			"byteLength":1680,
			"byteOffset":28120,
			"target":34963
		}
	],
	"buffers":[
		{
			"byteLength":29800,
			"uri":"sm_apple_tree.bin"
		}
	]
}
