{
	"asset":{
		"generator":"Khronos glTF Blender I/O v4.3.47",
		"version":"2.0"
	},
	"scene":0,
	"scenes":[
		{
			"name":"Scene",
			"nodes":[
				0
			]
		}
	],
	"nodes":[
		{
			"mesh":0,
			"name":"TelephonePole",
			"rotation":[
				0,
				0.19869635999202728,
				0,
				0.9800611138343811
			],
			"scale":[
				0.384246826171875,
				9.253169059753418,
				0.384246826171875
			]
		}
	],
	"materials":[
		{
			"doubleSided":true,
			"name":"TelephonePole",
			"pbrMetallicRoughness":{
				"baseColorTexture":{
					"index":0
				},
				"metallicFactor":0,
				"roughnessFactor":0.5
			}
		}
	],
	"meshes":[
		{
			"name":"Cylinder.001",
			"primitives":[
				{
					"attributes":{
						"POSITION":0,
						"NORMAL":1,
						"TEXCOORD_0":2
					},
					"indices":3,
					"material":0
				}
			]
		}
	],
	"textures":[
		{
			"sampler":0,
			"source":0
		}
	],
	"images":[
		{
			"mimeType":"image/png",
			"name":"TelephonePole",
			"uri":"../../../../..textures/TelephonePole.png"
		}
	],
	"accessors":[
		{
			"bufferView":0,
			"componentType":5126,
			"count":547,
			"max":[
				5.291197776794434,
				1.9690382480621338,
				17.086511611938477
			],
			"min":[
				-12.517454147338867,
				-1.1920928955078125e-07,
				-2.4478039741516113
			],
			"type":"VEC3"
		},
		{
			"bufferView":1,
			"componentType":5126,
			"count":547,
			"type":"VEC3"
		},
		{
			"bufferView":2,
			"componentType":5126,
			"count":547,
			"type":"VEC2"
		},
		{
			"bufferView":3,
			"componentType":5123,
			"count":1722,
			"type":"SCALAR"
		}
	],
	"bufferViews":[
		{
			"buffer":0,
			"byteLength":6564,
			"byteOffset":0,
			"target":34962
		},
		{
			"buffer":0,
			"byteLength":6564,
			"byteOffset":6564,
			"target":34962
		},
		{
			"buffer":0,
			"byteLength":4376,
			"byteOffset":13128,
			"target":34962
		},
		{
			"buffer":0,
			"byteLength":3444,
			"byteOffset":17504,
			"target":34963
		}
	],
	"samplers":[
		{
			"magFilter":9729,
			"minFilter":9987
		}
	],
	"buffers":[
		{
			"byteLength":20948,
			"uri":"TelephonePole.bin"
		}
	]
}
