{
	"asset":{
		"generator":"Khronos glTF Blender I/O v4.4.56",
		"version":"2.0"
	},
	"scene":0,
	"scenes":[
		{
			"name":"Scene",
			"nodes":[
				0,
				1,
				2,
				3,
				4,
				5
			]
		}
	],
	"nodes":[
		{
			"mesh":0,
			"name":"Plane",
			"rotation":[
				0.5,
				-0.5,
				-0.5,
				0.5000000596046448
			],
			"scale":[
				0.05376427620649338,
				0.05376427620649338,
				0.05376427620649338
			],
			"translation":[
				-1.578463077545166,
				0,
				0
			]
		},
		{
			"mesh":1,
			"name":"Cylinder",
			"rotation":[
				0,
				0.2588190734386444,
				0,
				0.965925931930542
			],
			"translation":[
				0,
				1,
				0
			]
		},
		{
			"mesh":2,
			"name":"Cube"
		},
		{
			"name":"Empty",
			"rotation":[
				0,
				0.4999999701976776,
				0,
				0.8660253882408142
			],
			"scale":[
				0.9816388487815857,
				0.9816387891769409,
				0.9816388487815857
			],
			"translation":[
				0,
				0.07424440234899521,
				0
			]
		},
		{
			"mesh":3,
			"name":"Cube.001",
			"rotation":[
				0,
				-0.5,
				0,
				0.8660253882408142
			],
			"scale":[
				0.8315569758415222,
				0.8315569162368774,
				0.8315569758415222
			],
			"translation":[
				-0.05865570157766342,
				0,
				0.03386775031685829
			]
		},
		{
			"mesh":4,
			"name":"sm_vertical_garden"
		}
	],
	"meshes":[
		{
			"name":"Plane.005",
			"primitives":[
				{
					"attributes":{
						"POSITION":0,
						"NORMAL":1
					},
					"indices":2
				}
			]
		},
		{
			"name":"Cylinder",
			"primitives":[
				{
					"attributes":{
						"POSITION":3,
						"NORMAL":4,
						"TEXCOORD_0":5
					},
					"indices":6
				}
			]
		},
		{
			"name":"Cube.001",
			"primitives":[
				{
					"attributes":{
						"POSITION":7,
						"NORMAL":8,
						"TEXCOORD_0":9
					},
					"indices":10
				}
			]
		},
		{
			"name":"Cube.002",
			"primitives":[
				{
					"attributes":{
						"POSITION":11,
						"NORMAL":12,
						"TEXCOORD_0":13
					},
					"indices":10
				}
			]
		},
		{
			"name":"sm_vertical_garden",
			"primitives":[
				{
					"attributes":{
						"POSITION":14,
						"NORMAL":15,
						"TEXCOORD_0":16
					},
					"indices":17
				}
			]
		}
	],
	"accessors":[
		{
			"bufferView":0,
			"componentType":5126,
			"count":7070,
			"max":[
				-0.06589633226394653,
				3.412574291229248,
				16.24725341796875
			],
			"min":[
				-37.32754898071289,
				-2.482013702392578,
				-16.24725341796875
			],
			"type":"VEC3"
		},
		{
			"bufferView":1,
			"componentType":5126,
			"count":7070,
			"type":"VEC3"
		},
		{
			"bufferView":2,
			"componentType":5123,
			"count":10800,
			"type":"SCALAR"
		},
		{
			"bufferView":3,
			"componentType":5126,
			"count":86,
			"max":[
				0.4330126941204071,
				1,
				0.5
			],
			"min":[
				-0.4330126941204071,
				-1,
				-0.5
			],
			"type":"VEC3"
		},
		{
			"bufferView":4,
			"componentType":5126,
			"count":86,
			"type":"VEC3"
		},
		{
			"bufferView":5,
			"componentType":5126,
			"count":86,
			"type":"VEC2"
		},
		{
			"bufferView":6,
			"componentType":5123,
			"count":144,
			"type":"SCALAR"
		},
		{
			"bufferView":7,
			"componentType":5126,
			"count":24,
			"max":[
				0.14066369831562042,
				0.4103771448135376,
				0.5896651744842529
			],
			"min":[
				-0.14066369831562042,
				0.016909852623939514,
				0.19619785249233246
			],
			"type":"VEC3"
		},
		{
			"bufferView":8,
			"componentType":5126,
			"count":24,
			"type":"VEC3"
		},
		{
			"bufferView":9,
			"componentType":5126,
			"count":24,
			"type":"VEC2"
		},
		{
			"bufferView":10,
			"componentType":5123,
			"count":36,
			"type":"SCALAR"
		},
		{
			"bufferView":11,
			"componentType":5126,
			"count":24,
			"max":[
				0.14066369831562042,
				0.4103771448135376,
				0.5896651744842529
			],
			"min":[
				-0.14066369831562042,
				0.016909852623939514,
				0.19619785249233246
			],
			"type":"VEC3"
		},
		{
			"bufferView":12,
			"componentType":5126,
			"count":24,
			"type":"VEC3"
		},
		{
			"bufferView":13,
			"componentType":5126,
			"count":24,
			"type":"VEC2"
		},
		{
			"bufferView":14,
			"componentType":5126,
			"count":878,
			"max":[
				0.5703291296958923,
				2,
				0.5896651744842529
			],
			"min":[
				-0.5417877435684204,
				0,
				-0.5577771067619324
			],
			"type":"VEC3"
		},
		{
			"bufferView":15,
			"componentType":5126,
			"count":878,
			"type":"VEC3"
		},
		{
			"bufferView":16,
			"componentType":5126,
			"count":878,
			"type":"VEC2"
		},
		{
			"bufferView":17,
			"componentType":5123,
			"count":1332,
			"type":"SCALAR"
		}
	],
	"bufferViews":[
		{
			"buffer":0,
			"byteLength":84840,
			"byteOffset":0,
			"target":34962
		},
		{
			"buffer":0,
			"byteLength":84840,
			"byteOffset":84840,
			"target":34962
		},
		{
			"buffer":0,
			"byteLength":21600,
			"byteOffset":169680,
			"target":34963
		},
		{
			"buffer":0,
			"byteLength":1032,
			"byteOffset":191280,
			"target":34962
		},
		{
			"buffer":0,
			"byteLength":1032,
			"byteOffset":192312,
			"target":34962
		},
		{
			"buffer":0,
			"byteLength":688,
			"byteOffset":193344,
			"target":34962
		},
		{
			"buffer":0,
			"byteLength":288,
			"byteOffset":194032,
			"target":34963
		},
		{
			"buffer":0,
			"byteLength":288,
			"byteOffset":194320,
			"target":34962
		},
		{
			"buffer":0,
			"byteLength":288,
			"byteOffset":194608,
			"target":34962
		},
		{
			"buffer":0,
			"byteLength":192,
			"byteOffset":194896,
			"target":34962
		},
		{
			"buffer":0,
			"byteLength":72,
			"byteOffset":195088,
			"target":34963
		},
		{
			"buffer":0,
			"byteLength":288,
			"byteOffset":195160,
			"target":34962
		},
		{
			"buffer":0,
			"byteLength":288,
			"byteOffset":195448,
			"target":34962
		},
		{
			"buffer":0,
			"byteLength":192,
			"byteOffset":195736,
			"target":34962
		},
		{
			"buffer":0,
			"byteLength":10536,
			"byteOffset":195928,
			"target":34962
		},
		{
			"buffer":0,
			"byteLength":10536,
			"byteOffset":206464,
			"target":34962
		},
		{
			"buffer":0,
			"byteLength":7024,
			"byteOffset":217000,
			"target":34962
		},
		{
			"buffer":0,
			"byteLength":2664,
			"byteOffset":224024,
			"target":34963
		}
	],
	"buffers":[
		{
			"byteLength":226688,
			"uri":"sm_vertical_garden.bin"
		}
	]
}
