{
	"asset":{
		"generator":"Khronos glTF Blender I/O v4.4.56",
		"version":"2.0"
	},
	"scene":0,
	"scenes":[
		{
			"name":"Scene",
			"nodes":[
				1,
				3
			]
		}
	],
	"nodes":[
		{
			"mesh":0,
			"name":"col_building_destroyed_01-colonly"
		},
		{
			"children":[
				0
			],
			"name":"collision_building_destroyed_01-colonly"
		},
		{
			"mesh":1,
			"name":"sm_building_destroyed_03-mesh"
		},
		{
			"children":[
				2
			],
			"name":"mesh_building_destroyed_01"
		}
	],
	"materials":[
		{
			"doubleSided":true,
			"name":"M_Collision",
			"pbrMetallicRoughness":{
				"baseColorFactor":[
					0.8000937700271606,
					0.009988001547753811,
					0,
					1
				],
				"metallicFactor":0,
				"roughnessFactor":0.5
			}
		},
		{
			"doubleSided":true,
			"name":"t_buidling_destroyed_03",
			"normalTexture":{
				"index":0
			},
			"pbrMetallicRoughness":{
				"baseColorTexture":{
					"index":1
				},
				"metallicFactor":0,
				"roughnessFactor":0.5
			}
		},
		{
			"doubleSided":true,
			"name":"t_Debris_01",
			"normalTexture":{
				"index":2
			},
			"pbrMetallicRoughness":{
				"baseColorTexture":{
					"index":3
				},
				"metallicFactor":0,
				"roughnessFactor":0.5
			}
		}
	],
	"meshes":[
		{
			"name":"Cube.008",
			"primitives":[
				{
					"attributes":{
						"POSITION":0,
						"NORMAL":1,
						"TEXCOORD_0":2
					},
					"indices":3,
					"material":0
				}
			]
		},
		{
			"name":"Cube",
			"primitives":[
				{
					"attributes":{
						"POSITION":4,
						"NORMAL":5,
						"TEXCOORD_0":6
					},
					"indices":7,
					"material":1
				},
				{
					"attributes":{
						"POSITION":8,
						"NORMAL":9,
						"TEXCOORD_0":10
					},
					"indices":11,
					"material":2
				}
			]
		}
	],
	"textures":[
		{
			"sampler":0,
			"source":0
		},
		{
			"sampler":0,
			"source":1
		},
		{
			"sampler":0,
			"source":0
		},
		{
			"sampler":0,
			"source":1
		}
	],
	"images":[
		{
			"mimeType":"image/png",
			"name":"t_building_destroyed_03_Normal_DirectX",
			"uri":"t_building_destroyed_03_Normal_DirectX.png"
		},
		{
			"mimeType":"image/png",
			"name":"t_building_destroyed_03_Base_Color",
			"uri":"t_building_destroyed_03_Base_Color.png"
		}
	],
	"accessors":[
		{
			"bufferView":0,
			"componentType":5126,
			"count":24,
			"max":[
				6.290576457977295,
				12.796065330505371,
				6.290576457977295
			],
			"min":[
				-9.266789436340332,
				-0.6685987710952759,
				-8.058938980102539
			],
			"type":"VEC3"
		},
		{
			"bufferView":1,
			"componentType":5126,
			"count":24,
			"type":"VEC3"
		},
		{
			"bufferView":2,
			"componentType":5126,
			"count":24,
			"type":"VEC2"
		},
		{
			"bufferView":3,
			"componentType":5123,
			"count":36,
			"type":"SCALAR"
		},
		{
			"bufferView":4,
			"componentType":5126,
			"count":149891,
			"max":[
				7.238860130310059,
				11.020661354064941,
				5.900296688079834
			],
			"min":[
				-9.706424713134766,
				-0.8794547319412231,
				-10.017204284667969
			],
			"type":"VEC3"
		},
		{
			"bufferView":5,
			"componentType":5126,
			"count":149891,
			"type":"VEC3"
		},
		{
			"bufferView":6,
			"componentType":5126,
			"count":149891,
			"type":"VEC2"
		},
		{
			"bufferView":7,
			"componentType":5125,
			"count":305721,
			"type":"SCALAR"
		},
		{
			"bufferView":8,
			"componentType":5126,
			"count":114907,
			"max":[
				4.938261032104492,
				2.998724937438965,
				5.986715793609619
			],
			"min":[
				-9.30533218383789,
				-0.7420814037322998,
				-9.79507827758789
			],
			"type":"VEC3"
		},
		{
			"bufferView":9,
			"componentType":5126,
			"count":114907,
			"type":"VEC3"
		},
		{
			"bufferView":10,
			"componentType":5126,
			"count":114907,
			"type":"VEC2"
		},
		{
			"bufferView":11,
			"componentType":5125,
			"count":212886,
			"type":"SCALAR"
		}
	],
	"bufferViews":[
		{
			"buffer":0,
			"byteLength":288,
			"byteOffset":0,
			"target":34962
		},
		{
			"buffer":0,
			"byteLength":288,
			"byteOffset":288,
			"target":34962
		},
		{
			"buffer":0,
			"byteLength":192,
			"byteOffset":576,
			"target":34962
		},
		{
			"buffer":0,
			"byteLength":72,
			"byteOffset":768,
			"target":34963
		},
		{
			"buffer":0,
			"byteLength":1798692,
			"byteOffset":840,
			"target":34962
		},
		{
			"buffer":0,
			"byteLength":1798692,
			"byteOffset":1799532,
			"target":34962
		},
		{
			"buffer":0,
			"byteLength":1199128,
			"byteOffset":3598224,
			"target":34962
		},
		{
			"buffer":0,
			"byteLength":1222884,
			"byteOffset":4797352,
			"target":34963
		},
		{
			"buffer":0,
			"byteLength":1378884,
			"byteOffset":6020236,
			"target":34962
		},
		{
			"buffer":0,
			"byteLength":1378884,
			"byteOffset":7399120,
			"target":34962
		},
		{
			"buffer":0,
			"byteLength":919256,
			"byteOffset":8778004,
			"target":34962
		},
		{
			"buffer":0,
			"byteLength":851544,
			"byteOffset":9697260,
			"target":34963
		}
	],
	"samplers":[
		{
			"magFilter":9729,
			"minFilter":9987
		}
	],
	"buffers":[
		{
			"byteLength":10548804,
			"uri":"sm_building_destroyed_03.bin"
		}
	]
}
