{
	"asset":{
		"generator":"Khronos glTF Blender I/O v4.3.47",
		"version":"2.0"
	},
	"extensionsUsed":[
		"KHR_materials_specular",
		"KHR_materials_ior"
	],
	"scene":0,
	"scenes":[
		{
			"name":"Scene",
			"nodes":[
				0
			]
		}
	],
	"nodes":[
		{
			"mesh":0,
			"name":"scifi-pot-medium-plants"
		}
	],
	"materials":[
		{
			"doubleSided":true,
			"extensions":{
				"KHR_materials_specular":{
					"specularFactor":0.20000000298023224
				},
				"KHR_materials_ior":{
					"ior":1.4500000476837158
				}
			},
			"name":"18 GREY-DARK",
			"pbrMetallicRoughness":{
				"baseColorFactor":[
					0.0497065894305706,
					0.04518622159957886,
					0.04518623650074005,
					1
				],
				"metallicFactor":0,
				"roughnessFactor":0.5
			}
		},
		{
			"doubleSided":true,
			"extensions":{
				"KHR_materials_specular":{
					"specularFactor":0.20000000298023224
				},
				"KHR_materials_ior":{
					"ior":1.4500000476837158
				}
			},
			"name":"21 GREY LIGHT",
			"pbrMetallicRoughness":{
				"baseColorFactor":[
					0.3864296078681946,
					0.35640013217926025,
					0.34191447496414185,
					1
				],
				"metallicFactor":0,
				"roughnessFactor":0.5
			}
		},
		{
			"doubleSided":true,
			"extensions":{
				"KHR_materials_specular":{
					"specularFactor":0.20000000298023224
				},
				"KHR_materials_ior":{
					"ior":1.4500000476837158
				}
			},
			"name":"26 RED-DARK",
			"pbrMetallicRoughness":{
				"baseColorFactor":[
					0.5906191468238831,
					0.029556702822446823,
					0.03954625129699707,
					1
				],
				"metallicFactor":0,
				"roughnessFactor":0.5
			}
		},
		{
			"doubleSided":true,
			"extensions":{
				"KHR_materials_specular":{
					"specularFactor":0.20000000298023224
				},
				"KHR_materials_ior":{
					"ior":1.4500000476837158
				}
			},
			"name":"28 ORANGE",
			"pbrMetallicRoughness":{
				"baseColorFactor":[
					0.973445475101471,
					0.20507875084877014,
					0.014443841762840748,
					1
				],
				"metallicFactor":0,
				"roughnessFactor":0.5
			}
		},
		{
			"doubleSided":true,
			"extensions":{
				"KHR_materials_specular":{
					"specularFactor":0.20000000298023224
				},
				"KHR_materials_ior":{
					"ior":1.4500000476837158
				}
			},
			"name":"36 GREEN",
			"pbrMetallicRoughness":{
				"baseColorFactor":[
					0.0802198275923729,
					0.2704978287220001,
					0.03433981165289879,
					1
				],
				"metallicFactor":0,
				"roughnessFactor":0.5
			}
		},
		{
			"doubleSided":true,
			"extensions":{
				"KHR_materials_specular":{
					"specularFactor":0.20000000298023224
				},
				"KHR_materials_ior":{
					"ior":1.4500000476837158
				}
			},
			"name":"42 BLUE-DARK",
			"pbrMetallicRoughness":{
				"baseColorFactor":[
					0.03954624384641647,
					0.06480327248573303,
					0.18782083690166473,
					1
				],
				"metallicFactor":0,
				"roughnessFactor":0.5
			}
		},
		{
			"doubleSided":true,
			"extensions":{
				"KHR_materials_specular":{
					"specularFactor":0.20000000298023224
				},
				"KHR_materials_ior":{
					"ior":1.4500000476837158
				}
			},
			"name":"51 PINK-MEDIUM",
			"pbrMetallicRoughness":{
				"baseColorFactor":[
					0.2663557231426239,
					0.0666259378194809,
					0.262250691652298,
					1
				],
				"metallicFactor":0,
				"roughnessFactor":0.5
			}
		},
		{
			"doubleSided":true,
			"emissiveFactor":[
				0.10461653769016266,
				0.04970657825469971,
				0.3662526607513428
			],
			"name":"55 EMISSION-PURPLE",
			"pbrMetallicRoughness":{
				"baseColorFactor":[
					0,
					0,
					0,
					1
				]
			}
		},
		{
			"doubleSided":true,
			"name":"61 EMISSION-ORANGE",
			"pbrMetallicRoughness":{
				"baseColorFactor":[
					0.9559733867645264,
					0.3813260495662689,
					0.02624122053384781,
					1
				],
				"metallicFactor":0,
				"roughnessFactor":0.5
			}
		},
		{
			"doubleSided":true,
			"emissiveFactor":[
				0.800000011920929,
				0.800000011920929,
				0.800000011920929
			],
			"name":"59 EMISSION-WHITE",
			"pbrMetallicRoughness":{
				"baseColorFactor":[
					0,
					0,
					0,
					1
				]
			}
		}
	],
	"meshes":[
		{
			"name":"scifi-pot-medium-plants",
			"primitives":[
				{
					"attributes":{
						"POSITION":0,
						"NORMAL":1,
						"TEXCOORD_0":2
					},
					"indices":3,
					"material":0
				},
				{
					"attributes":{
						"POSITION":4,
						"NORMAL":5,
						"TEXCOORD_0":6
					},
					"indices":7,
					"material":1
				},
				{
					"attributes":{
						"POSITION":8,
						"NORMAL":9,
						"TEXCOORD_0":10
					},
					"indices":11,
					"material":2
				},
				{
					"attributes":{
						"POSITION":12,
						"NORMAL":13,
						"TEXCOORD_0":14
					},
					"indices":15,
					"material":3
				},
				{
					"attributes":{
						"POSITION":16,
						"NORMAL":17,
						"TEXCOORD_0":18
					},
					"indices":19,
					"material":4
				},
				{
					"attributes":{
						"POSITION":20,
						"NORMAL":21,
						"TEXCOORD_0":22
					},
					"indices":23,
					"material":5
				},
				{
					"attributes":{
						"POSITION":24,
						"NORMAL":25,
						"TEXCOORD_0":26
					},
					"indices":27,
					"material":6
				},
				{
					"attributes":{
						"POSITION":28,
						"NORMAL":29,
						"TEXCOORD_0":30
					},
					"indices":31,
					"material":7
				},
				{
					"attributes":{
						"POSITION":32,
						"NORMAL":33,
						"TEXCOORD_0":34
					},
					"indices":35,
					"material":8
				},
				{
					"attributes":{
						"POSITION":36,
						"NORMAL":37,
						"TEXCOORD_0":38
					},
					"indices":39,
					"material":9
				}
			]
		}
	],
	"accessors":[
		{
			"bufferView":0,
			"componentType":5126,
			"count":398,
			"max":[
				1.01041841506958,
				1.259476900100708,
				0.5196718573570251
			],
			"min":[
				-1.01041841506958,
				0,
				-0.5196718573570251
			],
			"type":"VEC3"
		},
		{
			"bufferView":1,
			"componentType":5126,
			"count":398,
			"type":"VEC3"
		},
		{
			"bufferView":2,
			"componentType":5126,
			"count":398,
			"type":"VEC2"
		},
		{
			"bufferView":3,
			"componentType":5123,
			"count":660,
			"type":"SCALAR"
		},
		{
			"bufferView":4,
			"componentType":5126,
			"count":160,
			"max":[
				0.9971358180046082,
				0.8000996708869934,
				0.5196713209152222
			],
			"min":[
				-0.9971358180046082,
				0.10606557130813599,
				-0.519670844078064
			],
			"type":"VEC3"
		},
		{
			"bufferView":5,
			"componentType":5126,
			"count":160,
			"type":"VEC3"
		},
		{
			"bufferView":6,
			"componentType":5126,
			"count":160,
			"type":"VEC2"
		},
		{
			"bufferView":7,
			"componentType":5123,
			"count":216,
			"type":"SCALAR"
		},
		{
			"bufferView":8,
			"componentType":5126,
			"count":421,
			"max":[
				0.2947510778903961,
				1.0014824867248535,
				0.20858114957809448
			],
			"min":[
				-0.7313567399978638,
				0.704428493976593,
				-0.2731268107891083
			],
			"type":"VEC3"
		},
		{
			"bufferView":9,
			"componentType":5126,
			"count":421,
			"type":"VEC3"
		},
		{
			"bufferView":10,
			"componentType":5126,
			"count":421,
			"type":"VEC2"
		},
		{
			"bufferView":11,
			"componentType":5123,
			"count":561,
			"type":"SCALAR"
		},
		{
			"bufferView":12,
			"componentType":5126,
			"count":368,
			"max":[
				0.9064723253250122,
				0.9830353260040283,
				0.43305903673171997
			],
			"min":[
				-0.9064723253250122,
				0.6943612098693848,
				-0.43306100368499756
			],
			"type":"VEC3"
		},
		{
			"bufferView":13,
			"componentType":5126,
			"count":368,
			"type":"VEC3"
		},
		{
			"bufferView":14,
			"componentType":5126,
			"count":368,
			"type":"VEC2"
		},
		{
			"bufferView":15,
			"componentType":5123,
			"count":534,
			"type":"SCALAR"
		},
		{
			"bufferView":16,
			"componentType":5126,
			"count":776,
			"max":[
				0.7742865681648254,
				1.1408674716949463,
				0.41410502791404724
			],
			"min":[
				-0.7644445896148682,
				0.6302435398101807,
				-0.4042104482650757
			],
			"type":"VEC3"
		},
		{
			"bufferView":17,
			"componentType":5126,
			"count":776,
			"type":"VEC3"
		},
		{
			"bufferView":18,
			"componentType":5126,
			"count":776,
			"type":"VEC2"
		},
		{
			"bufferView":19,
			"componentType":5123,
			"count":990,
			"type":"SCALAR"
		},
		{
			"bufferView":20,
			"componentType":5126,
			"count":196,
			"max":[
				0.6655183434486389,
				1.249772548675537,
				0.2861878573894501
			],
			"min":[
				-0.6953365802764893,
				0.6491544246673584,
				-0.28752586245536804
			],
			"type":"VEC3"
		},
		{
			"bufferView":21,
			"componentType":5126,
			"count":196,
			"type":"VEC3"
		},
		{
			"bufferView":22,
			"componentType":5126,
			"count":196,
			"type":"VEC2"
		},
		{
			"bufferView":23,
			"componentType":5123,
			"count":294,
			"type":"SCALAR"
		},
		{
			"bufferView":24,
			"componentType":5126,
			"count":192,
			"max":[
				0.47859904170036316,
				1.1689764261245728,
				0.29663950204849243
			],
			"min":[
				-0.5798169374465942,
				0.7835005521774292,
				-0.2937910854816437
			],
			"type":"VEC3"
		},
		{
			"bufferView":25,
			"componentType":5126,
			"count":192,
			"type":"VEC3"
		},
		{
			"bufferView":26,
			"componentType":5126,
			"count":192,
			"type":"VEC2"
		},
		{
			"bufferView":27,
			"componentType":5123,
			"count":288,
			"type":"SCALAR"
		},
		{
			"bufferView":28,
			"componentType":5126,
			"count":336,
			"max":[
				0.6299611330032349,
				1.0521266460418701,
				0.23733311891555786
			],
			"min":[
				-0.6529140472412109,
				0.953079879283905,
				-0.3120713531970978
			],
			"type":"VEC3"
		},
		{
			"bufferView":29,
			"componentType":5126,
			"count":336,
			"type":"VEC3"
		},
		{
			"bufferView":30,
			"componentType":5126,
			"count":336,
			"type":"VEC2"
		},
		{
			"bufferView":31,
			"componentType":5123,
			"count":432,
			"type":"SCALAR"
		},
		{
			"bufferView":32,
			"componentType":5126,
			"count":192,
			"max":[
				0.80068039894104,
				1.0463693141937256,
				0.5196718573570251
			],
			"min":[
				-0.80068039894104,
				0.35631853342056274,
				-0.5196718573570251
			],
			"type":"VEC3"
		},
		{
			"bufferView":33,
			"componentType":5126,
			"count":192,
			"type":"VEC3"
		},
		{
			"bufferView":34,
			"componentType":5126,
			"count":192,
			"type":"VEC2"
		},
		{
			"bufferView":35,
			"componentType":5123,
			"count":276,
			"type":"SCALAR"
		},
		{
			"bufferView":36,
			"componentType":5126,
			"count":56,
			"max":[
				0.997120201587677,
				1.1840630769729614,
				0.5196718573570251
			],
			"min":[
				-0.9971754550933838,
				0.2860635221004486,
				-0.5196718573570251
			],
			"type":"VEC3"
		},
		{
			"bufferView":37,
			"componentType":5126,
			"count":56,
			"type":"VEC3"
		},
		{
			"bufferView":38,
			"componentType":5126,
			"count":56,
			"type":"VEC2"
		},
		{
			"bufferView":39,
			"componentType":5123,
			"count":84,
			"type":"SCALAR"
		}
	],
	"bufferViews":[
		{
			"buffer":0,
			"byteLength":4776,
			"byteOffset":0,
			"target":34962
		},
		{
			"buffer":0,
			"byteLength":4776,
			"byteOffset":4776,
			"target":34962
		},
		{
			"buffer":0,
			"byteLength":3184,
			"byteOffset":9552,
			"target":34962
		},
		{
			"buffer":0,
			"byteLength":1320,
			"byteOffset":12736,
			"target":34963
		},
		{
			"buffer":0,
			"byteLength":1920,
			"byteOffset":14056,
			"target":34962
		},
		{
			"buffer":0,
			"byteLength":1920,
			"byteOffset":15976,
			"target":34962
		},
		{
			"buffer":0,
			"byteLength":1280,
			"byteOffset":17896,
			"target":34962
		},
		{
			"buffer":0,
			"byteLength":432,
			"byteOffset":19176,
			"target":34963
		},
		{
			"buffer":0,
			"byteLength":5052,
			"byteOffset":19608,
			"target":34962
		},
		{
			"buffer":0,
			"byteLength":5052,
			"byteOffset":24660,
			"target":34962
		},
		{
			"buffer":0,
			"byteLength":3368,
			"byteOffset":29712,
			"target":34962
		},
		{
			"buffer":0,
			"byteLength":1122,
			"byteOffset":33080,
			"target":34963
		},
		{
			"buffer":0,
			"byteLength":4416,
			"byteOffset":34204,
			"target":34962
		},
		{
			"buffer":0,
			"byteLength":4416,
			"byteOffset":38620,
			"target":34962
		},
		{
			"buffer":0,
			"byteLength":2944,
			"byteOffset":43036,
			"target":34962
		},
		{
			"buffer":0,
			"byteLength":1068,
			"byteOffset":45980,
			"target":34963
		},
		{
			"buffer":0,
			"byteLength":9312,
			"byteOffset":47048,
			"target":34962
		},
		{
			"buffer":0,
			"byteLength":9312,
			"byteOffset":56360,
			"target":34962
		},
		{
			"buffer":0,
			"byteLength":6208,
			"byteOffset":65672,
			"target":34962
		},
		{
			"buffer":0,
			"byteLength":1980,
			"byteOffset":71880,
			"target":34963
		},
		{
			"buffer":0,
			"byteLength":2352,
			"byteOffset":73860,
			"target":34962
		},
		{
			"buffer":0,
			"byteLength":2352,
			"byteOffset":76212,
			"target":34962
		},
		{
			"buffer":0,
			"byteLength":1568,
			"byteOffset":78564,
			"target":34962
		},
		{
			"buffer":0,
			"byteLength":588,
			"byteOffset":80132,
			"target":34963
		},
		{
			"buffer":0,
			"byteLength":2304,
			"byteOffset":80720,
			"target":34962
		},
		{
			"buffer":0,
			"byteLength":2304,
			"byteOffset":83024,
			"target":34962
		},
		{
			"buffer":0,
			"byteLength":1536,
			"byteOffset":85328,
			"target":34962
		},
		{
			"buffer":0,
			"byteLength":576,
			"byteOffset":86864,
			"target":34963
		},
		{
			"buffer":0,
			"byteLength":4032,
			"byteOffset":87440,
			"target":34962
		},
		{
			"buffer":0,
			"byteLength":4032,
			"byteOffset":91472,
			"target":34962
		},
		{
			"buffer":0,
			"byteLength":2688,
			"byteOffset":95504,
			"target":34962
		},
		{
			"buffer":0,
			"byteLength":864,
			"byteOffset":98192,
			"target":34963
		},
		{
			"buffer":0,
			"byteLength":2304,
			"byteOffset":99056,
			"target":34962
		},
		{
			"buffer":0,
			"byteLength":2304,
			"byteOffset":101360,
			"target":34962
		},
		{
			"buffer":0,
			"byteLength":1536,
			"byteOffset":103664,
			"target":34962
		},
		{
			"buffer":0,
			"byteLength":552,
			"byteOffset":105200,
			"target":34963
		},
		{
			"buffer":0,
			"byteLength":672,
			"byteOffset":105752,
			"target":34962
		},
		{
			"buffer":0,
			"byteLength":672,
			"byteOffset":106424,
			"target":34962
		},
		{
			"buffer":0,
			"byteLength":448,
			"byteOffset":107096,
			"target":34962
		},
		{
			"buffer":0,
			"byteLength":168,
			"byteOffset":107544,
			"target":34963
		}
	],
	"buffers":[
		{
			"byteLength":107712,
			"uri":"sm_vegetable_garden.bin"
		}
	]
}
