{
	"asset":{
		"generator":"Khronos glTF Blender I/O v4.4.56",
		"version":"2.0"
	},
	"scene":0,
	"scenes":[
		{
			"name":"Scene",
			"nodes":[
				1,
				3
			]
		}
	],
	"nodes":[
		{
			"mesh":0,
			"name":"col_destroyed_04-colonly"
		},
		{
			"children":[
				0
			],
			"name":"collision_building_destroyed_04-colonly"
		},
		{
			"mesh":1,
			"name":"sm_building_destroyed_04-mesh"
		},
		{
			"children":[
				2
			],
			"name":"mesh_building_destroyed_04-mesh"
		}
	],
	"materials":[
		{
			"doubleSided":true,
			"name":"M_Collision",
			"pbrMetallicRoughness":{
				"baseColorFactor":[
					0.8000937700271606,
					0.009988001547753811,
					0,
					1
				],
				"metallicFactor":0,
				"roughnessFactor":0.5
			}
		},
		{
			"doubleSided":true,
			"name":"t_destroyed_04",
			"normalTexture":{
				"index":0
			},
			"pbrMetallicRoughness":{
				"baseColorTexture":{
					"index":1
				},
				"metallicFactor":0,
				"roughnessFactor":0.5
			}
		},
		{
			"doubleSided":true,
			"name":"t_destroyed_04_Wireframe",
			"pbrMetallicRoughness":{
				"baseColorFactor":[
					0.012611011043190956,
					0.07115913927555084,
					0.005820910446345806,
					1
				],
				"metallicFactor":0,
				"roughnessFactor":0.5
			}
		},
		{
			"doubleSided":true,
			"name":"Cube_002.001_Inner_mat",
			"normalTexture":{
				"index":2
			},
			"pbrMetallicRoughness":{
				"baseColorTexture":{
					"index":3
				},
				"metallicFactor":0,
				"roughnessFactor":0.5
			}
		}
	],
	"meshes":[
		{
			"name":"Cube.013",
			"primitives":[
				{
					"attributes":{
						"POSITION":0,
						"NORMAL":1,
						"TEXCOORD_0":2
					},
					"indices":3,
					"material":0
				}
			]
		},
		{
			"name":"Cube.009",
			"primitives":[
				{
					"attributes":{
						"POSITION":4,
						"NORMAL":5,
						"TEXCOORD_0":6
					},
					"indices":7,
					"material":1
				},
				{
					"attributes":{
						"POSITION":8,
						"NORMAL":9,
						"TEXCOORD_0":10
					},
					"indices":11,
					"material":2
				},
				{
					"attributes":{
						"POSITION":12,
						"NORMAL":13,
						"TEXCOORD_0":14
					},
					"indices":15,
					"material":3
				}
			]
		}
	],
	"textures":[
		{
			"sampler":0,
			"source":0
		},
		{
			"sampler":0,
			"source":1
		},
		{
			"sampler":0,
			"source":0
		},
		{
			"sampler":0,
			"source":1
		}
	],
	"images":[
		{
			"mimeType":"image/png",
			"name":"t_building_destroyed_04_Normal_DirectX",
			"uri":"t_building_destroyed_04_Normal_DirectX.png"
		},
		{
			"mimeType":"image/png",
			"name":"t_building_destroyed_04_Base_Color",
			"uri":"t_building_destroyed_04_Base_Color.png"
		}
	],
	"accessors":[
		{
			"bufferView":0,
			"componentType":5126,
			"count":24,
			"max":[
				5.611763000488281,
				8.993147850036621,
				6.630034923553467
			],
			"min":[
				-10.809687614440918,
				-0.06516111642122269,
				-7.272610664367676
			],
			"type":"VEC3"
		},
		{
			"bufferView":1,
			"componentType":5126,
			"count":24,
			"type":"VEC3"
		},
		{
			"bufferView":2,
			"componentType":5126,
			"count":24,
			"type":"VEC2"
		},
		{
			"bufferView":3,
			"componentType":5123,
			"count":36,
			"type":"SCALAR"
		},
		{
			"bufferView":4,
			"componentType":5126,
			"count":25159,
			"max":[
				6.090841293334961,
				8.611528396606445,
				6.4867143630981445
			],
			"min":[
				-11.620412826538086,
				0.054392218589782715,
				-7.554372787475586
			],
			"type":"VEC3"
		},
		{
			"bufferView":5,
			"componentType":5126,
			"count":25159,
			"type":"VEC3"
		},
		{
			"bufferView":6,
			"componentType":5126,
			"count":25159,
			"type":"VEC2"
		},
		{
			"bufferView":7,
			"componentType":5123,
			"count":59364,
			"type":"SCALAR"
		},
		{
			"bufferView":8,
			"componentType":5126,
			"count":30498,
			"max":[
				2.2262637615203857,
				8.114910125732422,
				3.2740018367767334
			],
			"min":[
				-6.029968738555908,
				0.8142640590667725,
				-3.102736234664917
			],
			"type":"VEC3"
		},
		{
			"bufferView":9,
			"componentType":5126,
			"count":30498,
			"type":"VEC3"
		},
		{
			"bufferView":10,
			"componentType":5126,
			"count":30498,
			"type":"VEC2"
		},
		{
			"bufferView":11,
			"componentType":5123,
			"count":55812,
			"type":"SCALAR"
		},
		{
			"bufferView":12,
			"componentType":5126,
			"count":34284,
			"max":[
				6.090841293334961,
				5.2399139404296875,
				7.3867411613464355
			],
			"min":[
				-12.173068046569824,
				0.19907402992248535,
				-7.554372787475586
			],
			"type":"VEC3"
		},
		{
			"bufferView":13,
			"componentType":5126,
			"count":34284,
			"type":"VEC3"
		},
		{
			"bufferView":14,
			"componentType":5126,
			"count":34284,
			"type":"VEC2"
		},
		{
			"bufferView":15,
			"componentType":5123,
			"count":84564,
			"type":"SCALAR"
		}
	],
	"bufferViews":[
		{
			"buffer":0,
			"byteLength":288,
			"byteOffset":0,
			"target":34962
		},
		{
			"buffer":0,
			"byteLength":288,
			"byteOffset":288,
			"target":34962
		},
		{
			"buffer":0,
			"byteLength":192,
			"byteOffset":576,
			"target":34962
		},
		{
			"buffer":0,
			"byteLength":72,
			"byteOffset":768,
			"target":34963
		},
		{
			"buffer":0,
			"byteLength":301908,
			"byteOffset":840,
			"target":34962
		},
		{
			"buffer":0,
			"byteLength":301908,
			"byteOffset":302748,
			"target":34962
		},
		{
			"buffer":0,
			"byteLength":201272,
			"byteOffset":604656,
			"target":34962
		},
		{
			"buffer":0,
			"byteLength":118728,
			"byteOffset":805928,
			"target":34963
		},
		{
			"buffer":0,
			"byteLength":365976,
			"byteOffset":924656,
			"target":34962
		},
		{
			"buffer":0,
			"byteLength":365976,
			"byteOffset":1290632,
			"target":34962
		},
		{
			"buffer":0,
			"byteLength":243984,
			"byteOffset":1656608,
			"target":34962
		},
		{
			"buffer":0,
			"byteLength":111624,
			"byteOffset":1900592,
			"target":34963
		},
		{
			"buffer":0,
			"byteLength":411408,
			"byteOffset":2012216,
			"target":34962
		},
		{
			"buffer":0,
			"byteLength":411408,
			"byteOffset":2423624,
			"target":34962
		},
		{
			"buffer":0,
			"byteLength":274272,
			"byteOffset":2835032,
			"target":34962
		},
		{
			"buffer":0,
			"byteLength":169128,
			"byteOffset":3109304,
			"target":34963
		}
	],
	"samplers":[
		{
			"magFilter":9729,
			"minFilter":9987
		}
	],
	"buffers":[
		{
			"byteLength":3278432,
			"uri":"sm_building_destroyed_04.bin"
		}
	]
}
