{
	"asset":{
		"generator":"Khronos glTF Blender I/O v4.4.56",
		"version":"2.0"
	},
	"scene":0,
	"scenes":[
		{
			"name":"Scene",
			"nodes":[
				8
			]
		}
	],
	"nodes":[
		{
			"mesh":0,
			"name":"sm_foot_front",
			"rotation":[
				-0.7771461009979248,
				0,
				0,
				0.6293203830718994
			],
			"translation":[
				0,
				0.22073911130428314,
				0.13615688681602478
			]
		},
		{
			"mesh":1,
			"name":"sm_foot_left",
			"rotation":[
				-0.3885729908943176,
				-0.5450074076652527,
				-0.6730281710624695,
				0.3146601617336273
			],
			"translation":[
				-0.1179153174161911,
				0.22073911130428314,
				-0.06807844340801239
			]
		},
		{
			"mesh":2,
			"name":"sm_foot_right",
			"rotation":[
				-0.3885729908943176,
				0.5450074076652527,
				0.6730281710624695,
				0.3146601617336273
			],
			"translation":[
				0.1179153174161911,
				0.22073911130428314,
				-0.06807844340801239
			]
		},
		{
			"mesh":3,
			"name":"sm_panel_left",
			"scale":[
				1.5493605136871338,
				1.5493605136871338,
				1.5493605136871338
			],
			"translation":[
				0,
				0.2359027862548828,
				0
			]
		},
		{
			"mesh":3,
			"name":"sm_panel_middle",
			"scale":[
				1.5493605136871338,
				1.5493605136871338,
				1.5493605136871338
			],
			"translation":[
				0,
				0.19680160284042358,
				0
			]
		},
		{
			"mesh":3,
			"name":"sm_panel_right",
			"scale":[
				1.5493605136871338,
				1.5493605136871338,
				1.5493605136871338
			],
			"translation":[
				0,
				0.15904787182807922,
				0
			]
		},
		{
			"children":[
				3,
				4,
				5
			],
			"mesh":4,
			"name":"sm_panel_pivot",
			"rotation":[
				-0.6221427321434021,
				0,
				0,
				0.7829038500785828
			],
			"translation":[
				0,
				2.4823760986328125,
				0
			]
		},
		{
			"children":[
				0,
				1,
				2,
				6
			],
			"mesh":5,
			"name":"sm_pole",
			"translation":[
				0,
				0,
				-0.2016637772321701
			]
		},
		{
			"children":[
				7
			],
			"name":"sm_solar_panels"
		}
	],
	"animations":[
		{
			"channels":[
				{
					"sampler":0,
					"target":{
						"node":0,
						"path":"rotation"
					}
				},
				{
					"sampler":1,
					"target":{
						"node":1,
						"path":"rotation"
					}
				},
				{
					"sampler":2,
					"target":{
						"node":2,
						"path":"rotation"
					}
				},
				{
					"sampler":3,
					"target":{
						"node":6,
						"path":"rotation"
					}
				},
				{
					"sampler":4,
					"target":{
						"node":3,
						"path":"rotation"
					}
				},
				{
					"sampler":5,
					"target":{
						"node":5,
						"path":"rotation"
					}
				}
			],
			"name":"Animation",
			"samplers":[
				{
					"input":24,
					"interpolation":"LINEAR",
					"output":25
				},
				{
					"input":24,
					"interpolation":"LINEAR",
					"output":26
				},
				{
					"input":24,
					"interpolation":"LINEAR",
					"output":27
				},
				{
					"input":28,
					"interpolation":"LINEAR",
					"output":29
				},
				{
					"input":30,
					"interpolation":"LINEAR",
					"output":31
				},
				{
					"input":30,
					"interpolation":"LINEAR",
					"output":32
				}
			]
		}
	],
	"materials":[
		{
			"doubleSided":true,
			"name":"m_solarpanel",
			"normalTexture":{
				"index":0
			},
			"pbrMetallicRoughness":{
				"baseColorTexture":{
					"index":1
				},
				"metallicFactor":0,
				"metallicRoughnessTexture":{
					"index":2
				}
			}
		}
	],
	"meshes":[
		{
			"name":"sm_foot_front_low",
			"primitives":[
				{
					"attributes":{
						"POSITION":0,
						"NORMAL":1,
						"TEXCOORD_0":2
					},
					"indices":3,
					"material":0
				}
			]
		},
		{
			"name":"sm_foot_left_low",
			"primitives":[
				{
					"attributes":{
						"POSITION":4,
						"NORMAL":5,
						"TEXCOORD_0":6
					},
					"indices":7,
					"material":0
				}
			]
		},
		{
			"name":"sm_foot_right_low",
			"primitives":[
				{
					"attributes":{
						"POSITION":8,
						"NORMAL":9,
						"TEXCOORD_0":10
					},
					"indices":11,
					"material":0
				}
			]
		},
		{
			"name":"sm_panel_middle",
			"primitives":[
				{
					"attributes":{
						"POSITION":12,
						"NORMAL":13,
						"TEXCOORD_0":14
					},
					"indices":15,
					"material":0
				}
			]
		},
		{
			"name":"sm_panel_pivot_low",
			"primitives":[
				{
					"attributes":{
						"POSITION":16,
						"NORMAL":17,
						"TEXCOORD_0":18
					},
					"indices":19,
					"material":0
				}
			]
		},
		{
			"name":"sm_pole",
			"primitives":[
				{
					"attributes":{
						"POSITION":20,
						"NORMAL":21,
						"TEXCOORD_0":22
					},
					"indices":23,
					"material":0
				}
			]
		}
	],
	"textures":[
		{
			"sampler":0,
			"source":0
		},
		{
			"sampler":0,
			"source":1
		},
		{
			"sampler":0,
			"source":2
		}
	],
	"images":[
		{
			"mimeType":"image/jpeg",
			"name":"solarpanel_normal",
			"uri":"solarpanel_normal.jpg"
		},
		{
			"mimeType":"image/jpeg",
			"name":"solarpanel_basecolor",
			"uri":"solarpanel_basecolor.jpg"
		},
		{
			"mimeType":"image/jpeg",
			"name":"solarpanel_roughness",
			"uri":"solarpanel_roughness.jpg"
		}
	],
	"accessors":[
		{
			"bufferView":0,
			"componentType":5126,
			"count":54,
			"max":[
				0.08721055835485458,
				0.046341270208358765,
				1.0959274768829346
			],
			"min":[
				-0.08721055835485458,
				-0.22071343660354614,
				-0.030432146042585373
			],
			"type":"VEC3"
		},
		{
			"bufferView":1,
			"componentType":5126,
			"count":54,
			"type":"VEC3"
		},
		{
			"bufferView":2,
			"componentType":5126,
			"count":54,
			"type":"VEC2"
		},
		{
			"bufferView":3,
			"componentType":5123,
			"count":78,
			"type":"SCALAR"
		},
		{
			"bufferView":4,
			"componentType":5126,
			"count":54,
			"max":[
				0.08721055835485458,
				0.046341270208358765,
				1.0916060209274292
			],
			"min":[
				-0.08721055835485458,
				-0.22071343660354614,
				-0.030432146042585373
			],
			"type":"VEC3"
		},
		{
			"bufferView":5,
			"componentType":5126,
			"count":54,
			"type":"VEC3"
		},
		{
			"bufferView":6,
			"componentType":5126,
			"count":54,
			"type":"VEC2"
		},
		{
			"bufferView":7,
			"componentType":5123,
			"count":78,
			"type":"SCALAR"
		},
		{
			"bufferView":8,
			"componentType":5126,
			"count":54,
			"max":[
				0.08721055835485458,
				0.046341270208358765,
				1.0959274768829346
			],
			"min":[
				-0.08721055835485458,
				-0.22071343660354614,
				-0.030432146042585373
			],
			"type":"VEC3"
		},
		{
			"bufferView":9,
			"componentType":5126,
			"count":54,
			"type":"VEC3"
		},
		{
			"bufferView":10,
			"componentType":5126,
			"count":54,
			"type":"VEC2"
		},
		{
			"bufferView":11,
			"componentType":5123,
			"count":78,
			"type":"SCALAR"
		},
		{
			"bufferView":12,
			"componentType":5126,
			"count":114,
			"max":[
				0.46734654903411865,
				0.22680512070655823,
				-0.03713575005531311
			],
			"min":[
				-0.46734657883644104,
				-0.04220409318804741,
				-0.9418272972106934
			],
			"type":"VEC3"
		},
		{
			"bufferView":13,
			"componentType":5126,
			"count":114,
			"type":"VEC3"
		},
		{
			"bufferView":14,
			"componentType":5126,
			"count":114,
			"type":"VEC2"
		},
		{
			"bufferView":15,
			"componentType":5123,
			"count":324,
			"type":"SCALAR"
		},
		{
			"bufferView":16,
			"componentType":5126,
			"count":133,
			"max":[
				0.1270177811384201,
				0.20622757077217102,
				0.13355420529842377
			],
			"min":[
				-0.1270177811384201,
				-0.13355422019958496,
				-0.13355420529842377
			],
			"type":"VEC3"
		},
		{
			"bufferView":17,
			"componentType":5126,
			"count":133,
			"type":"VEC3"
		},
		{
			"bufferView":18,
			"componentType":5126,
			"count":133,
			"type":"VEC2"
		},
		{
			"bufferView":19,
			"componentType":5123,
			"count":384,
			"type":"SCALAR"
		},
		{
			"bufferView":20,
			"componentType":5126,
			"count":309,
			"max":[
				0.252271831035614,
				2.380709648132324,
				0.1592300981283188
			],
			"min":[
				-0.1592300981283188,
				0.11400339007377625,
				-0.21114647388458252
			],
			"type":"VEC3"
		},
		{
			"bufferView":21,
			"componentType":5126,
			"count":309,
			"type":"VEC3"
		},
		{
			"bufferView":22,
			"componentType":5126,
			"count":309,
			"type":"VEC2"
		},
		{
			"bufferView":23,
			"componentType":5123,
			"count":750,
			"type":"SCALAR"
		},
		{
			"bufferView":24,
			"componentType":5126,
			"count":70,
			"max":[
				2.9166666666666665
			],
			"min":[
				0.041666666666666664
			],
			"type":"SCALAR"
		},
		{
			"bufferView":25,
			"componentType":5126,
			"count":70,
			"type":"VEC4"
		},
		{
			"bufferView":26,
			"componentType":5126,
			"count":70,
			"type":"VEC4"
		},
		{
			"bufferView":27,
			"componentType":5126,
			"count":70,
			"type":"VEC4"
		},
		{
			"bufferView":28,
			"componentType":5126,
			"count":60,
			"max":[
				2.875
			],
			"min":[
				0.4166666666666667
			],
			"type":"SCALAR"
		},
		{
			"bufferView":29,
			"componentType":5126,
			"count":60,
			"type":"VEC4"
		},
		{
			"bufferView":30,
			"componentType":5126,
			"count":41,
			"max":[
				2.5
			],
			"min":[
				0.8333333333333334
			],
			"type":"SCALAR"
		},
		{
			"bufferView":31,
			"componentType":5126,
			"count":41,
			"type":"VEC4"
		},
		{
			"bufferView":32,
			"componentType":5126,
			"count":41,
			"type":"VEC4"
		}
	],
	"bufferViews":[
		{
			"buffer":0,
			"byteLength":648,
			"byteOffset":0,
			"target":34962
		},
		{
			"buffer":0,
			"byteLength":648,
			"byteOffset":648,
			"target":34962
		},
		{
			"buffer":0,
			"byteLength":432,
			"byteOffset":1296,
			"target":34962
		},
		{
			"buffer":0,
			"byteLength":156,
			"byteOffset":1728,
			"target":34963
		},
		{
			"buffer":0,
			"byteLength":648,
			"byteOffset":1884,
			"target":34962
		},
		{
			"buffer":0,
			"byteLength":648,
			"byteOffset":2532,
			"target":34962
		},
		{
			"buffer":0,
			"byteLength":432,
			"byteOffset":3180,
			"target":34962
		},
		{
			"buffer":0,
			"byteLength":156,
			"byteOffset":3612,
			"target":34963
		},
		{
			"buffer":0,
			"byteLength":648,
			"byteOffset":3768,
			"target":34962
		},
		{
			"buffer":0,
			"byteLength":648,
			"byteOffset":4416,
			"target":34962
		},
		{
			"buffer":0,
			"byteLength":432,
			"byteOffset":5064,
			"target":34962
		},
		{
			"buffer":0,
			"byteLength":156,
			"byteOffset":5496,
			"target":34963
		},
		{
			"buffer":0,
			"byteLength":1368,
			"byteOffset":5652,
			"target":34962
		},
		{
			"buffer":0,
			"byteLength":1368,
			"byteOffset":7020,
			"target":34962
		},
		{
			"buffer":0,
			"byteLength":912,
			"byteOffset":8388,
			"target":34962
		},
		{
			"buffer":0,
			"byteLength":648,
			"byteOffset":9300,
			"target":34963
		},
		{
			"buffer":0,
			"byteLength":1596,
			"byteOffset":9948,
			"target":34962
		},
		{
			"buffer":0,
			"byteLength":1596,
			"byteOffset":11544,
			"target":34962
		},
		{
			"buffer":0,
			"byteLength":1064,
			"byteOffset":13140,
			"target":34962
		},
		{
			"buffer":0,
			"byteLength":768,
			"byteOffset":14204,
			"target":34963
		},
		{
			"buffer":0,
			"byteLength":3708,
			"byteOffset":14972,
			"target":34962
		},
		{
			"buffer":0,
			"byteLength":3708,
			"byteOffset":18680,
			"target":34962
		},
		{
			"buffer":0,
			"byteLength":2472,
			"byteOffset":22388,
			"target":34962
		},
		{
			"buffer":0,
			"byteLength":1500,
			"byteOffset":24860,
			"target":34963
		},
		{
			"buffer":0,
			"byteLength":280,
			"byteOffset":26360
		},
		{
			"buffer":0,
			"byteLength":1120,
			"byteOffset":26640
		},
		{
			"buffer":0,
			"byteLength":1120,
			"byteOffset":27760
		},
		{
			"buffer":0,
			"byteLength":1120,
			"byteOffset":28880
		},
		{
			"buffer":0,
			"byteLength":240,
			"byteOffset":30000
		},
		{
			"buffer":0,
			"byteLength":960,
			"byteOffset":30240
		},
		{
			"buffer":0,
			"byteLength":164,
			"byteOffset":31200
		},
		{
			"buffer":0,
			"byteLength":656,
			"byteOffset":31364
		},
		{
			"buffer":0,
			"byteLength":656,
			"byteOffset":32020
		}
	],
	"samplers":[
		{
			"magFilter":9729,
			"minFilter":9987
		}
	],
	"buffers":[
		{
			"byteLength":32676,
			"uri":"sm_solar_panel.bin"
		}
	]
}
