{
    "asset": {
        "version": "2.0",
        "generator": "Open Asset Import Library (assimp v3.1.151885474)"
    },
    "accessors": [
        {
            "bufferView": 0,
            "byteOffset": 0,
            "componentType": 5126,
            "count": 2901,
            "type": "VEC3",
            "max": [
                94.85287475585938,
                151.79440307617188,
                57.25537109375
            ],
            "min": [
                -78.51173400878906,
                0.0,
                -54.90557861328125
            ]
        },
        {
            "bufferView": 1,
            "byteOffset": 0,
            "componentType": 5126,
            "count": 2901,
            "type": "VEC3",
            "max": [
                1.0,
                1.0,
                1.0
            ],
            "min": [
                -1.0,
                -1.0,
                -1.0
            ]
        },
        {
            "bufferView": 2,
            "byteOffset": 0,
            "componentType": 5126,
            "count": 2901,
            "type": "VEC4",
            "max": [
                1.0,
                1.0,
                1.0,
                1.0
            ],
            "min": [
                -1.0,
                -1.0,
                -1.0,
                -1.0
            ]
        },
        {
            "bufferView": 3,
            "byteOffset": 0,
            "componentType": 5126,
            "count": 2901,
            "type": "VEC2",
            "max": [
                0.9906589984893799,
                0.9950079917907715
            ],
            "min": [
                0.002520000096410513,
                0.00595402717590332
            ]
        },
        {
            "bufferView": 4,
            "byteOffset": 0,
            "componentType": 5123,
            "count": 11127,
            "type": "SCALAR",
            "max": [
                2900.0
            ],
            "min": [
                0.0
            ]
        }
    ],
    "buffers": [
        {
            "byteLength": 161502,
            "uri": "sm_witchhazel.bin"
        }
    ],
    "bufferViews": [
        {
            "buffer": 0,
            "byteOffset": 0,
            "byteLength": 34812,
            "target": 34962
        },
        {
            "buffer": 0,
            "byteOffset": 34812,
            "byteLength": 34812,
            "target": 34962
        },
        {
            "buffer": 0,
            "byteOffset": 69624,
            "byteLength": 46416,
            "target": 34962
        },
        {
            "buffer": 0,
            "byteOffset": 116040,
            "byteLength": 23208,
            "target": 34962
        },
        {
            "buffer": 0,
            "byteOffset": 139248,
            "byteLength": 22254,
            "target": 34963
        }
    ],
    "materials": [
        {
            "name": "standardSurface2SG",
            "pbrMetallicRoughness": {
                "baseColorFactor": [
                    0.0,
                    0.0,
                    0.0,
                    1.0
                ],
                "metallicFactor": 0.0
            }
        }
    ],
    "meshes": [
        {
            "name": "sm_bush",
            "primitives": [
                {
                    "mode": 4,
                    "material": 0,
                    "indices": 4,
                    "attributes": {
                        "POSITION": 0,
                        "NORMAL": 1,
                        "TANGENT": 2,
                        "TEXCOORD_0": 3
                    }
                }
            ]
        }
    ],
    "nodes": [
        {
            "name": "Bush01.obj",
            "matrix": [
                0.009999999776482582,
                0.0,
                0.0,
                0.0,
                0.0,
                0.009999999776482582,
                0.0,
                0.0,
                0.0,
                0.0,
                0.009999999776482582,
                0.0,
                0.0,
                0.0,
                0.0,
                1.0
            ],
            "children": [
                1,
                2
            ]
        },
        {
            "name": "default"
        },
        {
            "name": "sm_bush",
            "mesh": 0
        }
    ],
    "scenes": [
        {
            "nodes": [
                0
            ]
        }
    ],
    "scene": 0
}