{
	"asset":{
		"generator":"Khronos glTF Blender I/O v4.4.56",
		"version":"2.0"
	},
	"scene":0,
	"scenes":[
		{
			"name":"Scene",
			"nodes":[
				1,
				3
			]
		}
	],
	"nodes":[
		{
			"mesh":0,
			"name":"sm_building_destroyed_02-mesh"
		},
		{
			"children":[
				0
			],
			"name":"meshnode_sm_building_destroyed_02-mesh"
		},
		{
			"mesh":1,
			"name":"collision_destroyed_02-colonly"
		},
		{
			"children":[
				2
			],
			"name":"collisionnode_sm_building_destroyed_02-colonly"
		}
	],
	"materials":[
		{
			"doubleSided":true,
			"name":"t_cautiontape",
			"normalTexture":{
				"index":0
			},
			"pbrMetallicRoughness":{
				"baseColorTexture":{
					"index":1
				},
				"metallicFactor":0,
				"roughnessFactor":0.5
			}
		},
		{
			"doubleSided":true,
			"name":"t_destroyedbuilding_02",
			"normalTexture":{
				"index":2
			},
			"pbrMetallicRoughness":{
				"baseColorTexture":{
					"index":3
				},
				"metallicFactor":0,
				"roughnessFactor":0.5
			}
		},
		{
			"doubleSided":true,
			"name":"t_destroyedwindows",
			"normalTexture":{
				"index":4
			},
			"pbrMetallicRoughness":{
				"baseColorTexture":{
					"index":5
				},
				"metallicFactor":0,
				"roughnessFactor":0.2545454502105713
			}
		},
		{
			"doubleSided":true,
			"name":"M_Collision",
			"pbrMetallicRoughness":{
				"baseColorFactor":[
					0.8002356290817261,
					0,
					0.004787445068359375,
					1
				],
				"metallicFactor":0,
				"roughnessFactor":0.5
			}
		}
	],
	"meshes":[
		{
			"name":"NurbsPath",
			"primitives":[
				{
					"attributes":{
						"POSITION":0,
						"NORMAL":1,
						"TEXCOORD_0":2
					},
					"indices":3,
					"material":0
				},
				{
					"attributes":{
						"POSITION":4,
						"NORMAL":5,
						"TEXCOORD_0":6
					},
					"indices":7,
					"material":1
				},
				{
					"attributes":{
						"POSITION":8,
						"NORMAL":9,
						"TEXCOORD_0":10
					},
					"indices":11,
					"material":2
				}
			]
		},
		{
			"name":"Cube.008",
			"primitives":[
				{
					"attributes":{
						"POSITION":12,
						"NORMAL":13,
						"TEXCOORD_0":14
					},
					"indices":15,
					"material":3
				}
			]
		}
	],
	"textures":[
		{
			"sampler":0,
			"source":0
		},
		{
			"sampler":0,
			"source":1
		},
		{
			"sampler":0,
			"source":2
		},
		{
			"sampler":0,
			"source":1
		},
		{
			"sampler":0,
			"source":3
		},
		{
			"sampler":0,
			"source":1
		}
	],
	"images":[
		{
			"mimeType":"image/png",
			"name":"t_cautiontape_Normal_OpenGL",
			"uri":"t_cautiontape_Normal_OpenGL.png"
		},
		{
			"mimeType":"image/png",
			"name":"sm_buildingdestroyed_01_Base_Color",
			"uri":"sm_buildingdestroyed_01_Base_Color.png"
		},
		{
			"mimeType":"image/png",
			"name":"t_destroyedbuilding.001_Normal_OpenGL",
			"uri":"t_destroyedbuilding_001_Normal_OpenGL.png"
		},
		{
			"mimeType":"image/png",
			"name":"t_destroyedwindows_Normal_OpenGL",
			"uri":"t_destroyedwindows_Normal_OpenGL.png"
		}
	],
	"accessors":[
		{
			"bufferView":0,
			"componentType":5126,
			"count":272,
			"max":[
				3.5515942573547363,
				2.6657488346099854,
				5.379072189331055
			],
			"min":[
				-3.2329561710357666,
				0.46183809638023376,
				5.2155985832214355
			],
			"type":"VEC3"
		},
		{
			"bufferView":1,
			"componentType":5126,
			"count":272,
			"type":"VEC3"
		},
		{
			"bufferView":2,
			"componentType":5126,
			"count":272,
			"type":"VEC2"
		},
		{
			"bufferView":3,
			"componentType":5123,
			"count":744,
			"type":"SCALAR"
		},
		{
			"bufferView":4,
			"componentType":5126,
			"count":2629,
			"max":[
				8.314630508422852,
				10.692530632019043,
				5.538385391235352
			],
			"min":[
				-8.314629554748535,
				-0.42283686995506287,
				-5.310300827026367
			],
			"type":"VEC3"
		},
		{
			"bufferView":5,
			"componentType":5126,
			"count":2629,
			"type":"VEC3"
		},
		{
			"bufferView":6,
			"componentType":5126,
			"count":2629,
			"type":"VEC2"
		},
		{
			"bufferView":7,
			"componentType":5123,
			"count":7128,
			"type":"SCALAR"
		},
		{
			"bufferView":8,
			"componentType":5126,
			"count":56,
			"max":[
				6.008518218994141,
				8.79190444946289,
				5.198770523071289
			],
			"min":[
				-7.810338497161865,
				-0.1285380721092224,
				-5.088400363922119
			],
			"type":"VEC3"
		},
		{
			"bufferView":9,
			"componentType":5126,
			"count":56,
			"type":"VEC3"
		},
		{
			"bufferView":10,
			"componentType":5126,
			"count":56,
			"type":"VEC2"
		},
		{
			"bufferView":11,
			"componentType":5123,
			"count":102,
			"type":"SCALAR"
		},
		{
			"bufferView":12,
			"componentType":5126,
			"count":24,
			"max":[
				8.183937072753906,
				10.952088356018066,
				5.562868118286133
			],
			"min":[
				-8.416716575622559,
				-0.45816925168037415,
				-5.562868118286133
			],
			"type":"VEC3"
		},
		{
			"bufferView":13,
			"componentType":5126,
			"count":24,
			"type":"VEC3"
		},
		{
			"bufferView":14,
			"componentType":5126,
			"count":24,
			"type":"VEC2"
		},
		{
			"bufferView":15,
			"componentType":5123,
			"count":36,
			"type":"SCALAR"
		}
	],
	"bufferViews":[
		{
			"buffer":0,
			"byteLength":3264,
			"byteOffset":0,
			"target":34962
		},
		{
			"buffer":0,
			"byteLength":3264,
			"byteOffset":3264,
			"target":34962
		},
		{
			"buffer":0,
			"byteLength":2176,
			"byteOffset":6528,
			"target":34962
		},
		{
			"buffer":0,
			"byteLength":1488,
			"byteOffset":8704,
			"target":34963
		},
		{
			"buffer":0,
			"byteLength":31548,
			"byteOffset":10192,
			"target":34962
		},
		{
			"buffer":0,
			"byteLength":31548,
			"byteOffset":41740,
			"target":34962
		},
		{
			"buffer":0,
			"byteLength":21032,
			"byteOffset":73288,
			"target":34962
		},
		{
			"buffer":0,
			"byteLength":14256,
			"byteOffset":94320,
			"target":34963
		},
		{
			"buffer":0,
			"byteLength":672,
			"byteOffset":108576,
			"target":34962
		},
		{
			"buffer":0,
			"byteLength":672,
			"byteOffset":109248,
			"target":34962
		},
		{
			"buffer":0,
			"byteLength":448,
			"byteOffset":109920,
			"target":34962
		},
		{
			"buffer":0,
			"byteLength":204,
			"byteOffset":110368,
			"target":34963
		},
		{
			"buffer":0,
			"byteLength":288,
			"byteOffset":110572,
			"target":34962
		},
		{
			"buffer":0,
			"byteLength":288,
			"byteOffset":110860,
			"target":34962
		},
		{
			"buffer":0,
			"byteLength":192,
			"byteOffset":111148,
			"target":34962
		},
		{
			"buffer":0,
			"byteLength":72,
			"byteOffset":111340,
			"target":34963
		}
	],
	"samplers":[
		{
			"magFilter":9729,
			"minFilter":9987
		}
	],
	"buffers":[
		{
			"byteLength":111412,
			"uri":"sm_building_destroyed_02.bin"
		}
	]
}
