{
	"asset":{
		"generator":"Khronos glTF Blender I/O v4.3.47",
		"version":"2.0"
	},
	"scene":0,
	"scenes":[
		{
			"name":"Scene",
			"nodes":[
				0
			]
		}
	],
	"nodes":[
		{
			"mesh":0,
			"name":"Cube"
		}
	],
	"materials":[
		{
			"doubleSided":true,
			"name":"Blockade",
			"pbrMetallicRoughness":{
				"metallicFactor":0,
				"roughnessFactor":0.5
			}
		}
	],
	"meshes":[
		{
			"name":"Cube.001",
			"primitives":[
				{
					"attributes":{
						"POSITION":0,
						"NORMAL":1,
						"TEXCOORD_0":2
					},
					"indices":3,
					"material":0
				}
			]
		}
	],
	"accessors":[
		{
			"bufferView":0,
			"componentType":5126,
			"count":820,
			"max":[
				0.23038552701473236,
				1.6160968542099,
				1.2242226600646973
			],
			"min":[
				-0.23038552701473236,
				0.0025928914546966553,
				-1.2242226600646973
			],
			"type":"VEC3"
		},
		{
			"bufferView":1,
			"componentType":5126,
			"count":820,
			"type":"VEC3"
		},
		{
			"bufferView":2,
			"componentType":5126,
			"count":820,
			"type":"VEC2"
		},
		{
			"bufferView":3,
			"componentType":5123,
			"count":1344,
			"type":"SCALAR"
		}
	],
	"bufferViews":[
		{
			"buffer":0,
			"byteLength":9840,
			"byteOffset":0,
			"target":34962
		},
		{
			"buffer":0,
			"byteLength":9840,
			"byteOffset":9840,
			"target":34962
		},
		{
			"buffer":0,
			"byteLength":6560,
			"byteOffset":19680,
			"target":34962
		},
		{
			"buffer":0,
			"byteLength":2688,
			"byteOffset":26240,
			"target":34963
		}
	],
	"buffers":[
		{
			"byteLength":28928,
			"uri":"Blockade.bin"
		}
	]
}
