{
	"asset":{
		"generator":"Khronos glTF Blender I/O v4.4.56",
		"version":"2.0"
	},
	"scene":0,
	"scenes":[
		{
			"name":"Scene",
			"nodes":[
				1,
				3,
				5
			]
		}
	],
	"nodes":[
		{
			"mesh":0,
			"name":"sm_farmbuilding_tall_05-mesh"
		},
		{
			"children":[
				0
			],
			"name":"building_05-mesh"
		},
		{
			"mesh":1,
			"name":"navmesh_building_05_rooftop-navmesh",
			"translation":[
				0.0011622915044426918,
				-0.002277374267578125,
				-0.0006180087802931666
			]
		},
		{
			"children":[
				2
			],
			"name":"building_05-navmesh",
			"translation":[
				0,
				8.431010246276855,
				0
			]
		},
		{
			"mesh":2,
			"name":"collision_building_05-colonly"
		},
		{
			"children":[
				4
			],
			"name":"building_05-colonly"
		}
	],
	"materials":[
		{
			"doubleSided":true,
			"name":"t_buidling_05",
			"pbrMetallicRoughness":{
				"baseColorTexture":{
					"index":0
				},
				"metallicFactor":0,
				"metallicRoughnessTexture":{
					"index":1
				}
			}
		},
		{
			"doubleSided":true,
			"name":"t_building_05_door",
			"pbrMetallicRoughness":{
				"baseColorTexture":{
					"index":2
				},
				"metallicFactor":0,
				"roughnessFactor":0.5
			}
		},
		{
			"doubleSided":true,
			"name":"t_buiilding_05_windows",
			"normalTexture":{
				"index":3
			},
			"pbrMetallicRoughness":{
				"baseColorTexture":{
					"index":4
				},
				"metallicFactor":0,
				"metallicRoughnessTexture":{
					"index":5
				}
			}
		},
		{
			"doubleSided":true,
			"name":"t_building_05_solarpanels",
			"pbrMetallicRoughness":{
				"baseColorTexture":{
					"index":6
				},
				"metallicFactor":0,
				"metallicRoughnessTexture":{
					"index":7
				}
			}
		},
		{
			"doubleSided":true,
			"name":"t_building_05_detailing",
			"pbrMetallicRoughness":{
				"baseColorTexture":{
					"index":8
				},
				"metallicFactor":0,
				"metallicRoughnessTexture":{
					"index":9
				}
			}
		},
		{
			"doubleSided":true,
			"name":"t_farmingtall_doors",
			"pbrMetallicRoughness":{
				"baseColorTexture":{
					"index":10
				},
				"metallicFactor":0,
				"roughnessFactor":0.5
			}
		},
		{
			"name":"Material_0",
			"pbrMetallicRoughness":{
				"baseColorFactor":[
					0.03827747702598572,
					0.03827747702598572,
					0.03827747702598572,
					1
				],
				"metallicFactor":0
			}
		},
		{
			"doubleSided":true,
			"name":"M_NavMesh",
			"pbrMetallicRoughness":{
				"baseColorFactor":[
					0,
					0.561145007610321,
					0.8001565933227539,
					1
				],
				"metallicFactor":0,
				"roughnessFactor":0.5
			}
		},
		{
			"doubleSided":true,
			"name":"M_Collision",
			"pbrMetallicRoughness":{
				"baseColorFactor":[
					0.8002356290817261,
					0,
					0.004787445068359375,
					1
				],
				"metallicFactor":0,
				"roughnessFactor":0.5
			}
		}
	],
	"meshes":[
		{
			"name":"Cube.001",
			"primitives":[
				{
					"attributes":{
						"POSITION":0,
						"NORMAL":1,
						"TEXCOORD_0":2
					},
					"indices":3,
					"material":0
				},
				{
					"attributes":{
						"POSITION":4,
						"NORMAL":5,
						"TEXCOORD_0":6
					},
					"indices":7,
					"material":1
				},
				{
					"attributes":{
						"POSITION":8,
						"NORMAL":9,
						"TEXCOORD_0":10
					},
					"indices":11,
					"material":2
				},
				{
					"attributes":{
						"POSITION":12,
						"NORMAL":13,
						"TEXCOORD_0":14
					},
					"indices":15,
					"material":3
				},
				{
					"attributes":{
						"POSITION":16,
						"NORMAL":17,
						"TEXCOORD_0":18
					},
					"indices":19,
					"material":4
				},
				{
					"attributes":{
						"POSITION":20,
						"NORMAL":21,
						"TEXCOORD_0":22
					},
					"indices":23,
					"material":5
				},
				{
					"attributes":{
						"POSITION":24,
						"NORMAL":25,
						"TEXCOORD_0":26
					},
					"indices":27,
					"material":6
				}
			]
		},
		{
			"name":"Plane.017",
			"primitives":[
				{
					"attributes":{
						"POSITION":28,
						"NORMAL":29,
						"TEXCOORD_0":30
					},
					"indices":31,
					"material":7
				}
			]
		},
		{
			"name":"Cube.009",
			"primitives":[
				{
					"attributes":{
						"POSITION":32,
						"NORMAL":33,
						"TEXCOORD_0":34
					},
					"indices":35,
					"material":8
				}
			]
		}
	],
	"textures":[
		{
			"sampler":0,
			"source":0
		},
		{
			"sampler":0,
			"source":1
		},
		{
			"sampler":0,
			"source":0
		},
		{
			"sampler":0,
			"source":2
		},
		{
			"sampler":0,
			"source":0
		},
		{
			"sampler":0,
			"source":1
		},
		{
			"sampler":0,
			"source":0
		},
		{
			"sampler":0,
			"source":1
		},
		{
			"sampler":0,
			"source":0
		},
		{
			"sampler":0,
			"source":1
		},
		{
			"sampler":0,
			"source":0
		}
	],
	"images":[
		{
			"mimeType":"image/png",
			"name":"t_building_05_Base_Color",
			"uri":"t_building_05_Base_Color.png"
		},
		{
			"mimeType":"image/png",
			"name":"t_building_05_Roughness",
			"uri":"t_building_05_Roughness.png"
		},
		{
			"mimeType":"image/png",
			"name":"t_building_05_Normal",
			"uri":"t_building_05_Normal.png"
		}
	],
	"accessors":[
		{
			"bufferView":0,
			"componentType":5126,
			"count":3213,
			"max":[
				5.316678524017334,
				10.248504638671875,
				6.043796062469482
			],
			"min":[
				-6.353675365447998,
				-0.011698857881128788,
				-5.896247386932373
			],
			"type":"VEC3"
		},
		{
			"bufferView":1,
			"componentType":5126,
			"count":3213,
			"type":"VEC3"
		},
		{
			"bufferView":2,
			"componentType":5126,
			"count":3213,
			"type":"VEC2"
		},
		{
			"bufferView":3,
			"componentType":5123,
			"count":9084,
			"type":"SCALAR"
		},
		{
			"bufferView":4,
			"componentType":5126,
			"count":138,
			"max":[
				4.225960731506348,
				11.821975708007812,
				3.663663387298584
			],
			"min":[
				-0.8002684712409973,
				0.0971863642334938,
				-5.607424736022949
			],
			"type":"VEC3"
		},
		{
			"bufferView":5,
			"componentType":5126,
			"count":138,
			"type":"VEC3"
		},
		{
			"bufferView":6,
			"componentType":5126,
			"count":138,
			"type":"VEC2"
		},
		{
			"bufferView":7,
			"componentType":5123,
			"count":264,
			"type":"SCALAR"
		},
		{
			"bufferView":8,
			"componentType":5126,
			"count":233,
			"max":[
				4.993967533111572,
				7.75078010559082,
				3.663663387298584
			],
			"min":[
				-4.9636616706848145,
				4.2121663093566895,
				-4.667684078216553
			],
			"type":"VEC3"
		},
		{
			"bufferView":9,
			"componentType":5126,
			"count":233,
			"type":"VEC3"
		},
		{
			"bufferView":10,
			"componentType":5126,
			"count":233,
			"type":"VEC2"
		},
		{
			"bufferView":11,
			"componentType":5123,
			"count":528,
			"type":"SCALAR"
		},
		{
			"bufferView":12,
			"componentType":5126,
			"count":12,
			"max":[
				4.100255489349365,
				4.208127498626709,
				5.084543228149414
			],
			"min":[
				-4.073795318603516,
				3.7633860111236572,
				3.823951244354248
			],
			"type":"VEC3"
		},
		{
			"bufferView":13,
			"componentType":5126,
			"count":12,
			"type":"VEC3"
		},
		{
			"bufferView":14,
			"componentType":5126,
			"count":12,
			"type":"VEC2"
		},
		{
			"bufferView":15,
			"componentType":5123,
			"count":18,
			"type":"SCALAR"
		},
		{
			"bufferView":16,
			"componentType":5126,
			"count":730,
			"max":[
				5.287497520446777,
				9.550036430358887,
				5.58745813369751
			],
			"min":[
				-6.291139602661133,
				-0.011698857881128788,
				-5.896247386932373
			],
			"type":"VEC3"
		},
		{
			"bufferView":17,
			"componentType":5126,
			"count":730,
			"type":"VEC3"
		},
		{
			"bufferView":18,
			"componentType":5126,
			"count":730,
			"type":"VEC2"
		},
		{
			"bufferView":19,
			"componentType":5123,
			"count":1719,
			"type":"SCALAR"
		},
		{
			"bufferView":20,
			"componentType":5126,
			"count":220,
			"max":[
				4.288030624389648,
				11.906914710998535,
				3.962538242340088
			],
			"min":[
				-1.101395606994629,
				-0.03646206855773926,
				-2.619419574737549
			],
			"type":"VEC3"
		},
		{
			"bufferView":21,
			"componentType":5126,
			"count":220,
			"type":"VEC3"
		},
		{
			"bufferView":22,
			"componentType":5126,
			"count":220,
			"type":"VEC2"
		},
		{
			"bufferView":23,
			"componentType":5123,
			"count":624,
			"type":"SCALAR"
		},
		{
			"bufferView":24,
			"componentType":5126,
			"count":12,
			"max":[
				3.890875816345215,
				11.535070419311523,
				3.841310739517212
			],
			"min":[
				-0.7042408585548401,
				0.24111342430114746,
				-2.433422803878784
			],
			"type":"VEC3"
		},
		{
			"bufferView":25,
			"componentType":5126,
			"count":12,
			"type":"VEC3"
		},
		{
			"bufferView":26,
			"componentType":5126,
			"count":12,
			"type":"VEC2"
		},
		{
			"bufferView":27,
			"componentType":5123,
			"count":24,
			"type":"SCALAR"
		},
		{
			"bufferView":28,
			"componentType":5126,
			"count":8,
			"max":[
				4.481882572174072,
				0.027487771585583687,
				4.2723307609558105
			],
			"min":[
				-4.48854398727417,
				0.027487771585583687,
				-4.338410377502441
			],
			"type":"VEC3"
		},
		{
			"bufferView":29,
			"componentType":5126,
			"count":8,
			"type":"VEC3"
		},
		{
			"bufferView":30,
			"componentType":5126,
			"count":8,
			"type":"VEC2"
		},
		{
			"bufferView":31,
			"componentType":5123,
			"count":18,
			"type":"SCALAR"
		},
		{
			"bufferView":32,
			"componentType":5126,
			"count":24,
			"max":[
				5.303155422210693,
				8.45169448852539,
				4.4732890129089355
			],
			"min":[
				-6.304366588592529,
				-0.27282488346099854,
				-5.710448741912842
			],
			"type":"VEC3"
		},
		{
			"bufferView":33,
			"componentType":5126,
			"count":24,
			"type":"VEC3"
		},
		{
			"bufferView":34,
			"componentType":5126,
			"count":24,
			"type":"VEC2"
		},
		{
			"bufferView":35,
			"componentType":5123,
			"count":36,
			"type":"SCALAR"
		}
	],
	"bufferViews":[
		{
			"buffer":0,
			"byteLength":38556,
			"byteOffset":0,
			"target":34962
		},
		{
			"buffer":0,
			"byteLength":38556,
			"byteOffset":38556,
			"target":34962
		},
		{
			"buffer":0,
			"byteLength":25704,
			"byteOffset":77112,
			"target":34962
		},
		{
			"buffer":0,
			"byteLength":18168,
			"byteOffset":102816,
			"target":34963
		},
		{
			"buffer":0,
			"byteLength":1656,
			"byteOffset":120984,
			"target":34962
		},
		{
			"buffer":0,
			"byteLength":1656,
			"byteOffset":122640,
			"target":34962
		},
		{
			"buffer":0,
			"byteLength":1104,
			"byteOffset":124296,
			"target":34962
		},
		{
			"buffer":0,
			"byteLength":528,
			"byteOffset":125400,
			"target":34963
		},
		{
			"buffer":0,
			"byteLength":2796,
			"byteOffset":125928,
			"target":34962
		},
		{
			"buffer":0,
			"byteLength":2796,
			"byteOffset":128724,
			"target":34962
		},
		{
			"buffer":0,
			"byteLength":1864,
			"byteOffset":131520,
			"target":34962
		},
		{
			"buffer":0,
			"byteLength":1056,
			"byteOffset":133384,
			"target":34963
		},
		{
			"buffer":0,
			"byteLength":144,
			"byteOffset":134440,
			"target":34962
		},
		{
			"buffer":0,
			"byteLength":144,
			"byteOffset":134584,
			"target":34962
		},
		{
			"buffer":0,
			"byteLength":96,
			"byteOffset":134728,
			"target":34962
		},
		{
			"buffer":0,
			"byteLength":36,
			"byteOffset":134824,
			"target":34963
		},
		{
			"buffer":0,
			"byteLength":8760,
			"byteOffset":134860,
			"target":34962
		},
		{
			"buffer":0,
			"byteLength":8760,
			"byteOffset":143620,
			"target":34962
		},
		{
			"buffer":0,
			"byteLength":5840,
			"byteOffset":152380,
			"target":34962
		},
		{
			"buffer":0,
			"byteLength":3438,
			"byteOffset":158220,
			"target":34963
		},
		{
			"buffer":0,
			"byteLength":2640,
			"byteOffset":161660,
			"target":34962
		},
		{
			"buffer":0,
			"byteLength":2640,
			"byteOffset":164300,
			"target":34962
		},
		{
			"buffer":0,
			"byteLength":1760,
			"byteOffset":166940,
			"target":34962
		},
		{
			"buffer":0,
			"byteLength":1248,
			"byteOffset":168700,
			"target":34963
		},
		{
			"buffer":0,
			"byteLength":144,
			"byteOffset":169948,
			"target":34962
		},
		{
			"buffer":0,
			"byteLength":144,
			"byteOffset":170092,
			"target":34962
		},
		{
			"buffer":0,
			"byteLength":96,
			"byteOffset":170236,
			"target":34962
		},
		{
			"buffer":0,
			"byteLength":48,
			"byteOffset":170332,
			"target":34963
		},
		{
			"buffer":0,
			"byteLength":96,
			"byteOffset":170380,
			"target":34962
		},
		{
			"buffer":0,
			"byteLength":96,
			"byteOffset":170476,
			"target":34962
		},
		{
			"buffer":0,
			"byteLength":64,
			"byteOffset":170572,
			"target":34962
		},
		{
			"buffer":0,
			"byteLength":36,
			"byteOffset":170636,
			"target":34963
		},
		{
			"buffer":0,
			"byteLength":288,
			"byteOffset":170672,
			"target":34962
		},
		{
			"buffer":0,
			"byteLength":288,
			"byteOffset":170960,
			"target":34962
		},
		{
			"buffer":0,
			"byteLength":192,
			"byteOffset":171248,
			"target":34962
		},
		{
			"buffer":0,
			"byteLength":72,
			"byteOffset":171440,
			"target":34963
		}
	],
	"samplers":[
		{
			"magFilter":9729,
			"minFilter":9987
		}
	],
	"buffers":[
		{
			"byteLength":171512,
			"uri":"sm_building_farming_tall.bin"
		}
	]
}
