{"asset":{"version":"2.0","generator":"babylon.js glTF exporter for Autodesk MAYA 2022.5.1 v20250428.5"},"scene":0,"scenes":[{"nodes":[0]}],"nodes":[{"mesh":0,"name":"pCube30"}],"meshes":[{"primitives":[{"attributes":{"POSITION":1,"TANGENT":2,"NORMAL":3,"TEXCOORD_0":4},"indices":0,"material":0}],"name":"pCube30"}],"accessors":[{"bufferView":0,"componentType":5123,"count":732,"type":"SCALAR","name":"accessorIndices"},{"bufferView":1,"componentType":5126,"count":394,"max":[2.209761,1.58811057,0.249269158],"min":[0.387852848,-1.10676714E-18,-0.276601166],"type":"VEC3","name":"accessorPositions"},{"bufferView":2,"componentType":5126,"count":394,"type":"VEC4","name":"accessorTangents"},{"bufferView":1,"byteOffset":4728,"componentType":5126,"count":394,"type":"VEC3","name":"accessorNormals"},{"bufferView":3,"componentType":5126,"count":394,"type":"VEC2","name":"accessorUVs"}],"bufferViews":[{"buffer":0,"byteLength":1464,"name":"bufferViewScalar"},{"buffer":0,"byteOffset":1464,"byteLength":9456,"byteStride":12,"name":"bufferViewFloatVec3"},{"buffer":0,"byteOffset":10920,"byteLength":6304,"byteStride":16,"name":"bufferViewFloatVec4"},{"buffer":0,"byteOffset":17224,"byteLength":3152,"byteStride":8,"name":"bufferViewFloatVec2"}],"buffers":[{"uri":"sm_community_message_board.bin","byteLength":20376}],"materials":[{"pbrMetallicRoughness":{"baseColorFactor":[0.5,0.5,0.5,1.0],"metallicFactor":0.0,"roughnessFactor":0.450053632},"name":"lambert1"}]}