{
	"asset":{
		"generator":"Khronos glTF Blender I/O v4.4.56",
		"version":"2.0"
	},
	"scene":0,
	"scenes":[
		{
			"name":"Scene",
			"nodes":[
				3
			]
		}
	],
	"nodes":[
		{
			"mesh":0,
			"name":"collision_nonentry_building_01-colonly"
		},
		{
			"children":[
				0
			],
			"name":"nonentry_building_01-colonly"
		},
		{
			"mesh":1,
			"name":"sm_nonentry_building_01",
			"rotation":[
				0,
				0.7071067094802856,
				0,
				0.7071068286895752
			]
		},
		{
			"children":[
				1,
				2
			],
			"name":"mesh_nonentry_building_01"
		}
	],
	"materials":[
		{
			"doubleSided":true,
			"name":"M_Collision",
			"pbrMetallicRoughness":{
				"baseColorFactor":[
					0.8002356290817261,
					0,
					0.004787445068359375,
					1
				],
				"metallicFactor":0,
				"roughnessFactor":0.5
			}
		},
		{
			"doubleSided":true,
			"name":"t_electicpole.001",
			"pbrMetallicRoughness":{
				"baseColorTexture":{
					"index":0
				},
				"metallicFactor":0,
				"roughnessFactor":0.5
			}
		},
		{
			"doubleSided":true,
			"name":"t_cable.001",
			"normalTexture":{
				"index":1,
				"scale":0.20000000298023224
			},
			"pbrMetallicRoughness":{
				"baseColorTexture":{
					"index":2
				},
				"metallicFactor":0,
				"roughnessFactor":0.5
			}
		},
		{
			"doubleSided":true,
			"name":"t_exhaust",
			"normalTexture":{
				"index":3,
				"scale":0.20000000298023224
			},
			"pbrMetallicRoughness":{
				"baseColorTexture":{
					"index":4
				},
				"metallicFactor":0,
				"roughnessFactor":0.5
			}
		},
		{
			"doubleSided":true,
			"name":"t_widedoorframe",
			"normalTexture":{
				"index":5
			},
			"pbrMetallicRoughness":{
				"baseColorTexture":{
					"index":6
				},
				"metallicFactor":0,
				"roughnessFactor":0.5
			}
		},
		{
			"doubleSided":true,
			"name":"t_wideDoor",
			"normalTexture":{
				"index":7
			},
			"pbrMetallicRoughness":{
				"baseColorTexture":{
					"index":8
				},
				"metallicFactor":0,
				"roughnessFactor":0.5
			}
		},
		{
			"doubleSided":true,
			"name":"t_t_buildingac",
			"normalTexture":{
				"index":9
			},
			"pbrMetallicRoughness":{
				"baseColorTexture":{
					"index":10
				},
				"metallicFactor":0,
				"roughnessFactor":0.5
			}
		},
		{
			"doubleSided":true,
			"name":"t_fan",
			"normalTexture":{
				"index":11
			},
			"pbrMetallicRoughness":{
				"baseColorTexture":{
					"index":12
				},
				"metallicFactor":0,
				"roughnessFactor":0.5
			}
		},
		{
			"doubleSided":true,
			"name":"t_powerbox",
			"normalTexture":{
				"index":13
			},
			"pbrMetallicRoughness":{
				"baseColorTexture":{
					"index":14
				},
				"metallicFactor":0,
				"roughnessFactor":0.5
			}
		},
		{
			"doubleSided":true,
			"name":"t_ladder",
			"normalTexture":{
				"index":15
			},
			"pbrMetallicRoughness":{
				"baseColorTexture":{
					"index":16
				},
				"metallicFactor":0,
				"roughnessFactor":0.5
			}
		},
		{
			"doubleSided":true,
			"name":"t_singlewindowframe",
			"normalTexture":{
				"index":17
			},
			"pbrMetallicRoughness":{
				"baseColorTexture":{
					"index":18
				},
				"metallicFactor":0,
				"roughnessFactor":0.5
			}
		},
		{
			"doubleSided":true,
			"name":"t_singlewindowglass",
			"normalTexture":{
				"index":19
			},
			"pbrMetallicRoughness":{
				"baseColorTexture":{
					"index":20
				},
				"metallicFactor":0,
				"roughnessFactor":0.5
			}
		},
		{
			"doubleSided":true,
			"name":"t_boards",
			"normalTexture":{
				"index":21
			},
			"pbrMetallicRoughness":{
				"baseColorTexture":{
					"index":22
				},
				"metallicFactor":0,
				"roughnessFactor":0.5
			}
		},
		{
			"doubleSided":true,
			"name":"t_mainbuilding",
			"normalTexture":{
				"index":23,
				"scale":0.10000000149011612
			},
			"pbrMetallicRoughness":{
				"baseColorTexture":{
					"index":24
				},
				"metallicFactor":0,
				"roughnessFactor":0.5
			}
		},
		{
			"doubleSided":true,
			"name":"t_buildingtrim",
			"normalTexture":{
				"index":25,
				"scale":0.20000000298023224
			},
			"pbrMetallicRoughness":{
				"baseColorTexture":{
					"index":26
				},
				"metallicFactor":0,
				"roughnessFactor":0.5
			}
		},
		{
			"doubleSided":true,
			"name":"t_buildingroof",
			"normalTexture":{
				"index":27,
				"scale":0.35999998450279236
			},
			"pbrMetallicRoughness":{
				"baseColorTexture":{
					"index":28
				},
				"metallicFactor":0,
				"roughnessFactor":0.5
			}
		}
	],
	"meshes":[
		{
			"name":"Cube.003",
			"primitives":[
				{
					"attributes":{
						"POSITION":0,
						"NORMAL":1,
						"TEXCOORD_0":2
					},
					"indices":3,
					"material":0
				}
			]
		},
		{
			"name":"Cube.005",
			"primitives":[
				{
					"attributes":{
						"POSITION":4,
						"NORMAL":5,
						"TEXCOORD_0":6
					},
					"indices":7,
					"material":1
				},
				{
					"attributes":{
						"POSITION":8,
						"NORMAL":9,
						"TEXCOORD_0":10
					},
					"indices":11,
					"material":2
				},
				{
					"attributes":{
						"POSITION":12,
						"NORMAL":13,
						"TEXCOORD_0":14
					},
					"indices":15,
					"material":3
				},
				{
					"attributes":{
						"POSITION":16,
						"NORMAL":17,
						"TEXCOORD_0":18
					},
					"indices":19,
					"material":4
				},
				{
					"attributes":{
						"POSITION":20,
						"NORMAL":21,
						"TEXCOORD_0":22
					},
					"indices":23,
					"material":5
				},
				{
					"attributes":{
						"POSITION":24,
						"NORMAL":25,
						"TEXCOORD_0":26
					},
					"indices":27,
					"material":6
				},
				{
					"attributes":{
						"POSITION":28,
						"NORMAL":29,
						"TEXCOORD_0":30
					},
					"indices":31,
					"material":7
				},
				{
					"attributes":{
						"POSITION":32,
						"NORMAL":33,
						"TEXCOORD_0":34
					},
					"indices":35,
					"material":8
				},
				{
					"attributes":{
						"POSITION":36,
						"NORMAL":37,
						"TEXCOORD_0":38
					},
					"indices":39,
					"material":9
				},
				{
					"attributes":{
						"POSITION":40,
						"NORMAL":41,
						"TEXCOORD_0":42
					},
					"indices":43,
					"material":10
				},
				{
					"attributes":{
						"POSITION":44,
						"NORMAL":45,
						"TEXCOORD_0":46
					},
					"indices":47,
					"material":11
				},
				{
					"attributes":{
						"POSITION":48,
						"NORMAL":49,
						"TEXCOORD_0":50
					},
					"indices":51,
					"material":12
				},
				{
					"attributes":{
						"POSITION":52,
						"NORMAL":53,
						"TEXCOORD_0":54
					},
					"indices":55,
					"material":13
				},
				{
					"attributes":{
						"POSITION":56,
						"NORMAL":57,
						"TEXCOORD_0":58
					},
					"indices":59,
					"material":14
				},
				{
					"attributes":{
						"POSITION":60,
						"NORMAL":61,
						"TEXCOORD_0":62
					},
					"indices":63,
					"material":15
				}
			]
		}
	],
	"textures":[
		{
			"sampler":0,
			"source":0
		},
		{
			"sampler":0,
			"source":1
		},
		{
			"sampler":0,
			"source":0
		},
		{
			"sampler":0,
			"source":1
		},
		{
			"sampler":0,
			"source":0
		},
		{
			"sampler":0,
			"source":1
		},
		{
			"sampler":0,
			"source":0
		},
		{
			"sampler":0,
			"source":1
		},
		{
			"sampler":0,
			"source":0
		},
		{
			"sampler":0,
			"source":1
		},
		{
			"sampler":0,
			"source":0
		},
		{
			"sampler":0,
			"source":1
		},
		{
			"sampler":0,
			"source":0
		},
		{
			"sampler":0,
			"source":1
		},
		{
			"sampler":0,
			"source":0
		},
		{
			"sampler":0,
			"source":1
		},
		{
			"sampler":0,
			"source":0
		},
		{
			"sampler":0,
			"source":1
		},
		{
			"sampler":0,
			"source":0
		},
		{
			"sampler":0,
			"source":1
		},
		{
			"sampler":0,
			"source":0
		},
		{
			"sampler":0,
			"source":1
		},
		{
			"sampler":0,
			"source":0
		},
		{
			"sampler":0,
			"source":1
		},
		{
			"sampler":0,
			"source":0
		},
		{
			"sampler":0,
			"source":1
		},
		{
			"sampler":0,
			"source":0
		},
		{
			"sampler":0,
			"source":1
		},
		{
			"sampler":0,
			"source":0
		}
	],
	"images":[
		{
			"mimeType":"image/png",
			"name":"BuildingProp01_Base_Color",
			"uri":"BuildingProp01_Base_Color.png"
		},
		{
			"mimeType":"image/png",
			"name":"BuildingProp01_Normal",
			"uri":"BuildingProp01_Normal.png"
		}
	],
	"accessors":[
		{
			"bufferView":0,
			"componentType":5126,
			"count":24,
			"max":[
				5.80357551574707,
				10.600934028625488,
				5.748668193817139
			],
			"min":[
				-5.80357551574707,
				-0.1154996007680893,
				-5.748668193817139
			],
			"type":"VEC3"
		},
		{
			"bufferView":1,
			"componentType":5126,
			"count":24,
			"type":"VEC3"
		},
		{
			"bufferView":2,
			"componentType":5126,
			"count":24,
			"type":"VEC2"
		},
		{
			"bufferView":3,
			"componentType":5123,
			"count":36,
			"type":"SCALAR"
		},
		{
			"bufferView":4,
			"componentType":5126,
			"count":1964,
			"max":[
				5.51729679107666,
				14.393197059631348,
				5.41721773147583
			],
			"min":[
				-5.623689651489258,
				-0.048278916627168655,
				-5.79872465133667
			],
			"type":"VEC3"
		},
		{
			"bufferView":5,
			"componentType":5126,
			"count":1964,
			"type":"VEC3"
		},
		{
			"bufferView":6,
			"componentType":5126,
			"count":1964,
			"type":"VEC2"
		},
		{
			"bufferView":7,
			"componentType":5123,
			"count":5172,
			"type":"SCALAR"
		},
		{
			"bufferView":8,
			"componentType":5126,
			"count":1019,
			"max":[
				3.5563013553619385,
				13.74095630645752,
				-2.890645980834961
			],
			"min":[
				2.7331655025482178,
				10.24349594116211,
				-3.2424113750457764
			],
			"type":"VEC3"
		},
		{
			"bufferView":9,
			"componentType":5126,
			"count":1019,
			"type":"VEC3"
		},
		{
			"bufferView":10,
			"componentType":5126,
			"count":1019,
			"type":"VEC2"
		},
		{
			"bufferView":11,
			"componentType":5123,
			"count":3840,
			"type":"SCALAR"
		},
		{
			"bufferView":12,
			"componentType":5126,
			"count":942,
			"max":[
				-2.1125850677490234,
				11.15649700164795,
				-1.0184968709945679
			],
			"min":[
				-3.4136202335357666,
				8.819990158081055,
				-2.8622236251831055
			],
			"type":"VEC3"
		},
		{
			"bufferView":13,
			"componentType":5126,
			"count":942,
			"type":"VEC3"
		},
		{
			"bufferView":14,
			"componentType":5126,
			"count":942,
			"type":"VEC2"
		},
		{
			"bufferView":15,
			"componentType":5123,
			"count":3120,
			"type":"SCALAR"
		},
		{
			"bufferView":16,
			"componentType":5126,
			"count":102,
			"max":[
				2.6006081104278564,
				3.5085604190826416,
				5.300161361694336
			],
			"min":[
				-2.4848501682281494,
				0.08595238626003265,
				4.992939472198486
			],
			"type":"VEC3"
		},
		{
			"bufferView":17,
			"componentType":5126,
			"count":102,
			"type":"VEC3"
		},
		{
			"bufferView":18,
			"componentType":5126,
			"count":102,
			"type":"VEC2"
		},
		{
			"bufferView":19,
			"componentType":5123,
			"count":288,
			"type":"SCALAR"
		},
		{
			"bufferView":20,
			"componentType":5126,
			"count":6,
			"max":[
				1.6657321453094482,
				3.136715888977051,
				5.1789350509643555
			],
			"min":[
				-1.5499742031097412,
				0.3635278344154358,
				5.1789350509643555
			],
			"type":"VEC3"
		},
		{
			"bufferView":21,
			"componentType":5126,
			"count":6,
			"type":"VEC3"
		},
		{
			"bufferView":22,
			"componentType":5126,
			"count":6,
			"type":"VEC2"
		},
		{
			"bufferView":23,
			"componentType":5123,
			"count":12,
			"type":"SCALAR"
		},
		{
			"bufferView":24,
			"componentType":5126,
			"count":195,
			"max":[
				-4.9574408531188965,
				4.759493827819824,
				-1.4564534425735474
			],
			"min":[
				-5.635226726531982,
				3.217118501663208,
				-4.244349956512451
			],
			"type":"VEC3"
		},
		{
			"bufferView":25,
			"componentType":5126,
			"count":195,
			"type":"VEC3"
		},
		{
			"bufferView":26,
			"componentType":5126,
			"count":195,
			"type":"VEC2"
		},
		{
			"bufferView":27,
			"componentType":5123,
			"count":648,
			"type":"SCALAR"
		},
		{
			"bufferView":28,
			"componentType":5126,
			"count":510,
			"max":[
				-4.964494228363037,
				4.435336589813232,
				-3.035311222076416
			],
			"min":[
				-5.5669331550598145,
				3.593289375305176,
				-3.8773579597473145
			],
			"type":"VEC3"
		},
		{
			"bufferView":29,
			"componentType":5126,
			"count":510,
			"type":"VEC3"
		},
		{
			"bufferView":30,
			"componentType":5126,
			"count":510,
			"type":"VEC2"
		},
		{
			"bufferView":31,
			"componentType":5123,
			"count":1440,
			"type":"SCALAR"
		},
		{
			"bufferView":32,
			"componentType":5126,
			"count":766,
			"max":[
				1.9490457773208618,
				11.95818042755127,
				-2.009650945663452
			],
			"min":[
				-0.05095450580120087,
				8.90816879272461,
				-4.006818771362305
			],
			"type":"VEC3"
		},
		{
			"bufferView":33,
			"componentType":5126,
			"count":766,
			"type":"VEC3"
		},
		{
			"bufferView":34,
			"componentType":5126,
			"count":766,
			"type":"VEC2"
		},
		{
			"bufferView":35,
			"componentType":5123,
			"count":1644,
			"type":"SCALAR"
		},
		{
			"bufferView":36,
			"componentType":5126,
			"count":516,
			"max":[
				5.1484456062316895,
				10.131928443908691,
				0.8913021087646484
			],
			"min":[
				3.555654764175415,
				3.994929313659668,
				-1.111685037612915
			],
			"type":"VEC3"
		},
		{
			"bufferView":37,
			"componentType":5126,
			"count":516,
			"type":"VEC3"
		},
		{
			"bufferView":38,
			"componentType":5126,
			"count":516,
			"type":"VEC2"
		},
		{
			"bufferView":39,
			"componentType":5123,
			"count":1182,
			"type":"SCALAR"
		},
		{
			"bufferView":40,
			"componentType":5126,
			"count":228,
			"max":[
				1.0720298290252686,
				4.7553181648254395,
				2.8781278133392334
			],
			"min":[
				-5.107962131500244,
				-0.06225213780999184,
				-5.345350742340088
			],
			"type":"VEC3"
		},
		{
			"bufferView":41,
			"componentType":5126,
			"count":228,
			"type":"VEC3"
		},
		{
			"bufferView":42,
			"componentType":5126,
			"count":228,
			"type":"VEC2"
		},
		{
			"bufferView":43,
			"componentType":5123,
			"count":624,
			"type":"SCALAR"
		},
		{
			"bufferView":44,
			"componentType":5126,
			"count":12,
			"max":[
				0.6748751997947693,
				4.461389064788818,
				2.5641913414001465
			],
			"min":[
				-5.012136936187744,
				0.2153232991695404,
				-5.224124908447266
			],
			"type":"VEC3"
		},
		{
			"bufferView":45,
			"componentType":5126,
			"count":12,
			"type":"VEC3"
		},
		{
			"bufferView":46,
			"componentType":5126,
			"count":12,
			"type":"VEC2"
		},
		{
			"bufferView":47,
			"componentType":5123,
			"count":24,
			"type":"SCALAR"
		},
		{
			"bufferView":48,
			"componentType":5126,
			"count":324,
			"max":[
				1.0435833930969238,
				2.6357648372650146,
				-5.3128767013549805
			],
			"min":[
				-1.022910714149475,
				-0.12516942620277405,
				-5.473687648773193
			],
			"type":"VEC3"
		},
		{
			"bufferView":49,
			"componentType":5126,
			"count":324,
			"type":"VEC3"
		},
		{
			"bufferView":50,
			"componentType":5126,
			"count":324,
			"type":"VEC2"
		},
		{
			"bufferView":51,
			"componentType":5123,
			"count":564,
			"type":"SCALAR"
		},
		{
			"bufferView":52,
			"componentType":5126,
			"count":104,
			"max":[
				4.939809322357178,
				9.77306842803955,
				5.0259013175964355
			],
			"min":[
				-4.939809322357178,
				-0.030933991074562073,
				-5.043654441833496
			],
			"type":"VEC3"
		},
		{
			"bufferView":53,
			"componentType":5126,
			"count":104,
			"type":"VEC3"
		},
		{
			"bufferView":54,
			"componentType":5126,
			"count":104,
			"type":"VEC2"
		},
		{
			"bufferView":55,
			"componentType":5123,
			"count":348,
			"type":"SCALAR"
		},
		{
			"bufferView":56,
			"componentType":5126,
			"count":144,
			"max":[
				5.252788543701172,
				9.77306842803955,
				5.227837562561035
			],
			"min":[
				-5.252788543701172,
				-0.030933991074562073,
				-5.245590686798096
			],
			"type":"VEC3"
		},
		{
			"bufferView":57,
			"componentType":5126,
			"count":144,
			"type":"VEC3"
		},
		{
			"bufferView":58,
			"componentType":5126,
			"count":144,
			"type":"VEC2"
		},
		{
			"bufferView":59,
			"componentType":5123,
			"count":393,
			"type":"SCALAR"
		},
		{
			"bufferView":60,
			"componentType":5126,
			"count":162,
			"max":[
				5.51729679107666,
				9.893488883972168,
				5.756930351257324
			],
			"min":[
				-5.51729679107666,
				4.871067523956299,
				0.9860945343971252
			],
			"type":"VEC3"
		},
		{
			"bufferView":61,
			"componentType":5126,
			"count":162,
			"type":"VEC3"
		},
		{
			"bufferView":62,
			"componentType":5126,
			"count":162,
			"type":"VEC2"
		},
		{
			"bufferView":63,
			"componentType":5123,
			"count":375,
			"type":"SCALAR"
		}
	],
	"bufferViews":[
		{
			"buffer":0,
			"byteLength":288,
			"byteOffset":0,
			"target":34962
		},
		{
			"buffer":0,
			"byteLength":288,
			"byteOffset":288,
			"target":34962
		},
		{
			"buffer":0,
			"byteLength":192,
			"byteOffset":576,
			"target":34962
		},
		{
			"buffer":0,
			"byteLength":72,
			"byteOffset":768,
			"target":34963
		},
		{
			"buffer":0,
			"byteLength":23568,
			"byteOffset":840,
			"target":34962
		},
		{
			"buffer":0,
			"byteLength":23568,
			"byteOffset":24408,
			"target":34962
		},
		{
			"buffer":0,
			"byteLength":15712,
			"byteOffset":47976,
			"target":34962
		},
		{
			"buffer":0,
			"byteLength":10344,
			"byteOffset":63688,
			"target":34963
		},
		{
			"buffer":0,
			"byteLength":12228,
			"byteOffset":74032,
			"target":34962
		},
		{
			"buffer":0,
			"byteLength":12228,
			"byteOffset":86260,
			"target":34962
		},
		{
			"buffer":0,
			"byteLength":8152,
			"byteOffset":98488,
			"target":34962
		},
		{
			"buffer":0,
			"byteLength":7680,
			"byteOffset":106640,
			"target":34963
		},
		{
			"buffer":0,
			"byteLength":11304,
			"byteOffset":114320,
			"target":34962
		},
		{
			"buffer":0,
			"byteLength":11304,
			"byteOffset":125624,
			"target":34962
		},
		{
			"buffer":0,
			"byteLength":7536,
			"byteOffset":136928,
			"target":34962
		},
		{
			"buffer":0,
			"byteLength":6240,
			"byteOffset":144464,
			"target":34963
		},
		{
			"buffer":0,
			"byteLength":1224,
			"byteOffset":150704,
			"target":34962
		},
		{
			"buffer":0,
			"byteLength":1224,
			"byteOffset":151928,
			"target":34962
		},
		{
			"buffer":0,
			"byteLength":816,
			"byteOffset":153152,
			"target":34962
		},
		{
			"buffer":0,
			"byteLength":576,
			"byteOffset":153968,
			"target":34963
		},
		{
			"buffer":0,
			"byteLength":72,
			"byteOffset":154544,
			"target":34962
		},
		{
			"buffer":0,
			"byteLength":72,
			"byteOffset":154616,
			"target":34962
		},
		{
			"buffer":0,
			"byteLength":48,
			"byteOffset":154688,
			"target":34962
		},
		{
			"buffer":0,
			"byteLength":24,
			"byteOffset":154736,
			"target":34963
		},
		{
			"buffer":0,
			"byteLength":2340,
			"byteOffset":154760,
			"target":34962
		},
		{
			"buffer":0,
			"byteLength":2340,
			"byteOffset":157100,
			"target":34962
		},
		{
			"buffer":0,
			"byteLength":1560,
			"byteOffset":159440,
			"target":34962
		},
		{
			"buffer":0,
			"byteLength":1296,
			"byteOffset":161000,
			"target":34963
		},
		{
			"buffer":0,
			"byteLength":6120,
			"byteOffset":162296,
			"target":34962
		},
		{
			"buffer":0,
			"byteLength":6120,
			"byteOffset":168416,
			"target":34962
		},
		{
			"buffer":0,
			"byteLength":4080,
			"byteOffset":174536,
			"target":34962
		},
		{
			"buffer":0,
			"byteLength":2880,
			"byteOffset":178616,
			"target":34963
		},
		{
			"buffer":0,
			"byteLength":9192,
			"byteOffset":181496,
			"target":34962
		},
		{
			"buffer":0,
			"byteLength":9192,
			"byteOffset":190688,
			"target":34962
		},
		{
			"buffer":0,
			"byteLength":6128,
			"byteOffset":199880,
			"target":34962
		},
		{
			"buffer":0,
			"byteLength":3288,
			"byteOffset":206008,
			"target":34963
		},
		{
			"buffer":0,
			"byteLength":6192,
			"byteOffset":209296,
			"target":34962
		},
		{
			"buffer":0,
			"byteLength":6192,
			"byteOffset":215488,
			"target":34962
		},
		{
			"buffer":0,
			"byteLength":4128,
			"byteOffset":221680,
			"target":34962
		},
		{
			"buffer":0,
			"byteLength":2364,
			"byteOffset":225808,
			"target":34963
		},
		{
			"buffer":0,
			"byteLength":2736,
			"byteOffset":228172,
			"target":34962
		},
		{
			"buffer":0,
			"byteLength":2736,
			"byteOffset":230908,
			"target":34962
		},
		{
			"buffer":0,
			"byteLength":1824,
			"byteOffset":233644,
			"target":34962
		},
		{
			"buffer":0,
			"byteLength":1248,
			"byteOffset":235468,
			"target":34963
		},
		{
			"buffer":0,
			"byteLength":144,
			"byteOffset":236716,
			"target":34962
		},
		{
			"buffer":0,
			"byteLength":144,
			"byteOffset":236860,
			"target":34962
		},
		{
			"buffer":0,
			"byteLength":96,
			"byteOffset":237004,
			"target":34962
		},
		{
			"buffer":0,
			"byteLength":48,
			"byteOffset":237100,
			"target":34963
		},
		{
			"buffer":0,
			"byteLength":3888,
			"byteOffset":237148,
			"target":34962
		},
		{
			"buffer":0,
			"byteLength":3888,
			"byteOffset":241036,
			"target":34962
		},
		{
			"buffer":0,
			"byteLength":2592,
			"byteOffset":244924,
			"target":34962
		},
		{
			"buffer":0,
			"byteLength":1128,
			"byteOffset":247516,
			"target":34963
		},
		{
			"buffer":0,
			"byteLength":1248,
			"byteOffset":248644,
			"target":34962
		},
		{
			"buffer":0,
			"byteLength":1248,
			"byteOffset":249892,
			"target":34962
		},
		{
			"buffer":0,
			"byteLength":832,
			"byteOffset":251140,
			"target":34962
		},
		{
			"buffer":0,
			"byteLength":696,
			"byteOffset":251972,
			"target":34963
		},
		{
			"buffer":0,
			"byteLength":1728,
			"byteOffset":252668,
			"target":34962
		},
		{
			"buffer":0,
			"byteLength":1728,
			"byteOffset":254396,
			"target":34962
		},
		{
			"buffer":0,
			"byteLength":1152,
			"byteOffset":256124,
			"target":34962
		},
		{
			"buffer":0,
			"byteLength":786,
			"byteOffset":257276,
			"target":34963
		},
		{
			"buffer":0,
			"byteLength":1944,
			"byteOffset":258064,
			"target":34962
		},
		{
			"buffer":0,
			"byteLength":1944,
			"byteOffset":260008,
			"target":34962
		},
		{
			"buffer":0,
			"byteLength":1296,
			"byteOffset":261952,
			"target":34962
		},
		{
			"buffer":0,
			"byteLength":750,
			"byteOffset":263248,
			"target":34963
		}
	],
	"samplers":[
		{
			"magFilter":9729,
			"minFilter":9987
		}
	],
	"buffers":[
		{
			"byteLength":264000,
			"uri":"sm_building_nonentry_01.bin"
		}
	]
}
