{
    "asset": {
        "version": "2.0",
        "generator": "Open Asset Import Library (assimp v3.1.151885474)"
    },
    "accessors": [
        {
            "bufferView": 0,
            "byteOffset": 0,
            "componentType": 5126,
            "count": 633,
            "type": "VEC3",
            "max": [
                0.9109542369842529,
                1.7946202754974366,
                0.27310314774513247
            ],
            "min": [
                -0.9109538793563843,
                -5.960464477539063e-8,
                -0.27307531237602236
            ]
        },
        {
            "bufferView": 1,
            "byteOffset": 0,
            "componentType": 5126,
            "count": 633,
            "type": "VEC3",
            "max": [
                0.9992184638977051,
                1.0,
                1.0
            ],
            "min": [
                -0.9992184638977051,
                -1.0,
                -1.0
            ]
        },
        {
            "bufferView": 2,
            "byteOffset": 0,
            "componentType": 5126,
            "count": 633,
            "type": "VEC4",
            "max": [
                1.0,
                1.0,
                1.0,
                1.0
            ],
            "min": [
                -1.0,
                -1.0,
                -1.0,
                -1.0
            ]
        },
        {
            "bufferView": 3,
            "byteOffset": 0,
            "componentType": 5126,
            "count": 633,
            "type": "VEC2",
            "max": [
                0.9996271133422852,
                1.0001273155212403
            ],
            "min": [
                -4.273684695021984e-8,
                0.003180980682373047
            ]
        },
        {
            "bufferView": 4,
            "byteOffset": 0,
            "componentType": 5123,
            "count": 2148,
            "type": "SCALAR",
            "max": [
                632.0
            ],
            "min": [
                0.0
            ]
        }
    ],
    "buffers": [
        {
            "byteLength": 34680,
            "uri": "sm_message_board.bin"
        }
    ],
    "bufferViews": [
        {
            "buffer": 0,
            "byteOffset": 0,
            "byteLength": 7596,
            "target": 34962
        },
        {
            "buffer": 0,
            "byteOffset": 7596,
            "byteLength": 7596,
            "target": 34962
        },
        {
            "buffer": 0,
            "byteOffset": 15192,
            "byteLength": 10128,
            "target": 34962
        },
        {
            "buffer": 0,
            "byteOffset": 25320,
            "byteLength": 5064,
            "target": 34962
        },
        {
            "buffer": 0,
            "byteOffset": 30384,
            "byteLength": 4296,
            "target": 34963
        }
    ],
    "materials": [
        {
            "name": "lambert1",
            "pbrMetallicRoughness": {
                "baseColorFactor": [
                    0.5,
                    0.5,
                    0.5,
                    1.0
                ],
                "metallicFactor": 0.0,
                "roughnessFactor": 0.4500536322593689
            }
        }
    ],
    "meshes": [
        {
            "name": "sm_community_message_board",
            "primitives": [
                {
                    "mode": 4,
                    "material": 0,
                    "indices": 4,
                    "attributes": {
                        "POSITION": 0,
                        "NORMAL": 1,
                        "TANGENT": 2,
                        "TEXCOORD_0": 3
                    }
                }
            ]
        }
    ],
    "nodes": [
        {
            "name": "sm_community_message_board",
            "mesh": 0
        }
    ],
    "scenes": [
        {
            "nodes": [
                0
            ]
        }
    ],
    "scene": 0
}