{"asset":{"version":"2.0","generator":"babylon.js glTF exporter for Autodesk MAYA 2022.5.1 v20250428.5"},"scene":0,"scenes":[{"nodes":[0]}],"nodes":[{"mesh":0,"name":"sm_community_message_board"}],"meshes":[{"primitives":[{"attributes":{"POSITION":1,"NORMAL":2,"TEXCOORD_0":3},"indices":0,"material":0}],"name":"sm_community_message_board"}],"accessors":[{"bufferView":0,"componentType":5123,"count":2148,"type":"SCALAR","name":"accessorIndices"},{"bufferView":1,"componentType":5126,"count":629,"max":[0.9796162,2.1414392,0.29368794],"min":[-0.9796159,-1.32065506E-18,-0.293658],"type":"VEC3","name":"accessorPositions"},{"bufferView":1,"byteOffset":7548,"componentType":5126,"count":629,"type":"VEC3","name":"accessorNormals"},{"bufferView":2,"componentType":5126,"count":629,"type":"VEC2","name":"accessorUVs"}],"bufferViews":[{"buffer":0,"byteLength":4296,"name":"bufferViewScalar"},{"buffer":0,"byteOffset":4296,"byteLength":15096,"byteStride":12,"name":"bufferViewFloatVec3"},{"buffer":0,"byteOffset":19392,"byteLength":5032,"byteStride":8,"name":"bufferViewFloatVec2"}],"buffers":[{"uri":"sm_message_board.bin","byteLength":24424}],"materials":[{"pbrMetallicRoughness":{"baseColorFactor":[0.5,0.5,0.5,1.0],"metallicFactor":0.0,"roughnessFactor":0.450053632},"name":"lambert1"}]}