{
	"asset":{
		"generator":"Khronos glTF Blender I/O v4.3.47",
		"version":"2.0"
	},
	"extensionsUsed":[
		"KHR_materials_specular",
		"KHR_materials_ior"
	],
	"scene":0,
	"scenes":[
		{
			"name":"Scene",
			"nodes":[
				3
			]
		}
	],
	"nodes":[
		{
			"mesh":0,
			"name":"scifi-wind-turbine-base"
		},
		{
			"mesh":1,
			"name":"scifi-wind-turbine-main"
		},
		{
			"children":[
				0,
				1
			],
			"name":"scifi-wind-turbine",
			"translation":[
				130,
				0,
				-90
			]
		},
		{
			"children":[
				2
			],
			"name":"scifi-wind-turbine.001",
			"translation":[
				-130,
				0,
				90
			]
		}
	],
	"materials":[
		{
			"doubleSided":true,
			"extensions":{
				"KHR_materials_specular":{
					"specularFactor":0.20000000298023224
				},
				"KHR_materials_ior":{
					"ior":1.4500000476837158
				}
			},
			"name":"20 GREY",
			"pbrMetallicRoughness":{
				"baseColorFactor":[
					0.24228118360042572,
					0.22322796285152435,
					0.22322799265384674,
					1
				],
				"metallicFactor":0,
				"roughnessFactor":0.5
			}
		},
		{
			"doubleSided":true,
			"extensions":{
				"KHR_materials_specular":{
					"specularFactor":0.20000000298023224
				},
				"KHR_materials_ior":{
					"ior":1.4500000476837158
				}
			},
			"name":"17 GREY-DARKEST",
			"pbrMetallicRoughness":{
				"baseColorFactor":[
					0.028426043689250946,
					0.02842603623867035,
					0.02842603623867035,
					1
				],
				"metallicFactor":0,
				"roughnessFactor":0.5
			}
		}
	],
	"meshes":[
		{
			"name":"scifi-wind-turbine-base",
			"primitives":[
				{
					"attributes":{
						"POSITION":0,
						"NORMAL":1,
						"TEXCOORD_0":2
					},
					"indices":3,
					"material":0
				},
				{
					"attributes":{
						"POSITION":4,
						"NORMAL":5,
						"TEXCOORD_0":6
					},
					"indices":7,
					"material":1
				}
			]
		},
		{
			"name":"scifi-wind-turbine-main",
			"primitives":[
				{
					"attributes":{
						"POSITION":8,
						"NORMAL":9,
						"TEXCOORD_0":10
					},
					"indices":11,
					"material":0
				}
			]
		}
	],
	"accessors":[
		{
			"bufferView":0,
			"componentType":5126,
			"count":120,
			"max":[
				0.18833816051483154,
				0.4771389067173004,
				0.2174641489982605
			],
			"min":[
				-0.18834038078784943,
				-0.004572492558509111,
				-0.21748672425746918
			],
			"type":"VEC3"
		},
		{
			"bufferView":1,
			"componentType":5126,
			"count":120,
			"type":"VEC3"
		},
		{
			"bufferView":2,
			"componentType":5126,
			"count":120,
			"type":"VEC2"
		},
		{
			"bufferView":3,
			"componentType":5123,
			"count":180,
			"type":"SCALAR"
		},
		{
			"bufferView":4,
			"componentType":5126,
			"count":54,
			"max":[
				0.18833816051483154,
				0.423618346452713,
				0.2174641489982605
			],
			"min":[
				-0.18834038078784943,
				-0.004572492558509111,
				-0.21748672425746918
			],
			"type":"VEC3"
		},
		{
			"bufferView":5,
			"componentType":5126,
			"count":54,
			"type":"VEC3"
		},
		{
			"bufferView":6,
			"componentType":5126,
			"count":54,
			"type":"VEC2"
		},
		{
			"bufferView":7,
			"componentType":5123,
			"count":84,
			"type":"SCALAR"
		},
		{
			"bufferView":8,
			"componentType":5126,
			"count":406,
			"max":[
				0.521255373954773,
				2.5311923027038574,
				0.5322996973991394
			],
			"min":[
				-0.5308919548988342,
				0.3047308623790741,
				-0.5226850509643555
			],
			"type":"VEC3"
		},
		{
			"bufferView":9,
			"componentType":5126,
			"count":406,
			"type":"VEC3"
		},
		{
			"bufferView":10,
			"componentType":5126,
			"count":406,
			"type":"VEC2"
		},
		{
			"bufferView":11,
			"componentType":5123,
			"count":612,
			"type":"SCALAR"
		}
	],
	"bufferViews":[
		{
			"buffer":0,
			"byteLength":1440,
			"byteOffset":0,
			"target":34962
		},
		{
			"buffer":0,
			"byteLength":1440,
			"byteOffset":1440,
			"target":34962
		},
		{
			"buffer":0,
			"byteLength":960,
			"byteOffset":2880,
			"target":34962
		},
		{
			"buffer":0,
			"byteLength":360,
			"byteOffset":3840,
			"target":34963
		},
		{
			"buffer":0,
			"byteLength":648,
			"byteOffset":4200,
			"target":34962
		},
		{
			"buffer":0,
			"byteLength":648,
			"byteOffset":4848,
			"target":34962
		},
		{
			"buffer":0,
			"byteLength":432,
			"byteOffset":5496,
			"target":34962
		},
		{
			"buffer":0,
			"byteLength":168,
			"byteOffset":5928,
			"target":34963
		},
		{
			"buffer":0,
			"byteLength":4872,
			"byteOffset":6096,
			"target":34962
		},
		{
			"buffer":0,
			"byteLength":4872,
			"byteOffset":10968,
			"target":34962
		},
		{
			"buffer":0,
			"byteLength":3248,
			"byteOffset":15840,
			"target":34962
		},
		{
			"buffer":0,
			"byteLength":1224,
			"byteOffset":19088,
			"target":34963
		}
	],
	"buffers":[
		{
			"byteLength":20312,
			"uri":"sm_wind_turbine.bin"
		}
	]
}
