{
	"asset":{
		"generator":"Khronos glTF Blender I/O v4.3.47",
		"version":"2.0"
	},
	"scene":0,
	"scenes":[
		{
			"name":"Scene",
			"nodes":[
				0
			]
		}
	],
	"nodes":[
		{
			"mesh":0,
			"name":"tweenBase_LP",
			"rotation":[
				0.7071068286895752,
				0,
				0,
				0.7071068286895752
			],
			"scale":[
				0.007233541924506426,
				0.007233541924506426,
				0.007233541924506426
			],
			"translation":[
				0,
				1.0388767719268799,
				-0.015654664486646652
			]
		}
	],
	"materials":[
		{
			"doubleSided":true,
			"name":"standardSurface1",
			"pbrMetallicRoughness":{
				"metallicFactor":0,
				"roughnessFactor":0.5527864098548889
			}
		}
	],
	"meshes":[
		{
			"name":"Mesh",
			"primitives":[
				{
					"attributes":{
						"POSITION":0,
						"NORMAL":1,
						"TEXCOORD_0":2
					},
					"indices":3,
					"material":0
				}
			]
		}
	],
	"accessors":[
		{
			"bufferView":0,
			"componentType":5126,
			"count":2694,
			"max":[
				86.07313537597656,
				21.723337173461914,
				143.8340301513672
			],
			"min":[
				-86.07313537597656,
				-16.86683464050293,
				-74.81936645507812
			],
			"type":"VEC3"
		},
		{
			"bufferView":1,
			"componentType":5126,
			"count":2694,
			"type":"VEC3"
		},
		{
			"bufferView":2,
			"componentType":5126,
			"count":2694,
			"type":"VEC2"
		},
		{
			"bufferView":3,
			"componentType":5123,
			"count":13656,
			"type":"SCALAR"
		}
	],
	"bufferViews":[
		{
			"buffer":0,
			"byteLength":32328,
			"byteOffset":0,
			"target":34962
		},
		{
			"buffer":0,
			"byteLength":32328,
			"byteOffset":32328,
			"target":34962
		},
		{
			"buffer":0,
			"byteLength":21552,
			"byteOffset":64656,
			"target":34962
		},
		{
			"buffer":0,
			"byteLength":27312,
			"byteOffset":86208,
			"target":34963
		}
	],
	"buffers":[
		{
			"byteLength":113520,
			"uri":"sk_npc_placeholder.bin"
		}
	]
}
