{"asset":{"version":"2.0","generator":"babylon.js glTF exporter for Autodesk MAYA 2022.5.1 v20250428.5"},"scene":0,"scenes":[{"nodes":[0]}],"nodes":[{"mesh":0,"name":"sm_foodstand"}],"meshes":[{"primitives":[{"attributes":{"POSITION":1,"TANGENT":2,"NORMAL":3,"TEXCOORD_0":4},"indices":0,"material":0}],"name":"sm_foodstand"}],"accessors":[{"bufferView":0,"componentType":5123,"count":10806,"type":"SCALAR","name":"accessorIndices"},{"bufferView":1,"componentType":5126,"count":5378,"max":[1.00953329,2.123407,0.813992143],"min":[-1.09299219,-1.49011612E-08,-0.27799502],"type":"VEC3","name":"accessorPositions"},{"bufferView":2,"componentType":5126,"count":5378,"type":"VEC4","name":"accessorTangents"},{"bufferView":1,"byteOffset":64536,"componentType":5126,"count":5378,"type":"VEC3","name":"accessorNormals"},{"bufferView":3,"componentType":5126,"count":5378,"type":"VEC2","name":"accessorUVs"}],"bufferViews":[{"buffer":0,"byteLength":21612,"name":"bufferViewScalar"},{"buffer":0,"byteOffset":21612,"byteLength":129072,"byteStride":12,"name":"bufferViewFloatVec3"},{"buffer":0,"byteOffset":150684,"byteLength":86048,"byteStride":16,"name":"bufferViewFloatVec4"},{"buffer":0,"byteOffset":236732,"byteLength":43024,"byteStride":8,"name":"bufferViewFloatVec2"}],"buffers":[{"uri":"sm_foodstand_grp.bin","byteLength":279756}],"materials":[{"pbrMetallicRoughness":{"baseColorFactor":[0.5,0.5,0.5,1.0],"metallicFactor":0.0,"roughnessFactor":0.450053632},"name":"lambert1"}]}