{
	"asset":{
		"generator":"Khronos glTF Blender I/O v4.3.47",
		"version":"2.0"
	},
	"scene":0,
	"scenes":[
		{
			"name":"Scene",
			"nodes":[
				5,
				6
			]
		}
	],
	"nodes":[
		{
			"name":"CSGBox3D",
			"translation":[
				-7.215339660644531,
				0,
				16.482200622558594
			]
		},
		{
			"name":"CSGBox3D2",
			"translation":[
				-16.81769561767578,
				0,
				37.681800842285156
			]
		},
		{
			"name":"CSGBox3D3",
			"translation":[
				4.8005218505859375,
				0,
				11.429100036621094
			]
		},
		{
			"name":"CSGBox3D4",
			"translation":[
				6.018119812011719,
				0,
				-9.253310203552246
			]
		},
		{
			"name":"CSGBox3D5",
			"translation":[
				16.633399963378906,
				0,
				-86.95040130615234
			]
		},
		{
			"children":[
				0,
				1,
				2,
				3,
				4
			],
			"mesh":0,
			"name":"WaterCut2",
			"scale":[
				1,
				8,
				1
			],
			"translation":[
				-68.62938690185547,
				-3,
				-15.405867576599121
			]
		},
		{
			"mesh":1,
			"name":"Cube",
			"scale":[
				100,
				5,
				100
			],
			"translation":[
				0,
				-5,
				0
			]
		}
	],
	"materials":[
		{
			"name":"Material_0.002",
			"pbrMetallicRoughness":{
				"baseColorFactor":[
					0,
					0.2622510492801666,
					1,
					1
				],
				"metallicFactor":0
			}
		}
	],
	"meshes":[
		{
			"name":"Mesh_0.002",
			"primitives":[
				{
					"attributes":{
						"POSITION":0,
						"NORMAL":1,
						"TEXCOORD_0":2
					},
					"indices":3,
					"material":0
				}
			]
		},
		{
			"name":"Cube.001",
			"primitives":[
				{
					"attributes":{
						"POSITION":4,
						"NORMAL":5,
						"TEXCOORD_0":6
					},
					"indices":7
				}
			]
		}
	],
	"accessors":[
		{
			"bufferView":0,
			"componentType":5126,
			"count":276,
			"max":[
				24.005399703979492,
				0.5,
				110.70053100585938
			],
			"min":[
				-22.603349685668945,
				-0.5,
				-140.568603515625
			],
			"type":"VEC3"
		},
		{
			"bufferView":1,
			"componentType":5126,
			"count":276,
			"type":"VEC3"
		},
		{
			"bufferView":2,
			"componentType":5126,
			"count":276,
			"type":"VEC2"
		},
		{
			"bufferView":3,
			"componentType":5123,
			"count":276,
			"type":"SCALAR"
		},
		{
			"bufferView":4,
			"componentType":5126,
			"count":219,
			"max":[
				1,
				1,
				1
			],
			"min":[
				-1,
				-0.9999998807907104,
				-1
			],
			"type":"VEC3"
		},
		{
			"bufferView":5,
			"componentType":5126,
			"count":219,
			"type":"VEC3"
		},
		{
			"bufferView":6,
			"componentType":5126,
			"count":219,
			"type":"VEC2"
		},
		{
			"bufferView":7,
			"componentType":5123,
			"count":426,
			"type":"SCALAR"
		}
	],
	"bufferViews":[
		{
			"buffer":0,
			"byteLength":3312,
			"byteOffset":0,
			"target":34962
		},
		{
			"buffer":0,
			"byteLength":3312,
			"byteOffset":3312,
			"target":34962
		},
		{
			"buffer":0,
			"byteLength":2208,
			"byteOffset":6624,
			"target":34962
		},
		{
			"buffer":0,
			"byteLength":552,
			"byteOffset":8832,
			"target":34963
		},
		{
			"buffer":0,
			"byteLength":2628,
			"byteOffset":9384,
			"target":34962
		},
		{
			"buffer":0,
			"byteLength":2628,
			"byteOffset":12012,
			"target":34962
		},
		{
			"buffer":0,
			"byteLength":1752,
			"byteOffset":14640,
			"target":34962
		},
		{
			"buffer":0,
			"byteLength":852,
			"byteOffset":16392,
			"target":34963
		}
	],
	"buffers":[
		{
			"byteLength":17244,
			"uri":"sm_river_bank.bin"
		}
	]
}
