{
	"asset":{
		"generator":"Khronos glTF Blender I/O v4.4.56",
		"version":"2.0"
	},
	"scene":0,
	"scenes":[
		{
			"name":"Scene",
			"nodes":[
				1,
				3
			]
		}
	],
	"nodes":[
		{
			"mesh":0,
			"name":"collision_nonentry_02-colonly"
		},
		{
			"children":[
				0
			],
			"name":"coll_nonentry_02-colonly"
		},
		{
			"mesh":1,
			"name":"sm_building_nonentry_02",
			"rotation":[
				0,
				-0.7095864415168762,
				0,
				0.7046183943748474
			]
		},
		{
			"children":[
				2
			],
			"name":"mesh_nonentry_02"
		}
	],
	"materials":[
		{
			"doubleSided":true,
			"name":"M_Collision",
			"pbrMetallicRoughness":{
				"baseColorFactor":[
					0.8002356290817261,
					0,
					0.004787445068359375,
					1
				],
				"metallicFactor":0,
				"roughnessFactor":0.5
			}
		},
		{
			"doubleSided":true,
			"name":"t_nonentry_02",
			"normalTexture":{
				"index":0
			},
			"pbrMetallicRoughness":{
				"baseColorTexture":{
					"index":1
				},
				"metallicFactor":0,
				"roughnessFactor":0.5
			}
		},
		{
			"doubleSided":true,
			"name":"t_nonentryroof",
			"normalTexture":{
				"index":2
			},
			"pbrMetallicRoughness":{
				"baseColorTexture":{
					"index":3
				},
				"metallicFactor":0,
				"roughnessFactor":0.5
			}
		},
		{
			"doubleSided":true,
			"name":"t_nonentry_window_02",
			"normalTexture":{
				"index":4
			},
			"pbrMetallicRoughness":{
				"baseColorTexture":{
					"index":5
				},
				"metallicFactor":0,
				"roughnessFactor":0.5
			}
		},
		{
			"doubleSided":true,
			"name":"t_window_circular",
			"normalTexture":{
				"index":6
			},
			"pbrMetallicRoughness":{
				"baseColorTexture":{
					"index":7
				},
				"metallicFactor":0,
				"roughnessFactor":0.5
			}
		},
		{
			"doubleSided":true,
			"name":"t_window_circular_glass",
			"normalTexture":{
				"index":8
			},
			"pbrMetallicRoughness":{
				"baseColorTexture":{
					"index":9
				},
				"metallicFactor":0,
				"roughnessFactor":0.5
			}
		},
		{
			"doubleSided":true,
			"name":"t_electicpole.001",
			"normalTexture":{
				"index":10
			},
			"pbrMetallicRoughness":{
				"baseColorTexture":{
					"index":11
				},
				"metallicFactor":0,
				"roughnessFactor":0.5
			}
		},
		{
			"doubleSided":true,
			"name":"t_cable.001",
			"normalTexture":{
				"index":12
			},
			"pbrMetallicRoughness":{
				"baseColorTexture":{
					"index":13
				},
				"metallicFactor":0,
				"roughnessFactor":0.5
			}
		},
		{
			"doubleSided":true,
			"name":"PaintedMetal013 2K.001",
			"normalTexture":{
				"index":14
			},
			"pbrMetallicRoughness":{
				"baseColorTexture":{
					"index":15
				},
				"metallicFactor":0,
				"roughnessFactor":0.5
			}
		},
		{
			"doubleSided":true,
			"name":"pipewelds",
			"normalTexture":{
				"index":16
			},
			"pbrMetallicRoughness":{
				"baseColorTexture":{
					"index":17
				},
				"metallicFactor":0,
				"roughnessFactor":0.5
			}
		},
		{
			"doubleSided":true,
			"name":"MetalPlates010 1K.001",
			"normalTexture":{
				"index":18
			},
			"pbrMetallicRoughness":{
				"baseColorTexture":{
					"index":19
				},
				"metallicFactor":0,
				"roughnessFactor":0.5
			}
		},
		{
			"doubleSided":true,
			"name":"t_nonentry_02_door_frame",
			"normalTexture":{
				"index":20
			},
			"pbrMetallicRoughness":{
				"baseColorTexture":{
					"index":21
				},
				"metallicFactor":0,
				"roughnessFactor":0.5
			}
		},
		{
			"doubleSided":true,
			"name":"t_nonentry_02_door",
			"normalTexture":{
				"index":22
			},
			"pbrMetallicRoughness":{
				"baseColorTexture":{
					"index":23
				},
				"metallicFactor":0,
				"roughnessFactor":0.5
			}
		},
		{
			"doubleSided":true,
			"name":"t_generator",
			"normalTexture":{
				"index":24
			},
			"pbrMetallicRoughness":{
				"baseColorTexture":{
					"index":25
				},
				"metallicFactor":0,
				"roughnessFactor":0.5
			}
		},
		{
			"doubleSided":true,
			"name":"t_generatorpanles",
			"normalTexture":{
				"index":26
			},
			"pbrMetallicRoughness":{
				"baseColorTexture":{
					"index":27
				},
				"metallicFactor":0,
				"roughnessFactor":0.5
			}
		}
	],
	"meshes":[
		{
			"name":"Cube.023",
			"primitives":[
				{
					"attributes":{
						"POSITION":0,
						"NORMAL":1,
						"TEXCOORD_0":2
					},
					"indices":3,
					"material":0
				}
			]
		},
		{
			"name":"Cube.018",
			"primitives":[
				{
					"attributes":{
						"POSITION":4,
						"NORMAL":5,
						"TEXCOORD_0":6
					},
					"indices":7,
					"material":1
				},
				{
					"attributes":{
						"POSITION":8,
						"NORMAL":9,
						"TEXCOORD_0":10
					},
					"indices":11,
					"material":2
				},
				{
					"attributes":{
						"POSITION":12,
						"NORMAL":13,
						"TEXCOORD_0":14
					},
					"indices":15,
					"material":3
				},
				{
					"attributes":{
						"POSITION":16,
						"NORMAL":17,
						"TEXCOORD_0":18
					},
					"indices":19,
					"material":4
				},
				{
					"attributes":{
						"POSITION":20,
						"NORMAL":21,
						"TEXCOORD_0":22
					},
					"indices":23,
					"material":5
				},
				{
					"attributes":{
						"POSITION":24,
						"NORMAL":25,
						"TEXCOORD_0":26
					},
					"indices":27,
					"material":6
				},
				{
					"attributes":{
						"POSITION":28,
						"NORMAL":29,
						"TEXCOORD_0":30
					},
					"indices":31,
					"material":7
				},
				{
					"attributes":{
						"POSITION":32,
						"NORMAL":33,
						"TEXCOORD_0":34
					},
					"indices":35,
					"material":8
				},
				{
					"attributes":{
						"POSITION":36,
						"NORMAL":37,
						"TEXCOORD_0":38
					},
					"indices":39,
					"material":9
				},
				{
					"attributes":{
						"POSITION":40,
						"NORMAL":41,
						"TEXCOORD_0":42
					},
					"indices":43,
					"material":10
				},
				{
					"attributes":{
						"POSITION":44,
						"NORMAL":45,
						"TEXCOORD_0":46
					},
					"indices":47,
					"material":11
				},
				{
					"attributes":{
						"POSITION":48,
						"NORMAL":49,
						"TEXCOORD_0":50
					},
					"indices":51,
					"material":12
				},
				{
					"attributes":{
						"POSITION":52,
						"NORMAL":53,
						"TEXCOORD_0":54
					},
					"indices":55,
					"material":13
				},
				{
					"attributes":{
						"POSITION":56,
						"NORMAL":57,
						"TEXCOORD_0":58
					},
					"indices":59,
					"material":14
				}
			]
		}
	],
	"textures":[
		{
			"sampler":0,
			"source":0
		},
		{
			"sampler":0,
			"source":1
		},
		{
			"sampler":0,
			"source":0
		},
		{
			"sampler":0,
			"source":1
		},
		{
			"sampler":0,
			"source":0
		},
		{
			"sampler":0,
			"source":1
		},
		{
			"sampler":0,
			"source":0
		},
		{
			"sampler":0,
			"source":1
		},
		{
			"sampler":0,
			"source":0
		},
		{
			"sampler":0,
			"source":1
		},
		{
			"sampler":0,
			"source":0
		},
		{
			"sampler":0,
			"source":1
		},
		{
			"sampler":0,
			"source":0
		},
		{
			"sampler":0,
			"source":1
		},
		{
			"sampler":0,
			"source":0
		},
		{
			"sampler":0,
			"source":1
		},
		{
			"sampler":0,
			"source":0
		},
		{
			"sampler":0,
			"source":1
		},
		{
			"sampler":0,
			"source":0
		},
		{
			"sampler":0,
			"source":1
		},
		{
			"sampler":0,
			"source":0
		},
		{
			"sampler":0,
			"source":1
		},
		{
			"sampler":0,
			"source":0
		},
		{
			"sampler":0,
			"source":1
		},
		{
			"sampler":0,
			"source":0
		},
		{
			"sampler":0,
			"source":1
		},
		{
			"sampler":0,
			"source":0
		},
		{
			"sampler":0,
			"source":1
		}
	],
	"images":[
		{
			"mimeType":"image/png",
			"name":"sm_nonentry_02_Normal_DirectX",
			"uri":"sm_nonentry_02_Normal_DirectX.png"
		},
		{
			"mimeType":"image/png",
			"name":"sm_nonentry_02_Base_Color",
			"uri":"sm_nonentry_02_Base_Color.png"
		}
	],
	"accessors":[
		{
			"bufferView":0,
			"componentType":5126,
			"count":24,
			"max":[
				8.492919921875,
				13.053926467895508,
				4.5860795974731445
			],
			"min":[
				-7.217883110046387,
				0.1745975911617279,
				-4.5860795974731445
			],
			"type":"VEC3"
		},
		{
			"bufferView":1,
			"componentType":5126,
			"count":24,
			"type":"VEC3"
		},
		{
			"bufferView":2,
			"componentType":5126,
			"count":24,
			"type":"VEC2"
		},
		{
			"bufferView":3,
			"componentType":5123,
			"count":36,
			"type":"SCALAR"
		},
		{
			"bufferView":4,
			"componentType":5126,
			"count":535,
			"max":[
				3.9161415100097656,
				12.029870986938477,
				6.5440826416015625
			],
			"min":[
				-3.803846836090088,
				0.2549847364425659,
				-8.061067581176758
			],
			"type":"VEC3"
		},
		{
			"bufferView":5,
			"componentType":5126,
			"count":535,
			"type":"VEC3"
		},
		{
			"bufferView":6,
			"componentType":5126,
			"count":535,
			"type":"VEC2"
		},
		{
			"bufferView":7,
			"componentType":5123,
			"count":1095,
			"type":"SCALAR"
		},
		{
			"bufferView":8,
			"componentType":5126,
			"count":184,
			"max":[
				4.345432758331299,
				12.398737907409668,
				5.465686798095703
			],
			"min":[
				-2.8659634590148926,
				0.2340712547302246,
				-5.467328071594238
			],
			"type":"VEC3"
		},
		{
			"bufferView":9,
			"componentType":5126,
			"count":184,
			"type":"VEC3"
		},
		{
			"bufferView":10,
			"componentType":5126,
			"count":184,
			"type":"VEC2"
		},
		{
			"bufferView":11,
			"componentType":5123,
			"count":396,
			"type":"SCALAR"
		},
		{
			"bufferView":12,
			"componentType":5126,
			"count":16,
			"max":[
				1.566485047340393,
				11.47072696685791,
				5.570078372955322
			],
			"min":[
				-3.41648268699646,
				5.524504661560059,
				-6.954743385314941
			],
			"type":"VEC3"
		},
		{
			"bufferView":13,
			"componentType":5126,
			"count":16,
			"type":"VEC3"
		},
		{
			"bufferView":14,
			"componentType":5126,
			"count":16,
			"type":"VEC2"
		},
		{
			"bufferView":15,
			"componentType":5123,
			"count":30,
			"type":"SCALAR"
		},
		{
			"bufferView":16,
			"componentType":5126,
			"count":534,
			"max":[
				2.0326526165008545,
				10.115724563598633,
				4.164683818817139
			],
			"min":[
				1.7718305587768555,
				7.926533222198486,
				-3.1099863052368164
			],
			"type":"VEC3"
		},
		{
			"bufferView":17,
			"componentType":5126,
			"count":534,
			"type":"VEC3"
		},
		{
			"bufferView":18,
			"componentType":5126,
			"count":534,
			"type":"VEC2"
		},
		{
			"bufferView":19,
			"componentType":5123,
			"count":1608,
			"type":"SCALAR"
		},
		{
			"bufferView":20,
			"componentType":5126,
			"count":320,
			"max":[
				1.9166511297225952,
				9.800159454345703,
				3.8280398845672607
			],
			"min":[
				1.8690903186798096,
				8.247142791748047,
				-2.77189040184021
			],
			"type":"VEC3"
		},
		{
			"bufferView":21,
			"componentType":5126,
			"count":320,
			"type":"VEC3"
		},
		{
			"bufferView":22,
			"componentType":5126,
			"count":320,
			"type":"VEC2"
		},
		{
			"bufferView":23,
			"componentType":5123,
			"count":480,
			"type":"SCALAR"
		},
		{
			"bufferView":24,
			"componentType":5126,
			"count":780,
			"max":[
				3.250123977661133,
				11.02893352508545,
				5.251052379608154
			],
			"min":[
				2.3734829425811768,
				6.222845077514648,
				4.292213439941406
			],
			"type":"VEC3"
		},
		{
			"bufferView":25,
			"componentType":5126,
			"count":780,
			"type":"VEC3"
		},
		{
			"bufferView":26,
			"componentType":5126,
			"count":780,
			"type":"VEC2"
		},
		{
			"bufferView":27,
			"componentType":5123,
			"count":2316,
			"type":"SCALAR"
		},
		{
			"bufferView":28,
			"componentType":5126,
			"count":1021,
			"max":[
				3.146989107131958,
				10.48165512084961,
				4.920995235443115
			],
			"min":[
				2.455575704574585,
				7.547374248504639,
				4.625879764556885
			],
			"type":"VEC3"
		},
		{
			"bufferView":29,
			"componentType":5126,
			"count":1021,
			"type":"VEC3"
		},
		{
			"bufferView":30,
			"componentType":5126,
			"count":1021,
			"type":"VEC2"
		},
		{
			"bufferView":31,
			"componentType":5123,
			"count":3840,
			"type":"SCALAR"
		},
		{
			"bufferView":32,
			"componentType":5126,
			"count":318,
			"max":[
				0.22029323875904083,
				11.894299507141113,
				6.902791976928711
			],
			"min":[
				-2.003767490386963,
				5.819236755371094,
				5.879205703735352
			],
			"type":"VEC3"
		},
		{
			"bufferView":33,
			"componentType":5126,
			"count":318,
			"type":"VEC3"
		},
		{
			"bufferView":34,
			"componentType":5126,
			"count":318,
			"type":"VEC2"
		},
		{
			"bufferView":35,
			"componentType":5123,
			"count":1032,
			"type":"SCALAR"
		},
		{
			"bufferView":36,
			"componentType":5126,
			"count":1241,
			"max":[
				2.196267604827881,
				12.26664924621582,
				7.084831714630127
			],
			"min":[
				-0.7808692455291748,
				4.556133270263672,
				3.8995578289031982
			],
			"type":"VEC3"
		},
		{
			"bufferView":37,
			"componentType":5126,
			"count":1241,
			"type":"VEC3"
		},
		{
			"bufferView":38,
			"componentType":5126,
			"count":1241,
			"type":"VEC2"
		},
		{
			"bufferView":39,
			"componentType":5123,
			"count":3420,
			"type":"SCALAR"
		},
		{
			"bufferView":40,
			"componentType":5126,
			"count":216,
			"max":[
				0.28306519985198975,
				11.95681095123291,
				6.938907146453857
			],
			"min":[
				-1.9959368705749512,
				5.7684831619262695,
				5.852016448974609
			],
			"type":"VEC3"
		},
		{
			"bufferView":41,
			"componentType":5126,
			"count":216,
			"type":"VEC3"
		},
		{
			"bufferView":42,
			"componentType":5126,
			"count":216,
			"type":"VEC2"
		},
		{
			"bufferView":43,
			"componentType":5123,
			"count":360,
			"type":"SCALAR"
		},
		{
			"bufferView":44,
			"componentType":5126,
			"count":235,
			"max":[
				1.027055025100708,
				3.690859079360962,
				-7.553231716156006
			],
			"min":[
				-1.135457992553711,
				0.26825129985809326,
				-8.009099960327148
			],
			"type":"VEC3"
		},
		{
			"bufferView":45,
			"componentType":5126,
			"count":235,
			"type":"VEC3"
		},
		{
			"bufferView":46,
			"componentType":5126,
			"count":235,
			"type":"VEC2"
		},
		{
			"bufferView":47,
			"componentType":5123,
			"count":702,
			"type":"SCALAR"
		},
		{
			"bufferView":48,
			"componentType":5126,
			"count":143,
			"max":[
				0.6272268891334534,
				3.31901478767395,
				-7.957935810089111
			],
			"min":[
				-0.7388379573822021,
				0.5458267331123352,
				-8.079383850097656
			],
			"type":"VEC3"
		},
		{
			"bufferView":49,
			"componentType":5126,
			"count":143,
			"type":"VEC3"
		},
		{
			"bufferView":50,
			"componentType":5126,
			"count":143,
			"type":"VEC2"
		},
		{
			"bufferView":51,
			"componentType":5123,
			"count":348,
			"type":"SCALAR"
		},
		{
			"bufferView":52,
			"componentType":5126,
			"count":1330,
			"max":[
				0.5911703109741211,
				13.093831062316895,
				4.541104316711426
			],
			"min":[
				-1.1781914234161377,
				10.748677253723145,
				2.4616940021514893
			],
			"type":"VEC3"
		},
		{
			"bufferView":53,
			"componentType":5126,
			"count":1330,
			"type":"VEC3"
		},
		{
			"bufferView":54,
			"componentType":5126,
			"count":1330,
			"type":"VEC2"
		},
		{
			"bufferView":55,
			"componentType":5123,
			"count":2760,
			"type":"SCALAR"
		},
		{
			"bufferView":56,
			"componentType":5126,
			"count":8,
			"max":[
				0.3454340696334839,
				13.048868179321289,
				4.341467380523682
			],
			"min":[
				-1.0195943117141724,
				12.444302558898926,
				2.6626057624816895
			],
			"type":"VEC3"
		},
		{
			"bufferView":57,
			"componentType":5126,
			"count":8,
			"type":"VEC3"
		},
		{
			"bufferView":58,
			"componentType":5126,
			"count":8,
			"type":"VEC2"
		},
		{
			"bufferView":59,
			"componentType":5123,
			"count":12,
			"type":"SCALAR"
		}
	],
	"bufferViews":[
		{
			"buffer":0,
			"byteLength":288,
			"byteOffset":0,
			"target":34962
		},
		{
			"buffer":0,
			"byteLength":288,
			"byteOffset":288,
			"target":34962
		},
		{
			"buffer":0,
			"byteLength":192,
			"byteOffset":576,
			"target":34962
		},
		{
			"buffer":0,
			"byteLength":72,
			"byteOffset":768,
			"target":34963
		},
		{
			"buffer":0,
			"byteLength":6420,
			"byteOffset":840,
			"target":34962
		},
		{
			"buffer":0,
			"byteLength":6420,
			"byteOffset":7260,
			"target":34962
		},
		{
			"buffer":0,
			"byteLength":4280,
			"byteOffset":13680,
			"target":34962
		},
		{
			"buffer":0,
			"byteLength":2190,
			"byteOffset":17960,
			"target":34963
		},
		{
			"buffer":0,
			"byteLength":2208,
			"byteOffset":20152,
			"target":34962
		},
		{
			"buffer":0,
			"byteLength":2208,
			"byteOffset":22360,
			"target":34962
		},
		{
			"buffer":0,
			"byteLength":1472,
			"byteOffset":24568,
			"target":34962
		},
		{
			"buffer":0,
			"byteLength":792,
			"byteOffset":26040,
			"target":34963
		},
		{
			"buffer":0,
			"byteLength":192,
			"byteOffset":26832,
			"target":34962
		},
		{
			"buffer":0,
			"byteLength":192,
			"byteOffset":27024,
			"target":34962
		},
		{
			"buffer":0,
			"byteLength":128,
			"byteOffset":27216,
			"target":34962
		},
		{
			"buffer":0,
			"byteLength":60,
			"byteOffset":27344,
			"target":34963
		},
		{
			"buffer":0,
			"byteLength":6408,
			"byteOffset":27404,
			"target":34962
		},
		{
			"buffer":0,
			"byteLength":6408,
			"byteOffset":33812,
			"target":34962
		},
		{
			"buffer":0,
			"byteLength":4272,
			"byteOffset":40220,
			"target":34962
		},
		{
			"buffer":0,
			"byteLength":3216,
			"byteOffset":44492,
			"target":34963
		},
		{
			"buffer":0,
			"byteLength":3840,
			"byteOffset":47708,
			"target":34962
		},
		{
			"buffer":0,
			"byteLength":3840,
			"byteOffset":51548,
			"target":34962
		},
		{
			"buffer":0,
			"byteLength":2560,
			"byteOffset":55388,
			"target":34962
		},
		{
			"buffer":0,
			"byteLength":960,
			"byteOffset":57948,
			"target":34963
		},
		{
			"buffer":0,
			"byteLength":9360,
			"byteOffset":58908,
			"target":34962
		},
		{
			"buffer":0,
			"byteLength":9360,
			"byteOffset":68268,
			"target":34962
		},
		{
			"buffer":0,
			"byteLength":6240,
			"byteOffset":77628,
			"target":34962
		},
		{
			"buffer":0,
			"byteLength":4632,
			"byteOffset":83868,
			"target":34963
		},
		{
			"buffer":0,
			"byteLength":12252,
			"byteOffset":88500,
			"target":34962
		},
		{
			"buffer":0,
			"byteLength":12252,
			"byteOffset":100752,
			"target":34962
		},
		{
			"buffer":0,
			"byteLength":8168,
			"byteOffset":113004,
			"target":34962
		},
		{
			"buffer":0,
			"byteLength":7680,
			"byteOffset":121172,
			"target":34963
		},
		{
			"buffer":0,
			"byteLength":3816,
			"byteOffset":128852,
			"target":34962
		},
		{
			"buffer":0,
			"byteLength":3816,
			"byteOffset":132668,
			"target":34962
		},
		{
			"buffer":0,
			"byteLength":2544,
			"byteOffset":136484,
			"target":34962
		},
		{
			"buffer":0,
			"byteLength":2064,
			"byteOffset":139028,
			"target":34963
		},
		{
			"buffer":0,
			"byteLength":14892,
			"byteOffset":141092,
			"target":34962
		},
		{
			"buffer":0,
			"byteLength":14892,
			"byteOffset":155984,
			"target":34962
		},
		{
			"buffer":0,
			"byteLength":9928,
			"byteOffset":170876,
			"target":34962
		},
		{
			"buffer":0,
			"byteLength":6840,
			"byteOffset":180804,
			"target":34963
		},
		{
			"buffer":0,
			"byteLength":2592,
			"byteOffset":187644,
			"target":34962
		},
		{
			"buffer":0,
			"byteLength":2592,
			"byteOffset":190236,
			"target":34962
		},
		{
			"buffer":0,
			"byteLength":1728,
			"byteOffset":192828,
			"target":34962
		},
		{
			"buffer":0,
			"byteLength":720,
			"byteOffset":194556,
			"target":34963
		},
		{
			"buffer":0,
			"byteLength":2820,
			"byteOffset":195276,
			"target":34962
		},
		{
			"buffer":0,
			"byteLength":2820,
			"byteOffset":198096,
			"target":34962
		},
		{
			"buffer":0,
			"byteLength":1880,
			"byteOffset":200916,
			"target":34962
		},
		{
			"buffer":0,
			"byteLength":1404,
			"byteOffset":202796,
			"target":34963
		},
		{
			"buffer":0,
			"byteLength":1716,
			"byteOffset":204200,
			"target":34962
		},
		{
			"buffer":0,
			"byteLength":1716,
			"byteOffset":205916,
			"target":34962
		},
		{
			"buffer":0,
			"byteLength":1144,
			"byteOffset":207632,
			"target":34962
		},
		{
			"buffer":0,
			"byteLength":696,
			"byteOffset":208776,
			"target":34963
		},
		{
			"buffer":0,
			"byteLength":15960,
			"byteOffset":209472,
			"target":34962
		},
		{
			"buffer":0,
			"byteLength":15960,
			"byteOffset":225432,
			"target":34962
		},
		{
			"buffer":0,
			"byteLength":10640,
			"byteOffset":241392,
			"target":34962
		},
		{
			"buffer":0,
			"byteLength":5520,
			"byteOffset":252032,
			"target":34963
		},
		{
			"buffer":0,
			"byteLength":96,
			"byteOffset":257552,
			"target":34962
		},
		{
			"buffer":0,
			"byteLength":96,
			"byteOffset":257648,
			"target":34962
		},
		{
			"buffer":0,
			"byteLength":64,
			"byteOffset":257744,
			"target":34962
		},
		{
			"buffer":0,
			"byteLength":24,
			"byteOffset":257808,
			"target":34963
		}
	],
	"samplers":[
		{
			"magFilter":9729,
			"minFilter":9987
		}
	],
	"buffers":[
		{
			"byteLength":257832,
			"uri":"sm_buidling_nonentry_02.bin"
		}
	]
}
